<?xml version="1.0" encoding="UTF-8" standalone="no"?>
<!-- Created with Inkscape (http://www.inkscape.org/) -->

<svg
   xmlns:dc="http://purl.org/dc/elements/1.1/"
   xmlns:cc="http://creativecommons.org/ns#"
   xmlns:rdf="http://www.w3.org/1999/02/22-rdf-syntax-ns#"
   xmlns:svg="http://www.w3.org/2000/svg"
   xmlns="http://www.w3.org/2000/svg"
   xmlns:sodipodi="http://sodipodi.sourceforge.net/DTD/sodipodi-0.dtd"
   xmlns:inkscape="http://www.inkscape.org/namespaces/inkscape"
   width="210mm"
   height="297mm"
   viewBox="0 0 744.09448819 1052.3622047"
   id="svg2"
   version="1.1"
   inkscape:version="0.91 r13725"
   sodipodi:docname="1.svg">
  <defs
     id="defs4" />
  <sodipodi:namedview
     id="base"
     pagecolor="#ffffff"
     bordercolor="#666666"
     borderopacity="1.0"
     inkscape:pageopacity="0.0"
     inkscape:pageshadow="2"
     inkscape:zoom="0.7"
     inkscape:cx="-47.265941"
     inkscape:cy="1082.4216"
     inkscape:document-units="px"
     inkscape:current-layer="g3459"
     showgrid="false"
     inkscape:window-width="1920"
     inkscape:window-height="1017"
     inkscape:window-x="-8"
     inkscape:window-y="-8"
     inkscape:window-maximized="1" />
  <metadata
     id="metadata7">
    <rdf:RDF>
      <cc:Work
         rdf:about="">
        <dc:format>image/svg+xml</dc:format>
        <dc:type
           rdf:resource="http://purl.org/dc/dcmitype/StillImage" />
        <dc:title />
      </cc:Work>
    </rdf:RDF>
  </metadata>
  <g
     inkscape:label="Layer 1"
     inkscape:groupmode="layer"
     id="layer1">
    <g
       id="g4244"
       transform="matrix(10.463086,0,0,10.463086,-1852.4595,-1923.2476)">
      <circle
         style="opacity:1;fill:#ffff00;fill-opacity:1;stroke:none;stroke-width:0;stroke-linecap:round;stroke-miterlimit:4;stroke-dasharray:none;stroke-dashoffset:0;stroke-opacity:1"
         id="circle3373-7"
         cx="181.53729"
         cy="-167.99091"
         r="0.52611917"
         transform="matrix(0,1,-1,0,0,0)" />
      <circle
         r="3.7683516"
         cy="-172.47743"
         cx="184.18777"
         id="circle3384"
         style="opacity:1;fill:#decd87;fill-opacity:1;stroke:none;stroke-width:0;stroke-linecap:round;stroke-miterlimit:4;stroke-dasharray:none;stroke-dashoffset:0;stroke-opacity:1"
         transform="matrix(0,1,-1,0,0,0)" />
      <path
         inkscape:connector-curvature="0"
         id="path3386"
         d="m 168.88394,183.29187 c 0,0 2.20512,-3.65224 2.79087,-3.44551 0.58573,0.20674 -2.41186,-1.17146 -2.72196,0.0344 -0.31009,1.20592 -0.0689,3.41105 -0.0689,3.41105 z"
         style="fill:#808000;fill-rule:evenodd;stroke:none;stroke-width:0.0955741px;stroke-linecap:butt;stroke-linejoin:miter;stroke-opacity:1" />
      <path
         style="fill:#808000;fill-rule:evenodd;stroke:none;stroke-width:0.0955741px;stroke-linecap:butt;stroke-linejoin:miter;stroke-opacity:1"
         d="m 168.88394,185.20303 c 0,0 2.20512,3.65224 2.79087,3.44551 0.58573,-0.20674 -2.41186,1.17147 -2.72196,-0.0344 -0.31009,-1.20593 -0.0689,-3.41106 -0.0689,-3.41106 z"
         id="path3388"
         inkscape:connector-curvature="0" />
      <circle
         style="opacity:1;fill:#666666;fill-opacity:1;stroke:none;stroke-width:0;stroke-linecap:round;stroke-miterlimit:4;stroke-dasharray:none;stroke-dashoffset:0;stroke-opacity:1"
         id="circle3390"
         cx="184.27391"
         cy="-172.56358"
         r="3.1653881"
         transform="matrix(0,1,-1,0,0,0)" />
      <circle
         r="2.5796521"
         cy="-172.66695"
         cx="184.37727"
         id="circle3392"
         style="opacity:1;fill:#808080;fill-opacity:1;stroke:none;stroke-width:0;stroke-linecap:round;stroke-miterlimit:4;stroke-dasharray:none;stroke-dashoffset:0;stroke-opacity:1"
         transform="matrix(0,1,-1,0,0,0)" />
      <circle
         style="opacity:1;fill:#cccccc;fill-opacity:1;stroke:none;stroke-width:0;stroke-linecap:round;stroke-miterlimit:4;stroke-dasharray:none;stroke-dashoffset:0;stroke-opacity:1"
         id="circle3394"
         cx="184.34283"
         cy="-172.63248"
         r="1.9594612"
         transform="matrix(0,1,-1,0,0,0)" />
      <circle
         r="1.4426353"
         cy="-172.62659"
         cx="184.37346"
         id="circle3396"
         style="opacity:1;fill:#ffffff;fill-opacity:1;stroke:none;stroke-width:0;stroke-linecap:round;stroke-miterlimit:4;stroke-dasharray:none;stroke-dashoffset:0;stroke-opacity:1"
         transform="matrix(0,1,-1,0,0,0)" />
      <circle
         r="0.52611917"
         cy="-167.99091"
         cx="187.01877"
         id="circle3398"
         style="opacity:1;fill:#ffff00;fill-opacity:1;stroke:none;stroke-width:0;stroke-linecap:round;stroke-miterlimit:4;stroke-dasharray:none;stroke-dashoffset:0;stroke-opacity:1"
         transform="matrix(0,1,-1,0,0,0)" />
      <g
         id="g3459"
         style="fill:#d3bc5f">
        <rect
           transform="matrix(0,1,-1,0,0,0)"
           style="opacity:1;fill:#d3bc5f;fill-opacity:1;stroke:none;stroke-width:0;stroke-linecap:round;stroke-miterlimit:4;stroke-dasharray:none;stroke-dashoffset:0;stroke-opacity:1"
           id="rect3355-4"
           width="3.4510853"
           height="20.343658"
           x="182.53317"
           y="-168.94037"
           rx="0.0029727232"
           ry="0.00033317987" />
        <path
           style="fill:#d3bc5f;fill-rule:evenodd;stroke:none;stroke-width:0.0955741px;stroke-linecap:butt;stroke-linejoin:miter;stroke-opacity:1"
           d="m 148.25691,181.31429 c 0,0 -0.92524,0.83611 -0.58586,1.59183 0.33937,0.75572 1.07478,1.47596 1.03079,0.47975 -0.0439,-0.99622 0.82243,-2.53498 0.47851,-2.65234 -0.3439,-0.11736 -0.92342,0.58076 -0.92342,0.58076 z"
           id="path3400"
           inkscape:connector-curvature="0" />
        <path
           inkscape:connector-curvature="0"
           id="path3402"
           d="m 148.2569,187.27622 c 0,0 -0.92523,-0.83612 -0.58585,-1.59184 0.33937,-0.75572 1.07479,-1.47595 1.03079,-0.47974 -0.0439,0.99622 0.82243,2.53497 0.47851,2.65233 -0.3439,0.11736 -0.92342,-0.58076 -0.92342,-0.58076 z"
           style="fill:#d3bc5f;fill-rule:evenodd;stroke:none;stroke-width:0.0955741px;stroke-linecap:butt;stroke-linejoin:miter;stroke-opacity:1" />
        <rect
           transform="matrix(0,1,-1,0,0,0)"
           style="opacity:1;fill:#d3bc5f;fill-opacity:1;stroke:none;stroke-width:0;stroke-linecap:round;stroke-miterlimit:4;stroke-dasharray:none;stroke-dashoffset:0;stroke-opacity:1"
           id="rect3404"
           width="2.745487"
           height="0.82768357"
           x="182.98083"
           y="-148.61862"
           rx="0.00028411538"
           ry="3.1843359e-005" />
        <circle
           style="fill:#ffffff"
           id="path3366"
           cx="183.8851"
           cy="180.96002"
           r="2.1261187" />
        <circle
           r="2.1261187"
           cy="187.67854"
           cx="183.54491"
           id="circle3368"
           style="fill:#ffffff" />
        <circle
           style="fill:#ffffff"
           id="circle3370"
           cx="193.32506"
           cy="176.19751"
           r="2.1261187" />
        <circle
           r="2.1261187"
           cy="192.01584"
           cx="193.32506"
           id="circle3372"
           style="fill:#ffffff" />
        <circle
           r="2.1261187"
           cy="180.96002"
           cx="204.0407"
           id="circle3376"
           style="fill:#ffffff" />
        <circle
           style="fill:#ffffff"
           id="circle3378"
           cx="203.70052"
           cy="187.67854"
           r="2.1261187" />
      </g>
      <g
         id="g3465"
         transform="matrix(0.44044364,0.44044364,-0.44044364,0.44044364,164.72774,25.367521)"
         style="fill:#d4aa00">
        <path
           style="fill:#d4aa00;fill-rule:evenodd;stroke:none;stroke-width:0.0955741px;stroke-linecap:butt;stroke-linejoin:miter;stroke-opacity:1"
           d="m 171.27702,193.46043 -4.49437,-3.35792 -0.26752,0.28262 4.42643,3.41705 z"
           id="path3467"
           inkscape:connector-curvature="0" />
        <path
           style="fill:#d4aa00;fill-rule:evenodd;stroke:none;stroke-width:0.0955741px;stroke-linecap:butt;stroke-linejoin:miter;stroke-opacity:1"
           d="m 169.53975,195.1977 -4.49437,-3.35792 -0.26753,0.28263 4.42644,3.41704 z"
           id="path3469"
           inkscape:connector-curvature="0" />
        <path
           style="fill:#d4aa00;fill-rule:evenodd;stroke:none;stroke-width:0.0955741px;stroke-linecap:butt;stroke-linejoin:miter;stroke-opacity:1"
           d="m 167.87486,196.86259 -4.49437,-3.35792 -0.26752,0.28262 4.42643,3.41705 z"
           id="path3471"
           inkscape:connector-curvature="0" />
        <path
           style="fill:#d4aa00;fill-rule:evenodd;stroke:none;stroke-width:0.0955741px;stroke-linecap:butt;stroke-linejoin:miter;stroke-opacity:1"
           d="m 166.20997,198.52747 -4.49437,-3.35791 -0.26752,0.28262 4.42644,3.41705 z"
           id="path3473"
           inkscape:connector-curvature="0" />
        <path
           style="fill:#d4aa00;fill-rule:evenodd;stroke:none;stroke-width:0.0955741px;stroke-linecap:butt;stroke-linejoin:miter;stroke-opacity:1"
           d="m 164.93597,199.80147 -4.49437,-3.35791 -0.26752,0.28262 4.42644,3.41705 z"
           id="path3475"
           inkscape:connector-curvature="0" />
        <path
           sodipodi:nodetypes="cccccc"
           style="fill:#d4aa00;fill-rule:evenodd;stroke:none;stroke-width:0.0955741px;stroke-linecap:butt;stroke-linejoin:miter;stroke-opacity:1"
           d="m 172.06125,191.51568 -3.74401,-2.94776 -0.26752,0.28262 4.42644,3.41704 0.1774,-0.15034 z"
           id="path3477"
           inkscape:connector-curvature="0" />
        <path
           inkscape:connector-curvature="0"
           id="path3479"
           d="m 180.50793,184.22951 -4.49437,-3.35791 -0.26752,0.28262 4.42643,3.41705 z"
           style="fill:#d4aa00;fill-rule:evenodd;stroke:none;stroke-width:0.0955741px;stroke-linecap:butt;stroke-linejoin:miter;stroke-opacity:1" />
        <path
           inkscape:connector-curvature="0"
           id="path3481"
           d="m 178.77066,185.96679 -4.49437,-3.35792 -0.26752,0.28262 4.42643,3.41705 z"
           style="fill:#d4aa00;fill-rule:evenodd;stroke:none;stroke-width:0.0955741px;stroke-linecap:butt;stroke-linejoin:miter;stroke-opacity:1" />
        <path
           inkscape:connector-curvature="0"
           id="path3483"
           d="m 177.10577,187.63168 -4.49437,-3.35792 -0.26752,0.28262 4.42644,3.41705 z"
           style="fill:#d4aa00;fill-rule:evenodd;stroke:none;stroke-width:0.0955741px;stroke-linecap:butt;stroke-linejoin:miter;stroke-opacity:1" />
        <path
           inkscape:connector-curvature="0"
           id="path3485"
           d="m 175.44088,189.29656 -4.49437,-3.35791 -0.26752,0.28262 4.42644,3.41705 z"
           style="fill:#d4aa00;fill-rule:evenodd;stroke:none;stroke-width:0.0955741px;stroke-linecap:butt;stroke-linejoin:miter;stroke-opacity:1" />
        <path
           inkscape:connector-curvature="0"
           id="path3487"
           d="m 174.16689,190.57056 -4.49438,-3.35792 -0.26752,0.28263 4.42644,3.41705 z"
           style="fill:#d4aa00;fill-rule:evenodd;stroke:none;stroke-width:0.0955741px;stroke-linecap:butt;stroke-linejoin:miter;stroke-opacity:1" />
        <path
           inkscape:connector-curvature="0"
           id="path3489"
           d="m 181.29216,182.28477 -3.74401,-2.94776 -0.26752,0.28262 4.42644,3.41704 0.17741,-0.15034 z"
           style="fill:#d4aa00;fill-rule:evenodd;stroke:none;stroke-width:0.0955741px;stroke-linecap:butt;stroke-linejoin:miter;stroke-opacity:1"
           sodipodi:nodetypes="cccccc" />
        <path
           style="fill:#d4aa00;fill-rule:evenodd;stroke:none;stroke-width:0.0955741px;stroke-linecap:butt;stroke-linejoin:miter;stroke-opacity:1"
           d="m 186.18023,178.55722 -4.49438,-3.35792 -0.26752,0.28263 4.42644,3.41705 z"
           id="path3491"
           inkscape:connector-curvature="0" />
        <path
           style="fill:#d4aa00;fill-rule:evenodd;stroke:none;stroke-width:0.0955741px;stroke-linecap:butt;stroke-linejoin:miter;stroke-opacity:1"
           d="m 184.51534,180.22211 -4.49437,-3.35792 -0.26752,0.28262 4.42643,3.41705 z"
           id="path3493"
           inkscape:connector-curvature="0" />
        <path
           style="fill:#d4aa00;fill-rule:evenodd;stroke:none;stroke-width:0.0955741px;stroke-linecap:butt;stroke-linejoin:miter;stroke-opacity:1"
           d="m 183.24134,181.49611 -4.49437,-3.35792 -0.26752,0.28262 4.42643,3.41705 z"
           id="path3495"
           inkscape:connector-curvature="0" />
      </g>
    </g>
  </g>
</svg>
