<?xml version="1.0" encoding="UTF-8" standalone="no"?>
<!-- Created with Inkscape (http://www.inkscape.org/) -->

<svg
   xmlns:dc="http://purl.org/dc/elements/1.1/"
   xmlns:cc="http://creativecommons.org/ns#"
   xmlns:rdf="http://www.w3.org/1999/02/22-rdf-syntax-ns#"
   xmlns:svg="http://www.w3.org/2000/svg"
   xmlns="http://www.w3.org/2000/svg"
   xmlns:sodipodi="http://sodipodi.sourceforge.net/DTD/sodipodi-0.dtd"
   xmlns:inkscape="http://www.inkscape.org/namespaces/inkscape"
   width="210mm"
   height="297mm"
   viewBox="0 0 210 297"
   version="1.1"
   id="svg8"
   inkscape:version="0.91 r13725"
   sodipodi:docname="dead tree.svg">
  <defs
     id="defs2" />
  <sodipodi:namedview
     id="base"
     pagecolor="#ffffff"
     bordercolor="#666666"
     borderopacity="1.0"
     inkscape:pageopacity="0.0"
     inkscape:pageshadow="2"
     inkscape:zoom="0.175"
     inkscape:cx="-907.04866"
     inkscape:cy="1852.4304"
     inkscape:document-units="mm"
     inkscape:current-layer="layer1"
     showgrid="false"
     inkscape:window-width="1920"
     inkscape:window-height="1017"
     inkscape:window-x="-8"
     inkscape:window-y="-8"
     inkscape:window-maximized="1" />
  <metadata
     id="metadata5">
    <rdf:RDF>
      <cc:Work
         rdf:about="">
        <dc:format>image/svg+xml</dc:format>
        <dc:type
           rdf:resource="http://purl.org/dc/dcmitype/StillImage" />
        <dc:title />
      </cc:Work>
    </rdf:RDF>
  </metadata>
  <g
     inkscape:label="Layer 1"
     inkscape:groupmode="layer"
     id="layer1">
    <rect
       style="fill:#784421;stroke-width:1.2279346"
       id="rect3699"
       width="284.96213"
       height="98.178757"
       x="-214.23438"
       y="-11.315952"
       transform="matrix(0,-1,-1,0,0,0)" />
    <ellipse
       ry="48.895348"
       rx="31.860989"
       cy="37.657009"
       cx="-212.31261"
       id="ellipse3705"
       style="fill:#784421;stroke-width:0.45992604"
       transform="matrix(0,-1,-1,0,0,0)" />
    <rect
       style="fill:#784421;stroke-width:1.2279346"
       id="rect3355"
       width="195.44205"
       height="67.336166"
       x="38.117359"
       y="-101.30307"
       transform="matrix(0.70710678,-0.70710678,0.70710678,0.70710678,0,0)" />
    <ellipse
       ry="33.535011"
       rx="21.851946"
       cy="-67.714828"
       cx="39.435406"
       id="ellipse3361"
       style="fill:#784421;stroke-width:0.45992604"
       transform="matrix(0.70710678,-0.70710678,0.70710678,0.70710678,0,0)" />
    <g
       id="g3377"
       transform="matrix(0.18794677,0.05036019,-0.09713388,0.36250858,130.2341,-293.59003)">
      <rect
         transform="matrix(0,-1,-1,0,0,0)"
         y="-115.49148"
         x="-177.52667"
         height="227.73572"
         width="342.70258"
         id="rect3379"
         style="fill:#784421;stroke-width:1.2279346" />
      <ellipse
         transform="matrix(0,-1,-1,0,0,0)"
         ry="113.41779"
         rx="38.316822"
         cy="-1.983675"
         cx="165.96233"
         id="ellipse3381"
         style="fill:#a05a2c;stroke-width:0.45992604" />
      <ellipse
         transform="matrix(0,-1,-1,0,0,0)"
         style="fill:#c87137;stroke-width:0.32194823"
         id="ellipse3383"
         cx="168.26132"
         cy="1.3882046"
         rx="26.821775"
         ry="79.392456" />
      <ellipse
         transform="matrix(0,-1,-1,0,0,0)"
         style="fill:#784421;stroke-width:0.45992604"
         id="ellipse3385"
         cx="-175.2155"
         cy="-1.8936596"
         rx="38.316822"
         ry="113.41779" />
    </g>
    <g
       transform="matrix(0.05036019,-0.18794677,-0.36250858,-0.09713388,189.52998,-190.88657)"
       id="g3387">
      <rect
         style="fill:#784421;stroke-width:1.2279346"
         id="rect3389"
         width="342.70258"
         height="227.73572"
         x="-177.52667"
         y="-115.49148"
         transform="matrix(0,-1,-1,0,0,0)" />
      <ellipse
         style="fill:#a05a2c;stroke-width:0.45992604"
         id="ellipse3391"
         cx="165.96233"
         cy="-1.983675"
         rx="38.316822"
         ry="113.41779"
         transform="matrix(0,-1,-1,0,0,0)" />
      <ellipse
         ry="79.392456"
         rx="26.821775"
         cy="1.3882046"
         cx="168.26132"
         id="ellipse3393"
         style="fill:#c87137;stroke-width:0.32194823"
         transform="matrix(0,-1,-1,0,0,0)" />
      <ellipse
         ry="113.41779"
         rx="38.316822"
         cy="-1.8936596"
         cx="-175.2155"
         id="ellipse3395"
         style="fill:#784421;stroke-width:0.45992604"
         transform="matrix(0,-1,-1,0,0,0)" />
    </g>
    <rect
       transform="matrix(-0.70710678,-0.70710678,-0.70710678,0.70710678,0,0)"
       y="-50.53336"
       x="88.887054"
       height="67.336166"
       width="195.44205"
       id="rect3401"
       style="fill:#784421;stroke-width:1.2279346" />
    <ellipse
       transform="matrix(-0.70710678,-0.70710678,-0.70710678,0.70710678,0,0)"
       style="fill:#784421;stroke-width:0.45992604"
       id="ellipse3403"
       cx="90.205124"
       cy="-16.945105"
       rx="21.851946"
       ry="33.535011" />
    <g
       transform="matrix(-0.18794677,0.05036019,0.09713388,0.36250858,-202.03333,-293.59003)"
       id="g3405">
      <rect
         style="fill:#784421;stroke-width:1.2279346"
         id="rect3407"
         width="342.70258"
         height="227.73572"
         x="-177.52667"
         y="-115.49148"
         transform="matrix(0,-1,-1,0,0,0)" />
      <ellipse
         style="fill:#a05a2c;stroke-width:0.45992604"
         id="ellipse3409"
         cx="165.96233"
         cy="-1.983675"
         rx="38.316822"
         ry="113.41779"
         transform="matrix(0,-1,-1,0,0,0)" />
      <ellipse
         ry="79.392456"
         rx="26.821775"
         cy="1.3882046"
         cx="168.26132"
         id="ellipse3411"
         style="fill:#c87137;stroke-width:0.32194823"
         transform="matrix(0,-1,-1,0,0,0)" />
      <ellipse
         ry="113.41779"
         rx="38.316822"
         cy="-1.8936596"
         cx="-175.2155"
         id="ellipse3413"
         style="fill:#784421;stroke-width:0.45992604"
         transform="matrix(0,-1,-1,0,0,0)" />
      <ellipse
         transform="matrix(-0.23379691,-0.97228545,-0.99359029,-0.11304128,0,0)"
         style="fill:#784421;stroke-width:0.32194823"
         id="ellipse3425"
         cx="-233.44473"
         cy="-15.524574"
         rx="64.149483"
         ry="105.56494" />
    </g>
  </g>
</svg>
