<?xml version="1.0" encoding="UTF-8" standalone="no"?>
<!-- Created with Inkscape (http://www.inkscape.org/) -->

<svg
   xmlns:dc="http://purl.org/dc/elements/1.1/"
   xmlns:cc="http://creativecommons.org/ns#"
   xmlns:rdf="http://www.w3.org/1999/02/22-rdf-syntax-ns#"
   xmlns:svg="http://www.w3.org/2000/svg"
   xmlns="http://www.w3.org/2000/svg"
   xmlns:sodipodi="http://sodipodi.sourceforge.net/DTD/sodipodi-0.dtd"
   xmlns:inkscape="http://www.inkscape.org/namespaces/inkscape"
   width="210mm"
   height="297mm"
   viewBox="0 0 744.09448819 1052.3622047"
   id="svg4897"
   version="1.1"
   inkscape:version="0.91 r13725"
   sodipodi:docname="rock.svg">
  <defs
     id="defs4899" />
  <sodipodi:namedview
     id="base"
     pagecolor="#ffffff"
     bordercolor="#666666"
     borderopacity="1.0"
     inkscape:pageopacity="0.0"
     inkscape:pageshadow="2"
     inkscape:zoom="0.49497475"
     inkscape:cx="-912.50126"
     inkscape:cy="747.16894"
     inkscape:document-units="px"
     inkscape:current-layer="layer1"
     showgrid="false"
     inkscape:window-width="1920"
     inkscape:window-height="1017"
     inkscape:window-x="-8"
     inkscape:window-y="-8"
     inkscape:window-maximized="1" />
  <metadata
     id="metadata4902">
    <rdf:RDF>
      <cc:Work
         rdf:about="">
        <dc:format>image/svg+xml</dc:format>
        <dc:type
           rdf:resource="http://purl.org/dc/dcmitype/StillImage" />
        <dc:title />
      </cc:Work>
    </rdf:RDF>
  </metadata>
  <g
     inkscape:label="Layer 1"
     inkscape:groupmode="layer"
     id="layer1">
    <path
       style="fill:#808080;fill-rule:evenodd;stroke:none;stroke-width:1px;stroke-linecap:butt;stroke-linejoin:miter;stroke-opacity:1"
       d="m -59.800239,-336.35223 c -70.586291,-13.64928 -151.876551,-28.2731 -213.937391,18.53784 -55.46465,31.15786 -15.00391,89.44447 -5.8249,131.10116 -9.16926,43.71532 -50.49189,72.15976 -59.63746,116.65844 -20.34933,62.2511562 -28.47099,128.563619 -29.78798,193.67973 13.07622,80.00936 99.57828,113.33617 171.23347,119.75367 75.35106,4.92511 144.746744,69.22325 220.142939,74.68359 C 125.92218,318.06254 235.51686,243.3118 339.05063,243.31094 428.21809,182.69646 452.24192,46.596886 395.87406,-43.497052 352.03921,-108.81711 272.45303,-129.33212 208.51055,-167.47583 154.62637,-203.7682 109.90805,-252.60479 52.814144,-284.307 25.634708,-317.78029 -17.991003,-333.02185 -59.800239,-336.35226 Z"
       id="path5447"
       inkscape:connector-curvature="0"
       sodipodi:nodetypes="ccccccccccccc" />
  </g>
</svg>
