<?xml version="1.0" encoding="UTF-8" standalone="no"?>
<!-- Created with Inkscape (http://www.inkscape.org/) -->

<svg
   xmlns:dc="http://purl.org/dc/elements/1.1/"
   xmlns:cc="http://creativecommons.org/ns#"
   xmlns:rdf="http://www.w3.org/1999/02/22-rdf-syntax-ns#"
   xmlns:svg="http://www.w3.org/2000/svg"
   xmlns="http://www.w3.org/2000/svg"
   xmlns:sodipodi="http://sodipodi.sourceforge.net/DTD/sodipodi-0.dtd"
   xmlns:inkscape="http://www.inkscape.org/namespaces/inkscape"
   width="210mm"
   height="297mm"
   viewBox="0 0 744.09448819 1052.3622047"
   id="svg4897"
   version="1.1"
   inkscape:version="0.91 r13725"
   sodipodi:docname="tablet.svg">
  <defs
     id="defs4899" />
  <sodipodi:namedview
     id="base"
     pagecolor="#ffffff"
     bordercolor="#666666"
     borderopacity="1.0"
     inkscape:pageopacity="0.0"
     inkscape:pageshadow="2"
     inkscape:zoom="0.35"
     inkscape:cx="-665.76623"
     inkscape:cy="1299.203"
     inkscape:document-units="px"
     inkscape:current-layer="layer1"
     showgrid="false"
     inkscape:window-width="1920"
     inkscape:window-height="1017"
     inkscape:window-x="-8"
     inkscape:window-y="-8"
     inkscape:window-maximized="1" />
  <metadata
     id="metadata4902">
    <rdf:RDF>
      <cc:Work
         rdf:about="">
        <dc:format>image/svg+xml</dc:format>
        <dc:type
           rdf:resource="http://purl.org/dc/dcmitype/StillImage" />
        <dc:title />
      </cc:Work>
    </rdf:RDF>
  </metadata>
  <g
     inkscape:label="Layer 1"
     inkscape:groupmode="layer"
     id="layer1">
    <path
       style="fill:#808080;fill-rule:evenodd;stroke:none;stroke-width:1px;stroke-linecap:butt;stroke-linejoin:miter;stroke-opacity:1"
       d="m -45.514525,-476.35223 c -70.586295,-13.64928 -66.162265,-28.2731 -128.223105,18.53784 -55.46465,31.15786 -100.7182,89.44447 -91.53919,131.10116 -9.16926,43.71532 -64.7776,212.15976 -73.92317,256.65844 -20.34933,62.2511562 -28.47099,128.563619 -29.78798,193.67973 13.07622,80.00936 99.57828,113.33617 171.23347,119.75367 75.35106,4.92511 144.746744,69.22325 220.142939,74.68359 103.533741,3.4e-4 213.128421,-74.7504 316.662191,-74.75126 89.16746,-60.61448 113.19129,-196.714054 56.82343,-286.807992 -43.83485,-65.320058 -11.99246,-228.692208 -75.93494,-266.835918 -53.88418,-36.29237 -27.17393,-87.9861 -84.26783,-119.68831 -27.17944,-33.47329 -147.948008,-40.14343 -189.757244,-43.47384 z"
       id="path5447"
       inkscape:connector-curvature="0"
       sodipodi:nodetypes="ccccccccccccc" />
    <path
       style="fill:#000000;fill-rule:evenodd;stroke:none;stroke-width:1px;stroke-linecap:butt;stroke-linejoin:miter;stroke-opacity:1"
       d="m -235.71428,-291.9235 c 0,0 45.71428,22.85714 62.85714,8.57143 17.14286,-14.28572 14.28572,-22.85715 25.71429,-17.14286 11.42857,5.71429 25.71428,37.14286 25.71428,37.14286 0,0 45.000007,-5.00001 55.714287,-22.14286 8.56608,-13.70573 10,-72.14286 27.14285,-46.42857 17.14286,25.71428 -22.85714,28.57143 -11.42857,28.57143 11.42857,0 31.42857,34.28571 48.57143,31.42857 17.14286,-2.85714 45.71429,0 62.85714,-22.85714 17.14286,-22.85715 14.28572,20 31.42858,22.85714 17.142853,2.85714 51.428573,-22.85714 51.428573,-22.85714 l -28.57143,-2.85715 -8.57143,12.85715 -34.347293,-23.23892 -56.36893,27.48755 -45.74949,-23.42662 c 8.6711,-23.7384 -7.13376,-42.0218 -19.61732,-36.47317 -14.29918,6.35563 -20.53236,47.20198 -20.53236,47.20198 0,0 -31.424917,38.85871 -46.959507,12.24054 -18.03267,-30.89856 -36.0443,-38.18448 -80.52397,-8.63647 -18.10182,12.02511 -29.65639,-4.46503 -38.75827,-2.29775 z"
       id="path3334"
       inkscape:connector-curvature="0"
       sodipodi:nodetypes="csscssssssccccccscssc" />
    <path
       sodipodi:nodetypes="csscssssssccccccscssc"
       inkscape:connector-curvature="0"
       id="path3336"
       d="m 338.57143,-181.9235 c 0,0 -45.71428,22.85714 -62.85714,8.57143 -17.14286,-14.28572 -14.28572,-22.85715 -25.71429,-17.14286 -11.42857,5.71429 -25.71428,37.14286 -25.71428,37.14286 0,0 -45,-5.00001 -55.71428,-22.14286 -8.56608,-13.70573 -10,-72.14286 -27.14285,-46.42857 -17.14286,25.71428 22.85714,28.57143 11.42857,28.57143 -11.42857,0 -31.42857,34.28571 -48.57143,31.42857 -17.142867,-2.85714 -45.714297,0 -62.857147,-22.85714 -17.14286,-22.85715 -14.28572,20 -31.42858,22.85714 -17.1428499,2.85714 -51.42857,-22.85714 -51.42857,-22.85714 l 28.57143,-2.85715 8.5714301,12.85715 34.3472899,-23.23892 56.36893,27.48755 45.749497,-23.42662 c -8.6711,-23.7384 7.13376,-42.0218 19.61732,-36.47317 14.29918,6.35563 20.53236,47.20198 20.53236,47.20198 0,0 31.42491,38.85871 46.9595,12.24054 18.03267,-30.89856 36.0443,-38.18448 80.52397,-8.63647 18.10182,12.02511 29.65639,-4.46503 38.75827,-2.29775 z"
       style="fill:#000000;fill-rule:evenodd;stroke:none;stroke-width:1px;stroke-linecap:butt;stroke-linejoin:miter;stroke-opacity:1" />
    <path
       style="fill:#000000;fill-rule:evenodd;stroke:none;stroke-width:1px;stroke-linecap:butt;stroke-linejoin:miter;stroke-opacity:1"
       d="m 117.14286,-80.003248 c 0,0 -45.714281,-22.857142 -62.857141,-8.571428 -17.14286,14.285718 -14.28572,22.857148 -25.71429,17.142858 -11.42857,-5.71429 -25.7142795,-37.142862 -25.7142795,-37.142862 0,0 -45.0000005,5.00001 -55.7142805,22.142864 -8.56608,13.705728 -10,72.142856 -27.14285,46.428566 -17.14286,-25.714278 22.85714,-28.571428 11.42857,-28.571428 -11.42857,0 -31.42857,-34.285712 -48.571429,-31.428572 -17.14287,2.857144 -45.7143,0 -62.85715,22.857142 -17.14286,22.85715 -14.28572,-19.999998 -31.42858,-22.857142 -17.14285,-2.85714 -51.42857,22.857142 -51.42857,22.857142 l 28.57143,2.85715 8.57143,-12.857148 34.34729,23.238918 56.36893,-27.487548 45.749499,23.426618 c -8.6711,23.738398 7.13376,42.021798 19.61732,36.473168 14.29918,-6.35563 20.53236,-47.201978 20.53236,-47.201978 0,0 31.424911,-38.858712 46.9595009,-12.240538 18.0326691,30.898558 36.0442991,38.184476 80.5239691,8.636468 18.101822,-12.025108 29.656391,4.46503 38.758271,2.29775 z"
       id="path3338"
       inkscape:connector-curvature="0"
       sodipodi:nodetypes="csscssssssccccccscssc" />
    <path
       sodipodi:nodetypes="csscssssssccccccscssc"
       inkscape:connector-curvature="0"
       id="path3340"
       d="m -21.428567,48.076498 c 0,0 45.71428,22.85714 62.85714,8.57143 17.14286,-14.28572 14.28572,-22.85715 25.71429,-17.14286 11.42857,5.71429 25.71428,37.14286 25.71428,37.14286 0,0 45.000007,-5.00001 55.714287,-22.14286 8.56608,-13.70573 10,-72.14286 27.14285,-46.4285701 17.14286,25.7142801 -22.85714,28.5714301 -11.42857,28.5714301 11.42857,0 31.42857,34.28571 48.57143,31.42857 17.14286,-2.85714 45.71429,0 62.85714,-22.85714 17.14286,-22.85715 14.28572,20 31.42858,22.85714 17.14285,2.85714 51.42857,-22.85714 51.42857,-22.85714 L 330,42.362208 l -8.57143,12.85715 -34.34729,-23.23892 -56.36893,27.48755 -45.74949,-23.42662 C 193.63396,12.302968 177.8291,-5.9804321 165.34554,-0.43180209 151.04636,5.9238279 144.81318,46.770178 144.81318,46.770178 c 0,0 -31.42492,38.85871 -46.959507,12.24054 -18.03267,-30.89856 -36.0443,-38.18448 -80.52397,-8.63647 -18.10182003,12.02511 -29.65639,-4.46503 -38.75827,-2.29775 z"
       style="fill:#000000;fill-rule:evenodd;stroke:none;stroke-width:1px;stroke-linecap:butt;stroke-linejoin:miter;stroke-opacity:1" />
    <path
       style="fill:#000000;fill-rule:evenodd;stroke:none;stroke-width:1px;stroke-linecap:butt;stroke-linejoin:miter;stroke-opacity:1"
       d="m 91.428574,145.21936 c 0,0 -45.71428,22.85714 -62.85714,8.57143 -17.14286,-14.28572 -14.28572,-22.85715 -25.7142896,-17.14286 -11.42857,5.71429 -25.7142804,37.14286 -25.7142804,37.14286 0,0 -45,-5.00001 -55.71428,-22.14286 -8.56608,-13.70573 -10,-72.142865 -27.142854,-46.42857 -17.14286,25.71428 22.857144,28.57143 11.428574,28.57143 -11.428574,0 -31.428574,34.28571 -48.571434,31.42857 -17.14286,-2.85714 -45.71429,0 -62.85714,-22.85714 -17.14286,-22.85715 -14.28572,20 -31.42858,22.85714 -17.14285,2.85714 -51.42857,-22.85714 -51.42857,-22.85714 l 28.57143,-2.85715 8.57143,12.85715 34.34729,-23.23892 56.36893,27.48755 45.74949,-23.42662 c -8.6711,-23.7384 7.13376,-42.021805 19.617324,-36.473175 14.29918,6.355635 20.53236,47.201985 20.53236,47.201985 0,0 31.42491,38.85871 46.9595,12.24054 18.0326704,-30.89856 36.0443004,-38.18448 80.52397,-8.63647 18.10182,12.02511 29.65639,-4.46503 38.75827,-2.29775 z"
       id="path3342"
       inkscape:connector-curvature="0"
       sodipodi:nodetypes="csscssssssccccccscssc" />
  </g>
</svg>
