<?xml version="1.0" encoding="UTF-8" standalone="no"?>
<!-- Created with Inkscape (http://www.inkscape.org/) -->

<svg
   xmlns:dc="http://purl.org/dc/elements/1.1/"
   xmlns:cc="http://creativecommons.org/ns#"
   xmlns:rdf="http://www.w3.org/1999/02/22-rdf-syntax-ns#"
   xmlns:svg="http://www.w3.org/2000/svg"
   xmlns="http://www.w3.org/2000/svg"
   xmlns:sodipodi="http://sodipodi.sourceforge.net/DTD/sodipodi-0.dtd"
   xmlns:inkscape="http://www.inkscape.org/namespaces/inkscape"
   width="210mm"
   height="297mm"
   viewBox="0 0 210 297"
   version="1.1"
   id="svg8"
   inkscape:version="0.91 r13725"
   sodipodi:docname="1.svg">
  <defs
     id="defs2" />
  <sodipodi:namedview
     id="base"
     pagecolor="#ffffff"
     bordercolor="#666666"
     borderopacity="1.0"
     inkscape:pageopacity="0.0"
     inkscape:pageshadow="2"
     inkscape:zoom="0.175"
     inkscape:cx="115.51759"
     inkscape:cy="1114.8236"
     inkscape:document-units="mm"
     inkscape:current-layer="layer1"
     showgrid="false"
     inkscape:window-width="1920"
     inkscape:window-height="1017"
     inkscape:window-x="-8"
     inkscape:window-y="-8"
     inkscape:window-maximized="1"
     inkscape:snap-global="false" />
  <metadata
     id="metadata5">
    <rdf:RDF>
      <cc:Work
         rdf:about="">
        <dc:format>image/svg+xml</dc:format>
        <dc:type
           rdf:resource="http://purl.org/dc/dcmitype/StillImage" />
        <dc:title />
      </cc:Work>
    </rdf:RDF>
  </metadata>
  <g
     inkscape:label="Layer 1"
     inkscape:groupmode="layer"
     id="layer1">
    <path
       style="fill:#483737;stroke:none;stroke-width:0.22599688px;stroke-linecap:butt;stroke-linejoin:miter;stroke-opacity:1"
       d="m -67.608943,-102.00587 c 0,0 46.97379,-36.65956 70.4606942,-36.65956 23.4868958,0 70.4606858,36.65956 70.4606858,36.65956 v 222.29732 c 0,0 -46.97379,46.79946 -70.4606858,46.79946 -23.4869042,0 -70.4606942,-46.79946 -70.4606942,-46.79946 z"
       id="path3807"
       inkscape:connector-curvature="0"
       sodipodi:nodetypes="csccscc" />
    <g
       id="g3815"
       transform="matrix(2.0918608,0,0,2.0918608,1037.0241,-327.56936)"
       style="fill:#483737">
      <path
         inkscape:connector-curvature="0"
         id="path3809"
         d="m -505.69505,230.06363 c 0,0 2.81381,22.2068 -14.15396,49.34327 -18.65618,29.83673 -53.69705,85.08138 -28.26882,64.9969 16.86347,-13.3196 42.79038,-59.29365 50.37015,-73.74529 6.48069,-12.35613 10.42877,-43.04621 10.42877,-43.04621 z"
         style="fill:#6c5353;stroke:none;stroke-width:0.26458332px;stroke-linecap:butt;stroke-linejoin:miter;stroke-opacity:1"
         sodipodi:nodetypes="cssscc" />
    </g>
    <circle
       style="fill:#483737;stroke:none;stroke-width:0.26458332"
       id="path3817"
       cx="3.8223391"
       cy="-142.9418"
       r="63.075611" />
    <path
       style="fill:#483737;stroke:none;stroke-width:0.40650892px;stroke-linecap:butt;stroke-linejoin:miter;stroke-opacity:1"
       d="m -53.056203,-168.67125 57.2016136,0 57.2015864,0 c 0,0 -29.47345,-60.39561 -57.2016064,-60.39561 -27.7281436,0 -57.2015936,60.39561 -57.2015936,60.39561 z"
       id="path3876"
       inkscape:connector-curvature="0"
       sodipodi:nodetypes="cccsc" />
    <path
       sodipodi:nodetypes="cccsc"
       inkscape:connector-curvature="0"
       id="path3954"
       d="m -53.056203,-168.67125 57.2016136,0 57.2015864,0 c 0,0 -29.47345,-55.8599 -57.2016064,-55.8599 -27.7281436,0 -57.2015936,55.8599 -57.2015936,55.8599 z"
       style="fill:#ff0000;stroke:none;stroke-width:0.39094663px;stroke-linecap:butt;stroke-linejoin:miter;stroke-opacity:1" />
    <path
       style="fill:#483737;stroke:none;stroke-width:0.36353201px;stroke-linecap:butt;stroke-linejoin:miter;stroke-opacity:1"
       d="m -53.056203,-168.10681 57.2016136,0 57.2015864,0 c 0,0 -29.47345,-50.51783 -57.2016064,-50.51783 -27.7281436,0 -57.2015936,50.51783 -57.2015936,50.51783 z"
       id="path3956"
       inkscape:connector-curvature="0"
       sodipodi:nodetypes="cccsc" />
    <circle
       style="fill:#fff6d5;stroke:none;stroke-width:0.26458332"
       id="path3958"
       cx="18.786898"
       cy="-218.25671"
       r="1.8898809" />
    <circle
       style="fill:#fff6d5;stroke:none;stroke-width:0.26458332"
       id="path3960"
       cx="8.2035685"
       cy="-220.90256"
       r="3.4017859" />
    <ellipse
       style="fill:#fff6d5;stroke:none;stroke-width:0.26458332"
       id="path3962"
       cx="-10.695239"
       cy="-216.99951"
       rx="2.6458333"
       ry="4.2810483" />
    <ellipse
       style="fill:#fff6d5;stroke:none;stroke-width:0.26458332"
       id="path3964"
       cx="0.077066034"
       cy="-224.30435"
       rx="3.96875"
       ry="3.0238097" />
    <ellipse
       style="fill:#fff6d5;stroke:none;stroke-width:0.26458332"
       id="path3966"
       cx="15.574069"
       cy="-226.5722"
       rx="3.2127976"
       ry="3.0238097" />
    <g
       id="g3972"
       transform="matrix(1,0,0,1.2998775,486.34339,111.0032)"
       style="fill:#241c1c">
      <ellipse
         ry="10.939055"
         rx="11.759859"
         cy="-216.40576"
         cx="-508.88116"
         id="ellipse3968"
         style="fill:#241c1c;stroke:none;stroke-width:0.30904165" />
      <path
         inkscape:transform-center-y="2.6726978"
         inkscape:transform-center-x="-6.384164e-006"
         d="m -508.9136,-194.5735 -4.62925,-8.01809 -4.62924,-8.01808 9.25849,0 9.25848,0 -4.62924,8.01808 z"
         inkscape:randomized="0"
         inkscape:rounded="0"
         inkscape:flatsided="false"
         sodipodi:arg2="2.6179939"
         sodipodi:arg1="1.5707963"
         sodipodi:r2="5.3453903"
         sodipodi:r1="10.690781"
         sodipodi:cy="-205.26428"
         sodipodi:cx="-508.9136"
         sodipodi:sides="3"
         id="path3970"
         style="fill:#241c1c;stroke:none;stroke-width:0.26458332"
         sodipodi:type="star" />
    </g>
    <g
       id="g3978"
       transform="matrix(0.87312873,0,0,1.1349604,421.64536,75.966766)"
       style="fill:#916f6f">
      <ellipse
         style="fill:#916f6f;stroke:none;stroke-width:0.30904165"
         id="ellipse3974"
         cx="-508.88116"
         cy="-216.40576"
         rx="11.759859"
         ry="10.939055" />
      <path
         sodipodi:type="star"
         style="fill:#916f6f;stroke:none;stroke-width:0.26458332"
         id="path3976"
         sodipodi:sides="3"
         sodipodi:cx="-508.9136"
         sodipodi:cy="-205.26428"
         sodipodi:r1="10.690781"
         sodipodi:r2="5.3453903"
         sodipodi:arg1="1.5707963"
         sodipodi:arg2="2.6179939"
         inkscape:flatsided="false"
         inkscape:rounded="0"
         inkscape:randomized="0"
         d="m -508.9136,-194.5735 -4.62925,-8.01809 -4.62924,-8.01808 9.25849,0 9.25848,0 -4.62924,8.01808 z"
         inkscape:transform-center-x="-6.384164e-006"
         inkscape:transform-center-y="2.6726978" />
    </g>
    <g
       style="fill:#ffb380"
       transform="matrix(0.74456385,0,0,0.9678418,356.22112,41.38636)"
       id="g3984">
      <ellipse
         ry="7.3855209"
         rx="11.759859"
         cy="-214.27365"
         cx="-508.88116"
         id="ellipse3980"
         style="fill:#ffb380;stroke:none;stroke-width:0.25393215" />
      <path
         inkscape:transform-center-y="2.6726978"
         inkscape:transform-center-x="-6.384164e-006"
         d="m -508.9136,-194.5735 -4.62925,-8.01809 -4.62924,-8.01808 9.25849,0 9.25848,0 -4.62924,8.01808 z"
         inkscape:randomized="0"
         inkscape:rounded="0"
         inkscape:flatsided="false"
         sodipodi:arg2="2.6179939"
         sodipodi:arg1="1.5707963"
         sodipodi:r2="5.3453903"
         sodipodi:r1="10.690781"
         sodipodi:cy="-205.26428"
         sodipodi:cx="-508.9136"
         sodipodi:sides="3"
         id="path3982"
         style="fill:#ffb380;stroke:none;stroke-width:0.26458332"
         sodipodi:type="star" />
    </g>
    <circle
       style="fill:#000000;stroke:none;stroke-width:0.26458332"
       id="path4014"
       cx="-5.970541"
       cy="-202.94875"
       r="3.5907736" />
    <circle
       cy="-202.94875"
       cx="12.550302"
       id="circle4016"
       style="fill:#000000;stroke:none;stroke-width:0.26458332"
       r="3.5907736" />
    <g
       id="g4024"
       transform="translate(492.39101,-15.607551)"
       style="fill:#483737">
      <rect
         y="-76.108269"
         x="-587.70203"
         height="34.210499"
         width="22.45064"
         id="rect4018"
         style="fill:#483737;stroke:none;stroke-width:0.26458332" />
      <rect
         y="-47.113457"
         x="-588.71747"
         height="20.312483"
         width="35.279575"
         id="rect4020"
         style="fill:#483737;stroke:none;stroke-width:0.26458332" />
    </g>
    <g
       transform="matrix(1,0,0,-1,472.23228,57.053999)"
       id="g4030"
       style="fill:#483737">
      <rect
         style="fill:#483737;stroke:none;stroke-width:0.26458332"
         id="rect4026"
         width="22.45064"
         height="34.210499"
         x="-587.70203"
         y="-76.108269" />
      <rect
         style="fill:#483737;stroke:none;stroke-width:0.26458332"
         id="rect4028"
         width="35.279575"
         height="20.312483"
         x="-588.71747"
         y="-47.113457" />
    </g>
    <g
       transform="matrix(-1,0,0,-1,-481.18701,-88.68187)"
       id="g4036"
       style="fill:#483737">
      <rect
         style="fill:#483737;stroke:none;stroke-width:0.26458332"
         id="rect4032"
         width="22.45064"
         height="34.210499"
         x="-587.70203"
         y="-76.108269" />
      <rect
         style="fill:#483737;stroke:none;stroke-width:0.26458332"
         id="rect4034"
         width="35.279575"
         height="20.312483"
         x="-588.71747"
         y="-47.113457" />
    </g>
    <g
       id="g4042"
       transform="matrix(-1,0,0,1,-471.51082,131.74102)"
       style="fill:#483737">
      <rect
         y="-76.108269"
         x="-587.70203"
         height="34.210499"
         width="22.45064"
         id="rect4038"
         style="fill:#483737;stroke:none;stroke-width:0.26458332" />
      <rect
         y="-47.113457"
         x="-588.71747"
         height="20.312483"
         width="35.279575"
         id="rect4040"
         style="fill:#483737;stroke:none;stroke-width:0.26458332" />
    </g>
    <path
       sodipodi:nodetypes="csccscc"
       inkscape:connector-curvature="0"
       id="path3383"
       d="m -84.542276,22.895978 c 0,0 56.64998,-19.6439468 84.97498043,-19.6439468 28.32499057,0 84.97497057,19.6439468 84.97497057,19.6439468 l 0,119.117542 c 0,0 -56.64998,25.07739 -84.97497057,25.07739 -28.32500043,0 -84.97498043,-25.07739 -84.97498043,-25.07739 z"
       style="fill:#483737;stroke:none;stroke-width:0.22599688px;stroke-linecap:butt;stroke-linejoin:miter;stroke-opacity:1" />
    <g
       style="fill:#241c1c"
       transform="matrix(1,0,0,1.2998775,535.93387,111.0032)"
       id="g3394">
      <ellipse
         style="fill:#241c1c;stroke:none;stroke-width:0.30904165"
         id="ellipse3396"
         cx="-508.88116"
         cy="-216.40576"
         rx="11.759859"
         ry="10.939055" />
      <path
         sodipodi:type="star"
         style="fill:#241c1c;stroke:none;stroke-width:0.26458332"
         id="path3398"
         sodipodi:sides="3"
         sodipodi:cx="-508.9136"
         sodipodi:cy="-205.26428"
         sodipodi:r1="10.690781"
         sodipodi:r2="5.3453903"
         sodipodi:arg1="1.5707963"
         sodipodi:arg2="2.6179939"
         inkscape:flatsided="false"
         inkscape:rounded="0"
         inkscape:randomized="0"
         d="m -508.9136,-194.5735 -4.62925,-8.01809 -4.62924,-8.01808 9.25849,0 9.25848,0 -4.62924,8.01808 z"
         inkscape:transform-center-x="-6.384164e-006"
         inkscape:transform-center-y="2.6726978" />
    </g>
    <g
       style="fill:#916f6f"
       transform="matrix(0.87312873,0,0,1.1349604,471.23584,75.966766)"
       id="g3400">
      <ellipse
         ry="10.939055"
         rx="11.759859"
         cy="-216.40576"
         cx="-508.88116"
         id="ellipse3402"
         style="fill:#916f6f;stroke:none;stroke-width:0.30904165" />
      <path
         inkscape:transform-center-y="2.6726978"
         inkscape:transform-center-x="-6.384164e-006"
         d="m -508.9136,-194.5735 -4.62925,-8.01809 -4.62924,-8.01808 9.25849,0 9.25848,0 -4.62924,8.01808 z"
         inkscape:randomized="0"
         inkscape:rounded="0"
         inkscape:flatsided="false"
         sodipodi:arg2="2.6179939"
         sodipodi:arg1="1.5707963"
         sodipodi:r2="5.3453903"
         sodipodi:r1="10.690781"
         sodipodi:cy="-205.26428"
         sodipodi:cx="-508.9136"
         sodipodi:sides="3"
         id="path3404"
         style="fill:#916f6f;stroke:none;stroke-width:0.26458332"
         sodipodi:type="star" />
    </g>
    <g
       id="g3406"
       transform="matrix(0.74456385,0,0,0.9678418,405.8116,41.38636)"
       style="fill:#ffb380">
      <ellipse
         style="fill:#ffb380;stroke:none;stroke-width:0.25393215"
         id="ellipse3408"
         cx="-508.88116"
         cy="-214.27365"
         rx="11.759859"
         ry="7.3855209" />
      <path
         sodipodi:type="star"
         style="fill:#ffb380;stroke:none;stroke-width:0.26458332"
         id="path3410"
         sodipodi:sides="3"
         sodipodi:cx="-508.9136"
         sodipodi:cy="-205.26428"
         sodipodi:r1="10.690781"
         sodipodi:r2="5.3453903"
         sodipodi:arg1="1.5707963"
         sodipodi:arg2="2.6179939"
         inkscape:flatsided="false"
         inkscape:rounded="0"
         inkscape:randomized="0"
         d="m -508.9136,-194.5735 -4.62925,-8.01809 -4.62924,-8.01808 9.25849,0 9.25848,0 -4.62924,8.01808 z"
         inkscape:transform-center-x="-6.384164e-006"
         inkscape:transform-center-y="2.6726978" />
    </g>
  </g>
</svg>
