<?xml version="1.0" encoding="UTF-8" standalone="no"?>
<!-- Created with Inkscape (http://www.inkscape.org/) -->

<svg
   xmlns:dc="http://purl.org/dc/elements/1.1/"
   xmlns:cc="http://creativecommons.org/ns#"
   xmlns:rdf="http://www.w3.org/1999/02/22-rdf-syntax-ns#"
   xmlns:svg="http://www.w3.org/2000/svg"
   xmlns="http://www.w3.org/2000/svg"
   xmlns:sodipodi="http://sodipodi.sourceforge.net/DTD/sodipodi-0.dtd"
   xmlns:inkscape="http://www.inkscape.org/namespaces/inkscape"
   width="210mm"
   height="297mm"
   viewBox="0 0 210 297"
   version="1.1"
   id="svg8"
   inkscape:version="0.91 r13725"
   sodipodi:docname="3.svg">
  <defs
     id="defs2" />
  <sodipodi:namedview
     id="base"
     pagecolor="#ffffff"
     bordercolor="#666666"
     borderopacity="1.0"
     inkscape:pageopacity="0.0"
     inkscape:pageshadow="2"
     inkscape:zoom="0.175"
     inkscape:cx="-970.1401"
     inkscape:cy="1942.1517"
     inkscape:document-units="mm"
     inkscape:current-layer="layer1"
     showgrid="false"
     inkscape:window-width="1920"
     inkscape:window-height="1017"
     inkscape:window-x="-8"
     inkscape:window-y="-8"
     inkscape:window-maximized="1"
     inkscape:snap-global="false" />
  <metadata
     id="metadata5">
    <rdf:RDF>
      <cc:Work
         rdf:about="">
        <dc:format>image/svg+xml</dc:format>
        <dc:type
           rdf:resource="http://purl.org/dc/dcmitype/StillImage" />
        <dc:title />
      </cc:Work>
    </rdf:RDF>
  </metadata>
  <g
     inkscape:label="Layer 1"
     inkscape:groupmode="layer"
     id="layer1">
    <path
       style="fill:#00d4aa;fill-opacity:1;fill-rule:evenodd;stroke:none;stroke-width:0.28222221px;stroke-linecap:butt;stroke-linejoin:miter;stroke-opacity:1"
       d="m -48.493553,180.6843 c 0,0 19.17835,85.65464 38.9933142,124.29127 27.9774978,54.55252 156.0065588,108.34011 156.0065588,108.34011 0,0 -89.543705,-71.03339 -93.984411,-129.09663 C 49.926915,250.28892 65.541445,182.965 65.541445,182.965 Z"
       id="path3358"
       inkscape:connector-curvature="0"
       sodipodi:nodetypes="cscscc" />
    <path
       sodipodi:nodetypes="ccccc"
       inkscape:connector-curvature="0"
       id="path3360"
       d="m -48.493553,180.6843 c 0,0 14.46181,67.1966 27.01964,92.93164 L 53.356911,264.4991 C 58.283887,213.70481 65.541445,182.965 65.541445,182.965 Z"
       style="fill:#999999;fill-opacity:1;fill-rule:evenodd;stroke:none;stroke-width:0.28222221px;stroke-linecap:butt;stroke-linejoin:miter;stroke-opacity:1" />
    <rect
       style="opacity:1;fill:#999999;fill-opacity:1;stroke:none;stroke-width:0;stroke-linecap:round;stroke-miterlimit:4;stroke-dasharray:none;stroke-dashoffset:0;stroke-opacity:1"
       id="rect3344"
       width="457.32507"
       height="173.88783"
       x="-229.73357"
       y="10.1697" />
    <path
       style="fill:#999999;fill-opacity:1;fill-rule:evenodd;stroke:none;stroke-width:0.28222221px;stroke-linecap:butt;stroke-linejoin:miter;stroke-opacity:1"
       d="m -228.79665,9.8524589 c 0,0 -17.47041,5.7048401 -30.12488,22.1978301 -12.65446,16.492995 -20.49298,43.774136 -20.90239,59.876145 -0.44647,17.560026 4.93291,41.844086 17.80134,60.508566 12.86844,18.66448 33.22593,31.70939 33.22593,31.70939 l 0,-174.2919311"
       id="path3348"
       inkscape:connector-curvature="0"
       sodipodi:nodetypes="cccscc" />
    <path
       sodipodi:nodetypes="cccscc"
       inkscape:connector-curvature="0"
       id="path3350"
       d="m 226.73447,9.8524589 c 0,0 17.4704,5.7048401 30.12486,22.1978301 12.65448,16.492995 20.493,43.774136 20.90239,59.876145 0.44649,17.560026 -4.93288,41.844086 -17.80132,60.508566 -12.86844,18.66448 -33.22593,31.70939 -33.22593,31.70939 l 0,-174.2919311"
       style="fill:#999999;fill-opacity:1;fill-rule:evenodd;stroke:none;stroke-width:0.28222221px;stroke-linecap:butt;stroke-linejoin:miter;stroke-opacity:1" />
    <rect
       transform="matrix(-0.8660254,0.5,-0.5,-0.8660254,0,0)"
       style="opacity:1;fill:#00d4aa;fill-opacity:1;stroke:none;stroke-width:0;stroke-linecap:round;stroke-miterlimit:4;stroke-dasharray:none;stroke-dashoffset:0;stroke-opacity:1"
       id="rect3356"
       width="156.1783"
       height="90.276894"
       x="97.828239"
       y="91.988922" />
    <rect
       y="164.20538"
       x="-182.38625"
       height="93.541939"
       width="113.4909"
       id="rect3358"
       style="opacity:1;fill:#999999;fill-opacity:1;stroke:none;stroke-width:0;stroke-linecap:round;stroke-miterlimit:4;stroke-dasharray:none;stroke-dashoffset:0;stroke-opacity:1"
       transform="matrix(0.5,0.8660254,-0.8660254,0.5,0,0)" />
    <rect
       style="fill:#999999;stroke-width:0.26458332"
       id="rect3767"
       width="293.30951"
       height="72.571426"
       x="-329.59521"
       y="-118.7738" />
    <g
       id="g3775"
       transform="matrix(0.96592583,-0.25881905,0.25881905,0.96592583,-75.638608,-43.871946)">
      <rect
         y="-474.87439"
         x="299.34189"
         height="525.98645"
         width="21.381563"
         id="rect3769"
         style="fill:#aa4400;stroke-width:0.34157559" />
      <path
         transform="matrix(0.50387101,-0.13501183,0.13501183,0.50387101,243.29711,-188.43701)"
         inkscape:transform-center-y="-7.7870764"
         inkscape:transform-center-x="-4.0127836"
         d="m 326.33019,-477.82023 -64.81062,-17.36596 -64.81063,-17.36595 47.44468,-47.44466 47.44466,-47.44468 17.36595,64.81063 z"
         inkscape:randomized="0"
         inkscape:rounded="0"
         inkscape:flatsided="false"
         sodipodi:arg2="1.8325957"
         sodipodi:arg1="0.78539816"
         sodipodi:r2="38.738407"
         sodipodi:r1="77.476822"
         sodipodi:cy="-532.60461"
         sodipodi:cx="271.54581"
         sodipodi:sides="3"
         id="path3771"
         style="fill:#b3b3b3;stroke-width:0.26458332"
         sodipodi:type="star" />
    </g>
    <g
       transform="matrix(1,0,0,1.2389734,-14.66547,-12.767332)"
       id="g3791">
      <rect
         y="-266.62009"
         x="-118.36159"
         height="90.276894"
         width="168.30104"
         id="rect3787"
         style="opacity:1;fill:#00d4aa;fill-opacity:1;stroke:none;stroke-width:0;stroke-linecap:round;stroke-miterlimit:4;stroke-dasharray:none;stroke-dashoffset:0;stroke-opacity:1"
         transform="matrix(0,1,-1,0,0,0)" />
      <rect
         transform="matrix(0,1,-1,0,0,0)"
         style="opacity:1;fill:#999999;fill-opacity:1;stroke:none;stroke-width:0;stroke-linecap:round;stroke-miterlimit:4;stroke-dasharray:none;stroke-dashoffset:0;stroke-opacity:1"
         id="rect3789"
         width="116.51273"
         height="93.541939"
         x="-63.086979"
         y="-268.04074" />
    </g>
    <g
       id="g3831">
      <circle
         style="opacity:1;fill:#00d4aa;fill-opacity:1;stroke:none;stroke-width:0;stroke-linecap:round;stroke-miterlimit:4;stroke-dasharray:none;stroke-dashoffset:0;stroke-opacity:1"
         id="circle3811"
         cx="9.1256676"
         cy="93.77079"
         r="105.74324" />
      <rect
         style="fill:#ff2a2a;stroke-width:0.26458332"
         id="rect3813"
         width="25.702381"
         height="213.17857"
         x="-4.5357141"
         y="-14.452381" />
      <rect
         y="-61.369663"
         x="-4.5357141"
         height="10.583332"
         width="25.702381"
         id="rect3815"
         style="fill:#ff7f2a;stroke-width:0.05895245"
         transform="scale(1,-1)" />
      <rect
         transform="scale(1,-1)"
         style="fill:#ff7f2a;stroke-width:0.05895245"
         id="rect3817"
         width="25.702381"
         height="10.583332"
         x="-4.5357141"
         y="-34.155373" />
      <rect
         y="-8.9065475"
         x="-4.5357141"
         height="10.583332"
         width="25.702381"
         id="rect3819"
         style="fill:#ff7f2a;stroke-width:0.05895245"
         transform="scale(1,-1)" />
      <rect
         transform="scale(1,-1)"
         style="fill:#ff7f2a;stroke-width:0.05895245"
         id="rect3821"
         width="25.702381"
         height="10.583332"
         x="-4.5357141"
         y="-142.25656" />
      <rect
         y="-115.04227"
         x="-4.5357141"
         height="10.583332"
         width="25.702381"
         id="rect3823"
         style="fill:#ff7f2a;stroke-width:0.05895245"
         transform="scale(1,-1)" />
      <rect
         transform="scale(1,-1)"
         style="fill:#ff7f2a;stroke-width:0.05895245"
         id="rect3825"
         width="25.702381"
         height="10.583332"
         x="-4.5357141"
         y="-89.793449" />
      <rect
         transform="scale(1,-1)"
         style="fill:#ff7f2a;stroke-width:0.05895245"
         id="rect3827"
         width="25.702381"
         height="10.583332"
         x="-4.5357141"
         y="-189.1256" />
      <rect
         y="-163.87679"
         x="-4.5357141"
         height="10.583332"
         width="25.702381"
         id="rect3829"
         style="fill:#ff7f2a;stroke-width:0.05895245"
         transform="scale(1,-1)" />
    </g>
  </g>
</svg>
