<?xml version="1.0" encoding="UTF-8" standalone="no"?>
<!-- Created with Inkscape (http://www.inkscape.org/) -->

<svg
   xmlns:dc="http://purl.org/dc/elements/1.1/"
   xmlns:cc="http://creativecommons.org/ns#"
   xmlns:rdf="http://www.w3.org/1999/02/22-rdf-syntax-ns#"
   xmlns:svg="http://www.w3.org/2000/svg"
   xmlns="http://www.w3.org/2000/svg"
   xmlns:sodipodi="http://sodipodi.sourceforge.net/DTD/sodipodi-0.dtd"
   xmlns:inkscape="http://www.inkscape.org/namespaces/inkscape"
   width="210mm"
   height="297mm"
   viewBox="0 0 210 297"
   version="1.1"
   id="svg8"
   inkscape:version="0.91 r13725"
   sodipodi:docname="4.svg">
  <defs
     id="defs2">
    <pattern
       id="EMFhbasepattern"
       patternUnits="userSpaceOnUse"
       width="6"
       height="6"
       x="0"
       y="0" />
    <pattern
       y="0"
       x="0"
       height="6"
       width="6"
       patternUnits="userSpaceOnUse"
       id="EMFhbasepattern-0" />
  </defs>
  <sodipodi:namedview
     id="base"
     pagecolor="#ffffff"
     bordercolor="#666666"
     borderopacity="1.0"
     inkscape:pageopacity="0.0"
     inkscape:pageshadow="2"
     inkscape:zoom="0.49497475"
     inkscape:cx="-315.21768"
     inkscape:cy="951.92349"
     inkscape:document-units="mm"
     inkscape:current-layer="layer1"
     showgrid="false"
     inkscape:window-width="958"
     inkscape:window-height="1008"
     inkscape:window-x="-7"
     inkscape:window-y="0"
     inkscape:window-maximized="0" />
  <metadata
     id="metadata5">
    <rdf:RDF>
      <cc:Work
         rdf:about="">
        <dc:format>image/svg+xml</dc:format>
        <dc:type
           rdf:resource="http://purl.org/dc/dcmitype/StillImage" />
        <dc:title />
      </cc:Work>
    </rdf:RDF>
  </metadata>
  <g
     inkscape:label="Layer 1"
     inkscape:groupmode="layer"
     id="layer1">
    <g
       id="g3402"
       transform="matrix(4.8200204,0,0,4.8200204,-400.25892,-317.99374)">
      <path
         style="fill:#00ff00;fill-opacity:1;fill-rule:nonzero;stroke:none"
         d="m 82.164332,55.493804 1.821956,0 0,5.997554 -1.821956,0 z"
         id="path3349"
         inkscape:connector-curvature="0" />
      <path
         style="fill:#00ff00;fill-opacity:1;fill-rule:nonzero;stroke:none"
         d="m 83.072312,55.183174 1.821979,0 0,5.997551 -1.821979,0 z"
         id="path3351"
         inkscape:connector-curvature="0" />
      <path
         style="fill:#00ff00;fill-opacity:1;fill-rule:nonzero;stroke:none"
         d="m 83.986288,64.060018 c 0,3.422932 -2.013106,6.200704 -4.498151,6.200704 -2.479071,0 -4.492193,-2.777772 -4.492193,-6.200704 0,-3.428866 2.013122,-6.200641 4.492193,-6.200641 2.485045,0 4.498151,2.771775 4.498151,6.200641 z"
         id="path3353"
         inkscape:connector-curvature="0" />
      <path
         style="fill:#00ff00;fill-opacity:1;fill-rule:nonzero;stroke:none"
         d="m 91.495154,64.060018 c 0,3.422932 -2.013058,6.200704 -4.492145,6.200704 -2.485061,0 -4.498176,-2.777772 -4.498176,-6.200704 0,-3.428866 2.013115,-6.200641 4.498176,-6.200641 2.479087,0 4.492145,2.771775 4.492145,6.200641 z"
         id="path3355"
         inkscape:connector-curvature="0" />
      <path
         style="fill:#00ff00;fill-opacity:1;fill-rule:nonzero;stroke:none"
         d="m 89.559754,69.806721 c 0,3.954512 -2.956983,7.168365 -6.600919,7.168365 -3.643935,0 -6.594921,-3.213853 -6.594921,-7.168365 0,-3.960565 2.950986,-7.16842 6.594921,-7.16842 3.643936,0 6.600919,3.207855 6.600919,7.16842 z"
         id="path3357"
         inkscape:connector-curvature="0" />
      <path
         style="fill:#00ff00;fill-opacity:1;fill-rule:evenodd;stroke:none"
         d="m 90.013756,68.779244 c 0,0 -6.027468,-9.103877 -6.481469,-7.735906 -0.459975,1.367962 6.481469,7.735906 6.481469,7.735906 z"
         id="path3359"
         inkscape:connector-curvature="0" />
      <path
         style="fill:#00ff00;fill-opacity:1;fill-rule:evenodd;stroke:none"
         d="m 77.086724,69.346746 c 0,0 7.234092,-8.183942 5.794453,-8.267566 -1.433681,-0.08961 -5.794453,8.267566 -5.794453,8.267566 z"
         id="path3361"
         inkscape:connector-curvature="0" />
      <path
         style="fill:#3e326d;fill-opacity:1;fill-rule:nonzero;stroke:none"
         d="m 82.307701,55.983643 1.672613,0 0,5.507715 -1.672613,0 z"
         id="path3363"
         inkscape:connector-curvature="0" />
      <path
         style="fill:#ff0000;fill-opacity:1;fill-rule:nonzero;stroke:none"
         d="m 83.143996,55.696909 1.672637,0 0,5.507711 -1.672637,0 z"
         id="path3365"
         inkscape:connector-curvature="0" />
      <path
         style="fill:#ff0000;fill-opacity:1;fill-rule:nonzero;stroke:none"
         d="m 83.813051,64.358704 c 0,3.154115 -1.851816,5.71086 -4.133755,5.71086 -2.287913,0 -4.139749,-2.556745 -4.139749,-5.71086 0,-3.148111 1.851836,-5.704832 4.139749,-5.704832 2.281939,0 4.133755,2.556721 4.133755,5.704832 z"
         id="path3367"
         inkscape:connector-curvature="0" />
      <path
         style="fill:#ff0000;fill-opacity:1;fill-rule:nonzero;stroke:none"
         d="m 90.724626,64.358704 c 0,3.154115 -1.851848,5.71086 -4.133803,5.71086 -2.287929,0 -4.139753,-2.556745 -4.139753,-5.71086 0,-3.148111 1.851824,-5.704832 4.139753,-5.704832 2.281955,0 4.133803,2.556721 4.133803,5.704832 z"
         id="path3369"
         inkscape:connector-curvature="0" />
      <path
         style="fill:#ff0000;fill-opacity:1;fill-rule:nonzero;stroke:none"
         d="m 88.944462,69.651405 c 0,3.643879 -2.718035,6.594889 -6.075233,6.594889 -3.351223,0 -6.069243,-2.95101 -6.069243,-6.594889 0,-3.643959 2.71802,-6.600919 6.069243,-6.600919 3.357198,0 6.075233,2.95696 6.075233,6.600919 z"
         id="path3371"
         inkscape:connector-curvature="0" />
      <path
         style="fill:#800000;fill-opacity:1;fill-rule:evenodd;stroke:none"
         d="m 89.362622,68.70756 c 0,0 -5.549571,-8.381067 -5.96773,-7.120623 -0.41816,1.25447 5.96773,7.120623 5.96773,7.120623 z"
         id="path3373"
         inkscape:connector-curvature="0" />
      <path
         style="fill:#000080;fill-opacity:1;fill-rule:evenodd;stroke:none"
         d="m 77.463067,69.227272 c 0,0 6.660616,-7.526835 5.334478,-7.610467 -1.32018,-0.07766 -5.334478,7.610467 -5.334478,7.610467 z"
         id="path3375"
         inkscape:connector-curvature="0" />
      <path
         style="fill:#00ff00;fill-opacity:1;fill-rule:nonzero;stroke:none"
         d="m 84.649369,60.398178 2.568693,0 0,6.83985 -2.568693,0 z"
         id="path3377"
         inkscape:connector-curvature="0" />
      <path
         style="fill:#00ff00;fill-opacity:1;fill-rule:nonzero;stroke:none"
         d="m 82.516781,65.099443 0,-2.562695 6.833893,0 0,2.562695 z"
         id="path3379"
         inkscape:connector-curvature="0" />
    </g>
  </g>
</svg>
