<?xml version="1.0" encoding="UTF-8" standalone="no"?>
<!-- Created with Inkscape (http://www.inkscape.org/) -->

<svg
   xmlns:dc="http://purl.org/dc/elements/1.1/"
   xmlns:cc="http://creativecommons.org/ns#"
   xmlns:rdf="http://www.w3.org/1999/02/22-rdf-syntax-ns#"
   xmlns:svg="http://www.w3.org/2000/svg"
   xmlns="http://www.w3.org/2000/svg"
   xmlns:sodipodi="http://sodipodi.sourceforge.net/DTD/sodipodi-0.dtd"
   xmlns:inkscape="http://www.inkscape.org/namespaces/inkscape"
   width="210mm"
   height="297mm"
   viewBox="0 0 210 297"
   version="1.1"
   id="svg8"
   inkscape:version="0.91 r13725"
   sodipodi:docname="27.svg">
  <defs
     id="defs2">
    <pattern
       id="EMFhbasepattern"
       patternUnits="userSpaceOnUse"
       width="6"
       height="6"
       x="0"
       y="0" />
  </defs>
  <sodipodi:namedview
     id="base"
     pagecolor="#ffffff"
     bordercolor="#666666"
     borderopacity="1.0"
     inkscape:pageopacity="0.0"
     inkscape:pageshadow="2"
     inkscape:zoom="0.7"
     inkscape:cx="-233.27349"
     inkscape:cy="793.81335"
     inkscape:document-units="mm"
     inkscape:current-layer="layer1"
     showgrid="false"
     inkscape:window-width="958"
     inkscape:window-height="1008"
     inkscape:window-x="-7"
     inkscape:window-y="0"
     inkscape:window-maximized="0" />
  <metadata
     id="metadata5">
    <rdf:RDF>
      <cc:Work
         rdf:about="">
        <dc:format>image/svg+xml</dc:format>
        <dc:type
           rdf:resource="http://purl.org/dc/dcmitype/StillImage" />
        <dc:title />
      </cc:Work>
    </rdf:RDF>
  </metadata>
  <g
     inkscape:label="Layer 1"
     inkscape:groupmode="layer"
     id="layer1">
    <g
       id="g3443"
       transform="matrix(0.95665638,0,0,0.95665638,4.3213326,-4.6470095)">
      <g
         style="fill:#7d777a;fill-opacity:1"
         transform="matrix(4.4954813,0,0,4.4954813,-800.14702,-815.80049)"
         id="g4182">
        <rect
           style="opacity:1;fill:#7d777a;fill-opacity:1;stroke:none;stroke-width:0;stroke-linecap:round;stroke-miterlimit:4;stroke-dasharray:none;stroke-dashoffset:0;stroke-opacity:1"
           id="rect4160"
           width="21.239771"
           height="7.1442871"
           x="164.99133"
           y="185.46278" />
        <rect
           y="222.6571"
           x="-137.36832"
           height="5.6961207"
           width="17.571083"
           id="rect4162"
           style="opacity:1;fill:#7d777a;fill-opacity:1;stroke:none;stroke-width:0;stroke-linecap:round;stroke-miterlimit:4;stroke-dasharray:none;stroke-dashoffset:0;stroke-opacity:1"
           transform="matrix(0.25881905,-0.96592583,0.96592583,0.25881905,0,0)" />
        <ellipse
           style="opacity:1;fill:#7d777a;fill-opacity:1;stroke:none;stroke-width:0;stroke-linecap:round;stroke-miterlimit:4;stroke-dasharray:none;stroke-dashoffset:0;stroke-opacity:1"
           id="path4164"
           cx="173.24588"
           cy="185.36626"
           rx="6.1305704"
           ry="4.1514101" />
        <ellipse
           ry="4.1514101"
           rx="6.1305704"
           cy="186.81442"
           cx="175.65948"
           id="ellipse4166"
           style="opacity:1;fill:#7d777a;fill-opacity:1;stroke:none;stroke-width:0;stroke-linecap:round;stroke-miterlimit:4;stroke-dasharray:none;stroke-dashoffset:0;stroke-opacity:1" />
        <ellipse
           style="opacity:1;fill:#7d777a;fill-opacity:1;stroke:none;stroke-width:0;stroke-linecap:round;stroke-miterlimit:4;stroke-dasharray:none;stroke-dashoffset:0;stroke-opacity:1"
           id="ellipse4168"
           cx="171.31499"
           cy="186.81442"
           rx="6.1305704"
           ry="4.1514101" />
        <ellipse
           style="opacity:1;fill:#7d777a;fill-opacity:1;stroke:none;stroke-width:0;stroke-linecap:round;stroke-miterlimit:4;stroke-dasharray:none;stroke-dashoffset:0;stroke-opacity:1"
           id="path4176"
           cx="223.69089"
           cy="119.57366"
           rx="1.0619886"
           ry="1.3033496"
           transform="matrix(0.96592583,0.25881905,-0.25881905,0.96592583,0,0)" />
        <ellipse
           transform="matrix(0.96592583,0.25881905,-0.25881905,0.96592583,0,0)"
           ry="1.3033496"
           rx="1.0619886"
           cy="119.36617"
           cx="225.58432"
           id="ellipse4178"
           style="opacity:1;fill:#7d777a;fill-opacity:1;stroke:none;stroke-width:0;stroke-linecap:round;stroke-miterlimit:4;stroke-dasharray:none;stroke-dashoffset:0;stroke-opacity:1" />
        <ellipse
           style="opacity:1;fill:#7d777a;fill-opacity:1;stroke:none;stroke-width:0;stroke-linecap:round;stroke-miterlimit:4;stroke-dasharray:none;stroke-dashoffset:0;stroke-opacity:1"
           id="ellipse4180"
           cx="227.42532"
           cy="119.52256"
           rx="1.0619886"
           ry="1.3033496"
           transform="matrix(0.96592583,0.25881905,-0.25881905,0.96592583,0,0)" />
      </g>
      <g
         style="fill:#3e423f;fill-opacity:1"
         transform="matrix(4.4954813,0,0,4.4954813,-800.581,-815.80049)"
         id="g4197">
        <path
           sodipodi:nodetypes="cscsc"
           inkscape:connector-curvature="0"
           id="path4199"
           d="m 168.08076,183.29054 c 0,0 3.72239,1.57749 5.45527,1.53601 1.7256,-0.0413 4.77844,-1.77737 4.77844,-1.77737 0,0 -3.12433,1.52279 -4.80966,1.58843 -1.86981,0.0728 -5.42405,-1.34707 -5.42405,-1.34707 z"
           style="fill:#3e423f;fill-opacity:1;fill-rule:evenodd;stroke:none;stroke-width:0.0955741px;stroke-linecap:butt;stroke-linejoin:miter;stroke-opacity:1" />
        <path
           sodipodi:nodetypes="cscsc"
           inkscape:connector-curvature="0"
           id="path4201"
           d="m 165.52234,185.45072 c 0,0 2.75745,-0.0873 4.10313,-0.22929 1.08648,-0.11467 3.18597,-0.49479 3.18597,-0.49479 0,0 -2.19377,0.21389 -3.33078,0.32584 -1.29312,0.12732 -3.95832,0.39824 -3.95832,0.39824 z"
           style="fill:#3e423f;fill-opacity:1;fill-rule:evenodd;stroke:none;stroke-width:0.0955741px;stroke-linecap:butt;stroke-linejoin:miter;stroke-opacity:1" />
        <path
           style="fill:#3e423f;fill-opacity:1;fill-rule:evenodd;stroke:none;stroke-width:0.0955741px;stroke-linecap:butt;stroke-linejoin:miter;stroke-opacity:1"
           d="m 181.40389,185.45072 c 0,0 -2.75745,-0.0873 -4.10313,-0.22929 -1.08648,-0.11467 -3.18597,-0.49479 -3.18597,-0.49479 0,0 2.19377,0.21389 3.33078,0.32584 1.29312,0.12732 3.95832,0.39824 3.95832,0.39824 z"
           id="path4203"
           inkscape:connector-curvature="0"
           sodipodi:nodetypes="cscsc" />
      </g>
      <g
         transform="matrix(0.71222381,0,0,0.71222381,106.61881,-37.965621)"
         id="g3434">
        <ellipse
           style="opacity:1;fill:#e9afaf;fill-opacity:1;stroke:none;stroke-width:0;stroke-linecap:round;stroke-miterlimit:4;stroke-dasharray:none;stroke-dashoffset:0;stroke-opacity:1"
           id="path3355"
           cx="-177.39682"
           cy="82.816475"
           rx="43.333298"
           ry="22.806999" />
        <rect
           style="opacity:1;fill:#e9afaf;fill-opacity:1;stroke:none;stroke-width:0;stroke-linecap:round;stroke-miterlimit:4;stroke-dasharray:none;stroke-dashoffset:0;stroke-opacity:1"
           id="rect3357"
           width="8.5526257"
           height="20.811386"
           x="-218.4494"
           y="88.233109" />
        <path
           style="fill:#916f6f;fill-rule:evenodd;stroke:none;stroke-width:0.0955741px;stroke-linecap:butt;stroke-linejoin:miter;stroke-opacity:1"
           d="m -204.69394,64.570863 c 0,0 5.84429,36.206107 24.37499,40.054787 18.53067,3.84869 -14.11184,0.42765 -24.37499,-40.054787 z"
           id="path3359"
           inkscape:connector-curvature="0"
           sodipodi:nodetypes="csc" />
        <path
           sodipodi:nodetypes="csc"
           inkscape:connector-curvature="0"
           id="path3361"
           d="m -140.62418,71.962926 c 0,0 -36.29537,5.261593 -40.44139,23.728035 -4.14604,18.466409 -0.20079,-14.116886 40.44139,-23.728035 z"
           style="fill:#916f6f;fill-rule:evenodd;stroke:none;stroke-width:0.0955741px;stroke-linecap:butt;stroke-linejoin:miter;stroke-opacity:1" />
        <path
           style="fill:#916f6f;fill-rule:evenodd;stroke:none;stroke-width:0.0955741px;stroke-linecap:butt;stroke-linejoin:miter;stroke-opacity:1"
           d="m -144.66474,73.793881 c 0,0 -32.80509,-16.397097 -46.74994,-3.600992 -13.94487,12.796016 7.89303,-11.705859 46.74994,3.600992 z"
           id="path3363"
           inkscape:connector-curvature="0"
           sodipodi:nodetypes="csc" />
        <path
           style="fill:#916f6f;fill-rule:evenodd;stroke:none;stroke-width:0.0955741px;stroke-linecap:butt;stroke-linejoin:miter;stroke-opacity:1"
           d="m -181.82582,72.151646 c 0,0 -55.4365,18.142862 -14.1111,29.028574 41.3254,10.88572 -50.19525,-7.660333 14.1111,-29.028574 z"
           id="path3365"
           inkscape:connector-curvature="0" />
        <path
           inkscape:connector-curvature="0"
           id="path3367"
           d="m -181.0865,72.942762 c 0,0 30.40962,49.775758 31.4963,7.054456 1.08667,-42.721245 4.09271,50.611222 -31.4963,-7.054456 z"
           style="fill:#916f6f;fill-rule:evenodd;stroke:none;stroke-width:0.0955741px;stroke-linecap:butt;stroke-linejoin:miter;stroke-opacity:1" />
      </g>
    </g>
  </g>
</svg>
