<?xml version="1.0" encoding="UTF-8" standalone="no"?>
<!-- Created with Inkscape (http://www.inkscape.org/) -->

<svg
   xmlns:dc="http://purl.org/dc/elements/1.1/"
   xmlns:cc="http://creativecommons.org/ns#"
   xmlns:rdf="http://www.w3.org/1999/02/22-rdf-syntax-ns#"
   xmlns:svg="http://www.w3.org/2000/svg"
   xmlns="http://www.w3.org/2000/svg"
   xmlns:sodipodi="http://sodipodi.sourceforge.net/DTD/sodipodi-0.dtd"
   xmlns:inkscape="http://www.inkscape.org/namespaces/inkscape"
   width="210mm"
   height="297mm"
   viewBox="0 0 210 297"
   version="1.1"
   id="svg8"
   inkscape:version="0.91 r13725"
   sodipodi:docname="55.svg">
  <defs
     id="defs2">
    <pattern
       id="EMFhbasepattern"
       patternUnits="userSpaceOnUse"
       width="6"
       height="6"
       x="0"
       y="0" />
  </defs>
  <sodipodi:namedview
     id="base"
     pagecolor="#ffffff"
     bordercolor="#666666"
     borderopacity="1.0"
     inkscape:pageopacity="0.0"
     inkscape:pageshadow="2"
     inkscape:zoom="0.49497475"
     inkscape:cx="-206.10853"
     inkscape:cy="1294.5112"
     inkscape:document-units="mm"
     inkscape:current-layer="layer1"
     showgrid="false"
     inkscape:window-width="958"
     inkscape:window-height="1008"
     inkscape:window-x="-7"
     inkscape:window-y="0"
     inkscape:window-maximized="0" />
  <metadata
     id="metadata5">
    <rdf:RDF>
      <cc:Work
         rdf:about="">
        <dc:format>image/svg+xml</dc:format>
        <dc:type
           rdf:resource="http://purl.org/dc/dcmitype/StillImage" />
        <dc:title />
      </cc:Work>
    </rdf:RDF>
  </metadata>
  <g
     inkscape:label="Layer 1"
     inkscape:groupmode="layer"
     id="layer1">
    <g
       id="g3445"
       transform="matrix(3.2365267,0,0,3.2365267,427.68181,-219.73393)">
      <path
         style="fill:#000000;fill-opacity:1;fill-rule:evenodd;stroke:none"
         d="m -133.2269,59.667841 c 0,2.269983 -1.83384,4.10391 -4.10385,4.10391 -2.26403,0 -4.09796,-1.833927 -4.09796,-4.10391 0,-2.264018 1.83393,-4.097929 4.09796,-4.097929 2.27001,0 4.10385,1.833911 4.10385,4.097929 z"
         id="path3419"
         inkscape:connector-curvature="0" />
      <path
         style="fill:#000000;fill-opacity:1;fill-rule:evenodd;stroke:none"
         d="m -141.75727,63.508908 c 1.45161,-1.03345 6.9295,-1.254477 8.69764,-0.006 2.30585,1.630821 1.63679,8.751396 0,12.347566 -1.19466,2.646351 -7.92105,2.795693 -8.69764,0 -0.97966,-3.494617 -2.25205,-10.74064 0,-12.341592 z"
         id="path3421"
         inkscape:connector-curvature="0" />
      <path
         style="fill:#000000;fill-opacity:1;fill-rule:nonzero;stroke:none"
         d="m -141.20171,76.15516 3.4528,0 0,8.888791 -3.4528,0 z"
         id="path3423"
         inkscape:connector-curvature="0" />
      <path
         style="fill:#000000;fill-opacity:1;fill-rule:nonzero;stroke:none"
         d="m -137.1157,76.15516 3.4587,0 0,8.888791 -3.4587,0 z"
         id="path3425"
         inkscape:connector-curvature="0" />
      <path
         style="fill:#5d536c;fill-opacity:1;fill-rule:evenodd;stroke:none"
         d="m -137.83704,52.260504 c 0,0 2.9988,10.334428 3.05256,15.651024 0.0657,5.985572 -3.05256,17.687978 -3.05256,17.687978 0,0 14.1337,-9.701215 13.7036,-18.333138 -0.38829,-7.891239 -13.7036,-15.005864 -13.7036,-15.005864 z"
         id="path3427"
         inkscape:connector-curvature="0" />
      <circle
         r="1.8530687"
         cy="61.054459"
         cx="-113.96372"
         id="path3439"
         style="fill:#000000;stroke:none" />
      <rect
         y="66.399849"
         x="-124.61887"
         height="1.4967093"
         width="9.6217031"
         id="rect3441"
         style="fill:#000000;stroke:none" />
      <path
         sodipodi:nodetypes="csccscc"
         inkscape:connector-curvature="0"
         id="path3443"
         d="m -124.33378,66.791848 c 0,0 1.97907,-2.636247 3.399,-3.357248 1.44437,-0.733411 4.79727,-0.77652 4.79727,-0.77652 l -0.71272,-0.926536 c 0,0 -3.03834,0.116301 -4.39272,0.722672 -1.51465,0.678126 -3.87482,3.12601 -3.87482,3.12601 z"
         style="fill:#000000;fill-rule:evenodd;stroke:none;stroke-width:0.28222221px;stroke-linecap:butt;stroke-linejoin:miter;stroke-opacity:1" />
    </g>
    <path
       sodipodi:type="star"
       style="fill:#7137c8;stroke:none"
       id="path3366"
       sodipodi:sides="6"
       sodipodi:cx="4.0599682"
       sodipodi:cy="-11.617392"
       sodipodi:r1="5.861825"
       sodipodi:r2="5.0764899"
       sodipodi:arg1="1.0471976"
       sodipodi:arg2="1.5707963"
       inkscape:flatsided="true"
       inkscape:rounded="0"
       inkscape:randomized="0"
       d="m 6.9908802,-6.5409021 -5.8618249,-3e-7 -2.9309123,-5.0764896 2.9309127,-5.076489 5.861825,0 2.9309123,5.07649 z" />
    <path
       d="m 15.618759,-1.5079722 -5.8618246,-3e-7 -2.9309123,-5.0764895 2.9309128,-5.076489 5.8618251,0 2.930912,5.0764896 z"
       inkscape:randomized="0"
       inkscape:rounded="0"
       inkscape:flatsided="true"
       sodipodi:arg2="1.5707963"
       sodipodi:arg1="1.0471976"
       sodipodi:r2="5.0764899"
       sodipodi:r1="5.861825"
       sodipodi:cy="-6.5844619"
       sodipodi:cx="12.687847"
       sodipodi:sides="6"
       id="path3368"
       style="fill:#5a2ca0;stroke:none"
       sodipodi:type="star" />
    <path
       sodipodi:type="star"
       style="fill:#3e3748;stroke:none"
       id="path3370"
       sodipodi:sides="6"
       sodipodi:cx="4.0599673"
       sodipodi:cy="-1.5515325"
       sodipodi:r1="5.861825"
       sodipodi:r2="5.0764899"
       sodipodi:arg1="1.0471976"
       sodipodi:arg2="1.5707963"
       inkscape:flatsided="true"
       inkscape:rounded="0"
       inkscape:randomized="0"
       d="m 6.9908798,3.524957 -5.861825,-3e-7 -2.9309123,-5.0764895 2.9309128,-5.0764892 5.861825,3e-7 2.9309122,5.0764895 z" />
    <path
       d="m 16.018198,8.158448 -5.861825,-3e-7 -2.930912,-5.0764895 2.930913,-5.0764892 5.861825,3e-7 2.930912,5.0764895 z"
       inkscape:randomized="0"
       inkscape:rounded="0"
       inkscape:flatsided="true"
       sodipodi:arg2="1.5707963"
       sodipodi:arg1="1.0471976"
       sodipodi:r2="5.0764899"
       sodipodi:r1="5.861825"
       sodipodi:cy="3.0819586"
       sodipodi:cx="13.087286"
       sodipodi:sides="6"
       id="path3372"
       style="fill:#5500d4;stroke:none"
       sodipodi:type="star" />
    <path
       sodipodi:type="star"
       style="fill:#2c2ca0;stroke:none"
       id="path3374"
       sodipodi:sides="6"
       sodipodi:cx="4.6191819"
       sodipodi:cy="8.0350006"
       sodipodi:r1="5.861825"
       sodipodi:r2="5.0764899"
       sodipodi:arg1="1.0471976"
       sodipodi:arg2="1.5707963"
       inkscape:flatsided="true"
       inkscape:rounded="0"
       inkscape:randomized="0"
       d="m 7.5500944,13.11149 -5.861825,0 -2.9309123,-5.0764895 2.9309128,-5.0764892 5.861825,3e-7 2.9309121,5.0764895 z" />
  </g>
</svg>
