<?xml version="1.0" encoding="UTF-8" standalone="no"?>
<!-- Created with Inkscape (http://www.inkscape.org/) -->

<svg
   xmlns:dc="http://purl.org/dc/elements/1.1/"
   xmlns:cc="http://creativecommons.org/ns#"
   xmlns:rdf="http://www.w3.org/1999/02/22-rdf-syntax-ns#"
   xmlns:svg="http://www.w3.org/2000/svg"
   xmlns="http://www.w3.org/2000/svg"
   xmlns:sodipodi="http://sodipodi.sourceforge.net/DTD/sodipodi-0.dtd"
   xmlns:inkscape="http://www.inkscape.org/namespaces/inkscape"
   width="210mm"
   height="297mm"
   viewBox="0 0 210 297"
   version="1.1"
   id="svg8"
   inkscape:version="0.91 r13725"
   sodipodi:docname="8.svg">
  <defs
     id="defs2">
    <pattern
       id="EMFhbasepattern"
       patternUnits="userSpaceOnUse"
       width="6"
       height="6"
       x="0"
       y="0" />
  </defs>
  <sodipodi:namedview
     id="base"
     pagecolor="#ffffff"
     bordercolor="#666666"
     borderopacity="1.0"
     inkscape:pageopacity="0.0"
     inkscape:pageshadow="2"
     inkscape:zoom="0.49497475"
     inkscape:cx="-315.21768"
     inkscape:cy="951.92349"
     inkscape:document-units="mm"
     inkscape:current-layer="layer1"
     showgrid="false"
     inkscape:window-width="958"
     inkscape:window-height="1008"
     inkscape:window-x="-7"
     inkscape:window-y="0"
     inkscape:window-maximized="0" />
  <metadata
     id="metadata5">
    <rdf:RDF>
      <cc:Work
         rdf:about="">
        <dc:format>image/svg+xml</dc:format>
        <dc:type
           rdf:resource="http://purl.org/dc/dcmitype/StillImage" />
        <dc:title />
      </cc:Work>
    </rdf:RDF>
  </metadata>
  <g
     inkscape:label="Layer 1"
     inkscape:groupmode="layer"
     id="layer1">
    <g
       id="g3390"
       transform="matrix(1.27902,0,0,1.27902,9.3592456,-145.2486)">
      <g
         transform="matrix(2.0980182,0,0,2.0980182,-322.83387,-256.46778)"
         id="g3370">
        <path
           style="fill:#ff8080;fill-rule:evenodd;stroke:none;stroke-width:0.0955741px;stroke-linecap:butt;stroke-linejoin:miter;stroke-opacity:1"
           d="m 150.28639,186.63257 c 0,0 -12.42463,-5.12004 -13.78998,-13.99478 -1.36534,-8.87473 -11.26409,14.40439 -0.34133,15.838 10.92275,1.43361 14.13131,-1.84322 14.13131,-1.84322 z"
           id="path3353"
           inkscape:connector-curvature="0" />
        <path
           inkscape:connector-curvature="0"
           id="path3355"
           d="m 150.28639,186.63257 c 0,0 -12.56116,-1.70668 -13.92651,-10.58142 -1.36534,-8.87473 -10.10355,10.51316 0.81921,11.94677 10.92275,1.43361 13.1073,-1.36535 13.1073,-1.36535 z"
           style="fill:#ff5555;fill-rule:evenodd;stroke:none;stroke-width:0.0955741px;stroke-linecap:butt;stroke-linejoin:miter;stroke-opacity:1"
           sodipodi:nodetypes="cssc" />
        <path
           sodipodi:nodetypes="cssc"
           style="fill:#ff2a2a;fill-rule:evenodd;stroke:none;stroke-width:0.0955741px;stroke-linecap:butt;stroke-linejoin:miter;stroke-opacity:1"
           d="m 150.28639,186.63257 c 0,0 -12.28809,1.91148 -13.65344,-6.96326 -1.36534,-8.87473 -8.87474,5.93926 2.04802,7.37287 10.92275,1.43361 11.60542,-0.40961 11.60542,-0.40961 z"
           id="path3357"
           inkscape:connector-curvature="0" />
      </g>
      <g
         transform="matrix(2.0980182,0,0,2.0980182,-322.83387,-256.46778)"
         id="g3365">
        <path
           inkscape:connector-curvature="0"
           id="path3359"
           d="m 150.39889,186.63257 c 0,0 12.42463,-5.12004 13.78998,-13.99478 1.36534,-8.87473 11.26409,14.40439 0.34133,15.838 -10.92275,1.43361 -14.13131,-1.84322 -14.13131,-1.84322 z"
           style="fill:#ff8080;fill-rule:evenodd;stroke:none;stroke-width:0.0955741px;stroke-linecap:butt;stroke-linejoin:miter;stroke-opacity:1" />
        <path
           sodipodi:nodetypes="cssc"
           style="fill:#ff5555;fill-rule:evenodd;stroke:none;stroke-width:0.0955741px;stroke-linecap:butt;stroke-linejoin:miter;stroke-opacity:1"
           d="m 150.39889,186.63257 c 0,0 12.56116,-1.70668 13.92651,-10.58142 1.36534,-8.87473 10.10355,10.51316 -0.81921,11.94677 -10.92275,1.43361 -13.1073,-1.36535 -13.1073,-1.36535 z"
           id="path3361"
           inkscape:connector-curvature="0" />
        <path
           inkscape:connector-curvature="0"
           id="path3363"
           d="m 150.39889,186.63257 c 0,0 12.28809,1.91148 13.65344,-6.96326 1.36534,-8.87473 8.87474,5.93926 -2.04802,7.37287 -10.92275,1.43361 -11.60542,-0.40961 -11.60542,-0.40961 z"
           style="fill:#ff2a2a;fill-rule:evenodd;stroke:none;stroke-width:0.0955741px;stroke-linecap:butt;stroke-linejoin:miter;stroke-opacity:1"
           sodipodi:nodetypes="cssc" />
      </g>
      <g
         id="g3375"
         transform="matrix(1.2703292,0,0,1.2703292,-197.94768,-118.44575)">
        <path
           inkscape:connector-curvature="0"
           id="path3377"
           d="m 150.28639,186.63257 c 0,0 -12.42463,-5.12004 -13.78998,-13.99478 -1.36534,-8.87473 -11.26409,14.40439 -0.34133,15.838 10.92275,1.43361 14.13131,-1.84322 14.13131,-1.84322 z"
           style="fill:#ff8080;fill-rule:evenodd;stroke:none;stroke-width:0.0955741px;stroke-linecap:butt;stroke-linejoin:miter;stroke-opacity:1" />
        <path
           sodipodi:nodetypes="cssc"
           style="fill:#ff5555;fill-rule:evenodd;stroke:none;stroke-width:0.0955741px;stroke-linecap:butt;stroke-linejoin:miter;stroke-opacity:1"
           d="m 150.28639,186.63257 c 0,0 -12.56116,-1.70668 -13.92651,-10.58142 -1.36534,-8.87473 -10.10355,10.51316 0.81921,11.94677 10.92275,1.43361 13.1073,-1.36535 13.1073,-1.36535 z"
           id="path3379"
           inkscape:connector-curvature="0" />
        <path
           inkscape:connector-curvature="0"
           id="path3381"
           d="m 150.28639,186.63257 c 0,0 -12.28809,1.91148 -13.65344,-6.96326 -1.36534,-8.87473 -8.87474,5.93926 2.04802,7.37287 10.92275,1.43361 11.60542,-0.40961 11.60542,-0.40961 z"
           style="fill:#ff2a2a;fill-rule:evenodd;stroke:none;stroke-width:0.0955741px;stroke-linecap:butt;stroke-linejoin:miter;stroke-opacity:1"
           sodipodi:nodetypes="cssc" />
      </g>
      <g
         id="g3383"
         transform="matrix(1.2703292,0,0,1.2703292,-197.94768,-118.44575)">
        <path
           style="fill:#ff8080;fill-rule:evenodd;stroke:none;stroke-width:0.0955741px;stroke-linecap:butt;stroke-linejoin:miter;stroke-opacity:1"
           d="m 150.39889,186.63257 c 0,0 12.42463,-5.12004 13.78998,-13.99478 1.36534,-8.87473 11.26409,14.40439 0.34133,15.838 -10.92275,1.43361 -14.13131,-1.84322 -14.13131,-1.84322 z"
           id="path3385"
           inkscape:connector-curvature="0" />
        <path
           inkscape:connector-curvature="0"
           id="path3387"
           d="m 150.39889,186.63257 c 0,0 12.56116,-1.70668 13.92651,-10.58142 1.36534,-8.87473 10.10355,10.51316 -0.81921,11.94677 -10.92275,1.43361 -13.1073,-1.36535 -13.1073,-1.36535 z"
           style="fill:#ff5555;fill-rule:evenodd;stroke:none;stroke-width:0.0955741px;stroke-linecap:butt;stroke-linejoin:miter;stroke-opacity:1"
           sodipodi:nodetypes="cssc" />
        <path
           sodipodi:nodetypes="cssc"
           style="fill:#ff2a2a;fill-rule:evenodd;stroke:none;stroke-width:0.0955741px;stroke-linecap:butt;stroke-linejoin:miter;stroke-opacity:1"
           d="m 150.39889,186.63257 c 0,0 12.28809,1.91148 13.65344,-6.96326 1.36534,-8.87473 8.87474,5.93926 -2.04802,7.37287 -10.92275,1.43361 -11.60542,-0.40961 -11.60542,-0.40961 z"
           id="path3389"
           inkscape:connector-curvature="0" />
      </g>
      <path
         sodipodi:nodetypes="cccccc"
         inkscape:connector-curvature="0"
         id="path3351"
         d="m -13.595961,81.460961 -0.141447,77.469679 14.12341015,0 0.141447,-77.484444 -6.83402195,-12.429175 z"
         style="fill:#ff0000;fill-rule:evenodd;stroke:none;stroke-width:0.0955741px;stroke-linecap:butt;stroke-linejoin:miter;stroke-opacity:1" />
      <rect
         y="137.96384"
         x="-23.453451"
         height="7.3487344"
         width="33.351948"
         id="rect3391"
         style="fill:#ff0000;stroke:none" />
      <rect
         y="85.015244"
         x="-11.017152"
         height="67.646034"
         width="8.8561678"
         id="rect3393"
         style="fill:#55ddff;stroke:none" />
      <rect
         style="fill:#00ccff;stroke:none"
         id="rect3395"
         width="5.7830405"
         height="64.06588"
         x="-9.5096941"
         y="86.899559" />
      <rect
         y="88.406975"
         x="-7.9551516"
         height="60.956806"
         width="2.7210681"
         id="rect3397"
         style="fill:#00aad4;stroke:none" />
    </g>
  </g>
</svg>
