<?xml version="1.0" encoding="UTF-8" standalone="no"?>
<!-- Created with Inkscape (http://www.inkscape.org/) -->

<svg
   xmlns:dc="http://purl.org/dc/elements/1.1/"
   xmlns:cc="http://creativecommons.org/ns#"
   xmlns:rdf="http://www.w3.org/1999/02/22-rdf-syntax-ns#"
   xmlns:svg="http://www.w3.org/2000/svg"
   xmlns="http://www.w3.org/2000/svg"
   xmlns:sodipodi="http://sodipodi.sourceforge.net/DTD/sodipodi-0.dtd"
   xmlns:inkscape="http://www.inkscape.org/namespaces/inkscape"
   width="210mm"
   height="297mm"
   viewBox="0 0 210 297"
   version="1.1"
   id="svg8"
   inkscape:version="0.91 r13725"
   sodipodi:docname="10.svg">
  <defs
     id="defs2">
    <pattern
       id="EMFhbasepattern"
       patternUnits="userSpaceOnUse"
       width="6"
       height="6"
       x="0"
       y="0" />
  </defs>
  <sodipodi:namedview
     id="base"
     pagecolor="#ffffff"
     bordercolor="#666666"
     borderopacity="1.0"
     inkscape:pageopacity="0.0"
     inkscape:pageshadow="2"
     inkscape:zoom="0.7"
     inkscape:cx="6.9522186"
     inkscape:cy="1023.9202"
     inkscape:document-units="mm"
     inkscape:current-layer="layer1"
     showgrid="false"
     inkscape:window-width="944"
     inkscape:window-height="1001"
     inkscape:window-x="960"
     inkscape:window-y="0"
     inkscape:window-maximized="0" />
  <metadata
     id="metadata5">
    <rdf:RDF>
      <cc:Work
         rdf:about="">
        <dc:format>image/svg+xml</dc:format>
        <dc:type
           rdf:resource="http://purl.org/dc/dcmitype/StillImage" />
        <dc:title />
      </cc:Work>
    </rdf:RDF>
  </metadata>
  <g
     inkscape:label="Layer 1"
     inkscape:groupmode="layer"
     id="layer1">
    <g
       id="g3347"
       transform="translate(-9.5955546,-6.7733329)">
      <rect
         y="-52.149208"
         x="-50.799999"
         height="119.33968"
         width="119.33968"
         id="rect3337"
         style="opacity:1;fill:#93aca7;fill-opacity:1;stroke:none;stroke-width:0;stroke-linecap:round;stroke-miterlimit:4;stroke-dasharray:none;stroke-dashoffset:0;stroke-opacity:1" />
      <ellipse
         ry="24.968172"
         rx="59.541161"
         cy="-52.151176"
         cx="8.7386112"
         id="path3339"
         style="opacity:1;fill:#93aca7;fill-opacity:1;stroke:none;stroke-width:0;stroke-linecap:round;stroke-miterlimit:4;stroke-dasharray:none;stroke-dashoffset:0;stroke-opacity:1" />
      <ellipse
         style="opacity:1;fill:#93aca7;fill-opacity:1;stroke:none;stroke-width:0;stroke-linecap:round;stroke-miterlimit:4;stroke-dasharray:none;stroke-dashoffset:0;stroke-opacity:1"
         id="ellipse3341"
         cx="8.9969711"
         cy="67.183296"
         rx="59.541161"
         ry="24.968172" />
      <ellipse
         transform="matrix(0,1,-1,0,0,0)"
         ry="24.968172"
         rx="59.541161"
         cy="49.445969"
         cx="9.0254469"
         id="ellipse3343"
         style="opacity:1;fill:#93aca7;fill-opacity:1;stroke:none;stroke-width:0;stroke-linecap:round;stroke-miterlimit:4;stroke-dasharray:none;stroke-dashoffset:0;stroke-opacity:1" />
      <ellipse
         style="opacity:1;fill:#93aca7;fill-opacity:1;stroke:none;stroke-width:0;stroke-linecap:round;stroke-miterlimit:4;stroke-dasharray:none;stroke-dashoffset:0;stroke-opacity:1"
         id="ellipse3345"
         cx="7.0298343"
         cy="-68.865341"
         rx="59.541161"
         ry="24.968172"
         transform="matrix(0,1,-1,0,0,0)" />
    </g>
    <circle
       style="opacity:1;fill:#00ccff;fill-opacity:1;stroke:none;stroke-width:0;stroke-linecap:round;stroke-miterlimit:4;stroke-dasharray:none;stroke-dashoffset:0;stroke-opacity:1"
       id="path3347"
       cx="0.80634975"
       cy="1.0698404"
       r="51.60635" />
    <path
       style="fill:#ff0000;fill-opacity:1;fill-rule:evenodd;stroke:none;stroke-width:0.28222221px;stroke-linecap:butt;stroke-linejoin:miter;stroke-opacity:1"
       d="m -49.993652,-4.6034386 c 0,0 32.882347,-17.8172684 52.222401,-17.7543874 19.091736,0.06208 51.393472,17.7543874 51.393472,17.7543874 0,0 -0.744041,-15.1990754 -10.208355,-27.4728174 -9.464314,-12.273742 -27.6489,-21.622149 -39.320031,-21.886773 -12.2201084,-0.277071 -32.373397,6.507202 -42.840241,19.343722 -10.466845,12.836521 -11.247246,30.0158684 -11.247246,30.0158684 z"
       id="path3348"
       inkscape:connector-curvature="0"
       sodipodi:nodetypes="cscsssc" />
    <path
       sodipodi:nodetypes="cscsssc"
       inkscape:connector-curvature="0"
       id="path4158"
       d="m -49.993652,-4.6034386 c 0,0 32.882347,-15.0914054 52.222401,-15.0381434 19.091736,0.05258 51.393472,15.0381434 51.393472,15.0381434 0,0 -0.744041,-12.8737694 -10.208355,-23.2697524 -9.464314,-10.395981 -27.6489,-18.314177 -39.320031,-18.538316 -12.2201084,-0.234681 -32.373397,5.511666 -42.840241,16.384327 -10.466845,10.872662 -11.247246,25.4237414 -11.247246,25.4237414 z"
       style="fill:#800080;fill-opacity:1;fill-rule:evenodd;stroke:none;stroke-width:0.28222221px;stroke-linecap:butt;stroke-linejoin:miter;stroke-opacity:1" />
    <path
       style="fill:#5500d4;fill-opacity:1;fill-rule:evenodd;stroke:none;stroke-width:0.28222221px;stroke-linecap:butt;stroke-linejoin:miter;stroke-opacity:1"
       d="m -49.993652,-4.0768704 c 0,0 32.882347,-10.7856596 52.222401,-10.7475946 19.091736,0.03758 51.393472,10.7475946 51.393472,10.7475946 0,0 -0.744041,-9.2007396 -10.208355,-16.6306326 -9.464314,-7.429892 -27.6489,-13.088937 -39.320031,-13.249128 -12.2201084,-0.167724 -32.373397,3.939127 -42.840241,11.709696 -10.466845,7.77057 -11.247246,18.1700646 -11.247246,18.1700646 z"
       id="path4160"
       inkscape:connector-curvature="0"
       sodipodi:nodetypes="cscsssc" />
    <ellipse
       cy="-4.5746045"
       cx="-31.038515"
       id="circle4162"
       style="opacity:1;fill:#53536c;fill-opacity:1;stroke:none;stroke-width:0;stroke-linecap:round;stroke-miterlimit:4;stroke-dasharray:none;stroke-dashoffset:0;stroke-opacity:1"
       rx="15.326565"
       ry="3.628572" />
    <ellipse
       ry="3.628572"
       rx="15.326565"
       style="opacity:1;fill:#53536c;fill-opacity:1;stroke:none;stroke-width:0;stroke-linecap:round;stroke-miterlimit:4;stroke-dasharray:none;stroke-dashoffset:0;stroke-opacity:1"
       id="ellipse4164"
       cx="2.8281517"
       cy="-13.444446" />
    <ellipse
       cy="-5.3809533"
       cx="33.872597"
       id="ellipse4166"
       style="opacity:1;fill:#53536c;fill-opacity:1;stroke:none;stroke-width:0;stroke-linecap:round;stroke-miterlimit:4;stroke-dasharray:none;stroke-dashoffset:0;stroke-opacity:1"
       rx="15.326565"
       ry="3.628572" />
  </g>
</svg>
