<?xml version="1.0" encoding="UTF-8" standalone="no"?>
<!-- Created with Inkscape (http://www.inkscape.org/) -->

<svg
   xmlns:dc="http://purl.org/dc/elements/1.1/"
   xmlns:cc="http://creativecommons.org/ns#"
   xmlns:rdf="http://www.w3.org/1999/02/22-rdf-syntax-ns#"
   xmlns:svg="http://www.w3.org/2000/svg"
   xmlns="http://www.w3.org/2000/svg"
   xmlns:sodipodi="http://sodipodi.sourceforge.net/DTD/sodipodi-0.dtd"
   xmlns:inkscape="http://www.inkscape.org/namespaces/inkscape"
   width="210mm"
   height="297mm"
   viewBox="0 0 210 297"
   version="1.1"
   id="svg8"
   inkscape:version="0.91 r13725"
   sodipodi:docname="110.svg">
  <defs
     id="defs2">
    <pattern
       id="EMFhbasepattern"
       patternUnits="userSpaceOnUse"
       width="6"
       height="6"
       x="0"
       y="0" />
  </defs>
  <sodipodi:namedview
     id="base"
     pagecolor="#ffffff"
     bordercolor="#666666"
     borderopacity="1.0"
     inkscape:pageopacity="0.0"
     inkscape:pageshadow="2"
     inkscape:zoom="0.49497475"
     inkscape:cx="-344.49833"
     inkscape:cy="1212.8812"
     inkscape:document-units="mm"
     inkscape:current-layer="layer1"
     showgrid="false"
     inkscape:window-width="958"
     inkscape:window-height="1008"
     inkscape:window-x="-7"
     inkscape:window-y="0"
     inkscape:window-maximized="0" />
  <metadata
     id="metadata5">
    <rdf:RDF>
      <cc:Work
         rdf:about="">
        <dc:format>image/svg+xml</dc:format>
        <dc:type
           rdf:resource="http://purl.org/dc/dcmitype/StillImage" />
        <dc:title />
      </cc:Work>
    </rdf:RDF>
  </metadata>
  <g
     inkscape:label="Layer 1"
     inkscape:groupmode="layer"
     id="layer1">
    <g
       id="g3347"
       transform="translate(-9.5955546,-6.7733329)"
       style="fill:#808080">
      <rect
         y="-52.149208"
         x="-50.799999"
         height="119.33968"
         width="119.33968"
         id="rect3337"
         style="opacity:1;fill:#808080;fill-opacity:1;stroke:none;stroke-width:0;stroke-linecap:round;stroke-miterlimit:4;stroke-dasharray:none;stroke-dashoffset:0;stroke-opacity:1" />
      <ellipse
         ry="24.968172"
         rx="59.541161"
         cy="-52.151176"
         cx="8.7386112"
         id="path3339"
         style="opacity:1;fill:#808080;fill-opacity:1;stroke:none;stroke-width:0;stroke-linecap:round;stroke-miterlimit:4;stroke-dasharray:none;stroke-dashoffset:0;stroke-opacity:1" />
      <ellipse
         style="opacity:1;fill:#808080;fill-opacity:1;stroke:none;stroke-width:0;stroke-linecap:round;stroke-miterlimit:4;stroke-dasharray:none;stroke-dashoffset:0;stroke-opacity:1"
         id="ellipse3341"
         cx="8.9969711"
         cy="67.183296"
         rx="59.541161"
         ry="24.968172" />
      <ellipse
         transform="matrix(0,1,-1,0,0,0)"
         ry="24.968172"
         rx="59.541161"
         cy="49.445969"
         cx="9.0254469"
         id="ellipse3343"
         style="opacity:1;fill:#808080;fill-opacity:1;stroke:none;stroke-width:0;stroke-linecap:round;stroke-miterlimit:4;stroke-dasharray:none;stroke-dashoffset:0;stroke-opacity:1" />
      <ellipse
         style="opacity:1;fill:#808080;fill-opacity:1;stroke:none;stroke-width:0;stroke-linecap:round;stroke-miterlimit:4;stroke-dasharray:none;stroke-dashoffset:0;stroke-opacity:1"
         id="ellipse3345"
         cx="7.0298343"
         cy="-68.865341"
         rx="59.541161"
         ry="24.968172"
         transform="matrix(0,1,-1,0,0,0)" />
    </g>
    <g
       transform="matrix(0.91038553,0,0,0.91038553,-9.0069961,-5.8165035)"
       id="g3340"
       style="fill:#999999">
      <rect
         style="opacity:1;fill:#999999;fill-opacity:1;stroke:none;stroke-width:0;stroke-linecap:round;stroke-miterlimit:4;stroke-dasharray:none;stroke-dashoffset:0;stroke-opacity:1"
         id="rect3342"
         width="119.33968"
         height="119.33968"
         x="-50.799999"
         y="-52.149208" />
      <ellipse
         style="opacity:1;fill:#999999;fill-opacity:1;stroke:none;stroke-width:0;stroke-linecap:round;stroke-miterlimit:4;stroke-dasharray:none;stroke-dashoffset:0;stroke-opacity:1"
         id="ellipse3344"
         cx="8.7386112"
         cy="-52.151176"
         rx="59.541161"
         ry="24.968172" />
      <ellipse
         ry="24.968172"
         rx="59.541161"
         cy="67.183296"
         cx="8.9969711"
         id="ellipse3346"
         style="opacity:1;fill:#999999;fill-opacity:1;stroke:none;stroke-width:0;stroke-linecap:round;stroke-miterlimit:4;stroke-dasharray:none;stroke-dashoffset:0;stroke-opacity:1" />
      <ellipse
         style="opacity:1;fill:#999999;fill-opacity:1;stroke:none;stroke-width:0;stroke-linecap:round;stroke-miterlimit:4;stroke-dasharray:none;stroke-dashoffset:0;stroke-opacity:1"
         id="ellipse3348"
         cx="9.0254469"
         cy="49.445969"
         rx="59.541161"
         ry="24.968172"
         transform="matrix(0,1,-1,0,0,0)" />
      <ellipse
         transform="matrix(0,1,-1,0,0,0)"
         ry="24.968172"
         rx="59.541161"
         cy="-68.865341"
         cx="7.0298343"
         id="ellipse3350"
         style="opacity:1;fill:#999999;fill-opacity:1;stroke:none;stroke-width:0;stroke-linecap:round;stroke-miterlimit:4;stroke-dasharray:none;stroke-dashoffset:0;stroke-opacity:1" />
    </g>
    <g
       id="g3352"
       transform="matrix(0.81911047,0,0,0.81911047,-6.6763511,-6.5836514)"
       style="fill:#800080">
      <rect
         y="-52.149208"
         x="-50.799999"
         height="119.33968"
         width="119.33968"
         id="rect3354"
         style="opacity:1;fill:#800080;fill-opacity:1;stroke:none;stroke-width:0;stroke-linecap:round;stroke-miterlimit:4;stroke-dasharray:none;stroke-dashoffset:0;stroke-opacity:1" />
      <ellipse
         ry="24.968172"
         rx="59.541161"
         cy="-52.151176"
         cx="8.7386112"
         id="ellipse3356"
         style="opacity:1;fill:#800080;fill-opacity:1;stroke:none;stroke-width:0;stroke-linecap:round;stroke-miterlimit:4;stroke-dasharray:none;stroke-dashoffset:0;stroke-opacity:1" />
      <ellipse
         style="opacity:1;fill:#800080;fill-opacity:1;stroke:none;stroke-width:0;stroke-linecap:round;stroke-miterlimit:4;stroke-dasharray:none;stroke-dashoffset:0;stroke-opacity:1"
         id="ellipse3358"
         cx="8.9969711"
         cy="67.183296"
         rx="59.541161"
         ry="24.968172" />
      <ellipse
         transform="matrix(0,1,-1,0,0,0)"
         ry="24.968172"
         rx="59.541161"
         cy="49.445969"
         cx="9.0254469"
         id="ellipse3360"
         style="opacity:1;fill:#800080;fill-opacity:1;stroke:none;stroke-width:0;stroke-linecap:round;stroke-miterlimit:4;stroke-dasharray:none;stroke-dashoffset:0;stroke-opacity:1" />
      <ellipse
         style="opacity:1;fill:#800080;fill-opacity:1;stroke:none;stroke-width:0;stroke-linecap:round;stroke-miterlimit:4;stroke-dasharray:none;stroke-dashoffset:0;stroke-opacity:1"
         id="ellipse3362"
         cx="7.0298343"
         cy="-68.865341"
         rx="59.541161"
         ry="24.968172"
         transform="matrix(0,1,-1,0,0,0)" />
    </g>
    <path
       style="fill:#003380;fill-rule:evenodd;stroke:none;stroke-width:0.28222221px;stroke-linecap:butt;stroke-linejoin:miter;stroke-opacity:1"
       d="m 63.289427,-26.707076 c 0,0 -35.881467,-7.983084 -52.215613,-7.849405 -13.8436511,0.113294 -37.881912,7.849405 -37.881912,7.849405 0,0 -16.914756,12.876974 -22.054463,21.6662588 -5.482253,9.3750656 -9.05241,32.2124242 -9.05241,32.2124242 0,0 34.173669,-8.219347 51.5835816,-8.190684 17.0563164,0.02808 50.5092204,8.190684 50.5092204,8.190684 0,0 -2.177539,-20.440487 0.967066,-29.4478241 3.28907,-9.4211229 18.14453,-24.4308589 18.14453,-24.4308589 z"
       id="path3352"
       inkscape:connector-curvature="0"
       sodipodi:nodetypes="cscscscsc" />
    <path
       sodipodi:nodetypes="cscscscsc"
       inkscape:connector-curvature="0"
       id="path3354"
       d="m 59.013115,-25.132466 c 0,0 -33.124096,-7.369611 -48.203017,-7.246204 -12.7798129,0.104587 -34.970813,7.246204 -34.970813,7.246204 0,0 -15.614914,11.887421 -20.359652,20.0012789 -5.06096,8.654623 -8.356762,29.7370071 -8.356762,29.7370071 0,0 31.547537,-7.587718 47.6195552,-7.561258 15.7455948,0.02592 46.6277558,7.561258 46.6277558,7.561258 0,0 -2.010203,-18.8697041 0.89275,-27.1848573 3.036315,-8.6971417 16.750183,-22.5534287 16.750183,-22.5534287 z"
       style="fill:#0044aa;fill-rule:evenodd;stroke:none;stroke-width:0.28222221px;stroke-linecap:butt;stroke-linejoin:miter;stroke-opacity:1" />
    <path
       style="fill:#5599ff;fill-rule:evenodd;stroke:none;stroke-width:0.28222221px;stroke-linecap:butt;stroke-linejoin:miter;stroke-opacity:1"
       d="m 34.210504,-17.193037 c -7.336569,-9.475933 -15.593435,-7.146086 -26.7151053,-7.055066 -9.4259321,0.07714 -25.7932187,5.344541 -25.7932187,5.344541 0,0 -11.517,8.767735 -15.016548,14.7522254 -3.732784,6.3833397 -5.161277,12.7049528 -1.317162,16.8013756 6.906634,7.359949 18.421845,-0.464855 30.2759897,-0.445338 11.6133866,0.01912 20.9486243,4.402666 28.9742993,-0.980099 4.096621,-2.7475767 3.934007,-7.3606054 6.075122,-13.4935643 2.239477,-6.4147002 7.57684,-9.6798867 3.516623,-14.9240747 z"
       id="path3358"
       inkscape:connector-curvature="0"
       sodipodi:nodetypes="sscssssss" />
    <circle
       r="2.5657873"
       cy="-14.030457"
       cx="16.820162"
       id="circle3360"
       style="fill:#aaccff;stroke:none" />
  </g>
</svg>
