<?xml version="1.0" encoding="UTF-8" standalone="no"?>
<!-- Created with Inkscape (http://www.inkscape.org/) -->

<svg
   xmlns:dc="http://purl.org/dc/elements/1.1/"
   xmlns:cc="http://creativecommons.org/ns#"
   xmlns:rdf="http://www.w3.org/1999/02/22-rdf-syntax-ns#"
   xmlns:svg="http://www.w3.org/2000/svg"
   xmlns="http://www.w3.org/2000/svg"
   xmlns:sodipodi="http://sodipodi.sourceforge.net/DTD/sodipodi-0.dtd"
   xmlns:inkscape="http://www.inkscape.org/namespaces/inkscape"
   width="210mm"
   height="297mm"
   viewBox="0 0 210 297"
   version="1.1"
   id="svg8"
   inkscape:version="0.91 r13725"
   sodipodi:docname="214.svg">
  <defs
     id="defs2">
    <pattern
       id="EMFhbasepattern"
       patternUnits="userSpaceOnUse"
       width="6"
       height="6"
       x="0"
       y="0" />
    <pattern
       y="0"
       x="0"
       height="6"
       width="6"
       patternUnits="userSpaceOnUse"
       id="EMFhbasepattern-3" />
  </defs>
  <sodipodi:namedview
     id="base"
     pagecolor="#ffffff"
     bordercolor="#666666"
     borderopacity="1.0"
     inkscape:pageopacity="0.0"
     inkscape:pageshadow="2"
     inkscape:zoom="0.49497475"
     inkscape:cx="-469.31765"
     inkscape:cy="1440.6763"
     inkscape:document-units="mm"
     inkscape:current-layer="layer1"
     showgrid="false"
     inkscape:window-width="958"
     inkscape:window-height="1008"
     inkscape:window-x="-7"
     inkscape:window-y="0"
     inkscape:window-maximized="0" />
  <metadata
     id="metadata5">
    <rdf:RDF>
      <cc:Work
         rdf:about="">
        <dc:format>image/svg+xml</dc:format>
        <dc:type
           rdf:resource="http://purl.org/dc/dcmitype/StillImage" />
        <dc:title />
      </cc:Work>
    </rdf:RDF>
  </metadata>
  <g
     inkscape:label="Layer 1"
     inkscape:groupmode="layer"
     id="layer1">
    <g
       id="g3347"
       transform="translate(-9.5955546,-6.7733329)">
      <rect
         y="-52.149208"
         x="-50.799999"
         height="119.33968"
         width="119.33968"
         id="rect3337"
         style="opacity:1;fill:#93aca7;fill-opacity:1;stroke:none;stroke-width:0;stroke-linecap:round;stroke-miterlimit:4;stroke-dasharray:none;stroke-dashoffset:0;stroke-opacity:1" />
      <ellipse
         ry="24.968172"
         rx="59.541161"
         cy="-52.151176"
         cx="8.7386112"
         id="path3339"
         style="opacity:1;fill:#93aca7;fill-opacity:1;stroke:none;stroke-width:0;stroke-linecap:round;stroke-miterlimit:4;stroke-dasharray:none;stroke-dashoffset:0;stroke-opacity:1" />
      <ellipse
         style="opacity:1;fill:#93aca7;fill-opacity:1;stroke:none;stroke-width:0;stroke-linecap:round;stroke-miterlimit:4;stroke-dasharray:none;stroke-dashoffset:0;stroke-opacity:1"
         id="ellipse3341"
         cx="8.9969711"
         cy="67.183296"
         rx="59.541161"
         ry="24.968172" />
      <ellipse
         transform="matrix(0,1,-1,0,0,0)"
         ry="24.968172"
         rx="59.541161"
         cy="49.445969"
         cx="9.0254469"
         id="ellipse3343"
         style="opacity:1;fill:#93aca7;fill-opacity:1;stroke:none;stroke-width:0;stroke-linecap:round;stroke-miterlimit:4;stroke-dasharray:none;stroke-dashoffset:0;stroke-opacity:1" />
      <ellipse
         style="opacity:1;fill:#93aca7;fill-opacity:1;stroke:none;stroke-width:0;stroke-linecap:round;stroke-miterlimit:4;stroke-dasharray:none;stroke-dashoffset:0;stroke-opacity:1"
         id="ellipse3345"
         cx="7.0298343"
         cy="-68.865341"
         rx="59.541161"
         ry="24.968172"
         transform="matrix(0,1,-1,0,0,0)" />
    </g>
    <g
       id="g3539"
       style="fill:#2a7fff"
       transform="translate(71.842049,124.29815)">
      <rect
         transform="matrix(0.70710678,0.70710678,-0.70710678,0.70710678,0,0)"
         ry="0.0015795174"
         rx="0.014092891"
         y="-73.781456"
         x="-146.39006"
         height="96.443886"
         width="16.36068"
         id="rect3355-4"
         style="opacity:1;fill:#2a7fff;fill-opacity:1;stroke:none;stroke-width:0;stroke-linecap:round;stroke-miterlimit:4;stroke-dasharray:none;stroke-dashoffset:0;stroke-opacity:1" />
      <circle
         transform="matrix(0.70710678,0.70710678,-0.70710678,0.70710678,0,0)"
         style="opacity:1;fill:#2a7fff;fill-opacity:1;stroke:none;stroke-width:0;stroke-linecap:round;stroke-miterlimit:4;stroke-dasharray:none;stroke-dashoffset:0;stroke-opacity:1"
         id="circle3373-7"
         cx="-151.11116"
         cy="-69.280342"
         r="2.4941914" />
      <circle
         transform="matrix(0.70710678,0.70710678,-0.70710678,0.70710678,0,0)"
         r="17.864756"
         cy="-90.549805"
         cx="-138.54596"
         id="circle3384"
         style="opacity:1;fill:#2a7fff;fill-opacity:1;stroke:none;stroke-width:0;stroke-linecap:round;stroke-miterlimit:4;stroke-dasharray:none;stroke-dashoffset:0;stroke-opacity:1" />
      <path
         inkscape:connector-curvature="0"
         id="path3386"
         d="m -48.987854,-152.95232 c 0,0 -4.85103,-19.63508 -2.1945,-20.90562 2.65653,-1.27047 -12.01205,4.15805 -9.00902,9.24006 3.003,5.08203 11.20354,11.66557 11.20354,11.66557 z"
         style="fill:#2a7fff;fill-rule:evenodd;stroke:none;stroke-width:0.0955741px;stroke-linecap:butt;stroke-linejoin:miter;stroke-opacity:1" />
      <path
         style="fill:#2a7fff;fill-rule:evenodd;stroke:none;stroke-width:0.0955741px;stroke-linecap:butt;stroke-linejoin:miter;stroke-opacity:1"
         d="m -42.581254,-146.54573 c 0,0 19.63508,4.85103 20.9056,2.19449 1.27049,-2.65651 -4.15803,12.01207 -9.24005,9.00903 -5.08204,-3.00301 -11.66558,-11.20354 -11.66558,-11.20354 z"
         id="path3388"
         inkscape:connector-curvature="0" />
      <circle
         transform="matrix(0.70710678,0.70710678,-0.70710678,0.70710678,0,0)"
         r="2.4941914"
         cy="-69.280342"
         cx="-125.125"
         id="circle3398"
         style="opacity:1;fill:#2a7fff;fill-opacity:1;stroke:none;stroke-width:0;stroke-linecap:round;stroke-miterlimit:4;stroke-dasharray:none;stroke-dashoffset:0;stroke-opacity:1" />
      <path
         inkscape:connector-curvature="0"
         id="path3400"
         d="m -124.76317,-90.435543 c 0,0 -0.29877,5.904396 3.37225,7.300062 3.67095,1.395736 8.5506,1.344833 5.06362,-1.847214 -3.48699,-3.192062 -5.74082,-11.254682 -7.28712,-10.495236 -1.54623,0.759432 -1.14868,5.042346 -1.14868,5.042346 z"
         style="fill:#2a7fff;fill-rule:evenodd;stroke:none;stroke-width:0.0955741px;stroke-linecap:butt;stroke-linejoin:miter;stroke-opacity:1" />
      <path
         style="fill:#2a7fff;fill-rule:evenodd;stroke:none;stroke-width:0.0955741px;stroke-linecap:butt;stroke-linejoin:miter;stroke-opacity:1"
         d="m -104.77754,-70.449919 c 0,0 -5.9044,0.298771 -7.30007,-3.372246 -1.39573,-3.670947 -1.34483,-8.550604 1.84722,-5.063627 3.19206,3.486991 11.254676,5.740824 10.495226,7.287123 -0.759426,1.546228 -5.042336,1.14868 -5.042336,1.14868 z"
         id="path3402"
         inkscape:connector-curvature="0" />
      <rect
         transform="matrix(0.70710678,0.70710678,-0.70710678,0.70710678,0,0)"
         ry="0.00015096091"
         rx="0.0013469157"
         y="22.558558"
         x="-144.26773"
         height="3.9238281"
         width="13.015626"
         id="rect3404"
         style="opacity:1;fill:#2a7fff;fill-opacity:1;stroke:none;stroke-width:0;stroke-linecap:round;stroke-miterlimit:4;stroke-dasharray:none;stroke-dashoffset:0;stroke-opacity:1" />
    </g>
    <g
       style="fill:#0055d4"
       id="g3554"
       transform="matrix(0.86207344,0,0,0.86207344,56.228411,112.94138)">
      <rect
         style="opacity:1;fill:#0055d4;fill-opacity:1;stroke:none;stroke-width:0;stroke-linecap:round;stroke-miterlimit:4;stroke-dasharray:none;stroke-dashoffset:0;stroke-opacity:1"
         id="rect3556"
         width="16.36068"
         height="131.05222"
         x="-146.53535"
         y="-107.24147"
         rx="0.014092891"
         ry="0.0021463181"
         transform="matrix(0.70710678,0.70710678,-0.70710678,0.70710678,0,0)" />
      <circle
         r="2.4941914"
         cy="-83.748459"
         cx="-153.09535"
         id="circle3558"
         style="opacity:1;fill:#0055d4;fill-opacity:1;stroke:none;stroke-width:0;stroke-linecap:round;stroke-miterlimit:4;stroke-dasharray:none;stroke-dashoffset:0;stroke-opacity:1"
         transform="matrix(0.70710678,0.70710678,-0.70710678,0.70710678,0,0)" />
      <circle
         style="opacity:1;fill:#0055d4;fill-opacity:1;stroke:none;stroke-width:0;stroke-linecap:round;stroke-miterlimit:4;stroke-dasharray:none;stroke-dashoffset:0;stroke-opacity:1"
         id="circle3560"
         cx="-138.21526"
         cy="-107.08479"
         r="17.864756"
         transform="matrix(0.70710678,0.70710678,-0.70710678,0.70710678,0,0)" />
      <path
         style="fill:#0055d4;fill-rule:evenodd;stroke:none;stroke-width:0.0955741px;stroke-linecap:butt;stroke-linejoin:miter;stroke-opacity:1"
         d="m -37.062011,-164.41048 c 0,0 -4.85103,-19.63508 -2.1945,-20.90562 2.65653,-1.27047 -12.01205,4.15805 -9.00902,9.24006 3.003,5.08203 11.20354,11.66557 11.20354,11.66557 z"
         id="path3562"
         inkscape:connector-curvature="0" />
      <path
         inkscape:connector-curvature="0"
         id="path3564"
         d="m -30.655411,-158.00389 c 0,0 19.63508,4.85103 20.9055999,2.19449 1.27049,-2.65651 -4.1580299,12.01207 -9.2400499,9.00903 -5.08204,-3.00301 -11.66558,-11.20354 -11.66558,-11.20354 z"
         style="fill:#0055d4;fill-rule:evenodd;stroke:none;stroke-width:0.0955741px;stroke-linecap:butt;stroke-linejoin:miter;stroke-opacity:1" />
      <circle
         style="opacity:1;fill:#0055d4;fill-opacity:1;stroke:none;stroke-width:0;stroke-linecap:round;stroke-miterlimit:4;stroke-dasharray:none;stroke-dashoffset:0;stroke-opacity:1"
         id="circle3566"
         cx="-122.92702"
         cy="-83.874977"
         r="2.4941914"
         transform="matrix(0.70710678,0.70710678,-0.70710678,0.70710678,0,0)" />
      <path
         style="fill:#0055d4;fill-rule:evenodd;stroke:none;stroke-width:0.0955741px;stroke-linecap:butt;stroke-linejoin:miter;stroke-opacity:1"
         d="m -124.76317,-90.435543 c 0,0 -0.29877,5.904396 3.37225,7.300062 3.67095,1.395736 8.5506,1.344833 5.06362,-1.847214 -3.48699,-3.192062 -5.74082,-11.254682 -7.28712,-10.495236 -1.54623,0.759432 -1.14868,5.042346 -1.14868,5.042346 z"
         id="path3568"
         inkscape:connector-curvature="0" />
      <path
         inkscape:connector-curvature="0"
         id="path3570"
         d="m -104.77754,-70.449919 c 0,0 -5.9044,0.298771 -7.30007,-3.372246 -1.39573,-3.670947 -1.34483,-8.550604 1.84722,-5.063627 3.19206,3.486991 11.254676,5.740824 10.495226,7.287123 -0.759426,1.546228 -5.042336,1.14868 -5.042336,1.14868 z"
         style="fill:#0055d4;fill-rule:evenodd;stroke:none;stroke-width:0.0955741px;stroke-linecap:butt;stroke-linejoin:miter;stroke-opacity:1" />
      <rect
         style="opacity:1;fill:#0055d4;fill-opacity:1;stroke:none;stroke-width:0;stroke-linecap:round;stroke-miterlimit:4;stroke-dasharray:none;stroke-dashoffset:0;stroke-opacity:1"
         id="rect3572"
         width="13.015626"
         height="3.9238281"
         x="-144.26773"
         y="22.558558"
         rx="0.0013469157"
         ry="0.00015096091"
         transform="matrix(0.70710678,0.70710678,-0.70710678,0.70710678,0,0)" />
      <circle
         transform="matrix(0.70710678,0.70710678,-0.70710678,0.70710678,0,0)"
         r="13.538714"
         cy="-108.24225"
         cx="-138.54596"
         id="circle3574"
         style="opacity:1;fill:#00aad4;fill-opacity:1;stroke:none;stroke-width:0;stroke-linecap:round;stroke-miterlimit:4;stroke-dasharray:none;stroke-dashoffset:0;stroke-opacity:1" />
    </g>
  </g>
</svg>
