<?xml version="1.0" encoding="UTF-8" standalone="no"?>
<!-- Created with Inkscape (http://www.inkscape.org/) -->

<svg
   xmlns:dc="http://purl.org/dc/elements/1.1/"
   xmlns:cc="http://creativecommons.org/ns#"
   xmlns:rdf="http://www.w3.org/1999/02/22-rdf-syntax-ns#"
   xmlns:svg="http://www.w3.org/2000/svg"
   xmlns="http://www.w3.org/2000/svg"
   xmlns:sodipodi="http://sodipodi.sourceforge.net/DTD/sodipodi-0.dtd"
   xmlns:inkscape="http://www.inkscape.org/namespaces/inkscape"
   width="210mm"
   height="297mm"
   viewBox="0 0 210 297"
   version="1.1"
   id="svg8"
   inkscape:version="0.91 r13725"
   sodipodi:docname="22.svg">
  <defs
     id="defs2">
    <pattern
       id="EMFhbasepattern"
       patternUnits="userSpaceOnUse"
       width="6"
       height="6"
       x="0"
       y="0" />
  </defs>
  <sodipodi:namedview
     id="base"
     pagecolor="#ffffff"
     bordercolor="#666666"
     borderopacity="1.0"
     inkscape:pageopacity="0.0"
     inkscape:pageshadow="2"
     inkscape:zoom="0.35"
     inkscape:cx="-335.6778"
     inkscape:cy="1387.7809"
     inkscape:document-units="mm"
     inkscape:current-layer="layer1"
     showgrid="false"
     inkscape:window-width="958"
     inkscape:window-height="1008"
     inkscape:window-x="-7"
     inkscape:window-y="0"
     inkscape:window-maximized="0" />
  <metadata
     id="metadata5">
    <rdf:RDF>
      <cc:Work
         rdf:about="">
        <dc:format>image/svg+xml</dc:format>
        <dc:type
           rdf:resource="http://purl.org/dc/dcmitype/StillImage" />
        <dc:title />
      </cc:Work>
    </rdf:RDF>
  </metadata>
  <g
     inkscape:label="Layer 1"
     inkscape:groupmode="layer"
     id="layer1">
    <g
       id="g3347"
       transform="translate(-9.5955546,-6.7733329)">
      <rect
         y="-52.149208"
         x="-50.799999"
         height="119.33968"
         width="119.33968"
         id="rect3337"
         style="opacity:1;fill:#93aca7;fill-opacity:1;stroke:none;stroke-width:0;stroke-linecap:round;stroke-miterlimit:4;stroke-dasharray:none;stroke-dashoffset:0;stroke-opacity:1" />
      <ellipse
         ry="24.968172"
         rx="59.541161"
         cy="-52.151176"
         cx="8.7386112"
         id="path3339"
         style="opacity:1;fill:#93aca7;fill-opacity:1;stroke:none;stroke-width:0;stroke-linecap:round;stroke-miterlimit:4;stroke-dasharray:none;stroke-dashoffset:0;stroke-opacity:1" />
      <ellipse
         style="opacity:1;fill:#93aca7;fill-opacity:1;stroke:none;stroke-width:0;stroke-linecap:round;stroke-miterlimit:4;stroke-dasharray:none;stroke-dashoffset:0;stroke-opacity:1"
         id="ellipse3341"
         cx="8.9969711"
         cy="67.183296"
         rx="59.541161"
         ry="24.968172" />
      <ellipse
         transform="matrix(0,1,-1,0,0,0)"
         ry="24.968172"
         rx="59.541161"
         cy="49.445969"
         cx="9.0254469"
         id="ellipse3343"
         style="opacity:1;fill:#93aca7;fill-opacity:1;stroke:none;stroke-width:0;stroke-linecap:round;stroke-miterlimit:4;stroke-dasharray:none;stroke-dashoffset:0;stroke-opacity:1" />
      <ellipse
         style="opacity:1;fill:#93aca7;fill-opacity:1;stroke:none;stroke-width:0;stroke-linecap:round;stroke-miterlimit:4;stroke-dasharray:none;stroke-dashoffset:0;stroke-opacity:1"
         id="ellipse3345"
         cx="7.0298343"
         cy="-68.865341"
         rx="59.541161"
         ry="24.968172"
         transform="matrix(0,1,-1,0,0,0)" />
    </g>
    <g
       id="layer1-0"
       inkscape:label="Layer 1"
       transform="matrix(0.41219298,0,0,0.41219298,-2.7158148,-0.08437206)">
      <g
         transform="matrix(10.463086,0,0,10.463086,-1852.4595,-1923.2476)"
         id="g4244">
        <ellipse
           ry="7.7235537"
           rx="14.674751"
           cy="183.21268"
           cx="178.20567"
           id="path3355"
           style="opacity:1;fill:#e9afaf;fill-opacity:1;stroke:none;stroke-width:0;stroke-linecap:round;stroke-miterlimit:4;stroke-dasharray:none;stroke-dashoffset:0;stroke-opacity:1" />
        <rect
           y="185.04701"
           x="164.30328"
           height="7.0477424"
           width="2.8963327"
           id="rect3357"
           style="opacity:1;fill:#e9afaf;fill-opacity:1;stroke:none;stroke-width:0;stroke-linecap:round;stroke-miterlimit:4;stroke-dasharray:none;stroke-dashoffset:0;stroke-opacity:1" />
        <path
           sodipodi:nodetypes="csc"
           inkscape:connector-curvature="0"
           id="path3359"
           d="m 168.96155,177.03383 c 0,0 1.97916,12.26114 8.25455,13.56449 6.27538,1.30335 -4.77895,0.14482 -8.25455,-13.56449 z"
           style="fill:#916f6f;fill-rule:evenodd;stroke:none;stroke-width:0.0955741px;stroke-linecap:butt;stroke-linejoin:miter;stroke-opacity:1" />
        <path
           style="fill:#916f6f;fill-rule:evenodd;stroke:none;stroke-width:0.0955741px;stroke-linecap:butt;stroke-linejoin:miter;stroke-opacity:1"
           d="m 190.65867,179.53714 c 0,0 -12.29137,1.78183 -13.69541,8.03546 -1.40405,6.25362 -0.068,-4.78066 13.69541,-8.03546 z"
           id="path3361"
           inkscape:connector-curvature="0"
           sodipodi:nodetypes="csc" />
        <path
           sodipodi:nodetypes="csc"
           inkscape:connector-curvature="0"
           id="path3363"
           d="m 189.29034,180.15719 c 0,0 -11.10939,-5.55285 -15.83179,-1.21947 -4.72241,4.33335 2.67296,-3.96417 15.83179,1.21947 z"
           style="fill:#916f6f;fill-rule:evenodd;stroke:none;stroke-width:0.0955741px;stroke-linecap:butt;stroke-linejoin:miter;stroke-opacity:1" />
        <path
           inkscape:connector-curvature="0"
           id="path3365-8"
           d="m 176.7058,179.60105 c 0,0 -18.77348,6.14405 -4.7787,9.83048 13.99478,3.68643 -16.99854,-2.59416 4.7787,-9.83048 z"
           style="fill:#916f6f;fill-rule:evenodd;stroke:none;stroke-width:0.0955741px;stroke-linecap:butt;stroke-linejoin:miter;stroke-opacity:1" />
        <path
           style="fill:#916f6f;fill-rule:evenodd;stroke:none;stroke-width:0.0955741px;stroke-linecap:butt;stroke-linejoin:miter;stroke-opacity:1"
           d="m 176.95617,179.86896 c 0,0 10.29817,16.85648 10.66617,2.38898 0.368,-14.46748 1.38599,17.13941 -10.66617,-2.38898 z"
           id="path3367"
           inkscape:connector-curvature="0" />
      </g>
    </g>
    <path
       style="fill:#00ccff;fill-rule:evenodd;stroke:none;stroke-width:0.28222221px;stroke-linecap:butt;stroke-linejoin:miter;stroke-opacity:1"
       d="m -2.1438581,-18.876943 5.633329,0 5.6333292,-53.071891 -14.8245502,0 z"
       id="path3377"
       inkscape:connector-curvature="0" />
    <path
       inkscape:connector-curvature="0"
       id="path3379"
       d="m -2.1438581,7.3054898 5.633329,0 5.6333292,53.0718912 -14.8245502,0 z"
       style="fill:#00ccff;fill-rule:evenodd;stroke:none;stroke-width:0.28222221px;stroke-linecap:butt;stroke-linejoin:miter;stroke-opacity:1" />
    <path
       inkscape:connector-curvature="0"
       id="path3381"
       d="m 14.801741,-9.6401096 0,5.633329 53.071891,5.6333292 0,-14.8245506 z"
       style="fill:#00ccff;fill-rule:evenodd;stroke:none;stroke-width:0.28222221px;stroke-linecap:butt;stroke-linejoin:miter;stroke-opacity:1" />
    <path
       style="fill:#00ccff;fill-rule:evenodd;stroke:none;stroke-width:0.28222221px;stroke-linecap:butt;stroke-linejoin:miter;stroke-opacity:1"
       d="m -11.380691,-9.6401096 0,5.633329 -53.071892,5.6333292 0,-14.8245506 z"
       id="path3383"
       inkscape:connector-curvature="0" />
    <path
       inkscape:connector-curvature="0"
       id="path3385"
       d="m 8.2419524,-17.768075 3.9833656,3.983366 41.510859,-33.544129 -10.48254,-10.48254 z"
       style="fill:#00ccff;fill-rule:evenodd;stroke:none;stroke-width:0.28222221px;stroke-linecap:butt;stroke-linejoin:miter;stroke-opacity:1" />
    <path
       style="fill:#00ccff;fill-rule:evenodd;stroke:none;stroke-width:0.28222221px;stroke-linecap:butt;stroke-linejoin:miter;stroke-opacity:1"
       d="M -10.271823,0.74570125 -6.2884583,4.7290664 -39.832587,46.239926 -50.315127,35.757386 Z"
       id="path3387"
       inkscape:connector-curvature="0" />
    <path
       style="fill:#00ccff;fill-rule:evenodd;stroke:none;stroke-width:0.28222221px;stroke-linecap:butt;stroke-linejoin:miter;stroke-opacity:1"
       d="M 13.692873,0.74570103 9.7095078,4.7290662 43.253636,46.239925 53.736177,35.757385 Z"
       id="path3389"
       inkscape:connector-curvature="0" />
    <path
       inkscape:connector-curvature="0"
       id="path3391"
       d="m -4.8209023,-17.768074 -3.9833652,3.983365 -41.5108595,-33.544129 10.48254,-10.482541 z"
       style="fill:#00ccff;fill-rule:evenodd;stroke:none;stroke-width:0.28222221px;stroke-linecap:butt;stroke-linejoin:miter;stroke-opacity:1" />
    <path
       style="opacity:1;fill:#00ffff;fill-opacity:1;stroke:none;stroke-width:0;stroke-linecap:round;stroke-miterlimit:4;stroke-dasharray:none;stroke-dashoffset:0;stroke-opacity:1"
       d="m 11.802626,-31.791667 4.500808,4.282488 -4.070902,5.048416 -4.0709015,5.048413 1.9473025,1.977029 c 1.071016,1.087366 2.079051,1.97703 2.240076,1.97703 0.161025,0 2.254274,-1.720895 4.651664,-3.824211 2.397389,-2.103317 4.449604,-3.823923 4.560477,-3.823569 0.267199,8.47e-4 3.999681,5.271411 5.6503,7.978671 0.728581,1.194981 1.150891,2.289066 0.953412,2.470023 -0.194978,0.178665 -3.574863,0.646506 -7.510855,1.0396461 l -7.156349,0.714801 0,2.938886 0,2.938885 1.713492,0.207411 c 2.337235,0.282911 7.241878,0.630368 12.800794,0.906839 2.55008,0.126827 4.855785,0.408676 5.123789,0.6263307 0.818094,0.66439799 6.165099,15.3307592 6.165099,16.9103202 0,0.513827 -6.46036,2.802859 -6.986705,2.475523 -0.277277,-0.172438 -3.094601,-2.398985 -6.260723,-4.947883 l -5.756586,-4.6343604 1.145785,-1.010085 c 0.630181,-0.555546 2.031268,-1.783353 3.113525,-2.728461 1.082257,-0.9451064 1.894343,-1.7910764 1.804635,-1.8799334 -0.08971,-0.08886 -1.208815,0.27983 -2.486904,0.819302 -1.278089,0.5394734 -3.218464,1.3335034 -4.311943,1.7645134 L 17.573771,6.2680106 14.287362,3.6146102 11.000952,0.96121119 9.0239075,2.9085262 c -1.087374,1.071023 -1.977043,2.1469784 -1.977043,2.3910094 0,0.244032 0.544285,0.965153 1.209523,1.602491 0.665239,0.637339 1.209524,1.285682 1.209524,1.440764 0,0.155081 -0.839624,0.407875 -1.865831,0.561765 -1.026207,0.153889 -2.1036082,0.371042 -2.3942242,0.482562 -0.375399,0.144054 -0.564764,-0.303102 -0.65401,-1.544339 l -0.125617,-1.747101 -2.786128,-0.120689 c -3.1791199,-0.137714 -3.4475499,0.06431 -3.4569099,2.601733 l -0.006,1.6746944 -4.2511501,0.28976 c -2.33814,0.159367 -4.3274293,0.213485 -4.4206493,0.120262 -0.0932,-0.09322 0.8219395,-1.3062954 2.0336893,-2.6957134 1.21176,-1.38942 2.20319,-2.657542 2.20319,-2.81805 0,-0.160508 -0.89541,-1.1737784 -1.9898,-2.2517114 l -1.9897893,-1.95987901 -5.16656,4.16153041 c -2.8416,2.288841 -5.38411,4.326097 -5.65002,4.527234 -0.87525,0.6620444 -18.34593,-3.021882 -19.59678,-4.132244 -0.17859,-0.158526 -0.20473,-0.766223 -0.0581,-1.350439 0.20778,-0.8278854 0.63518,-1.1558854 1.93739,-1.4868484 0.91895,-0.233552 4.39223,-1.348044 7.71842,-2.47664901 4.7102,-1.59821239 6.93923,-2.13300709 10.07937,-2.41826809 2.21746,-0.201443 4.98424,-0.46254 6.14841,-0.580216 l 2.11667,-0.213957 0,-2.31402 0,-2.31402 3.0810195,-2.102597 c 3.0054998,-2.0510541 3.1018698,-2.0850381 3.9309498,-1.3863341 0.83728,0.705606 0.83959,0.703964 0.15477,-0.110343 -0.67529,-0.802987 -0.62887,-0.88495 1.6245601,-2.8685 1.27584,-1.123042 2.94937993,-2.871245 3.71895993,-3.884897 1.19538,-1.574464 1.63423997,-1.861449 3.01195997,-1.969595 l 1.612698,-0.126592 0.240489,-3.426984 c 0.224629,-3.200964 1.720995,-10.83972 2.3533382,-12.013486 0.193996,-0.360099 1.68371,0.810933 4.7825695,3.759474 z"
       id="path3393"
       inkscape:connector-curvature="0" />
  </g>
</svg>
