<?xml version="1.0" encoding="UTF-8" standalone="no"?>
<!-- Created with Inkscape (http://www.inkscape.org/) -->

<svg
   xmlns:dc="http://purl.org/dc/elements/1.1/"
   xmlns:cc="http://creativecommons.org/ns#"
   xmlns:rdf="http://www.w3.org/1999/02/22-rdf-syntax-ns#"
   xmlns:svg="http://www.w3.org/2000/svg"
   xmlns="http://www.w3.org/2000/svg"
   xmlns:sodipodi="http://sodipodi.sourceforge.net/DTD/sodipodi-0.dtd"
   xmlns:inkscape="http://www.inkscape.org/namespaces/inkscape"
   width="210mm"
   height="297mm"
   viewBox="0 0 210 297"
   version="1.1"
   id="svg8"
   inkscape:version="0.91 r13725"
   sodipodi:docname="227.svg">
  <defs
     id="defs2">
    <pattern
       id="EMFhbasepattern"
       patternUnits="userSpaceOnUse"
       width="6"
       height="6"
       x="0"
       y="0" />
  </defs>
  <sodipodi:namedview
     id="base"
     pagecolor="#ffffff"
     bordercolor="#666666"
     borderopacity="1.0"
     inkscape:pageopacity="0.0"
     inkscape:pageshadow="2"
     inkscape:zoom="0.49497475"
     inkscape:cx="-14.923816"
     inkscape:cy="1121.8149"
     inkscape:document-units="mm"
     inkscape:current-layer="layer1"
     showgrid="false"
     inkscape:window-width="944"
     inkscape:window-height="1001"
     inkscape:window-x="960"
     inkscape:window-y="0"
     inkscape:window-maximized="0" />
  <metadata
     id="metadata5">
    <rdf:RDF>
      <cc:Work
         rdf:about="">
        <dc:format>image/svg+xml</dc:format>
        <dc:type
           rdf:resource="http://purl.org/dc/dcmitype/StillImage" />
        <dc:title />
      </cc:Work>
    </rdf:RDF>
  </metadata>
  <g
     inkscape:label="Layer 1"
     inkscape:groupmode="layer"
     id="layer1">
    <g
       id="g3347"
       transform="translate(-9.5955546,-6.7733329)"
       style="fill:#000000">
      <rect
         y="-52.149208"
         x="-50.799999"
         height="119.33968"
         width="119.33968"
         id="rect3337"
         style="opacity:1;fill:#000000;fill-opacity:1;stroke:none;stroke-width:0;stroke-linecap:round;stroke-miterlimit:4;stroke-dasharray:none;stroke-dashoffset:0;stroke-opacity:1" />
      <ellipse
         ry="24.968172"
         rx="59.541161"
         cy="-52.151176"
         cx="8.7386112"
         id="path3339"
         style="opacity:1;fill:#000000;fill-opacity:1;stroke:none;stroke-width:0;stroke-linecap:round;stroke-miterlimit:4;stroke-dasharray:none;stroke-dashoffset:0;stroke-opacity:1" />
      <ellipse
         style="opacity:1;fill:#000000;fill-opacity:1;stroke:none;stroke-width:0;stroke-linecap:round;stroke-miterlimit:4;stroke-dasharray:none;stroke-dashoffset:0;stroke-opacity:1"
         id="ellipse3341"
         cx="8.9969711"
         cy="67.183296"
         rx="59.541161"
         ry="24.968172" />
      <ellipse
         transform="matrix(0,1,-1,0,0,0)"
         ry="24.968172"
         rx="59.541161"
         cy="49.445969"
         cx="9.0254469"
         id="ellipse3343"
         style="opacity:1;fill:#000000;fill-opacity:1;stroke:none;stroke-width:0;stroke-linecap:round;stroke-miterlimit:4;stroke-dasharray:none;stroke-dashoffset:0;stroke-opacity:1" />
      <ellipse
         style="opacity:1;fill:#000000;fill-opacity:1;stroke:none;stroke-width:0;stroke-linecap:round;stroke-miterlimit:4;stroke-dasharray:none;stroke-dashoffset:0;stroke-opacity:1"
         id="ellipse3345"
         cx="7.0298343"
         cy="-68.865341"
         rx="59.541161"
         ry="24.968172"
         transform="matrix(0,1,-1,0,0,0)" />
    </g>
    <g
       transform="matrix(0.97627768,0,0,0.97627768,-9.6503059,-6.3082133)"
       id="g3342">
      <rect
         style="opacity:1;fill:#93aca7;fill-opacity:1;stroke:none;stroke-width:0;stroke-linecap:round;stroke-miterlimit:4;stroke-dasharray:none;stroke-dashoffset:0;stroke-opacity:1"
         id="rect3344"
         width="119.33968"
         height="119.33968"
         x="-50.799999"
         y="-52.149208" />
      <ellipse
         style="opacity:1;fill:#93aca7;fill-opacity:1;stroke:none;stroke-width:0;stroke-linecap:round;stroke-miterlimit:4;stroke-dasharray:none;stroke-dashoffset:0;stroke-opacity:1"
         id="ellipse3346"
         cx="8.7386112"
         cy="-52.151176"
         rx="59.541161"
         ry="24.968172" />
      <ellipse
         ry="24.968172"
         rx="59.541161"
         cy="67.183296"
         cx="8.9969711"
         id="ellipse3348"
         style="opacity:1;fill:#93aca7;fill-opacity:1;stroke:none;stroke-width:0;stroke-linecap:round;stroke-miterlimit:4;stroke-dasharray:none;stroke-dashoffset:0;stroke-opacity:1" />
      <ellipse
         style="opacity:1;fill:#93aca7;fill-opacity:1;stroke:none;stroke-width:0;stroke-linecap:round;stroke-miterlimit:4;stroke-dasharray:none;stroke-dashoffset:0;stroke-opacity:1"
         id="ellipse3350"
         cx="9.0254469"
         cy="49.445969"
         rx="59.541161"
         ry="24.968172"
         transform="matrix(0,1,-1,0,0,0)" />
      <ellipse
         transform="matrix(0,1,-1,0,0,0)"
         ry="24.968172"
         rx="59.541161"
         cy="-68.865341"
         cx="7.0298343"
         id="ellipse3352"
         style="opacity:1;fill:#93aca7;fill-opacity:1;stroke:none;stroke-width:0;stroke-linecap:round;stroke-miterlimit:4;stroke-dasharray:none;stroke-dashoffset:0;stroke-opacity:1" />
    </g>
    <path
       sodipodi:nodetypes="csccsccscccccscccc"
       inkscape:connector-curvature="0"
       id="path3358"
       d="m -30.387088,-3.4689726 c 0,0 4.566999,-7.8581544 7.719528,-11.0656964 3.190614,-3.246293 9.039876,-5.982662 9.039876,-5.982662 l 2.600597,6.06806 c 0,0 6.5966407,-2.816738 10.09644905,-2.889052 3.27533735,-0.06768 9.55250425,2.311143 9.55250425,2.311143 l 1.1558202,-5.201194 c 0,0 7.8362025,2.851816 10.6913435,5.490147 3.80291,3.514127 11.269252,10.6913416 11.269252,10.6913416 L 34.744515,-51.717135 43.8744,-66.750161 57.744248,8.6671424 51.387237,23.692816 c 0,0 -25.321531,50.429624 -48.5444746,49.989251 C -28.251604,73.092425 -59.571561,4.3328143 -59.571561,4.3328143 l 7.512836,-71.9498433 10.228168,12.302128 z"
       style="fill:#37c871;fill-rule:evenodd;stroke:none;stroke-width:0.35694072px;stroke-linecap:butt;stroke-linejoin:miter;stroke-opacity:1" />
    <path
       style="fill:#0b2822;fill-rule:evenodd;stroke:none;stroke-width:0.35694072px;stroke-linecap:butt;stroke-linejoin:miter;stroke-opacity:1"
       d="m -27.430112,-1.6257322 c 0,0 4.029661,-6.9335898 6.811273,-9.7637428 2.815217,-2.864344 7.976273,-5.278761 7.976273,-5.278761 l 2.294619,5.354111 c 0,0 5.8205011,-2.485329 8.9085332,-2.549135 2.8899716,-0.05971 8.4285872,2.039221 8.4285872,2.039221 l 1.0198301,-4.589238 c 0,0 6.9142205,2.516281 9.4334345,4.844194 3.355471,3.100666 9.943348,9.4334337 9.943348,9.4334337 L 30.038315,-44.197171 38.094007,-57.46146 50.331973,9.0824867 44.722907,22.340287 c 0,0 -22.34228,44.496236 -42.8328867,44.107675 C -25.545883,65.927696 -53.180834,5.2581219 -53.180834,5.2581219 l 6.6289,-63.4844569 9.024755,10.854699 z"
       id="path3340"
       inkscape:connector-curvature="0"
       sodipodi:nodetypes="csccsccscccccscccc" />
    <ellipse
       style="fill:#00aad4;stroke:none"
       id="path3354"
       cx="-1.1183196"
       cy="22.329021"
       rx="5.5592065"
       ry="1.710525"
       transform="matrix(0.8660254,0.5,-0.5,0.8660254,0,0)" />
    <ellipse
       transform="matrix(-0.8660254,0.5,0.5,0.8660254,0,0)"
       ry="1.710525"
       rx="5.5592065"
       cy="22.190462"
       cx="-0.87832707"
       id="ellipse3356"
       style="fill:#00aad4;stroke:none" />
  </g>
</svg>
