<?xml version="1.0" encoding="UTF-8" standalone="no"?>
<!-- Created with Inkscape (http://www.inkscape.org/) -->

<svg
   xmlns:dc="http://purl.org/dc/elements/1.1/"
   xmlns:cc="http://creativecommons.org/ns#"
   xmlns:rdf="http://www.w3.org/1999/02/22-rdf-syntax-ns#"
   xmlns:svg="http://www.w3.org/2000/svg"
   xmlns="http://www.w3.org/2000/svg"
   xmlns:sodipodi="http://sodipodi.sourceforge.net/DTD/sodipodi-0.dtd"
   xmlns:inkscape="http://www.inkscape.org/namespaces/inkscape"
   width="210mm"
   height="297mm"
   viewBox="0 0 210 297"
   version="1.1"
   id="svg8"
   inkscape:version="0.91 r13725"
   sodipodi:docname="24.svg">
  <defs
     id="defs2">
    <pattern
       id="EMFhbasepattern"
       patternUnits="userSpaceOnUse"
       width="6"
       height="6"
       x="0"
       y="0" />
  </defs>
  <sodipodi:namedview
     id="base"
     pagecolor="#ffffff"
     bordercolor="#666666"
     borderopacity="1.0"
     inkscape:pageopacity="0.0"
     inkscape:pageshadow="2"
     inkscape:zoom="0.7"
     inkscape:cx="-6.1877042"
     inkscape:cy="1215.0066"
     inkscape:document-units="mm"
     inkscape:current-layer="layer1"
     showgrid="false"
     inkscape:window-width="958"
     inkscape:window-height="1008"
     inkscape:window-x="-7"
     inkscape:window-y="0"
     inkscape:window-maximized="0" />
  <metadata
     id="metadata5">
    <rdf:RDF>
      <cc:Work
         rdf:about="">
        <dc:format>image/svg+xml</dc:format>
        <dc:type
           rdf:resource="http://purl.org/dc/dcmitype/StillImage" />
        <dc:title />
      </cc:Work>
    </rdf:RDF>
  </metadata>
  <g
     inkscape:label="Layer 1"
     inkscape:groupmode="layer"
     id="layer1">
    <g
       id="g3347"
       transform="translate(-9.5955546,-6.7733329)">
      <rect
         y="-52.149208"
         x="-50.799999"
         height="119.33968"
         width="119.33968"
         id="rect3337"
         style="opacity:1;fill:#93aca7;fill-opacity:1;stroke:none;stroke-width:0;stroke-linecap:round;stroke-miterlimit:4;stroke-dasharray:none;stroke-dashoffset:0;stroke-opacity:1" />
      <ellipse
         ry="24.968172"
         rx="59.541161"
         cy="-52.151176"
         cx="8.7386112"
         id="path3339"
         style="opacity:1;fill:#93aca7;fill-opacity:1;stroke:none;stroke-width:0;stroke-linecap:round;stroke-miterlimit:4;stroke-dasharray:none;stroke-dashoffset:0;stroke-opacity:1" />
      <ellipse
         style="opacity:1;fill:#93aca7;fill-opacity:1;stroke:none;stroke-width:0;stroke-linecap:round;stroke-miterlimit:4;stroke-dasharray:none;stroke-dashoffset:0;stroke-opacity:1"
         id="ellipse3341"
         cx="8.9969711"
         cy="67.183296"
         rx="59.541161"
         ry="24.968172" />
      <ellipse
         transform="matrix(0,1,-1,0,0,0)"
         ry="24.968172"
         rx="59.541161"
         cy="49.445969"
         cx="9.0254469"
         id="ellipse3343"
         style="opacity:1;fill:#93aca7;fill-opacity:1;stroke:none;stroke-width:0;stroke-linecap:round;stroke-miterlimit:4;stroke-dasharray:none;stroke-dashoffset:0;stroke-opacity:1" />
      <ellipse
         style="opacity:1;fill:#93aca7;fill-opacity:1;stroke:none;stroke-width:0;stroke-linecap:round;stroke-miterlimit:4;stroke-dasharray:none;stroke-dashoffset:0;stroke-opacity:1"
         id="ellipse3345"
         cx="7.0298343"
         cy="-68.865341"
         rx="59.541161"
         ry="24.968172"
         transform="matrix(0,1,-1,0,0,0)" />
    </g>
    <path
       style="fill:#00d400;fill-rule:evenodd;stroke:none;stroke-width:0.28222221px;stroke-linecap:butt;stroke-linejoin:miter;stroke-opacity:1"
       d="m -14.290989,67.672499 c 0,0 -5.598297,-77.816293 -15.675224,-90.692369 -10.076932,-12.876077 -4.478636,-23.512838 2.799148,-13.995737 7.277779,9.517102 9.517099,16.794883 9.517099,16.794883 0,0 12.8760759,86.773561 10.0769289,89.572709 -2.7991459,2.799148 -6.7179519,-1.679486 -6.7179519,-1.679486 z"
       id="path3346"
       inkscape:connector-curvature="0" />
    <path
       inkscape:connector-curvature="0"
       id="path3348"
       d="m 29.904537,67.672499 c 0,0 5.598297,-77.816293 15.675224,-90.692369 10.076932,-12.876077 4.478636,-23.512838 -2.799148,-13.995737 -7.277779,9.517102 -9.517099,16.794883 -9.517099,16.794883 0,0 -12.876076,86.773561 -10.076928,89.572709 2.799145,2.799148 6.717951,-1.679486 6.717951,-1.679486 z"
       style="fill:#00d400;fill-rule:evenodd;stroke:none;stroke-width:0.28222221px;stroke-linecap:butt;stroke-linejoin:miter;stroke-opacity:1" />
    <path
       style="fill:#00d400;fill-rule:evenodd;stroke:none;stroke-width:0.28222221px;stroke-linecap:butt;stroke-linejoin:miter;stroke-opacity:1"
       d="m 11.989995,67.672499 c 0,0 5.598297,-77.816293 15.675225,-90.692369 10.076931,-12.876077 4.478636,-23.512838 -2.799149,-13.995737 -7.277779,9.517102 -9.517099,16.794883 -9.517099,16.794883 0,0 -12.8760755,86.773561 -10.0769275,89.572709 2.799145,2.799148 6.7179505,-1.679486 6.7179505,-1.679486 z"
       id="path3350"
       inkscape:connector-curvature="0" />
    <path
       inkscape:connector-curvature="0"
       id="path3352"
       d="m -29.966213,67.672499 c 0,0 -5.598297,-77.816293 -15.675225,-90.692369 -10.076931,-12.876077 -4.478635,-23.512838 2.799149,-13.995737 7.277779,9.517102 9.517099,16.794883 9.517099,16.794883 0,0 12.876075,86.773561 10.076928,89.572709 -2.799146,2.799148 -6.717951,-1.679486 -6.717951,-1.679486 z"
       style="fill:#00d400;fill-rule:evenodd;stroke:none;stroke-width:0.28222221px;stroke-linecap:butt;stroke-linejoin:miter;stroke-opacity:1" />
    <path
       inkscape:connector-curvature="0"
       id="path3354"
       d="m 0.67153947,66.92065 c 0,0 -2.88690367,-100.320025 10.10417553,-116.91974 12.991083,-16.599716 -3.6086355,-19.486624 -3.6086355,-19.486624 -15.4456253,2e-6 -8.6607196,23.095256 -8.6607196,23.095256 0,0 -10.1041729,111.867651 -6.4955395,115.476285 3.608632,3.608635 8.66071907,-2.165177 8.66071907,-2.165177 z"
       style="fill:#00d400;fill-rule:evenodd;stroke:none;stroke-width:0.28222221px;stroke-linecap:butt;stroke-linejoin:miter;stroke-opacity:1"
       sodipodi:nodetypes="csscsc" />
    <path
       style="fill:#00ff00;fill-rule:evenodd;stroke:none;stroke-width:0.27617106px;stroke-linecap:butt;stroke-linejoin:miter;stroke-opacity:1"
       d="m -21.959654,-64.877742 c 0,0 -1.593592,4.819267 -3.231864,6.457541 -1.638271,1.638271 -6.597777,3.372094 -6.597777,3.372094 0,0 5.047584,1.89604 6.854274,3.628558 2.031336,1.947984 3.768789,6.994497 3.768789,6.994497 0,0 1.205928,-4.992609 2.860749,-6.64743 1.654821,-1.65482 7.068173,-3.28149 7.068173,-3.28149 0,0 -4.836342,-2.245697 -6.623399,-3.999658 -1.787057,-1.753963 -4.098945,-6.524112 -4.098945,-6.524112 z"
       id="path3358"
       inkscape:connector-curvature="0"
       sodipodi:nodetypes="cscscscsc" />
    <path
       sodipodi:nodetypes="cscscscsc"
       inkscape:connector-curvature="0"
       id="path3360"
       d="m 19.970505,-40.284091 c 0,0 -1.593592,4.819267 -3.231864,6.457541 -1.638271,1.638271 -6.597777,3.372094 -6.597777,3.372094 0,0 5.047584,1.89604 6.854274,3.628558 2.031336,1.947984 3.768789,6.994497 3.768789,6.994497 0,0 1.205928,-4.992609 2.860749,-6.64743 1.654821,-1.65482 7.068173,-3.28149 7.068173,-3.28149 0,0 -4.836342,-2.245697 -6.623399,-3.999658 -1.787057,-1.753963 -4.098945,-6.524112 -4.098945,-6.524112 z"
       style="fill:#00ff00;fill-rule:evenodd;stroke:none;stroke-width:0.27617106px;stroke-linecap:butt;stroke-linejoin:miter;stroke-opacity:1" />
    <path
       style="fill:#00ff00;fill-rule:evenodd;stroke:none;stroke-width:0.27617106px;stroke-linecap:butt;stroke-linejoin:miter;stroke-opacity:1"
       d="m -21.959654,-11.658694 c 0,0 -1.593592,4.819267 -3.231864,6.457541 -1.638271,1.638271 -6.597777,3.372094 -6.597777,3.372094 0,0 5.047584,1.89603999 6.854274,3.628558 2.031336,1.947984 3.768789,6.994497 3.768789,6.994497 0,0 1.205928,-4.992609 2.860749,-6.64743 1.654821,-1.65482001 7.068173,-3.28149 7.068173,-3.28149 0,0 -4.836342,-2.245697 -6.623399,-3.999658 -1.787057,-1.753963 -4.098945,-6.524112 -4.098945,-6.524112 z"
       id="path3362"
       inkscape:connector-curvature="0"
       sodipodi:nodetypes="cscscscsc" />
  </g>
</svg>
