<?xml version="1.0" encoding="UTF-8" standalone="no"?>
<!-- Created with Inkscape (http://www.inkscape.org/) -->

<svg
   xmlns:dc="http://purl.org/dc/elements/1.1/"
   xmlns:cc="http://creativecommons.org/ns#"
   xmlns:rdf="http://www.w3.org/1999/02/22-rdf-syntax-ns#"
   xmlns:svg="http://www.w3.org/2000/svg"
   xmlns="http://www.w3.org/2000/svg"
   xmlns:sodipodi="http://sodipodi.sourceforge.net/DTD/sodipodi-0.dtd"
   xmlns:inkscape="http://www.inkscape.org/namespaces/inkscape"
   width="210mm"
   height="297mm"
   viewBox="0 0 210 297"
   version="1.1"
   id="svg8"
   inkscape:version="0.92.2 (5c3e80d, 2017-08-06)"
   sodipodi:docname="44.svg">
  <defs
     id="defs2">
    <pattern
       id="EMFhbasepattern"
       patternUnits="userSpaceOnUse"
       width="6"
       height="6"
       x="0"
       y="0" />
    <pattern
       id="EMFhbasepattern-4"
       patternUnits="userSpaceOnUse"
       width="6"
       height="6"
       x="0"
       y="0" />
  </defs>
  <sodipodi:namedview
     id="base"
     pagecolor="#ffffff"
     bordercolor="#666666"
     borderopacity="1.0"
     inkscape:pageopacity="0.0"
     inkscape:pageshadow="2"
     inkscape:zoom="0.49497474"
     inkscape:cx="-296.65843"
     inkscape:cy="1189.7748"
     inkscape:document-units="mm"
     inkscape:current-layer="layer1"
     showgrid="false"
     inkscape:window-width="958"
     inkscape:window-height="1008"
     inkscape:window-x="-7"
     inkscape:window-y="0"
     inkscape:window-maximized="0" />
  <metadata
     id="metadata5">
    <rdf:RDF>
      <cc:Work
         rdf:about="">
        <dc:format>image/svg+xml</dc:format>
        <dc:type
           rdf:resource="http://purl.org/dc/dcmitype/StillImage" />
        <dc:title />
      </cc:Work>
    </rdf:RDF>
  </metadata>
  <g
     inkscape:label="Layer 1"
     inkscape:groupmode="layer"
     id="layer1">
    <g
       id="g3347"
       transform="translate(-9.5955546,-6.7733329)"
       style="fill:#aa8800">
      <rect
         y="-52.149208"
         x="-50.799999"
         height="119.33968"
         width="119.33968"
         id="rect3337"
         style="opacity:1;fill:#aa8800;fill-opacity:1;stroke:none;stroke-width:0;stroke-linecap:round;stroke-miterlimit:4;stroke-dasharray:none;stroke-dashoffset:0;stroke-opacity:1" />
      <ellipse
         ry="24.968172"
         rx="59.541161"
         cy="-52.151176"
         cx="8.7386112"
         id="path3339"
         style="opacity:1;fill:#aa8800;fill-opacity:1;stroke:none;stroke-width:0;stroke-linecap:round;stroke-miterlimit:4;stroke-dasharray:none;stroke-dashoffset:0;stroke-opacity:1" />
      <ellipse
         style="opacity:1;fill:#aa8800;fill-opacity:1;stroke:none;stroke-width:0;stroke-linecap:round;stroke-miterlimit:4;stroke-dasharray:none;stroke-dashoffset:0;stroke-opacity:1"
         id="ellipse3341"
         cx="8.9969711"
         cy="67.183296"
         rx="59.541161"
         ry="24.968172" />
      <ellipse
         transform="matrix(0,1,-1,0,0,0)"
         ry="24.968172"
         rx="59.541161"
         cy="49.445969"
         cx="9.0254469"
         id="ellipse3343"
         style="opacity:1;fill:#aa8800;fill-opacity:1;stroke:none;stroke-width:0;stroke-linecap:round;stroke-miterlimit:4;stroke-dasharray:none;stroke-dashoffset:0;stroke-opacity:1" />
      <ellipse
         style="opacity:1;fill:#aa8800;fill-opacity:1;stroke:none;stroke-width:0;stroke-linecap:round;stroke-miterlimit:4;stroke-dasharray:none;stroke-dashoffset:0;stroke-opacity:1"
         id="ellipse3345"
         cx="7.0298343"
         cy="-68.865341"
         rx="59.541161"
         ry="24.968172"
         transform="matrix(0,1,-1,0,0,0)" />
    </g>
    <g
       transform="matrix(0.95686631,0,0,0.95686631,-8.7735652,-6.8547639)"
       id="g3356"
       style="fill:#d4aa00">
      <rect
         style="opacity:1;fill:#d4aa00;fill-opacity:1;stroke:none;stroke-width:0;stroke-linecap:round;stroke-miterlimit:4;stroke-dasharray:none;stroke-dashoffset:0;stroke-opacity:1"
         id="rect3358"
         width="119.33968"
         height="119.33968"
         x="-50.799999"
         y="-52.149208" />
      <ellipse
         style="opacity:1;fill:#d4aa00;fill-opacity:1;stroke:none;stroke-width:0;stroke-linecap:round;stroke-miterlimit:4;stroke-dasharray:none;stroke-dashoffset:0;stroke-opacity:1"
         id="ellipse3360"
         cx="8.7386112"
         cy="-52.151176"
         rx="59.541161"
         ry="24.968172" />
      <ellipse
         ry="24.968172"
         rx="59.541161"
         cy="67.183296"
         cx="8.9969711"
         id="ellipse3362"
         style="opacity:1;fill:#d4aa00;fill-opacity:1;stroke:none;stroke-width:0;stroke-linecap:round;stroke-miterlimit:4;stroke-dasharray:none;stroke-dashoffset:0;stroke-opacity:1" />
      <ellipse
         style="opacity:1;fill:#d4aa00;fill-opacity:1;stroke:none;stroke-width:0;stroke-linecap:round;stroke-miterlimit:4;stroke-dasharray:none;stroke-dashoffset:0;stroke-opacity:1"
         id="ellipse3364"
         cx="9.0254469"
         cy="49.445969"
         rx="59.541161"
         ry="24.968172"
         transform="matrix(0,1,-1,0,0,0)" />
      <ellipse
         transform="matrix(0,1,-1,0,0,0)"
         ry="24.968172"
         rx="59.541161"
         cy="-68.865341"
         cx="7.0298343"
         id="ellipse3366"
         style="opacity:1;fill:#d4aa00;fill-opacity:1;stroke:none;stroke-width:0;stroke-linecap:round;stroke-miterlimit:4;stroke-dasharray:none;stroke-dashoffset:0;stroke-opacity:1" />
    </g>
    <g
       id="g3400"
       transform="matrix(0.91373262,0,0,0.91373262,-8.7579247,-6.1249421)"
       style="fill:#ffcc00">
      <rect
         y="-52.149208"
         x="-50.799999"
         height="119.33968"
         width="119.33968"
         id="rect3402"
         style="opacity:1;fill:#ffcc00;fill-opacity:1;stroke:none;stroke-width:0;stroke-linecap:round;stroke-miterlimit:4;stroke-dasharray:none;stroke-dashoffset:0;stroke-opacity:1" />
      <ellipse
         ry="24.968172"
         rx="59.541161"
         cy="-52.151176"
         cx="8.7386112"
         id="ellipse3404"
         style="opacity:1;fill:#ffcc00;fill-opacity:1;stroke:none;stroke-width:0;stroke-linecap:round;stroke-miterlimit:4;stroke-dasharray:none;stroke-dashoffset:0;stroke-opacity:1" />
      <ellipse
         style="opacity:1;fill:#ffcc00;fill-opacity:1;stroke:none;stroke-width:0;stroke-linecap:round;stroke-miterlimit:4;stroke-dasharray:none;stroke-dashoffset:0;stroke-opacity:1"
         id="ellipse3406"
         cx="8.9969711"
         cy="67.183296"
         rx="59.541161"
         ry="24.968172" />
      <ellipse
         transform="matrix(0,1,-1,0,0,0)"
         ry="24.968172"
         rx="59.541161"
         cy="49.445969"
         cx="9.0254469"
         id="ellipse3408"
         style="opacity:1;fill:#ffcc00;fill-opacity:1;stroke:none;stroke-width:0;stroke-linecap:round;stroke-miterlimit:4;stroke-dasharray:none;stroke-dashoffset:0;stroke-opacity:1" />
      <ellipse
         style="opacity:1;fill:#ffcc00;fill-opacity:1;stroke:none;stroke-width:0;stroke-linecap:round;stroke-miterlimit:4;stroke-dasharray:none;stroke-dashoffset:0;stroke-opacity:1"
         id="ellipse3410"
         cx="7.0298343"
         cy="-68.865341"
         rx="59.541161"
         ry="24.968172"
         transform="matrix(0,1,-1,0,0,0)" />
    </g>
    <g
       transform="matrix(0.86596562,0,0,0.86596562,-8.683893,-5.3737811)"
       id="g3412">
      <rect
         style="opacity:1;fill:#93aca7;fill-opacity:1;stroke:none;stroke-width:0;stroke-linecap:round;stroke-miterlimit:4;stroke-dasharray:none;stroke-dashoffset:0;stroke-opacity:1"
         id="rect3414"
         width="119.33968"
         height="119.33968"
         x="-50.799999"
         y="-52.149208" />
      <ellipse
         style="opacity:1;fill:#93aca7;fill-opacity:1;stroke:none;stroke-width:0;stroke-linecap:round;stroke-miterlimit:4;stroke-dasharray:none;stroke-dashoffset:0;stroke-opacity:1"
         id="ellipse3416"
         cx="8.7386112"
         cy="-52.151176"
         rx="59.541161"
         ry="24.968172" />
      <ellipse
         ry="24.968172"
         rx="59.541161"
         cy="67.183296"
         cx="8.9969711"
         id="ellipse3418"
         style="opacity:1;fill:#93aca7;fill-opacity:1;stroke:none;stroke-width:0;stroke-linecap:round;stroke-miterlimit:4;stroke-dasharray:none;stroke-dashoffset:0;stroke-opacity:1" />
      <ellipse
         style="opacity:1;fill:#93aca7;fill-opacity:1;stroke:none;stroke-width:0;stroke-linecap:round;stroke-miterlimit:4;stroke-dasharray:none;stroke-dashoffset:0;stroke-opacity:1"
         id="ellipse3420"
         cx="9.0254469"
         cy="49.445969"
         rx="59.541161"
         ry="24.968172"
         transform="matrix(0,1,-1,0,0,0)" />
      <ellipse
         transform="matrix(0,1,-1,0,0,0)"
         ry="24.968172"
         rx="59.541161"
         cy="-68.865341"
         cx="7.0298343"
         id="ellipse3422"
         style="opacity:1;fill:#93aca7;fill-opacity:1;stroke:none;stroke-width:0;stroke-linecap:round;stroke-miterlimit:4;stroke-dasharray:none;stroke-dashoffset:0;stroke-opacity:1" />
    </g>
    <g
       id="layer1-3"
       inkscape:label="Layer 1"
       transform="matrix(0.3537179,0,0,0.3537179,-2.2998979,2.0104483)">
      <rect
         y="-149.53925"
         x="-103.90018"
         height="296.65274"
         width="211.73726"
         id="rect115"
         style="fill:#d38d5f;stroke-width:0.27292863" />
      <rect
         style="fill:#e9c6af;stroke-width:0.26332435"
         id="rect117"
         width="202.36348"
         height="288.93314"
         x="-100.04041"
         y="-149.53925" />
      <rect
         y="-149.53925"
         x="-103.90018"
         height="283.41913"
         width="195.1953"
         id="rect119"
         style="fill:#c87137;stroke-width:0.25613892" />
      <rect
         style="fill:#c87137;stroke-width:0.01755604"
         id="rect121"
         width="8.0401659"
         height="32.324783"
         x="-103.90018"
         y="114.81161" />
      <path
         sodipodi:nodetypes="ccccccscc"
         inkscape:connector-curvature="0"
         id="path125"
         d="m -97.121591,-33.780381 c 0,0 -5.848479,-30.996896 7.992901,-32.946387 3.899,-0.779794 7.40807,20.664599 7.40807,20.664599 0,0 4.28888,-17.545414 9.74746,-19.105005 13.64643,-2.339389 7.21313,31.971638 7.21313,31.971638 l -6.43335,-25.73327 c 0,0 -7.01817,23.393883 -10.91715,22.614087 -3.89897,-0.779794 -7.01816,-18.715107 -7.01816,-18.715107 z"
         style="fill:#ff00ff;stroke:none;stroke-width:0.27292863px;stroke-linecap:butt;stroke-linejoin:miter;stroke-opacity:1" />
      <path
         sodipodi:nodetypes="ccsccc"
         inkscape:connector-curvature="0"
         id="path129"
         d="m -18.16723,-67.116662 c 0,0 29.632241,-1.559601 28.0726609,0.779793 -0.59464,5.785632 -8.96765996,1.559593 -8.96765996,5.458572 0,3.89898 0.26829996,21.195707 -18.08871094,22.523541 -23.04386,-6.529604 5.01732,-5.163279 9.3062104,-13.741036 C -4.0038091,-65.53037 -25.93152,-62.458469 -18.16723,-67.116662 Z"
         style="fill:#ff00ff;stroke:none;stroke-width:0.27292863px;stroke-linecap:butt;stroke-linejoin:miter;stroke-opacity:1" />
      <path
         sodipodi:nodetypes="csscssccc"
         inkscape:connector-curvature="0"
         id="path131"
         d="m 19.82231,-67.184886 c 0,0 19.11566,-2.537473 19.96149,0 0.84584,2.537476 -7.78159,4.398291 -7.78159,5.751613 0,1.353322 -3.21415,15.901525 0.33831,17.593178 3.5525,1.691652 20.13066,4.059965 2.70666,4.567461 -17.42402,0.507497 -18.9465,-1.353321 -13.02572,-3.044977 5.92079,-1.69165 4.73661,-20.29982 4.05996,-19.961487 -0.67666,0.338329 -13.0257,0.845825 -10.1499,-0.676663 2.87579,-1.522488 3.89079,-4.229125 3.89079,-4.229125 z"
         style="fill:#ff00ff;stroke:none;stroke-width:0.33492997px;stroke-linecap:butt;stroke-linejoin:miter;stroke-opacity:1" />
      <path
         sodipodi:nodetypes="ccscssccc"
         inkscape:connector-curvature="0"
         id="path133"
         d="m 67.03892,-52.913298 c -3.67572,2.128041 -12.57484,11.027138 -11.80098,13.155182 0.77385,2.128045 11.26621,-7.654004 18.18511,-6.96451 4.83097,0.481427 10.25331,6.577593 11.41403,6.384137 1.16078,-0.193459 -9.28599,-13.34865 -7.35143,-14.122477 1.9346,-0.773842 12.7683,-17.41127 9.4795,-16.057073 -3.28879,1.354208 -12.76828,13.929027 -15.08977,11.220607 -2.32151,-2.708421 -17.4113,-11.607517 -16.8309,-8.899089 1.28247,7.208117 15.64789,12.379766 11.99444,15.283223 z"
         style="fill:#ff00ff;stroke:none;stroke-width:0.38302845px;stroke-linecap:butt;stroke-linejoin:miter;stroke-opacity:1" />
      <g
         transform="matrix(1.0315414,0,0,1.0315414,423.97716,34.738822)"
         id="g139">
        <path
           style="fill:#ff00ff;stroke:none;stroke-width:0.26458332px;stroke-linecap:butt;stroke-linejoin:miter;stroke-opacity:1"
           d="m -463.77677,-67.369038 c -3.34585,-2.348597 4.53573,-30.994046 10.58333,-31.372021 6.04761,-0.377976 13.60715,27.214284 10.20535,30.238093 -3.40177,3.023809 -7.18153,-21.166666 -9.82736,-20.410714 -2.64583,0.755954 -5.84123,25.138656 -10.96132,21.544642 z"
           id="path127"
           inkscape:connector-curvature="0"
           sodipodi:nodetypes="sscss" />
        <rect
           style="fill:#ff00ff;stroke:none;stroke-width:0.26458332"
           id="rect135"
           width="9.0714283"
           height="3.7797618"
           x="-457.35117"
           y="-83.244041" />
      </g>
    </g>
  </g>
</svg>
