<?xml version="1.0" encoding="UTF-8" standalone="no"?>
<!-- Created with Inkscape (http://www.inkscape.org/) -->

<svg
   xmlns:dc="http://purl.org/dc/elements/1.1/"
   xmlns:cc="http://creativecommons.org/ns#"
   xmlns:rdf="http://www.w3.org/1999/02/22-rdf-syntax-ns#"
   xmlns:svg="http://www.w3.org/2000/svg"
   xmlns="http://www.w3.org/2000/svg"
   xmlns:sodipodi="http://sodipodi.sourceforge.net/DTD/sodipodi-0.dtd"
   xmlns:inkscape="http://www.inkscape.org/namespaces/inkscape"
   width="210mm"
   height="297mm"
   viewBox="0 0 210 297"
   version="1.1"
   id="svg8"
   inkscape:version="0.91 r13725"
   sodipodi:docname="86.svg">
  <defs
     id="defs2">
    <pattern
       id="EMFhbasepattern"
       patternUnits="userSpaceOnUse"
       width="6"
       height="6"
       x="0"
       y="0" />
  </defs>
  <sodipodi:namedview
     id="base"
     pagecolor="#ffffff"
     bordercolor="#666666"
     borderopacity="1.0"
     inkscape:pageopacity="0.0"
     inkscape:pageshadow="2"
     inkscape:zoom="0.35"
     inkscape:cx="-221.23504"
     inkscape:cy="988.03307"
     inkscape:document-units="mm"
     inkscape:current-layer="layer1"
     showgrid="false"
     inkscape:window-width="1920"
     inkscape:window-height="1017"
     inkscape:window-x="-8"
     inkscape:window-y="-8"
     inkscape:window-maximized="1"
     inkscape:snap-global="false" />
  <metadata
     id="metadata5">
    <rdf:RDF>
      <cc:Work
         rdf:about="">
        <dc:format>image/svg+xml</dc:format>
        <dc:type
           rdf:resource="http://purl.org/dc/dcmitype/StillImage" />
        <dc:title />
      </cc:Work>
    </rdf:RDF>
  </metadata>
  <g
     inkscape:label="Layer 1"
     inkscape:groupmode="layer"
     id="layer1">
    <g
       id="g3347"
       transform="translate(-9.5955546,-6.7733329)">
      <rect
         y="-52.149208"
         x="-50.799999"
         height="119.33968"
         width="119.33968"
         id="rect3337"
         style="opacity:1;fill:#93aca7;fill-opacity:1;stroke:none;stroke-width:0;stroke-linecap:round;stroke-miterlimit:4;stroke-dasharray:none;stroke-dashoffset:0;stroke-opacity:1" />
      <ellipse
         ry="24.968172"
         rx="59.541161"
         cy="-52.151176"
         cx="8.7386112"
         id="path3339"
         style="opacity:1;fill:#93aca7;fill-opacity:1;stroke:none;stroke-width:0;stroke-linecap:round;stroke-miterlimit:4;stroke-dasharray:none;stroke-dashoffset:0;stroke-opacity:1" />
      <ellipse
         style="opacity:1;fill:#93aca7;fill-opacity:1;stroke:none;stroke-width:0;stroke-linecap:round;stroke-miterlimit:4;stroke-dasharray:none;stroke-dashoffset:0;stroke-opacity:1"
         id="ellipse3341"
         cx="8.9969711"
         cy="67.183296"
         rx="59.541161"
         ry="24.968172" />
      <ellipse
         transform="matrix(0,1,-1,0,0,0)"
         ry="24.968172"
         rx="59.541161"
         cy="49.445969"
         cx="9.0254469"
         id="ellipse3343"
         style="opacity:1;fill:#93aca7;fill-opacity:1;stroke:none;stroke-width:0;stroke-linecap:round;stroke-miterlimit:4;stroke-dasharray:none;stroke-dashoffset:0;stroke-opacity:1" />
      <ellipse
         style="opacity:1;fill:#93aca7;fill-opacity:1;stroke:none;stroke-width:0;stroke-linecap:round;stroke-miterlimit:4;stroke-dasharray:none;stroke-dashoffset:0;stroke-opacity:1"
         id="ellipse3345"
         cx="7.0298343"
         cy="-68.865341"
         rx="59.541161"
         ry="24.968172"
         transform="matrix(0,1,-1,0,0,0)" />
    </g>
    <ellipse
       ry="15.998484"
       rx="35.085857"
       cy="52.192482"
       cx="-0.018979957"
       id="ellipse3368"
       style="opacity:1;fill:#aa8800;fill-opacity:1;stroke:none;stroke-width:0;stroke-linecap:round;stroke-miterlimit:4;stroke-dasharray:none;stroke-dashoffset:0;stroke-opacity:1" />
    <g
       id="g3372"
       transform="matrix(1.3557187,0,0,1.3557187,2.1332171,6.6630761)">
      <path
         style="fill:#ffeeaa;fill-rule:evenodd;stroke:none;stroke-width:0.28222221px;stroke-linecap:butt;stroke-linejoin:miter;stroke-opacity:1"
         d="m -20.644387,-36.874501 39.056987,0 c 0,0 -0.689951,13.871294 -4.455312,20.422953 -3.765361,6.5516575 -15.3964555,16.05627191 -15.3964555,16.05627191 0,0 -13.5710015,-11.39112691 -16.6198635,-17.66929291 -3.048861,-6.278166 -2.585356,-18.809932 -2.585356,-18.809932 z"
         id="path3374"
         inkscape:connector-curvature="0"
         sodipodi:nodetypes="cczczc" />
      <path
         sodipodi:nodetypes="cczczc"
         inkscape:connector-curvature="0"
         id="path3376"
         d="m -20.644387,34.680915 39.056987,0 c 0,0 -0.689951,-13.871294 -4.455312,-20.422954 C 10.191927,7.7063032 -1.4391675,-1.7983108 -1.4391675,-1.7983108 c 0,0 -13.5710015,11.391127 -16.6198635,17.6692928 -3.048861,6.278167 -2.585356,18.809933 -2.585356,18.809933 z"
         style="fill:#ffeeaa;fill-rule:evenodd;stroke:none;stroke-width:0.28222221px;stroke-linecap:butt;stroke-linejoin:miter;stroke-opacity:1" />
    </g>
    <g
       style="fill:#ffe680"
       transform="matrix(1.2660115,0,0,1.3137616,1.7352429,6.8672461)"
       id="g3378">
      <path
         sodipodi:nodetypes="cczczc"
         inkscape:connector-curvature="0"
         id="path3380"
         d="m -20.644387,-36.874501 39.056987,0 c 0,0 -0.689951,13.871294 -4.455312,20.422953 -3.765361,6.5516575 -15.0186805,14.2360504 -15.0186805,14.2360504 0,0 -13.9487765,-9.5709054 -16.9976385,-15.8490714 -3.048861,-6.278166 -2.585356,-18.809932 -2.585356,-18.809932 z"
         style="fill:#ffe680;fill-rule:evenodd;stroke:none;stroke-width:0.28222221px;stroke-linecap:butt;stroke-linejoin:miter;stroke-opacity:1" />
      <path
         style="fill:#ffe680;fill-rule:evenodd;stroke:none;stroke-width:0.28222221px;stroke-linecap:butt;stroke-linejoin:miter;stroke-opacity:1"
         d="m -20.644387,34.680915 39.056987,0 c 0,0 -0.689951,-13.871294 -4.455312,-20.422954 C 10.191927,7.7063032 -1.1693282,-0.60216523 -1.1693282,-0.60216523 c 0,0 -13.8408408,10.19498143 -16.8897028,16.47314723 -3.048861,6.278167 -2.585356,18.809933 -2.585356,18.809933 z"
         id="path3382"
         inkscape:connector-curvature="0"
         sodipodi:nodetypes="cczczc" />
      <path
         sodipodi:nodetypes="cczczc"
         inkscape:connector-curvature="0"
         id="path3384"
         d="m -20.644387,34.680915 39.056987,0 c 0,0 -0.689951,-6.183628 -4.455312,-9.104265 -3.765361,-2.920637 -15.1266162,-6.624436 -15.1266162,-6.624436 0,0 -13.8408408,4.54478 -16.8897028,7.343498 -3.048861,2.798718 -2.585356,8.385203 -2.585356,8.385203 z"
         style="fill:#d4aa00;fill-rule:evenodd;stroke:none;stroke-width:0.28222221px;stroke-linecap:butt;stroke-linejoin:miter;stroke-opacity:1" />
      <path
         style="fill:#d4aa00;fill-rule:evenodd;stroke:none;stroke-width:0.28222221px;stroke-linecap:butt;stroke-linejoin:miter;stroke-opacity:1"
         d="m -17.303563,-16.905833 31.769497,-0.110322 c 0,0 -2.552477,3.609446 -5.2363383,6.530083 -2.6838617,2.9206372 -10.4002896,8.3895895 -10.4002896,8.3895895 0,0 -7.0033508,-5.2802601 -9.9778901,-8.1893005 -2.97454,-2.909041 -6.154979,-6.62005 -6.154979,-6.62005 z"
         id="path3386"
         inkscape:connector-curvature="0"
         sodipodi:nodetypes="cczczc" />
    </g>
    <ellipse
       ry="2.7329566"
       rx="1.3664783"
       cy="25.877695"
       cx="0.22014864"
       id="ellipse3388"
       style="opacity:1;fill:#d4aa00;fill-opacity:1;stroke:none;stroke-width:0;stroke-linecap:round;stroke-miterlimit:4;stroke-dasharray:none;stroke-dashoffset:0;stroke-opacity:1" />
    <ellipse
       style="opacity:1;fill:#d4aa00;fill-opacity:1;stroke:none;stroke-width:0;stroke-linecap:round;stroke-miterlimit:4;stroke-dasharray:none;stroke-dashoffset:0;stroke-opacity:1"
       id="ellipse3390"
       cx="0.22014864"
       cy="14.399278"
       rx="1.3664783"
       ry="2.7329566" />
    <ellipse
       ry="2.7329566"
       rx="1.3664783"
       cy="5.7221408"
       cx="0.22014864"
       id="ellipse3392"
       style="opacity:1;fill:#d4aa00;fill-opacity:1;stroke:none;stroke-width:0;stroke-linecap:round;stroke-miterlimit:4;stroke-dasharray:none;stroke-dashoffset:0;stroke-opacity:1" />
    <ellipse
       ry="15.998484"
       rx="35.085857"
       cy="-46.193962"
       cx="-0.56556851"
       id="ellipse3394"
       style="opacity:1;fill:#aa8800;fill-opacity:1;stroke:none;stroke-width:0;stroke-linecap:round;stroke-miterlimit:4;stroke-dasharray:none;stroke-dashoffset:0;stroke-opacity:1" />
    <rect
       style="opacity:1;fill:#cccccc;fill-opacity:1;stroke:none;stroke-width:0;stroke-linecap:round;stroke-miterlimit:4;stroke-dasharray:none;stroke-dashoffset:0;stroke-opacity:1"
       id="rect3353"
       width="51.315746"
       height="8.5526247"
       x="-71.271873"
       y="-5.7629204" />
    <rect
       y="-5.7629204"
       x="30.219276"
       height="8.5526247"
       width="51.315746"
       id="rect3355"
       style="opacity:1;fill:#cccccc;fill-opacity:1;stroke:none;stroke-width:0;stroke-linecap:round;stroke-miterlimit:4;stroke-dasharray:none;stroke-dashoffset:0;stroke-opacity:1" />
    <rect
       y="-3.4917514"
       x="-81.875908"
       height="8.5526247"
       width="51.315746"
       id="rect3357"
       style="opacity:1;fill:#cccccc;fill-opacity:1;stroke:none;stroke-width:0;stroke-linecap:round;stroke-miterlimit:4;stroke-dasharray:none;stroke-dashoffset:0;stroke-opacity:1"
       transform="matrix(0.8660254,0.5,-0.5,0.8660254,0,0)" />
    <rect
       style="opacity:1;fill:#cccccc;fill-opacity:1;stroke:none;stroke-width:0;stroke-linecap:round;stroke-miterlimit:4;stroke-dasharray:none;stroke-dashoffset:0;stroke-opacity:1"
       id="rect3359"
       width="51.315746"
       height="8.5526247"
       x="32.967926"
       y="-6.5922618"
       transform="matrix(0.8660254,0.5,-0.5,0.8660254,0,0)" />
    <rect
       transform="matrix(-0.8660254,0.5,-0.5,-0.8660254,0,0)"
       style="opacity:1;fill:#cccccc;fill-opacity:1;stroke:none;stroke-width:0;stroke-linecap:round;stroke-miterlimit:4;stroke-dasharray:none;stroke-dashoffset:0;stroke-opacity:1"
       id="rect3361"
       width="51.315746"
       height="8.5526247"
       x="-84.344841"
       y="-3.3858025" />
    <rect
       transform="matrix(-0.8660254,0.5,-0.5,-0.8660254,0,0)"
       y="-6.4863129"
       x="30.498991"
       height="8.5526247"
       width="51.315746"
       id="rect3363"
       style="opacity:1;fill:#cccccc;fill-opacity:1;stroke:none;stroke-width:0;stroke-linecap:round;stroke-miterlimit:4;stroke-dasharray:none;stroke-dashoffset:0;stroke-opacity:1" />
  </g>
</svg>
