<?xml version="1.0" encoding="UTF-8" standalone="no"?>
<!-- Created with Inkscape (http://www.inkscape.org/) -->

<svg
   xmlns:dc="http://purl.org/dc/elements/1.1/"
   xmlns:cc="http://creativecommons.org/ns#"
   xmlns:rdf="http://www.w3.org/1999/02/22-rdf-syntax-ns#"
   xmlns:svg="http://www.w3.org/2000/svg"
   xmlns="http://www.w3.org/2000/svg"
   xmlns:sodipodi="http://sodipodi.sourceforge.net/DTD/sodipodi-0.dtd"
   xmlns:inkscape="http://www.inkscape.org/namespaces/inkscape"
   width="210mm"
   height="297mm"
   viewBox="0 0 210 297"
   version="1.1"
   id="svg8"
   inkscape:version="0.91 r13725"
   sodipodi:docname="30.svg">
  <defs
     id="defs2">
    <pattern
       id="EMFhbasepattern"
       patternUnits="userSpaceOnUse"
       width="6"
       height="6"
       x="0"
       y="0" />
  </defs>
  <sodipodi:namedview
     id="base"
     pagecolor="#ffffff"
     bordercolor="#666666"
     borderopacity="1.0"
     inkscape:pageopacity="0.0"
     inkscape:pageshadow="2"
     inkscape:zoom="0.98994949"
     inkscape:cx="-56.311997"
     inkscape:cy="1104.866"
     inkscape:document-units="mm"
     inkscape:current-layer="layer1"
     showgrid="false"
     inkscape:window-width="958"
     inkscape:window-height="1008"
     inkscape:window-x="-7"
     inkscape:window-y="0"
     inkscape:window-maximized="0" />
  <metadata
     id="metadata5">
    <rdf:RDF>
      <cc:Work
         rdf:about="">
        <dc:format>image/svg+xml</dc:format>
        <dc:type
           rdf:resource="http://purl.org/dc/dcmitype/StillImage" />
        <dc:title />
      </cc:Work>
    </rdf:RDF>
  </metadata>
  <g
     inkscape:label="Layer 1"
     inkscape:groupmode="layer"
     id="layer1">
    <g
       id="g3347"
       transform="translate(-9.5955546,-6.7733329)">
      <rect
         y="-52.149208"
         x="-50.799999"
         height="119.33968"
         width="119.33968"
         id="rect3337"
         style="opacity:1;fill:#93aca7;fill-opacity:1;stroke:none;stroke-width:0;stroke-linecap:round;stroke-miterlimit:4;stroke-dasharray:none;stroke-dashoffset:0;stroke-opacity:1" />
      <ellipse
         ry="24.968172"
         rx="59.541161"
         cy="-52.151176"
         cx="8.7386112"
         id="path3339"
         style="opacity:1;fill:#93aca7;fill-opacity:1;stroke:none;stroke-width:0;stroke-linecap:round;stroke-miterlimit:4;stroke-dasharray:none;stroke-dashoffset:0;stroke-opacity:1" />
      <ellipse
         style="opacity:1;fill:#93aca7;fill-opacity:1;stroke:none;stroke-width:0;stroke-linecap:round;stroke-miterlimit:4;stroke-dasharray:none;stroke-dashoffset:0;stroke-opacity:1"
         id="ellipse3341"
         cx="8.9969711"
         cy="67.183296"
         rx="59.541161"
         ry="24.968172" />
      <ellipse
         transform="matrix(0,1,-1,0,0,0)"
         ry="24.968172"
         rx="59.541161"
         cy="49.445969"
         cx="9.0254469"
         id="ellipse3343"
         style="opacity:1;fill:#93aca7;fill-opacity:1;stroke:none;stroke-width:0;stroke-linecap:round;stroke-miterlimit:4;stroke-dasharray:none;stroke-dashoffset:0;stroke-opacity:1" />
      <ellipse
         style="opacity:1;fill:#93aca7;fill-opacity:1;stroke:none;stroke-width:0;stroke-linecap:round;stroke-miterlimit:4;stroke-dasharray:none;stroke-dashoffset:0;stroke-opacity:1"
         id="ellipse3345"
         cx="7.0298343"
         cy="-68.865341"
         rx="59.541161"
         ry="24.968172"
         transform="matrix(0,1,-1,0,0,0)" />
    </g>
    <g
       id="g3359"
       transform="matrix(1,0,0,0.84275583,0,0.11526352)">
      <path
         inkscape:connector-curvature="0"
         id="path3355"
         d="m -45.961904,-9.8158728 19.755556,-24.5936512 c 0,0 -8.466667,16.933334 -6.450796,23.787302 2.015874,6.8539681 -13.30476,0.8063492 -13.30476,0.8063492 z"
         style="fill:#6c5d53;fill-opacity:1;fill-rule:evenodd;stroke:none;stroke-width:0.28222221px;stroke-linecap:butt;stroke-linejoin:miter;stroke-opacity:1" />
      <path
         sodipodi:nodetypes="ccsc"
         style="fill:#483e37;fill-opacity:1;fill-rule:evenodd;stroke:none;stroke-width:0.28222221px;stroke-linecap:butt;stroke-linejoin:miter;stroke-opacity:1"
         d="m -37.092063,-10.118253 10.885715,-24.291271 c 0,0 -4.867477,16.820688 -6.450796,23.787302 -0.503967,2.2174601 -4.434919,0.503969 -4.434919,0.503969 z"
         id="path3357"
         inkscape:connector-curvature="0" />
    </g>
    <g
       id="g3363"
       transform="matrix(1,0,0,0.84275583,25.942962,-4.9301787)">
      <path
         style="fill:#6c5d53;fill-opacity:1;fill-rule:evenodd;stroke:none;stroke-width:0.28222221px;stroke-linecap:butt;stroke-linejoin:miter;stroke-opacity:1"
         d="m -45.961904,-9.8158728 19.755556,-24.5936512 c 0,0 -8.466667,16.933334 -6.450796,23.787302 2.015874,6.8539681 -13.30476,0.8063492 -13.30476,0.8063492 z"
         id="path3365"
         inkscape:connector-curvature="0" />
      <path
         inkscape:connector-curvature="0"
         id="path3367"
         d="m -37.092063,-10.118253 10.885715,-24.291271 c 0,0 -4.867477,16.820688 -6.450796,23.787302 -0.503967,2.2174601 -4.434919,0.503969 -4.434919,0.503969 z"
         style="fill:#483e37;fill-opacity:1;fill-rule:evenodd;stroke:none;stroke-width:0.28222221px;stroke-linecap:butt;stroke-linejoin:miter;stroke-opacity:1"
         sodipodi:nodetypes="ccsc" />
    </g>
    <g
       transform="matrix(1,0,0,0.84275583,48.749962,-5.410697)"
       id="g3369">
      <path
         inkscape:connector-curvature="0"
         id="path3371"
         d="m -45.961904,-9.8158728 19.755556,-24.5936512 c 0,0 -8.466667,16.933334 -6.450796,23.787302 2.015874,6.8539681 -13.30476,0.8063492 -13.30476,0.8063492 z"
         style="fill:#6c5d53;fill-opacity:1;fill-rule:evenodd;stroke:none;stroke-width:0.28222221px;stroke-linecap:butt;stroke-linejoin:miter;stroke-opacity:1" />
      <path
         sodipodi:nodetypes="ccsc"
         style="fill:#483e37;fill-opacity:1;fill-rule:evenodd;stroke:none;stroke-width:0.28222221px;stroke-linecap:butt;stroke-linejoin:miter;stroke-opacity:1"
         d="m -37.092063,-10.118253 10.885715,-24.291271 c 0,0 -4.867477,16.820688 -6.450796,23.787302 -0.503967,2.2174601 -4.434919,0.503969 -4.434919,0.503969 z"
         id="path3373"
         inkscape:connector-curvature="0" />
    </g>
    <g
       id="g3375"
       transform="matrix(1,0,0,0.84275583,67.565737,-2.287328)">
      <path
         style="fill:#6c5d53;fill-opacity:1;fill-rule:evenodd;stroke:none;stroke-width:0.28222221px;stroke-linecap:butt;stroke-linejoin:miter;stroke-opacity:1"
         d="m -45.961904,-9.8158728 19.755556,-24.5936512 c 0,0 -8.466667,16.933334 -6.450796,23.787302 2.015874,6.8539681 -13.30476,0.8063492 -13.30476,0.8063492 z"
         id="path3377"
         inkscape:connector-curvature="0" />
      <path
         inkscape:connector-curvature="0"
         id="path3379"
         d="m -37.092063,-10.118253 10.885715,-24.291271 c 0,0 -4.867477,16.820688 -6.450796,23.787302 -0.503967,2.2174601 -4.434919,0.503969 -4.434919,0.503969 z"
         style="fill:#483e37;fill-opacity:1;fill-rule:evenodd;stroke:none;stroke-width:0.28222221px;stroke-linecap:butt;stroke-linejoin:miter;stroke-opacity:1"
         sodipodi:nodetypes="ccsc" />
    </g>
    <g
       transform="matrix(1,0,0,0.84275583,82.390287,5.4009648)"
       id="g3381">
      <path
         inkscape:connector-curvature="0"
         id="path3383"
         d="m -45.961904,-9.8158728 19.755556,-24.5936512 c 0,0 -8.466667,16.933334 -6.450796,23.787302 2.015874,6.8539681 -13.30476,0.8063492 -13.30476,0.8063492 z"
         style="fill:#6c5d53;fill-opacity:1;fill-rule:evenodd;stroke:none;stroke-width:0.28222221px;stroke-linecap:butt;stroke-linejoin:miter;stroke-opacity:1" />
      <path
         sodipodi:nodetypes="ccsc"
         style="fill:#483e37;fill-opacity:1;fill-rule:evenodd;stroke:none;stroke-width:0.28222221px;stroke-linecap:butt;stroke-linejoin:miter;stroke-opacity:1"
         d="m -37.092063,-10.118253 10.885715,-24.291271 c 0,0 -4.867477,16.820688 -6.450796,23.787302 -0.503967,2.2174601 -4.434919,0.503969 -4.434919,0.503969 z"
         id="path3385"
         inkscape:connector-curvature="0" />
    </g>
    <path
       sodipodi:nodetypes="cccsssc"
       inkscape:connector-curvature="0"
       id="path3387"
       d="m -63.663475,18.978222 60.7923386,0 60.7923374,0 c 0,0 -1.17287,-17.3762442 -13.59601,-27.0984037 C 31.902041,-17.842339 8.2286156,-19.910413 -2.8711364,-19.910413 c -11.0997516,0 -34.3271056,2.705912 -46.7502516,12.4280724 -12.423147,9.7221589 -14.042087,26.4605626 -14.042087,26.4605626 z"
       style="fill:#6c5d53;fill-rule:evenodd;stroke:none;stroke-width:0.33738959px;stroke-linecap:butt;stroke-linejoin:miter;stroke-opacity:1" />
  </g>
</svg>
