<?xml version="1.0" encoding="UTF-8" standalone="no"?>
<!-- Created with Inkscape (http://www.inkscape.org/) -->

<svg
   xmlns:dc="http://purl.org/dc/elements/1.1/"
   xmlns:cc="http://creativecommons.org/ns#"
   xmlns:rdf="http://www.w3.org/1999/02/22-rdf-syntax-ns#"
   xmlns:svg="http://www.w3.org/2000/svg"
   xmlns="http://www.w3.org/2000/svg"
   xmlns:sodipodi="http://sodipodi.sourceforge.net/DTD/sodipodi-0.dtd"
   xmlns:inkscape="http://www.inkscape.org/namespaces/inkscape"
   width="210mm"
   height="297mm"
   viewBox="0 0 210 297"
   version="1.1"
   id="svg8"
   inkscape:version="0.91 r13725"
   sodipodi:docname="forestchest.svg">
  <defs
     id="defs2" />
  <sodipodi:namedview
     id="base"
     pagecolor="#ffffff"
     bordercolor="#666666"
     borderopacity="1.0"
     inkscape:pageopacity="0.0"
     inkscape:pageshadow="2"
     inkscape:zoom="0.087499999"
     inkscape:cx="283.45317"
     inkscape:cy="1478.4607"
     inkscape:document-units="mm"
     inkscape:current-layer="layer1"
     showgrid="false"
     inkscape:snap-global="false"
     inkscape:window-width="1920"
     inkscape:window-height="1017"
     inkscape:window-x="-8"
     inkscape:window-y="-8"
     inkscape:window-maximized="1" />
  <metadata
     id="metadata5">
    <rdf:RDF>
      <cc:Work
         rdf:about="">
        <dc:format>image/svg+xml</dc:format>
        <dc:type
           rdf:resource="http://purl.org/dc/dcmitype/StillImage" />
        <dc:title />
      </cc:Work>
    </rdf:RDF>
  </metadata>
  <g
     inkscape:label="Layer 1"
     inkscape:groupmode="layer"
     id="layer1">
    <g
       id="g3737"
       transform="matrix(1.4047525,0,0,1.4047525,-580.71221,-312.86649)">
      <rect
         y="114.20068"
         x="119.74663"
         height="286.51294"
         width="585.8548"
         id="rect3725"
         style="fill:#803300;stroke-width:0.26458332" />
      <ellipse
         ry="74.835464"
         rx="292.39285"
         cy="120.32262"
         cx="412.1395"
         id="path3727"
         style="fill:#803300;stroke-width:0.26338229" />
      <ellipse
         style="fill:#803300;stroke-width:0.16642524"
         id="ellipse3729"
         cx="122.95387"
         cy="254.48116"
         rx="59.868362"
         ry="145.92915" />
      <ellipse
         ry="145.92915"
         rx="59.868362"
         cy="255.01031"
         cx="701.31439"
         id="ellipse3731"
         style="fill:#803300;stroke-width:0.16642524" />
    </g>
    <rect
       style="fill:#552200;stroke-width:0.2011978"
       id="rect3739"
       width="12.41925"
       height="407.68695"
       x="-412.49783"
       y="-158.81435" />
    <rect
       y="-90.851074"
       x="-193.7411"
       height="339.72369"
       width="12.41925"
       id="rect3741"
       style="fill:#552200;stroke-width:0.18366346" />
    <rect
       style="fill:#552200;stroke-width:0.19263025"
       id="rect3743"
       width="12.41925"
       height="373.70535"
       x="-303.11948"
       y="-124.83272" />
    <rect
       y="-48.374039"
       x="-76.929253"
       height="297.24664"
       width="12.41925"
       id="rect3745"
       style="fill:#552200;stroke-width:0.17179808" />
    <rect
       style="fill:#552200;stroke-width:0.18366346"
       id="rect3747"
       width="12.41925"
       height="339.72369"
       x="178.9949"
       y="-90.851074" />
    <rect
       y="-48.374039"
       x="69.616539"
       height="297.24664"
       width="12.41925"
       id="rect3749"
       style="fill:#552200;stroke-width:0.17179808" />
    <rect
       style="fill:#552200;stroke-width:0.19263025"
       id="rect3751"
       width="12.41925"
       height="373.70535"
       x="284.12555"
       y="-124.83272" />
    <rect
       style="fill:#552200;stroke-width:0.1996194"
       id="rect3755"
       width="12.41925"
       height="401.3154"
       x="393.50391"
       y="-152.44278" />
    <rect
       y="-435.24545"
       x="15.56605"
       height="430.90118"
       width="16.514297"
       id="rect3757"
       style="fill:#552200;stroke-width:0.238378"
       transform="matrix(0.31804219,-0.94807656,0.94807656,0.31804219,0,0)" />
    <rect
       transform="matrix(-0.31804219,-0.94807656,-0.94807656,0.31804219,0,0)"
       style="fill:#552200;stroke-width:0.238378"
       id="rect3759"
       width="16.514297"
       height="430.90118"
       x="15.630654"
       y="-435.05292" />
    <rect
       style="fill:#d4aa00;stroke-width:0.38099405"
       id="rect3761"
       width="48.932789"
       height="68.811729"
       x="-22.108425"
       y="-48.981937" />
    <path
       style="fill:#008000;stroke:none;stroke-width:0.26458332px;stroke-linecap:butt;stroke-linejoin:miter;stroke-opacity:1"
       d="m -329.40446,-170.95446 c 8.49541,-39.29125 -3.18579,-37.1674 8.49541,-39.29125 11.68116,-2.12385 0,4.24769 11.68116,-2.12385 11.68119,-6.37156 -8.4954,19.11467 -9.55732,25.48623 -1.06193,6.37154 -10.61925,15.92887 -10.61925,15.92887 z"
       id="path3763"
       inkscape:connector-curvature="0" />
    <path
       style="fill:#008000;stroke:none;stroke-width:0.26458332px;stroke-linecap:butt;stroke-linejoin:miter;stroke-opacity:1"
       d="m -238.07885,-231.5426 c -2.87454,8.01555 -5.09869,16.24118 -7.43347,24.4243 -3.29129,3.30206 -2.65129,8.60038 -5.3963,12.26389 -0.12151,4.59006 5.88014,2.11927 8.60948,2.59961 3.49577,0.0713 6.98551,0.38548 10.00394,-1.19198 4.54405,1.48787 2.68034,6.63882 2.7993,10.14198 -0.001,3.95981 -1.12077,7.88896 -3.38008,11.14542 -1.92601,4.2692 -2.79887,9.02737 -5.56318,12.89133 -2.28751,4.69808 -0.38959,10.67421 -3.77025,14.91509 -1.29568,4.2736 4.09429,3.27713 6.54556,3.01876 3.46371,0.19587 7.93034,0.78116 10.22048,-2.4383 1.87992,-3.9514 1.43118,-8.56266 3.15141,-12.6128 1.85648,-6.76713 3.79815,-13.51299 5.44447,-20.33563 -0.56472,-4.3395 2.51989,-8.12149 2.27392,-12.46732 0.46259,-2.69822 -1.1797,-5.29912 -3.15709,-6.28224 -1.31297,-3.95255 -3.0537,-7.8023 -5.38686,-11.24161 -1.84948,-4.44129 5.04961,-19.50123 3.4594,-23.96187 -2.96687,-5.35528 -15.33544,2.00359 -18.42073,-0.86863 z"
       id="path3765"
       inkscape:connector-curvature="0"
       sodipodi:nodetypes="cccccccccccccccccc" />
    <path
       sodipodi:nodetypes="ccccccccccccccccc"
       inkscape:connector-curvature="0"
       id="path3771"
       d="m -111.70966,-246.07591 c -2.87454,8.01554 -5.09868,16.24117 -7.43347,24.4243 -3.29129,3.30204 -2.6513,8.60038 -5.3963,12.26389 -0.12151,4.59005 5.88014,2.11926 8.60948,2.5996 3.49577,0.0713 0.61395,9.41185 3.63239,7.8344 -7.10542,15.36405 11.77429,3.40036 5.79077,12.26102 -1.92601,4.2692 -2.79887,9.02737 -5.56318,12.89133 -2.2875,4.69809 -0.38958,10.67421 -3.77025,14.9151 -1.29568,4.2736 26.925701,15.48927 29.376967,15.2309 3.463712,0.19587 -14.901057,-11.431 -12.610921,-14.65045 1.879909,-3.95139 1.431177,-8.56266 3.151408,-12.6128 1.856478,-6.76714 3.798142,-13.51299 5.444469,-20.33563 -0.564725,-4.33949 2.519887,-8.12148 2.273914,-12.46731 0.462586,-2.69823 -10.206066,-5.29912 -12.183467,-6.28225 -1.31297,-3.95255 5.972678,-7.80229 3.639526,-11.2416 -1.849483,-4.4413 5.049606,-19.50123 3.459399,-23.96187 -2.966865,-5.35528 -15.335445,2.00358 -18.420735,-0.86863 z"
       style="fill:#008000;stroke:none;stroke-width:0.26458332px;stroke-linecap:butt;stroke-linejoin:miter;stroke-opacity:1" />
    <path
       inkscape:connector-curvature="0"
       id="path3773"
       d="m 325.46358,-170.95446 c -8.49541,-39.29125 3.18578,-37.1674 -8.49541,-39.29125 -11.68118,-2.12385 0,4.24769 -11.68118,-2.12385 -11.68119,-6.37156 8.49539,19.11467 9.55734,25.48623 1.06192,6.37154 10.61925,15.92887 10.61925,15.92887 z"
       style="fill:#008000;stroke:none;stroke-width:0.26458332px;stroke-linecap:butt;stroke-linejoin:miter;stroke-opacity:1" />
    <path
       sodipodi:nodetypes="cccccccccccccccccc"
       inkscape:connector-curvature="0"
       id="path3775"
       d="m 234.13796,-231.5426 c 2.87454,8.01555 5.09867,16.24118 7.43347,24.4243 3.29129,3.30206 2.6513,8.60038 5.3963,12.26389 0.1215,4.59006 -5.88015,2.11927 -8.60948,2.59961 -3.49577,0.0713 -6.9855,0.38548 -10.00394,-1.19198 -4.54405,1.48787 -2.68034,6.63882 -2.79931,10.14198 0.001,3.95981 1.12076,7.88896 3.38009,11.14542 1.92602,4.2692 2.79886,9.02737 5.56318,12.89133 2.2875,4.69808 0.38958,10.67421 3.77024,14.91509 1.29569,4.2736 -4.09427,3.27713 -6.54555,3.01876 -3.46371,0.19587 -7.93035,0.78116 -10.22049,-2.4383 -1.8799,-3.9514 -1.43118,-8.56266 -3.15141,-12.6128 -1.85647,-6.76713 -3.79814,-13.51299 -5.44447,-20.33563 0.56473,-4.3395 -2.51988,-8.12149 -2.27391,-12.46732 -0.46258,-2.69822 1.17969,-5.29912 3.1571,-6.28224 1.31296,-3.95255 3.05369,-7.8023 5.38684,-11.24161 1.84949,-4.44129 -5.0496,-19.50123 -3.45939,-23.96187 2.96685,-5.35528 15.33544,2.00359 18.42073,-0.86863 z"
       style="fill:#008000;stroke:none;stroke-width:0.26458332px;stroke-linecap:butt;stroke-linejoin:miter;stroke-opacity:1" />
    <path
       style="fill:#008000;stroke:none;stroke-width:0.26458332px;stroke-linecap:butt;stroke-linejoin:miter;stroke-opacity:1"
       d="m 107.76875,-246.07591 c 2.87455,8.01554 5.0987,16.24117 7.43349,24.4243 3.29129,3.30204 2.6513,8.60038 5.39629,12.26389 0.12152,4.59005 -5.88013,2.11926 -8.60947,2.5996 -3.49578,0.0713 -0.61396,9.41185 -3.63238,7.8344 7.10541,15.36405 -11.77429,3.40036 -5.79079,12.26102 1.92603,4.2692 2.79888,9.02737 5.56319,12.89133 2.28749,4.69809 0.38958,10.67421 3.77024,14.9151 1.2957,4.2736 -26.925685,15.48927 -29.376958,15.2309 -3.4637,0.19587 14.90106,-11.431 12.610916,-14.65045 -1.879911,-3.95139 -1.431175,-8.56266 -3.151406,-12.6128 -1.856478,-6.76714 -3.798141,-13.51299 -5.444472,-20.33563 0.564731,-4.33949 -2.519883,-8.12148 -2.273905,-12.46731 -0.462594,-2.69823 10.206064,-5.29912 12.18346,-6.28225 1.312973,-3.95255 -5.972679,-7.80229 -3.639522,-11.2416 1.849479,-4.4413 -5.049611,-19.50123 -3.459405,-23.96187 2.966866,-5.35528 15.335452,2.00358 18.420722,-0.86863 z"
       id="path3777"
       inkscape:connector-curvature="0"
       sodipodi:nodetypes="ccccccccccccccccc" />
  </g>
</svg>
