<?xml version="1.0" encoding="UTF-8" standalone="no"?>
<!-- Created with Inkscape (http://www.inkscape.org/) -->

<svg
   xmlns:dc="http://purl.org/dc/elements/1.1/"
   xmlns:cc="http://creativecommons.org/ns#"
   xmlns:rdf="http://www.w3.org/1999/02/22-rdf-syntax-ns#"
   xmlns:svg="http://www.w3.org/2000/svg"
   xmlns="http://www.w3.org/2000/svg"
   xmlns:sodipodi="http://sodipodi.sourceforge.net/DTD/sodipodi-0.dtd"
   xmlns:inkscape="http://www.inkscape.org/namespaces/inkscape"
   width="210mm"
   height="297mm"
   viewBox="0 0 210 297"
   version="1.1"
   id="svg8"
   inkscape:version="0.92.2 (5c3e80d, 2017-08-06)"
   sodipodi:docname="shadorachnid.svg">
  <defs
     id="defs2" />
  <sodipodi:namedview
     id="base"
     pagecolor="#ffffff"
     bordercolor="#666666"
     borderopacity="1.0"
     inkscape:pageopacity="0.0"
     inkscape:pageshadow="2"
     inkscape:zoom="0.0875"
     inkscape:cx="-549.76717"
     inkscape:cy="2859.3651"
     inkscape:document-units="mm"
     inkscape:current-layer="layer1"
     showgrid="false"
     inkscape:snap-global="false"
     inkscape:window-width="1920"
     inkscape:window-height="1017"
     inkscape:window-x="-8"
     inkscape:window-y="-8"
     inkscape:window-maximized="1" />
  <metadata
     id="metadata5">
    <rdf:RDF>
      <cc:Work
         rdf:about="">
        <dc:format>image/svg+xml</dc:format>
        <dc:type
           rdf:resource="http://purl.org/dc/dcmitype/StillImage" />
        <dc:title></dc:title>
      </cc:Work>
    </rdf:RDF>
  </metadata>
  <g
     inkscape:label="Layer 1"
     inkscape:groupmode="layer"
     id="layer1">
    <rect
       id="rect3699"
       width="302.38095"
       height="24.190477"
       x="-113.46841"
       y="241.05952"
       style="stroke:none;stroke-width:0.26458332" />
    <rect
       id="rect3701"
       width="153.45833"
       height="243.41666"
       x="-194.35535"
       y="121.61906"
       style="stroke:none;stroke-width:0.26458332" />
    <rect
       id="rect3703"
       width="51.404762"
       height="245.68451"
       x="97.442268"
       y="151.85715"
       style="stroke:none;stroke-width:0.26458332"
       ry="25.702381" />
    <path
       sodipodi:type="star"
       style="stroke:none;stroke-width:0.26458332"
       id="path3705"
       sodipodi:sides="6"
       sodipodi:cx="3.8186279"
       sodipodi:cy="6.0289283"
       sodipodi:r1="54.059845"
       sodipodi:r2="27.029922"
       sodipodi:arg1="0.26179939"
       sodipodi:arg2="0.78539817"
       inkscape:flatsided="true"
       inkscape:rounded="0"
       inkscape:randomized="0"
       d="M 56.036428,20.020646 17.810345,58.246729 -34.407455,44.255011 -48.399173,-7.9627893 -10.17309,-46.188872 42.044711,-32.197155 Z"
       inkscape:transform-center-x="-0.87429923"
       inkscape:transform-center-y="4.3236801" />
    <path
       sodipodi:type="star"
       style="stroke:none;stroke-width:0.26458332"
       id="path3707"
       sodipodi:sides="6"
       sodipodi:cx="-146.73033"
       sodipodi:cy="76.261902"
       sodipodi:r1="147.22646"
       sodipodi:r2="127.50185"
       sodipodi:arg1="0.68356188"
       sodipodi:arg2="1.2071607"
       inkscape:flatsided="true"
       inkscape:rounded="0"
       inkscape:randomized="0"
       d="m -32.581522,169.24404 -137.599298,52.3647 -114.14881,-92.98214 23.45049,-145.34684 137.5993,-52.364697 114.1488098,92.982141 z"
       inkscape:transform-center-x="-3.7142856e-006"
       inkscape:transform-center-y="1.1344582e-006" />
    <ellipse
       style="stroke:none;stroke-width:0.26458332"
       id="path3709"
       cx="100.46608"
       cy="243.32738"
       rx="43.845234"
       ry="116.41666" />
    <ellipse
       style="stroke:none;stroke-width:0.26458332"
       id="path3711"
       cx="152.11713"
       cy="-28.654716"
       rx="160.63989"
       ry="51.404762"
       transform="rotate(45)" />
    <ellipse
       style="stroke:none;stroke-width:0.26458332"
       id="path3713"
       cx="166.9899"
       cy="344.24701"
       rx="185.20833"
       ry="103.94345" />
    <path
       style="fill:#000000;stroke:none;stroke-width:0.26458332px;stroke-linecap:butt;stroke-linejoin:miter;stroke-opacity:1"
       d="m -190.57561,280.36905 c 0,0 -302.38094,52.91667 -240.39284,146.65476 61.98809,93.7381 15.11905,7.55953 40.82142,-27.21429 25.70239,-34.7738 204.10715,-96.7619 204.10715,-96.7619 z"
       id="path3765"
       inkscape:connector-curvature="0" />
    <path
       inkscape:connector-curvature="0"
       id="path3767"
       d="m -162.5628,317.19006 c 0,0 -280.66834,124.337 -197.88768,200.34173 82.78066,76.00472 16.49667,3.68677 33.04585,-36.26263 16.54921,-39.94939 174.71732,-143.16582 174.71732,-143.16582 z"
       style="fill:#000000;stroke:none;stroke-width:0.26458332px;stroke-linecap:butt;stroke-linejoin:miter;stroke-opacity:1" />
    <path
       style="fill:#000000;stroke:none;stroke-width:0.26458332px;stroke-linecap:butt;stroke-linejoin:miter;stroke-opacity:1"
       d="m -73.360415,345.91625 c 0,0 -280.668345,124.337 -197.887685,200.34173 82.78066,76.00472 16.49667,3.68677 33.04585,-36.26263 16.54921,-39.94939 174.717325,-143.16582 174.717325,-143.16582 z"
       id="path3769"
       inkscape:connector-curvature="0" />
    <path
       inkscape:connector-curvature="0"
       id="path3771"
       d="m 283.47321,280.36905 c 0,0 302.38094,52.91667 240.39284,146.65476 -61.98809,93.7381 -15.11905,7.55953 -40.82142,-27.21429 -25.70239,-34.7738 -204.10715,-96.7619 -204.10715,-96.7619 z"
       style="fill:#000000;stroke:none;stroke-width:0.26458332px;stroke-linecap:butt;stroke-linejoin:miter;stroke-opacity:1" />
    <path
       style="fill:#000000;stroke:none;stroke-width:0.26458332px;stroke-linecap:butt;stroke-linejoin:miter;stroke-opacity:1"
       d="m 255.4604,317.19006 c 0,0 280.66834,124.337 197.88768,200.34173 -82.78066,76.00472 -16.49667,3.68677 -33.04585,-36.26263 C 403.75302,441.31977 245.5849,338.10334 245.5849,338.10334 Z"
       id="path3773"
       inkscape:connector-curvature="0" />
    <path
       inkscape:connector-curvature="0"
       id="path3775"
       d="m 166.25801,345.91625 c 0,0 280.66835,124.337 197.88769,200.34173 -82.78066,76.00472 -16.49667,3.68677 -33.04585,-36.26263 C 314.55064,470.04596 156.38252,366.82953 156.38252,366.82953 Z"
       style="fill:#000000;stroke:none;stroke-width:0.26458332px;stroke-linecap:butt;stroke-linejoin:miter;stroke-opacity:1" />
    <circle
       style="fill:#008000;stroke:none;stroke-width:0.26458332"
       id="path3777"
       cx="120.87678"
       cy="334.79761"
       r="10.583333" />
    <circle
       style="fill:#008000;stroke:none;stroke-width:0.26458332"
       id="path3779"
       cx="-223.08151"
       cy="55.851177"
       r="15.875" />
    <circle
       style="fill:#4d4d4d;stroke:none;stroke-width:0.26458332"
       id="path3781"
       cx="-67.355347"
       cy="61.898815"
       r="15.875" />
    <circle
       style="fill:#4d4d4d;stroke:none;stroke-width:0.26458332"
       id="path3783"
       cx="-157.31366"
       cy="268.2738"
       r="15.119047" />
    <circle
       style="fill:#4d4d4d;stroke:none;stroke-width:0.26458332"
       id="path3785"
       cx="225.19823"
       cy="331.7738"
       r="12.095239" />
    <circle
       style="fill:#4d4d4d;stroke:none;stroke-width:0.26458332"
       id="path3787"
       cx="120.87678"
       cy="85.333328"
       r="13.607142" />
    <path
       inkscape:connector-curvature="0"
       id="path3789"
       d="m 121.3408,29.103181 c 0,0 134.76118,-191.932611 50.63752,-209.084031 -84.123656,-17.15143 -12.25102,4.08366 -7.35061,36.75305 4.9004,32.66938 -57.98814,162.530181 -57.98814,162.530181 z"
       style="fill:#000000;stroke:none;stroke-width:0.20213148px;stroke-linecap:butt;stroke-linejoin:miter;stroke-opacity:1" />
    <path
       style="fill:#000000;stroke:none;stroke-width:0.20213148px;stroke-linecap:butt;stroke-linejoin:miter;stroke-opacity:1"
       d="m -93.277023,33.638901 c 0,0 -134.761187,-191.932611 -50.637527,-209.084031 84.123664,-17.15143 12.25103,4.08366 7.35061,36.75305 -4.9004,32.66938 57.988146,162.530181 57.988146,162.530181 z"
       id="path3791"
       inkscape:connector-curvature="0" />
  </g>
</svg>
