<?xml version="1.0" encoding="UTF-8" standalone="no"?>
<!-- Created with Inkscape (http://www.inkscape.org/) -->

<svg
   xmlns:dc="http://purl.org/dc/elements/1.1/"
   xmlns:cc="http://creativecommons.org/ns#"
   xmlns:rdf="http://www.w3.org/1999/02/22-rdf-syntax-ns#"
   xmlns:svg="http://www.w3.org/2000/svg"
   xmlns="http://www.w3.org/2000/svg"
   xmlns:sodipodi="http://sodipodi.sourceforge.net/DTD/sodipodi-0.dtd"
   xmlns:inkscape="http://www.inkscape.org/namespaces/inkscape"
   width="210mm"
   height="297mm"
   viewBox="0 0 210 297"
   version="1.1"
   id="svg8"
   inkscape:version="0.91 r13725"
   sodipodi:docname="3.svg">
  <defs
     id="defs2" />
  <sodipodi:namedview
     id="base"
     pagecolor="#ffffff"
     bordercolor="#666666"
     borderopacity="1.0"
     inkscape:pageopacity="0.0"
     inkscape:pageshadow="2"
     inkscape:zoom="0.10096334"
     inkscape:cx="-365.55782"
     inkscape:cy="1581.1556"
     inkscape:document-units="mm"
     inkscape:current-layer="layer1"
     showgrid="false"
     inkscape:snap-global="false"
     inkscape:window-width="1920"
     inkscape:window-height="1017"
     inkscape:window-x="-8"
     inkscape:window-y="-8"
     inkscape:window-maximized="1" />
  <metadata
     id="metadata5">
    <rdf:RDF>
      <cc:Work
         rdf:about="">
        <dc:format>image/svg+xml</dc:format>
        <dc:type
           rdf:resource="http://purl.org/dc/dcmitype/StillImage" />
        <dc:title />
      </cc:Work>
    </rdf:RDF>
  </metadata>
  <g
     inkscape:label="Layer 1"
     inkscape:groupmode="layer"
     id="layer1">
    <rect
       id="rect3699"
       width="302.38095"
       height="24.190477"
       x="-113.46841"
       y="241.05952"
       style="stroke:none;stroke-width:0.26458332" />
    <rect
       id="rect3701"
       width="153.45833"
       height="243.41666"
       x="-194.35535"
       y="121.61906"
       style="stroke:none;stroke-width:0.26458332" />
    <rect
       id="rect3703"
       width="51.404762"
       height="245.68451"
       x="97.442268"
       y="151.85715"
       style="stroke:none;stroke-width:0.26458332"
       ry="25.702381" />
    <path
       sodipodi:type="star"
       style="stroke:none;stroke-width:0.26458332"
       id="path3705"
       sodipodi:sides="6"
       sodipodi:cx="3.8186279"
       sodipodi:cy="6.0289283"
       sodipodi:r1="54.059845"
       sodipodi:r2="27.029922"
       sodipodi:arg1="0.26179939"
       sodipodi:arg2="0.78539817"
       inkscape:flatsided="true"
       inkscape:rounded="0"
       inkscape:randomized="0"
       d="M 56.036428,20.020646 17.810345,58.246729 -34.407455,44.255011 -48.399173,-7.9627893 -10.17309,-46.188872 42.044711,-32.197155 Z"
       inkscape:transform-center-x="-0.87429923"
       inkscape:transform-center-y="4.3236801" />
    <path
       sodipodi:type="star"
       style="stroke:none;stroke-width:0.26458332"
       id="path3707"
       sodipodi:sides="6"
       sodipodi:cx="-146.73033"
       sodipodi:cy="76.261902"
       sodipodi:r1="147.22646"
       sodipodi:r2="127.50185"
       sodipodi:arg1="0.68356188"
       sodipodi:arg2="1.2071607"
       inkscape:flatsided="true"
       inkscape:rounded="0"
       inkscape:randomized="0"
       d="m -32.581522,169.24404 -137.599298,52.3647 -114.14881,-92.98214 23.45049,-145.34684 137.5993,-52.364697 114.1488098,92.982141 z"
       inkscape:transform-center-x="-3.7142856e-006"
       inkscape:transform-center-y="1.1344582e-006" />
    <ellipse
       style="stroke:none;stroke-width:0.26458332"
       id="path3709"
       cx="100.46608"
       cy="243.32738"
       rx="43.845234"
       ry="116.41666" />
    <ellipse
       style="stroke:none;stroke-width:0.26458332"
       id="path3711"
       cx="152.11713"
       cy="-28.654716"
       rx="160.63989"
       ry="51.404762"
       transform="rotate(45)" />
    <ellipse
       style="stroke:none;stroke-width:0.26458332"
       id="path3713"
       cx="166.9899"
       cy="344.24701"
       rx="185.20833"
       ry="103.94345" />
    <path
       style="fill:#000000;stroke:none;stroke-width:0.26458332px;stroke-linecap:butt;stroke-linejoin:miter;stroke-opacity:1"
       d="m -153.99883,317.79318 c 0,0 -251.23335,-176.39788 -273.68399,-66.28283 -22.45064,110.11504 5.34539,16.03618 48.10851,9.62169 42.76313,-6.41445 212.74655,75.90456 212.74655,75.90456 z"
       id="path3765"
       inkscape:connector-curvature="0" />
    <path
       inkscape:connector-curvature="0"
       id="path3767"
       d="m -162.5628,317.19006 c 0,0 -280.66834,124.337 -197.88768,200.34173 82.78066,76.00472 16.49667,3.68677 33.04585,-36.26263 16.54921,-39.94939 174.71732,-143.16582 174.71732,-143.16582 z"
       style="fill:#000000;stroke:none;stroke-width:0.26458332px;stroke-linecap:butt;stroke-linejoin:miter;stroke-opacity:1" />
    <path
       style="fill:#000000;stroke:none;stroke-width:0.26458332px;stroke-linecap:butt;stroke-linejoin:miter;stroke-opacity:1"
       d="m -103.62804,344.244 c 0,0 -286.38203,-110.54295 -281.59072,1.73527 4.79131,112.27822 9.05796,14.27185 49.00849,-2.27461 39.95054,-16.54642 224.77733,22.31029 224.77733,22.31029 z"
       id="path3769"
       inkscape:connector-curvature="0" />
    <path
       inkscape:connector-curvature="0"
       id="path3771"
       d="m 283.47321,280.36905 c 0,0 302.38094,52.91667 240.39284,146.65476 -61.98809,93.7381 -15.11905,7.55953 -40.82142,-27.21429 -25.70239,-34.7738 -204.10715,-96.7619 -204.10715,-96.7619 z"
       style="fill:#000000;stroke:none;stroke-width:0.26458332px;stroke-linecap:butt;stroke-linejoin:miter;stroke-opacity:1" />
    <path
       style="fill:#000000;stroke:none;stroke-width:0.26458332px;stroke-linecap:butt;stroke-linejoin:miter;stroke-opacity:1"
       d="m 259.93897,389.68035 c 0,0 286.38202,-110.54295 281.59071,1.73528 -4.79131,112.27822 -9.05796,14.27184 -49.00849,-2.27461 -39.95055,-16.54643 -224.77733,22.31029 -224.77733,22.31029 z"
       id="path3773"
       inkscape:connector-curvature="0" />
    <path
       inkscape:connector-curvature="0"
       id="path3775"
       d="m 166.25801,345.91625 c 0,0 280.66835,124.337 197.88769,200.34173 -82.78066,76.00472 -16.49667,3.68677 -33.04585,-36.26263 C 314.55064,470.04596 156.38252,366.82953 156.38252,366.82953 Z"
       style="fill:#000000;stroke:none;stroke-width:0.26458332px;stroke-linecap:butt;stroke-linejoin:miter;stroke-opacity:1" />
    <circle
       style="fill:#008000;stroke:none;stroke-width:0.26458332"
       id="path3777"
       cx="120.87678"
       cy="334.79761"
       r="10.583333" />
    <circle
       style="fill:#008000;stroke:none;stroke-width:0.26458332"
       id="path3779"
       cx="-223.08151"
       cy="55.851177"
       r="15.875" />
    <circle
       style="fill:#4d4d4d;stroke:none;stroke-width:0.26458332"
       id="path3781"
       cx="-67.355347"
       cy="61.898815"
       r="15.875" />
    <circle
       style="fill:#4d4d4d;stroke:none;stroke-width:0.26458332"
       id="path3783"
       cx="-157.31366"
       cy="268.2738"
       r="15.119047" />
    <circle
       style="fill:#4d4d4d;stroke:none;stroke-width:0.26458332"
       id="path3785"
       cx="225.19823"
       cy="331.7738"
       r="12.095239" />
    <circle
       style="fill:#4d4d4d;stroke:none;stroke-width:0.26458332"
       id="path3787"
       cx="120.87678"
       cy="85.333328"
       r="13.607142" />
    <path
       inkscape:connector-curvature="0"
       id="path3789"
       d="m 136.63609,29.643665 c 0,0 20.7403,-233.599105 -60.688642,-206.390845 -81.4289366,27.20826 -8.56786,9.66207 12.01071,35.50439 20.578562,25.8423 31.045892,169.749325 31.045892,169.749325 z"
       style="fill:#000000;stroke:none;stroke-width:0.20213148px;stroke-linecap:butt;stroke-linejoin:miter;stroke-opacity:1" />
    <path
       style="fill:#000000;stroke:none;stroke-width:0.20213148px;stroke-linecap:butt;stroke-linejoin:miter;stroke-opacity:1"
       d="m -109.82115,27.211835 c 0,0 -20.74031,-233.599115 60.688627,-206.390845 81.428945,27.20825 8.567873,9.66206 -12.010707,35.50438 -20.57856,25.84231 -31.04589,169.749338 -31.04589,169.749338 z"
       id="path3791"
       inkscape:connector-curvature="0" />
  </g>
</svg>
