<?xml version="1.0" encoding="UTF-8" standalone="no"?>
<!-- Created with Inkscape (http://www.inkscape.org/) -->

<svg
   xmlns:dc="http://purl.org/dc/elements/1.1/"
   xmlns:cc="http://creativecommons.org/ns#"
   xmlns:rdf="http://www.w3.org/1999/02/22-rdf-syntax-ns#"
   xmlns:svg="http://www.w3.org/2000/svg"
   xmlns="http://www.w3.org/2000/svg"
   xmlns:sodipodi="http://sodipodi.sourceforge.net/DTD/sodipodi-0.dtd"
   xmlns:inkscape="http://www.inkscape.org/namespaces/inkscape"
   width="210mm"
   height="297mm"
   viewBox="0 0 744.09448819 1052.3622047"
   id="svg2"
   version="1.1"
   inkscape:version="0.91 r13725"
   sodipodi:docname="darius axe.svg">
  <defs
     id="defs4" />
  <sodipodi:namedview
     id="base"
     pagecolor="#ffffff"
     bordercolor="#666666"
     borderopacity="1.0"
     inkscape:pageopacity="0.0"
     inkscape:pageshadow="2"
     inkscape:zoom="0.24748737"
     inkscape:cx="350.21876"
     inkscape:cy="690.43027"
     inkscape:document-units="px"
     inkscape:current-layer="g4244"
     showgrid="false"
     inkscape:window-width="944"
     inkscape:window-height="1001"
     inkscape:window-x="960"
     inkscape:window-y="0"
     inkscape:window-maximized="0"
     showguides="false" />
  <metadata
     id="metadata7">
    <rdf:RDF>
      <cc:Work
         rdf:about="">
        <dc:format>image/svg+xml</dc:format>
        <dc:type
           rdf:resource="http://purl.org/dc/dcmitype/StillImage" />
        <dc:title />
      </cc:Work>
    </rdf:RDF>
  </metadata>
  <g
     inkscape:label="Layer 1"
     inkscape:groupmode="layer"
     id="layer1">
    <g
       id="g4244"
       transform="matrix(10.463086,0,0,10.463086,-1852.4595,-1923.2476)">
      <rect
         rx="12.107368"
         ry="2.7814093"
         y="-182.8215"
         x="56.744411"
         height="11.785956"
         width="120.51629"
         id="rect4226"
         style="fill:#999999;fill-opacity:1;stroke:none;stroke-width:0;stroke-linecap:round;stroke-miterlimit:4;stroke-dasharray:none;stroke-dashoffset:0;stroke-opacity:1"
         transform="matrix(0,1,-1,0,0,0)" />
      <path
         style="fill:#999999;fill-rule:evenodd;stroke:none;stroke-width:0.0955741px;stroke-linecap:butt;stroke-linejoin:miter;stroke-opacity:1"
         d="m 168.12533,179.6217 c 0,0 11.84535,-10.80996 16.0187,0.22124 2.16358,5.71892 -2.69273,-1.18029 -6.26196,-2.08024 -2.39006,-0.60262 -6.25722,0.7206 -9.75674,1.85891 z"
         id="path3340"
         inkscape:connector-curvature="0"
         sodipodi:nodetypes="cssc" />
      <path
         sodipodi:nodetypes="cssc"
         inkscape:connector-curvature="0"
         id="path3342"
         d="m 172.55839,192.07502 c 0,0 -10.80996,-11.84536 0.22124,-16.01869 5.71892,-2.16359 -1.18029,2.69271 -2.08024,6.26195 -0.60262,2.39007 0.7206,6.25723 1.85891,9.75674 z"
         style="fill:#999999;fill-rule:evenodd;stroke:none;stroke-width:0.0955741px;stroke-linecap:butt;stroke-linejoin:miter;stroke-opacity:1" />
      <path
         style="fill:#999999;fill-rule:evenodd;stroke:none;stroke-width:0.0955741px;stroke-linecap:butt;stroke-linejoin:miter;stroke-opacity:1"
         d="m 186.22908,188.638 c 0,0 -11.84535,10.80997 -16.01869,-0.22123 -2.16358,-5.71892 2.69272,1.18027 6.26195,2.08023 2.39008,0.60264 6.25724,-0.7206 9.75674,-1.8589 z"
         id="path3344"
         inkscape:connector-curvature="0"
         sodipodi:nodetypes="cssc" />
      <path
         sodipodi:nodetypes="cssc"
         inkscape:connector-curvature="0"
         id="path3346"
         d="m 181.9067,176.18468 c 0,0 10.80996,11.84536 -0.22125,16.01871 -5.71891,2.16358 1.18029,-2.69273 2.08025,-6.26195 0.60262,-2.39008 -0.72061,-6.25724 -1.85891,-9.75676 z"
         style="fill:#999999;fill-rule:evenodd;stroke:none;stroke-width:0.0955741px;stroke-linecap:butt;stroke-linejoin:miter;stroke-opacity:1" />
      <path
         style="fill:#b3b3b3;fill-rule:evenodd;stroke:none;stroke-width:0.0955741px;stroke-linecap:butt;stroke-linejoin:miter;stroke-opacity:1"
         d="m 172.93896,57.770145 c 0,0 -7.67826,-4.566226 -10.92782,-8.256575 -3.76044,-4.270542 -9.63029,-10.702243 -9.63029,-10.702243 -10.58677,5.271166 -15.36799,7.878629 -19.44957,18.065732 -4.40985,11.006415 15.94136,58.695551 20.5977,50.181071 2.12485,-3.88544 6.91152,-12.262187 3.82935,-19.574699 -4.15524,-9.858434 1.37596,-13.070086 1.37596,-13.070086 l 4.30714,-2.719752 c 0,0 4.74759,-0.19076 7.78309,3.816108 6.07101,8.013742 2.11444,-17.739556 2.11444,-17.739556 z"
         id="path3348"
         inkscape:connector-curvature="0"
         sodipodi:nodetypes="csssssccsc" />
      <path
         sodipodi:type="star"
         style="opacity:1;fill:#b3b3b3;fill-opacity:1;stroke:none;stroke-width:0;stroke-linecap:round;stroke-miterlimit:4;stroke-dasharray:none;stroke-dashoffset:0;stroke-opacity:1"
         id="path3388"
         sodipodi:sides="3"
         sodipodi:cx="158.47845"
         sodipodi:cy="123.6902"
         sodipodi:r1="4.206058"
         sodipodi:r2="2.103029"
         sodipodi:arg1="0.52359878"
         sodipodi:arg2="1.5707963"
         inkscape:flatsided="true"
         inkscape:rounded="0"
         inkscape:randomized="0"
         d="m 162.12101,125.79323 -7.28511,0 3.64255,-6.30909 z"
         inkscape:transform-center-x="6.7113251"
         inkscape:transform-center-y="8.8439969"
         transform="matrix(-0.96140634,0.24033667,-0.30501001,-1.2201158,342.62518,219.68844)" />
      <path
         style="fill:#b3b3b3;fill-rule:evenodd;stroke:none;stroke-width:0.0955741px;stroke-linecap:butt;stroke-linejoin:miter;stroke-opacity:1"
         d="m 187.2467,55.680999 c 0,0 9.48302,-2.604861 9.21543,-10.914076 -0.13381,-4.154609 12.71602,5.225595 16.68838,14.032943 4.77206,10.580408 0.34396,24.949504 0.017,27.35887 -0.65389,4.818706 -4.0977,-20.577447 -30.61108,-12.598067 -26.51338,7.979378 4.69025,-17.87967 4.69025,-17.87967 z"
         id="path3390"
         inkscape:connector-curvature="0"
         sodipodi:nodetypes="cscssc" />
      <g
         transform="matrix(1.257662,0,0,1.257662,-48.512291,-49.043654)"
         id="g3403">
        <path
           inkscape:transform-center-y="-1.1072003"
           d="m 179.8637,80.844443 -7.67079,0 3.8354,-6.643108 z"
           inkscape:randomized="0"
           inkscape:rounded="0"
           inkscape:flatsided="true"
           sodipodi:arg2="1.5707963"
           sodipodi:arg1="0.52359878"
           sodipodi:r2="2.2143688"
           sodipodi:r1="4.4287381"
           sodipodi:cy="78.630074"
           sodipodi:cx="176.02831"
           sodipodi:sides="3"
           id="path3405"
           style="fill:#b3b3b3;fill-opacity:1;stroke:none;stroke-width:0;stroke-linecap:round;stroke-miterlimit:4;stroke-dasharray:none;stroke-dashoffset:0;stroke-opacity:1"
           sodipodi:type="star"
           inkscape:transform-center-x="-6.3301378e-005"
           transform="matrix(1.9967576,0,0,1,-171.63459,0)" />
        <path
           style="fill:#999999;fill-rule:evenodd;stroke:none;stroke-width:0.0955741px;stroke-linecap:butt;stroke-linejoin:miter;stroke-opacity:1"
           d="m 174.45299,100.47935 -2.59416,-19.934033 15.56493,0 -3.9595,20.070563 z"
           id="path3407"
           inkscape:connector-curvature="0" />
        <g
           transform="translate(-17.749475,27.989557)"
           id="g3409">
          <ellipse
             style="opacity:1;fill:#000000;fill-opacity:1;stroke:none;stroke-width:0;stroke-linecap:round;stroke-miterlimit:4;stroke-dasharray:none;stroke-dashoffset:0;stroke-opacity:1"
             id="ellipse3411"
             cx="197.22679"
             cy="60.954681"
             rx="6.3719316"
             ry="7.1853695" />
          <ellipse
             ry="6.2548456"
             rx="5.5467496"
             cy="60.796509"
             cx="197.36707"
             id="ellipse3413"
             style="opacity:1;fill:#808080;fill-opacity:1;stroke:none;stroke-width:0;stroke-linecap:round;stroke-miterlimit:4;stroke-dasharray:none;stroke-dashoffset:0;stroke-opacity:1" />
          <ellipse
             style="opacity:1;fill:#000000;fill-opacity:1;stroke:none;stroke-width:0;stroke-linecap:round;stroke-miterlimit:4;stroke-dasharray:none;stroke-dashoffset:0;stroke-opacity:1"
             id="ellipse3415"
             cx="204.7863"
             cy="8.7748871"
             rx="1.4964385"
             ry="0.57926655"
             transform="matrix(0.96592583,0.25881905,-0.25881905,0.96592583,0,0)" />
          <ellipse
             transform="matrix(-0.96592583,0.25881905,0.25881905,0.96592583,0,0)"
             ry="0.57926655"
             rx="1.4964385"
             cy="110.94195"
             cx="-176.50636"
             id="ellipse3417"
             style="opacity:1;fill:#000000;fill-opacity:1;stroke:none;stroke-width:0;stroke-linecap:round;stroke-miterlimit:4;stroke-dasharray:none;stroke-dashoffset:0;stroke-opacity:1" />
          <ellipse
             style="opacity:1;fill:#000000;fill-opacity:1;stroke:none;stroke-width:0;stroke-linecap:round;stroke-miterlimit:4;stroke-dasharray:none;stroke-dashoffset:0;stroke-opacity:1"
             id="ellipse3419"
             cx="-197.29942"
             cy="63.210945"
             rx="0.32126734"
             ry="0.47929442"
             transform="scale(-1,1)" />
          <ellipse
             transform="scale(-1,1)"
             ry="0.39481807"
             rx="2.3124959"
             cy="64.719452"
             cx="-197.43217"
             id="ellipse3421"
             style="opacity:1;fill:#000000;fill-opacity:1;stroke:none;stroke-width:0;stroke-linecap:round;stroke-miterlimit:4;stroke-dasharray:none;stroke-dashoffset:0;stroke-opacity:1" />
        </g>
      </g>
    </g>
  </g>
</svg>
