<?xml version="1.0" encoding="UTF-8" standalone="no"?>
<!-- Created with Inkscape (http://www.inkscape.org/) -->

<svg
   xmlns:dc="http://purl.org/dc/elements/1.1/"
   xmlns:cc="http://creativecommons.org/ns#"
   xmlns:rdf="http://www.w3.org/1999/02/22-rdf-syntax-ns#"
   xmlns:svg="http://www.w3.org/2000/svg"
   xmlns="http://www.w3.org/2000/svg"
   xmlns:sodipodi="http://sodipodi.sourceforge.net/DTD/sodipodi-0.dtd"
   xmlns:inkscape="http://www.inkscape.org/namespaces/inkscape"
   width="210mm"
   height="297mm"
   viewBox="0 0 744.09448819 1052.3622047"
   id="svg2"
   version="1.1"
   inkscape:version="0.91 r13725"
   sodipodi:docname="demonpike.svg">
  <defs
     id="defs4" />
  <sodipodi:namedview
     id="base"
     pagecolor="#ffffff"
     bordercolor="#666666"
     borderopacity="1.0"
     inkscape:pageopacity="0.0"
     inkscape:pageshadow="2"
     inkscape:zoom="0.49497474"
     inkscape:cx="-518.54674"
     inkscape:cy="1088.4477"
     inkscape:document-units="px"
     inkscape:current-layer="g4244"
     showgrid="false"
     inkscape:window-width="1920"
     inkscape:window-height="1017"
     inkscape:window-x="-8"
     inkscape:window-y="-8"
     inkscape:window-maximized="1"
     showguides="false"
     inkscape:snap-global="false" />
  <metadata
     id="metadata7">
    <rdf:RDF>
      <cc:Work
         rdf:about="">
        <dc:format>image/svg+xml</dc:format>
        <dc:type
           rdf:resource="http://purl.org/dc/dcmitype/StillImage" />
        <dc:title />
      </cc:Work>
    </rdf:RDF>
  </metadata>
  <g
     inkscape:label="Layer 1"
     inkscape:groupmode="layer"
     id="layer1">
    <g
       id="g4244"
       transform="matrix(10.463086,0,0,10.463086,-1852.4595,-1923.2476)">
      <g
         id="g4084"
         transform="translate(57.008236,32.062038)">
        <g
           transform="translate(0.25600205,-0.89600718)"
           id="g3969">
          <path
             sodipodi:nodetypes="cscc"
             inkscape:connector-curvature="0"
             id="path3964"
             d="m 119.01858,179.46541 c 0,0 -1.13221,-4.6578 -5.35224,-0.90884 -1.6354,1.45284 3.49954,-6.81632 4.94053,-6.13469 1.44098,0.68164 0.41171,7.04353 0.41171,7.04353 z"
             style="fill:#ff0000;stroke:none;stroke-width:0.10704784px;stroke-linecap:butt;stroke-linejoin:miter;stroke-opacity:1" />
          <path
             style="fill:#ff6600;stroke:none;stroke-width:0.08960072px;stroke-linecap:butt;stroke-linejoin:miter;stroke-opacity:1"
             d="m 119.06154,178.6142 c 0,0 -0.99561,-3.71092 -4.70654,-0.72408 -1.4381,1.1575 3.07736,-5.43063 4.3445,-4.88757 1.26715,0.54307 0.36204,5.61165 0.36204,5.61165 z"
             id="path3795"
             inkscape:connector-curvature="0"
             sodipodi:nodetypes="cscc" />
          <path
             sodipodi:nodetypes="cscc"
             inkscape:connector-curvature="0"
             id="path3962"
             d="m 118.99217,177.23819 c 0,0 -0.80923,-2.28008 -3.8255,-0.4449 -1.16889,0.7112 2.50129,-3.3367 3.53123,-3.00303 1.02994,0.33367 0.29427,3.44793 0.29427,3.44793 z"
             style="fill:#ffff00;stroke:none;stroke-width:0.06331959px;stroke-linecap:butt;stroke-linejoin:miter;stroke-opacity:1" />
        </g>
        <g
           id="g3977"
           transform="translate(0.25600205,-11.072089)">
          <path
             style="fill:#ff0000;stroke:none;stroke-width:0.10704784px;stroke-linecap:butt;stroke-linejoin:miter;stroke-opacity:1"
             d="m 119.01858,179.46541 c 0,0 -1.13221,-4.6578 -5.35224,-0.90884 -1.6354,1.45284 3.49954,-6.81632 4.94053,-6.13469 1.44098,0.68164 0.41171,7.04353 0.41171,7.04353 z"
             id="path3971"
             inkscape:connector-curvature="0"
             sodipodi:nodetypes="cscc" />
          <path
             sodipodi:nodetypes="cscc"
             inkscape:connector-curvature="0"
             id="path3973"
             d="m 119.06154,178.6142 c 0,0 -0.99561,-3.71092 -4.70654,-0.72408 -1.4381,1.1575 3.07736,-5.43063 4.3445,-4.88757 1.26715,0.54307 0.36204,5.61165 0.36204,5.61165 z"
             style="fill:#ff6600;stroke:none;stroke-width:0.08960072px;stroke-linecap:butt;stroke-linejoin:miter;stroke-opacity:1" />
          <path
             style="fill:#ffff00;stroke:none;stroke-width:0.06331959px;stroke-linecap:butt;stroke-linejoin:miter;stroke-opacity:1"
             d="m 118.99217,177.23819 c 0,0 -0.80923,-2.28008 -3.8255,-0.4449 -1.16889,0.7112 2.50129,-3.3367 3.53123,-3.00303 1.02994,0.33367 0.29427,3.44793 0.29427,3.44793 z"
             id="path3975"
             inkscape:connector-curvature="0"
             sodipodi:nodetypes="cscc" />
        </g>
        <g
           transform="translate(0.25600205,-20.672166)"
           id="g3985">
          <path
             sodipodi:nodetypes="cscc"
             inkscape:connector-curvature="0"
             id="path3979"
             d="m 119.01858,179.46541 c 0,0 -1.13221,-4.6578 -5.35224,-0.90884 -1.6354,1.45284 3.49954,-6.81632 4.94053,-6.13469 1.44098,0.68164 0.41171,7.04353 0.41171,7.04353 z"
             style="fill:#ff0000;stroke:none;stroke-width:0.10704784px;stroke-linecap:butt;stroke-linejoin:miter;stroke-opacity:1" />
          <path
             style="fill:#ff6600;stroke:none;stroke-width:0.08960072px;stroke-linecap:butt;stroke-linejoin:miter;stroke-opacity:1"
             d="m 119.06154,178.6142 c 0,0 -0.99561,-3.71092 -4.70654,-0.72408 -1.4381,1.1575 3.07736,-5.43063 4.3445,-4.88757 1.26715,0.54307 0.36204,5.61165 0.36204,5.61165 z"
             id="path3981"
             inkscape:connector-curvature="0"
             sodipodi:nodetypes="cscc" />
          <path
             sodipodi:nodetypes="cscc"
             inkscape:connector-curvature="0"
             id="path3983"
             d="m 118.99217,177.23819 c 0,0 -0.80923,-2.28008 -3.8255,-0.4449 -1.16889,0.7112 2.50129,-3.3367 3.53123,-3.00303 1.02994,0.33367 0.29427,3.44793 0.29427,3.44793 z"
             style="fill:#ffff00;stroke:none;stroke-width:0.06331959px;stroke-linecap:butt;stroke-linejoin:miter;stroke-opacity:1" />
        </g>
        <g
           id="g3993"
           transform="translate(0.25600205,-30.272243)">
          <path
             style="fill:#ff0000;stroke:none;stroke-width:0.10704784px;stroke-linecap:butt;stroke-linejoin:miter;stroke-opacity:1"
             d="m 119.01858,179.46541 c 0,0 -1.13221,-4.6578 -5.35224,-0.90884 -1.6354,1.45284 3.49954,-6.81632 4.94053,-6.13469 1.44098,0.68164 0.41171,7.04353 0.41171,7.04353 z"
             id="path3987"
             inkscape:connector-curvature="0"
             sodipodi:nodetypes="cscc" />
          <path
             sodipodi:nodetypes="cscc"
             inkscape:connector-curvature="0"
             id="path3989"
             d="m 119.06154,178.6142 c 0,0 -0.99561,-3.71092 -4.70654,-0.72408 -1.4381,1.1575 3.07736,-5.43063 4.3445,-4.88757 1.26715,0.54307 0.36204,5.61165 0.36204,5.61165 z"
             style="fill:#ff6600;stroke:none;stroke-width:0.08960072px;stroke-linecap:butt;stroke-linejoin:miter;stroke-opacity:1" />
          <path
             style="fill:#ffff00;stroke:none;stroke-width:0.06331959px;stroke-linecap:butt;stroke-linejoin:miter;stroke-opacity:1"
             d="m 118.99217,177.23819 c 0,0 -0.80923,-2.28008 -3.8255,-0.4449 -1.16889,0.7112 2.50129,-3.3367 3.53123,-3.00303 1.02994,0.33367 0.29427,3.44793 0.29427,3.44793 z"
             id="path3991"
             inkscape:connector-curvature="0"
             sodipodi:nodetypes="cscc" />
        </g>
        <g
           id="g4001"
           transform="matrix(-1,0,0,1,239.94846,-0.89600718)">
          <path
             style="fill:#ff0000;stroke:none;stroke-width:0.10704784px;stroke-linecap:butt;stroke-linejoin:miter;stroke-opacity:1"
             d="m 119.01858,179.46541 c 0,0 -1.13221,-4.6578 -5.35224,-0.90884 -1.6354,1.45284 3.49954,-6.81632 4.94053,-6.13469 1.44098,0.68164 0.41171,7.04353 0.41171,7.04353 z"
             id="path3995"
             inkscape:connector-curvature="0"
             sodipodi:nodetypes="cscc" />
          <path
             sodipodi:nodetypes="cscc"
             inkscape:connector-curvature="0"
             id="path3997"
             d="m 119.06154,178.6142 c 0,0 -0.99561,-3.71092 -4.70654,-0.72408 -1.4381,1.1575 3.07736,-5.43063 4.3445,-4.88757 1.26715,0.54307 0.36204,5.61165 0.36204,5.61165 z"
             style="fill:#ff6600;stroke:none;stroke-width:0.08960072px;stroke-linecap:butt;stroke-linejoin:miter;stroke-opacity:1" />
          <path
             style="fill:#ffff00;stroke:none;stroke-width:0.06331959px;stroke-linecap:butt;stroke-linejoin:miter;stroke-opacity:1"
             d="m 118.99217,177.23819 c 0,0 -0.80923,-2.28008 -3.8255,-0.4449 -1.16889,0.7112 2.50129,-3.3367 3.53123,-3.00303 1.02994,0.33367 0.29427,3.44793 0.29427,3.44793 z"
             id="path3999"
             inkscape:connector-curvature="0"
             sodipodi:nodetypes="cscc" />
        </g>
        <g
           transform="matrix(-1,0,0,1,239.94846,-11.072089)"
           id="g4009">
          <path
             sodipodi:nodetypes="cscc"
             inkscape:connector-curvature="0"
             id="path4003"
             d="m 119.01858,179.46541 c 0,0 -1.13221,-4.6578 -5.35224,-0.90884 -1.6354,1.45284 3.49954,-6.81632 4.94053,-6.13469 1.44098,0.68164 0.41171,7.04353 0.41171,7.04353 z"
             style="fill:#ff0000;stroke:none;stroke-width:0.10704784px;stroke-linecap:butt;stroke-linejoin:miter;stroke-opacity:1" />
          <path
             style="fill:#ff6600;stroke:none;stroke-width:0.08960072px;stroke-linecap:butt;stroke-linejoin:miter;stroke-opacity:1"
             d="m 119.06154,178.6142 c 0,0 -0.99561,-3.71092 -4.70654,-0.72408 -1.4381,1.1575 3.07736,-5.43063 4.3445,-4.88757 1.26715,0.54307 0.36204,5.61165 0.36204,5.61165 z"
             id="path4005"
             inkscape:connector-curvature="0"
             sodipodi:nodetypes="cscc" />
          <path
             sodipodi:nodetypes="cscc"
             inkscape:connector-curvature="0"
             id="path4007"
             d="m 118.99217,177.23819 c 0,0 -0.80923,-2.28008 -3.8255,-0.4449 -1.16889,0.7112 2.50129,-3.3367 3.53123,-3.00303 1.02994,0.33367 0.29427,3.44793 0.29427,3.44793 z"
             style="fill:#ffff00;stroke:none;stroke-width:0.06331959px;stroke-linecap:butt;stroke-linejoin:miter;stroke-opacity:1" />
        </g>
        <g
           id="g4017"
           transform="matrix(-1,0,0,1,239.94846,-20.672166)">
          <path
             style="fill:#ff0000;stroke:none;stroke-width:0.10704784px;stroke-linecap:butt;stroke-linejoin:miter;stroke-opacity:1"
             d="m 119.01858,179.46541 c 0,0 -1.13221,-4.6578 -5.35224,-0.90884 -1.6354,1.45284 3.49954,-6.81632 4.94053,-6.13469 1.44098,0.68164 0.41171,7.04353 0.41171,7.04353 z"
             id="path4011"
             inkscape:connector-curvature="0"
             sodipodi:nodetypes="cscc" />
          <path
             sodipodi:nodetypes="cscc"
             inkscape:connector-curvature="0"
             id="path4013"
             d="m 119.06154,178.6142 c 0,0 -0.99561,-3.71092 -4.70654,-0.72408 -1.4381,1.1575 3.07736,-5.43063 4.3445,-4.88757 1.26715,0.54307 0.36204,5.61165 0.36204,5.61165 z"
             style="fill:#ff6600;stroke:none;stroke-width:0.08960072px;stroke-linecap:butt;stroke-linejoin:miter;stroke-opacity:1" />
          <path
             style="fill:#ffff00;stroke:none;stroke-width:0.06331959px;stroke-linecap:butt;stroke-linejoin:miter;stroke-opacity:1"
             d="m 118.99217,177.23819 c 0,0 -0.80923,-2.28008 -3.8255,-0.4449 -1.16889,0.7112 2.50129,-3.3367 3.53123,-3.00303 1.02994,0.33367 0.29427,3.44793 0.29427,3.44793 z"
             id="path4015"
             inkscape:connector-curvature="0"
             sodipodi:nodetypes="cscc" />
        </g>
        <g
           transform="matrix(-1,0,0,1,239.94846,-30.272243)"
           id="g4025">
          <path
             sodipodi:nodetypes="cscc"
             inkscape:connector-curvature="0"
             id="path4019"
             d="m 119.01858,179.46541 c 0,0 -1.13221,-4.6578 -5.35224,-0.90884 -1.6354,1.45284 3.49954,-6.81632 4.94053,-6.13469 1.44098,0.68164 0.41171,7.04353 0.41171,7.04353 z"
             style="fill:#ff0000;stroke:none;stroke-width:0.10704784px;stroke-linecap:butt;stroke-linejoin:miter;stroke-opacity:1" />
          <path
             style="fill:#ff6600;stroke:none;stroke-width:0.08960072px;stroke-linecap:butt;stroke-linejoin:miter;stroke-opacity:1"
             d="m 119.06154,178.6142 c 0,0 -0.99561,-3.71092 -4.70654,-0.72408 -1.4381,1.1575 3.07736,-5.43063 4.3445,-4.88757 1.26715,0.54307 0.36204,5.61165 0.36204,5.61165 z"
             id="path4021"
             inkscape:connector-curvature="0"
             sodipodi:nodetypes="cscc" />
          <path
             sodipodi:nodetypes="cscc"
             inkscape:connector-curvature="0"
             id="path4023"
             d="m 118.99217,177.23819 c 0,0 -0.80923,-2.28008 -3.8255,-0.4449 -1.16889,0.7112 2.50129,-3.3367 3.53123,-3.00303 1.02994,0.33367 0.29427,3.44793 0.29427,3.44793 z"
             style="fill:#ffff00;stroke:none;stroke-width:0.06331959px;stroke-linecap:butt;stroke-linejoin:miter;stroke-opacity:1" />
        </g>
        <rect
           y="134.77441"
           x="118.70037"
           height="43.807034"
           width="2.8058224"
           id="rect3797"
           style="fill:#000000;stroke:none;stroke-width:0.08960072" />
        <path
           inkscape:connector-curvature="0"
           id="path3799"
           d="m 118.70142,158.44244 0,0.88857 2.8086,-0.68824 0,-0.77124 z"
           style="fill:#ff6600;stroke:none;stroke-width:0.07005918px;stroke-linecap:butt;stroke-linejoin:miter;stroke-opacity:1" />
        <path
           style="fill:#808080;stroke:none;stroke-width:0.07005918px;stroke-linecap:butt;stroke-linejoin:miter;stroke-opacity:1"
           d="m 118.70142,160.7052 0,0.88857 2.8086,-0.68824 0,-0.77124 z"
           id="path3801"
           inkscape:connector-curvature="0" />
        <path
           inkscape:connector-curvature="0"
           id="path3803"
           d="m 118.70142,163.05847 0,0.88857 2.8086,-0.68824 0,-0.77124 z"
           style="fill:#800080;stroke:none;stroke-width:0.07005918px;stroke-linecap:butt;stroke-linejoin:miter;stroke-opacity:1" />
        <path
           style="fill:#ff6600;stroke:none;stroke-width:0.07005918px;stroke-linecap:butt;stroke-linejoin:miter;stroke-opacity:1"
           d="m 118.70142,165.41174 0,0.88857 2.8086,-0.68824 0,-0.77124 z"
           id="path3805"
           inkscape:connector-curvature="0" />
        <path
           inkscape:connector-curvature="0"
           id="path3807"
           d="m 118.70142,167.6745 0,0.88857 2.8086,-0.68824 0,-0.77124 z"
           style="fill:#808080;stroke:none;stroke-width:0.07005918px;stroke-linecap:butt;stroke-linejoin:miter;stroke-opacity:1" />
        <path
           style="fill:#800080;stroke:none;stroke-width:0.07005918px;stroke-linecap:butt;stroke-linejoin:miter;stroke-opacity:1"
           d="m 118.70142,170.02777 0,0.88857 2.8086,-0.68824 0,-0.77124 z"
           id="path3809"
           inkscape:connector-curvature="0" />
        <path
           inkscape:connector-curvature="0"
           id="path3811"
           d="m 118.70142,172.10951 0,0.88857 2.8086,-0.68824 0,-0.77124 z"
           style="fill:#ff6600;stroke:none;stroke-width:0.07005918px;stroke-linecap:butt;stroke-linejoin:miter;stroke-opacity:1" />
        <path
           style="fill:#808080;stroke:none;stroke-width:0.07005918px;stroke-linecap:butt;stroke-linejoin:miter;stroke-opacity:1"
           d="m 118.70142,174.37227 0,0.88857 2.8086,-0.68824 0,-0.77124 z"
           id="path3813"
           inkscape:connector-curvature="0" />
        <path
           inkscape:connector-curvature="0"
           id="path3815"
           d="m 118.70142,176.72554 0,0.88857 2.8086,-0.68824 0,-0.77124 z"
           style="fill:#800080;stroke:none;stroke-width:0.07005918px;stroke-linecap:butt;stroke-linejoin:miter;stroke-opacity:1" />
        <path
           style="fill:#ff6600;stroke:none;stroke-width:0.07005918px;stroke-linecap:butt;stroke-linejoin:miter;stroke-opacity:1"
           d="m 118.70142,150.74906 0,0.88857 2.8086,-0.68824 0,-0.77124 z"
           id="path3817"
           inkscape:connector-curvature="0" />
        <path
           inkscape:connector-curvature="0"
           id="path3819"
           d="m 118.70142,153.01182 0,0.88857 2.8086,-0.68824 0,-0.77124 z"
           style="fill:#808080;stroke:none;stroke-width:0.07005918px;stroke-linecap:butt;stroke-linejoin:miter;stroke-opacity:1" />
        <path
           style="fill:#800080;stroke:none;stroke-width:0.07005918px;stroke-linecap:butt;stroke-linejoin:miter;stroke-opacity:1"
           d="m 118.70142,155.36509 0,0.88857 2.8086,-0.68824 0,-0.77124 z"
           id="path3821"
           inkscape:connector-curvature="0" />
        <path
           inkscape:connector-curvature="0"
           id="path3823"
           d="m 118.70142,143.2367 0,0.88857 2.8086,-0.68824 0,-0.77124 z"
           style="fill:#ff6600;stroke:none;stroke-width:0.07005918px;stroke-linecap:butt;stroke-linejoin:miter;stroke-opacity:1" />
        <path
           style="fill:#808080;stroke:none;stroke-width:0.07005918px;stroke-linecap:butt;stroke-linejoin:miter;stroke-opacity:1"
           d="m 118.70142,145.49946 0,0.88857 2.8086,-0.68824 0,-0.77124 z"
           id="path3825"
           inkscape:connector-curvature="0" />
        <path
           inkscape:connector-curvature="0"
           id="path3827"
           d="m 118.70142,147.85273 0,0.88857 2.8086,-0.68824 0,-0.77124 z"
           style="fill:#800080;stroke:none;stroke-width:0.07005918px;stroke-linecap:butt;stroke-linejoin:miter;stroke-opacity:1" />
        <path
           style="fill:#ff6600;stroke:none;stroke-width:0.07005918px;stroke-linecap:butt;stroke-linejoin:miter;stroke-opacity:1"
           d="m 118.70142,135.81485 0,0.88857 2.8086,-0.68824 0,-0.77124 z"
           id="path3829"
           inkscape:connector-curvature="0" />
        <path
           inkscape:connector-curvature="0"
           id="path3831"
           d="m 118.70142,138.07761 0,0.88857 2.8086,-0.68824 0,-0.77124 z"
           style="fill:#808080;stroke:none;stroke-width:0.07005918px;stroke-linecap:butt;stroke-linejoin:miter;stroke-opacity:1" />
        <path
           style="fill:#800080;stroke:none;stroke-width:0.07005918px;stroke-linecap:butt;stroke-linejoin:miter;stroke-opacity:1"
           d="m 118.70142,140.43088 0,0.88857 2.8086,-0.68824 0,-0.77124 z"
           id="path3833"
           inkscape:connector-curvature="0" />
        <g
           transform="matrix(1.3399516,0,0,1.306384,-77.382476,-28.066665)"
           id="g3868">
          <path
             style="fill:#cccccc;stroke:none;stroke-width:0.08960072px;stroke-linecap:butt;stroke-linejoin:miter;stroke-opacity:1"
             d="m 147.1787,117.4448 c 0,0 -1.98231,4.60399 -1.99123,5.70216 -0.009,1.12236 0.87029,2.65818 1.99123,2.71531 1.25867,0.0641 2.5663,-1.54592 2.53429,-2.80582 -0.0303,-1.19429 -2.53429,-5.61165 -2.53429,-5.61165 z"
             id="path3853"
             inkscape:connector-curvature="0"
             sodipodi:nodetypes="csssc" />
          <path
             sodipodi:nodetypes="csssc"
             inkscape:connector-curvature="0"
             id="path3855"
             d="m 147.19623,117.98786 c 0,0 -1.85445,4.30703 -1.86279,5.33436 -0.009,1.04996 0.81415,2.48672 1.86279,2.54017 1.17749,0.0599 2.40077,-1.4462 2.37083,-2.62484 -0.0283,-1.11725 -2.37083,-5.24969 -2.37083,-5.24969 z"
             style="fill:#808080;stroke:none;stroke-width:0.0838213px;stroke-linecap:butt;stroke-linejoin:miter;stroke-opacity:1" />
          <path
             style="fill:#4d4d4d;stroke:none;stroke-width:0.07638437px;stroke-linecap:butt;stroke-linejoin:miter;stroke-opacity:1"
             d="m 147.17271,118.71194 c 0,0 -1.69588,3.91108 -1.70351,4.84396 -0.009,0.95343 0.74454,2.25811 1.70351,2.30665 1.07681,0.0544 2.1955,-1.31325 2.16812,-2.38353 -0.0259,-1.01454 -2.16812,-4.76708 -2.16812,-4.76708 z"
             id="path3857"
             inkscape:connector-curvature="0"
             sodipodi:nodetypes="csssc" />
          <path
             sodipodi:nodetypes="csssc"
             inkscape:connector-curvature="0"
             id="path3859"
             d="m 147.19445,119.61704 c 0,0 -1.53732,3.41614 -1.54423,4.23096 -0.009,0.83278 0.67492,1.97236 1.54423,2.01475 0.97613,0.0475 1.99022,-1.14706 1.9654,-2.0819 -0.0235,-0.88615 -1.9654,-4.16381 -1.9654,-4.16381 z"
             style="fill:#000000;stroke:none;stroke-width:0.06796858px;stroke-linecap:butt;stroke-linejoin:miter;stroke-opacity:1" />
          <path
             style="fill:#5a2ca0;stroke:none;stroke-width:0.06188764px;stroke-linecap:butt;stroke-linejoin:miter;stroke-opacity:1"
             d="m 147.1655,121.92506 c 0,0 -1.4184,1.39523 -1.42477,2.12742 -0.009,0.74831 0.62271,1.77232 1.42477,1.81041 0.90062,0.0427 1.83626,-1.03072 1.81336,-1.87075 -0.0217,-0.79628 -1.81336,-2.06708 -1.81336,-2.06708 z"
             id="path3861"
             inkscape:connector-curvature="0"
             sodipodi:nodetypes="csssc" />
        </g>
      </g>
    </g>
  </g>
</svg>
