<?xml version="1.0" encoding="UTF-8" standalone="no"?>
<!-- Created with Inkscape (http://www.inkscape.org/) -->

<svg
   xmlns:dc="http://purl.org/dc/elements/1.1/"
   xmlns:cc="http://creativecommons.org/ns#"
   xmlns:rdf="http://www.w3.org/1999/02/22-rdf-syntax-ns#"
   xmlns:svg="http://www.w3.org/2000/svg"
   xmlns="http://www.w3.org/2000/svg"
   xmlns:sodipodi="http://sodipodi.sourceforge.net/DTD/sodipodi-0.dtd"
   xmlns:inkscape="http://www.inkscape.org/namespaces/inkscape"
   width="210mm"
   height="297mm"
   viewBox="0 0 744.09448819 1052.3622047"
   id="svg2"
   version="1.1"
   inkscape:version="0.91 r13725"
   sodipodi:docname="garen sword.svg">
  <defs
     id="defs4" />
  <sodipodi:namedview
     id="base"
     pagecolor="#ffffff"
     bordercolor="#666666"
     borderopacity="1.0"
     inkscape:pageopacity="0.0"
     inkscape:pageshadow="2"
     inkscape:zoom="0.24748737"
     inkscape:cx="-172.89874"
     inkscape:cy="1401.8067"
     inkscape:document-units="px"
     inkscape:current-layer="g4244"
     showgrid="false"
     inkscape:window-width="1022"
     inkscape:window-height="1001"
     inkscape:window-x="882"
     inkscape:window-y="0"
     inkscape:window-maximized="0"
     showguides="false" />
  <metadata
     id="metadata7">
    <rdf:RDF>
      <cc:Work
         rdf:about="">
        <dc:format>image/svg+xml</dc:format>
        <dc:type
           rdf:resource="http://purl.org/dc/dcmitype/StillImage" />
        <dc:title />
      </cc:Work>
    </rdf:RDF>
  </metadata>
  <g
     inkscape:label="Layer 1"
     inkscape:groupmode="layer"
     id="layer1">
    <g
       id="g4244"
       transform="matrix(10.463086,0,0,10.463086,-1852.4595,-1923.2476)">
      <g
         id="g3391"
         transform="matrix(1,0,0,-1,1.7377995,274.28489)">
        <g
           transform="translate(-0.13653443,0)"
           id="g3375">
          <path
             sodipodi:nodetypes="sccccscsscss"
             inkscape:connector-curvature="0"
             id="path3373"
             d="m 175.07258,101.43509 c -9.52613,0.59653 -15.22151,-6.758458 -15.22151,-6.758458 l -2.24015,7.577658 3.0443,-2.389352 1.436,3.072022 c 0,0 -3.61079,-0.57577 -4.4803,1.29707 -1.23828,2.66716 -3.15918,13.58519 -3.15918,13.58519 0,0 7.62128,-11.42164 12.34953,-11.60543 0.61385,-0.0239 1.25255,5.84623 1.37707,8.26128 0.32701,6.34251 4.82641,9.23913 4.82641,9.23913 0,0 4.35958,0.78995 5.29057,-1.28533 2.62691,-5.85571 1.2857,-21.27611 -3.22274,-20.99378 z"
             style="fill:#ffe680;fill-rule:evenodd;stroke:none;stroke-width:0.0955741px;stroke-linecap:butt;stroke-linejoin:miter;stroke-opacity:1" />
        </g>
        <g
           id="g3387"
           transform="matrix(-1,0,0,1,351.3234,0)">
          <path
             style="fill:#ffe680;fill-rule:evenodd;stroke:none;stroke-width:0.0955741px;stroke-linecap:butt;stroke-linejoin:miter;stroke-opacity:1"
             d="m 175.07258,101.43509 c -9.52613,0.59653 -15.22151,-6.758458 -15.22151,-6.758458 l -2.24015,7.577658 3.0443,-2.389352 1.436,3.072022 c 0,0 -3.61079,-0.57577 -4.4803,1.29707 -1.23828,2.66716 -3.15918,13.58519 -3.15918,13.58519 0,0 7.62128,-11.42164 12.34953,-11.60543 0.61385,-0.0239 1.25255,5.84623 1.37707,8.26128 0.32701,6.34251 4.82641,9.23913 4.82641,9.23913 0,0 4.35958,0.78995 5.29057,-1.28533 2.62691,-5.85571 1.2857,-21.27611 -3.22274,-20.99378 z"
             id="path3389"
             inkscape:connector-curvature="0"
             sodipodi:nodetypes="sccccscsscss" />
        </g>
      </g>
      <ellipse
         style="opacity:1;fill:#550000;fill-opacity:1;stroke:none;stroke-width:0;stroke-linecap:round;stroke-miterlimit:4;stroke-dasharray:none;stroke-dashoffset:0;stroke-opacity:1"
         id="ellipse3379"
         cx="177.47647"
         cy="-161.53979"
         rx="6.9759364"
         ry="9.6525536"
         transform="scale(1,-1)" />
      <ellipse
         ry="6.1598015"
         rx="4.7797933"
         cy="-161.6322"
         cx="177.57726"
         id="ellipse3413"
         style="opacity:1;fill:#0000ff;fill-opacity:1;stroke:none;stroke-width:0;stroke-linecap:round;stroke-miterlimit:4;stroke-dasharray:none;stroke-dashoffset:0;stroke-opacity:1"
         transform="scale(1,-1)" />
      <rect
         style="fill:#550000;stroke:none"
         id="rect3381"
         width="2.7997882"
         height="5.3099432"
         x="175.8886"
         y="-152.66757"
         rx="0.36391178"
         ry="0.15259838"
         transform="scale(1,-1)" />
      <path
         style="fill:#cccccc;fill-rule:evenodd;stroke:none;stroke-width:0.08806175px;stroke-linecap:butt;stroke-linejoin:miter;stroke-opacity:1"
         d="m 181.02891,150.85832 5.41908,3.48923 3.22046,-4.81232 c 0,0 -4.76931,-19.41303 -4.8641,-29.35861 -0.10337,-10.84229 4.8641,-32.088984 4.8641,-32.088984 l -12.38812,-16.11186 -11.96067,15.54164 c 0,0 4.95824,21.938364 4.81464,33.068804 -0.12547,9.72751 -4.81464,28.81246 -4.81464,28.81246 l 4.12041,4.85472 3.96399,-3.38681 z"
         id="path3383"
         inkscape:connector-curvature="0"
         sodipodi:nodetypes="cccscccscccc" />
      <path
         sodipodi:nodetypes="cccscccscccc"
         inkscape:connector-curvature="0"
         id="path3385"
         d="m 179.67814,150.87965 3.21511,1.38939 1.91068,-2.71248 c 0,0 -4.7829,-19.41303 -4.83913,-29.35861 -0.0614,-10.84229 4.83913,-32.088984 4.83913,-32.088984 l -7.34982,-8.739 -7.09619,8.16878 c 0,0 4.81854,21.938364 4.73334,33.068804 -0.0745,9.72751 -4.73334,28.81246 -4.73334,28.81246 l 1.76896,2.70661 3.02747,-1.2387 z"
         style="fill:#550000;fill-rule:evenodd;stroke:none;stroke-width:0.08806175px;stroke-linecap:butt;stroke-linejoin:miter;stroke-opacity:1" />
      <ellipse
         style="opacity:1;fill:#0000ff;fill-opacity:1;stroke:none;stroke-width:0;stroke-linecap:round;stroke-miterlimit:4;stroke-dasharray:none;stroke-dashoffset:0;stroke-opacity:1"
         id="ellipse3397"
         cx="177.3947"
         cy="-143.28877"
         rx="2.5697968"
         ry="3.3117411"
         transform="scale(1,-1)" />
    </g>
  </g>
</svg>
