<?xml version="1.0" encoding="UTF-8" standalone="no"?>
<!-- Created with Inkscape (http://www.inkscape.org/) -->

<svg
   xmlns:dc="http://purl.org/dc/elements/1.1/"
   xmlns:cc="http://creativecommons.org/ns#"
   xmlns:rdf="http://www.w3.org/1999/02/22-rdf-syntax-ns#"
   xmlns:svg="http://www.w3.org/2000/svg"
   xmlns="http://www.w3.org/2000/svg"
   xmlns:sodipodi="http://sodipodi.sourceforge.net/DTD/sodipodi-0.dtd"
   xmlns:inkscape="http://www.inkscape.org/namespaces/inkscape"
   width="210mm"
   height="297mm"
   viewBox="0 0 744.09448819 1052.3622047"
   id="svg2"
   version="1.1"
   inkscape:version="0.91 r13725"
   sodipodi:docname="nightfall.svg">
  <defs
     id="defs4" />
  <sodipodi:namedview
     id="base"
     pagecolor="#ffffff"
     bordercolor="#666666"
     borderopacity="1.0"
     inkscape:pageopacity="0.0"
     inkscape:pageshadow="2"
     inkscape:zoom="0.35"
     inkscape:cx="415.72268"
     inkscape:cy="1335.3916"
     inkscape:document-units="px"
     inkscape:current-layer="layer1"
     showgrid="false"
     inkscape:window-width="944"
     inkscape:window-height="1001"
     inkscape:window-x="960"
     inkscape:window-y="0"
     inkscape:window-maximized="0"
     showguides="false" />
  <metadata
     id="metadata7">
    <rdf:RDF>
      <cc:Work
         rdf:about="">
        <dc:format>image/svg+xml</dc:format>
        <dc:type
           rdf:resource="http://purl.org/dc/dcmitype/StillImage" />
        <dc:title />
      </cc:Work>
    </rdf:RDF>
  </metadata>
  <g
     inkscape:label="Layer 1"
     inkscape:groupmode="layer"
     id="layer1">
    <g
       id="g3368"
       transform="matrix(-1.584935,2.39947,-2.39947,-1.584935,-1422.36,-211.76996)">
      <path
         sodipodi:nodetypes="ccccccsccccscscccscscccsccccccscccscccsccscccccsccccsc"
         inkscape:connector-curvature="0"
         id="path3352-8"
         d="m -201.44748,-470.80947 -155.16809,101.85657 -11.35935,2.57767 -5.15957,8.89482 -19.88198,-0.34146 -4.47251,10.39223 c 0,0 -13.34944,-1.89376 -22.26909,-3.56072 -6.68273,-1.24891 -26.19775,-8.53333 -26.19775,-8.53333 0,0 5.80065,12.25108 0.98825,13.56572 -10.82747,1.65912 -16.17563,-10.97113 -25.25099,-21.02928 l -15.27844,-3.853 c 0,0 10.50271,45.27098 -5.53062,52.61147 -14.07362,6.44329 -38.13046,-26.5012 -38.13046,-26.5012 0,0 4.51383,39.72506 -10.00783,53.36308 -18.08026,16.98008 -65.38203,3.03865 -65.38203,3.03865 l -22.3114,-36.94581 -8.05921,68.35569 c 0,0 21.97295,-7.76742 32.19732,7.65492 13.63603,20.56844 -3.46985,27.79744 -3.46985,27.79744 0,0 18.4188,1.88957 20.64088,9.0686 1.93894,6.26424 -10.20828,17.38645 -10.20828,17.38645 l 12.97691,1.03461 -6.50459,6.89946 c 0,0 17.90492,-0.86957 19.91745,5.36388 2.00417,6.2076 -12.98415,16.68814 -12.98415,16.68814 l 40.04845,15.47457 11.70306,-4.82526 4.99551,12.40887 43.62986,23.50427 -5.70051,-57.94573 c 0,0 -0.2662,-16.55424 4.30799,-22.78507 4.84328,-6.5974 8.68548,-8.1059 8.68548,-8.1059 l 48.06471,19.18491 -14.84055,-39.94518 c 0,0 4.3578,-12.80262 8.51574,-15.99317 6.15333,-4.72167 21.4201,-3.86 21.4201,-3.86 l 36.16203,31.0664 9.93976,-28.62336 c 0,0 -18.6676,-24.15883 -16.35174,-35.83772 1.48596,-7.49372 17.6083,2.72553 17.6083,2.72553 l 16.09918,-30.11653 c 0,0 -14.96167,-27.84018 -12.40875,-35.48813 1.92978,-5.78115 6.27289,-8.68443 6.27289,-8.68443 l 4.8407,0.2078 -0.0706,-4.99529 158.93323,-102.2426 8.51634,0.9418 c 0,0 4.99148,-5.89394 8.13347,-6.31662 4.70396,-0.63281 13.57971,0.4986 13.57971,0.4986 l -0.32107,-26.28904 -10.98237,-3.46561 -12.92533,-9.52177 c 0,0 0.1969,9.2607 -1.76322,14.20041 -2.99467,7.54683 -15.18697,19.04365 -15.18697,19.04365 z"
         style="fill:#000000;fill-rule:evenodd;stroke:none;stroke-width:1px;stroke-linecap:butt;stroke-linejoin:miter;stroke-opacity:1" />
      <path
         sodipodi:nodetypes="scsccscs"
         inkscape:connector-curvature="0"
         id="path3354-1"
         d="m -504.68283,-287.45308 c -3.34847,-2.16304 -10.08844,1.99907 -10.08844,1.99907 0,0 -11.11818,13.68201 -14.91285,19.65333 -6.40551,10.07979 -46.56621,22.02195 -46.56621,22.02195 l 9.19603,11.68066 c 0,0 42.95803,-12.10013 50.91356,-22.9959 3.37988,-4.62903 12.57978,-17.10065 12.57978,-17.10065 0,0 3.90919,-12.0085 -1.12187,-15.25846 z"
         style="fill:#00d4aa;fill-rule:evenodd;stroke:none;stroke-width:1.12793016px;stroke-linecap:butt;stroke-linejoin:miter;stroke-opacity:1" />
      <path
         style="fill:#00d4aa;fill-rule:evenodd;stroke:none;stroke-width:1.12793016px;stroke-linecap:butt;stroke-linejoin:miter;stroke-opacity:1"
         d="m -475.75707,-219.10161 c 0,0 -13.03923,-7.20904 -18.92075,-10.58764 -9.92818,-5.70319 -49.6919,16.56933 -49.6919,16.56933 l -1.54723,-1.47967 c 0,0 44.53184,-24.32455 54.75151,-24.88116 5.29596,-0.28844 17.9329,3.43952 17.9329,3.43952 l 6.77672,9.63343 z"
         id="path3356-1"
         inkscape:connector-curvature="0"
         sodipodi:nodetypes="csccsccc" />
      <path
         sodipodi:nodetypes="ccccccc"
         inkscape:connector-curvature="0"
         id="path3358"
         d="m -400.64853,-266.51013 -47.98769,15.21375 -6.24327,11.53751 -1.6321,-0.5227 5.96524,-12.12298 49.68701,-16.53581 z"
         style="fill:#00d4aa;fill-rule:evenodd;stroke:none;stroke-width:1.12793016px;stroke-linecap:butt;stroke-linejoin:miter;stroke-opacity:1" />
      <path
         sodipodi:nodetypes="cccscc"
         inkscape:connector-curvature="0"
         id="path3360"
         d="m -505.25111,-290.70527 23.9209,6.02374 34.97586,-34.60409 c 0,0 -12.00201,-1.39692 -16.60622,2.08565 -4.45155,3.36713 -21.21393,27.04553 -21.21393,27.04553 z"
         style="fill:#00d4aa;fill-rule:evenodd;stroke:none;stroke-width:1px;stroke-linecap:butt;stroke-linejoin:miter;stroke-opacity:1" />
      <path
         sodipodi:nodetypes="cscscscsc"
         inkscape:connector-curvature="0"
         id="path3362"
         d="m -445.58055,-319.12727 c 0,0 7.74303,-4.55278 11.23915,-7.16303 3.62693,-2.7079 10.08432,-8.78979 10.08432,-8.78979 0,0 8.69295,-0.0553 12.98924,-0.6325 8.64535,-1.16144 25.54727,-5.67077 25.54727,-5.67077 0,0 -16.85054,5.77955 -25.58339,7.34794 -3.94144,0.70786 -11.97909,0.90874 -11.97909,0.90874 0,0 -4.67826,8.73336 -8.80826,11.11635 -3.98256,2.29793 -13.48924,2.88306 -13.48924,2.88306 z"
         style="fill:#00d4aa;fill-rule:evenodd;stroke:none;stroke-width:1px;stroke-linecap:butt;stroke-linejoin:miter;stroke-opacity:1" />
      <path
         sodipodi:nodetypes="cccscscsc"
         inkscape:connector-curvature="0"
         id="path3364"
         d="m -377.97905,-298.844 0.48161,3.16212 10.6683,-2.49288 c 0,0 -0.74838,-9.25823 -0.41284,-13.87214 0.54442,-7.48588 3.91921,-22.17324 3.91921,-22.17324 0,0 -5.04922,14.28723 -6.46255,21.7015 -0.73651,3.86367 -1.02874,11.75478 -1.02874,11.75478 0,0 -2.96066,-0.42582 -4.34471,5.6e-4 -1.08674,0.33478 -2.82028,1.9193 -2.82028,1.9193 z"
         style="fill:#008066;fill-rule:evenodd;stroke:#000000;stroke-width:0.69935089px;stroke-linecap:butt;stroke-linejoin:miter;stroke-opacity:1" />
      <path
         style="fill:#008066;fill-rule:evenodd;stroke:none;stroke-width:1px;stroke-linecap:butt;stroke-linejoin:miter;stroke-opacity:1"
         d="m -424.25708,-335.08009 c 0,0 8.69295,-0.0553 12.98924,-0.6325 8.64535,-1.16144 25.54727,-5.67077 25.54727,-5.67077 0,0 -16.85054,5.77955 -25.58339,7.34794 -3.94144,0.70786 -11.97909,0.90874 -11.97909,0.90874 z"
         id="path3366"
         inkscape:connector-curvature="0"
         sodipodi:nodetypes="cscscc" />
    </g>
  </g>
</svg>
