<?xml version="1.0" encoding="UTF-8" standalone="no"?>
<!-- Created with Inkscape (http://www.inkscape.org/) -->

<svg
   xmlns:dc="http://purl.org/dc/elements/1.1/"
   xmlns:cc="http://creativecommons.org/ns#"
   xmlns:rdf="http://www.w3.org/1999/02/22-rdf-syntax-ns#"
   xmlns:svg="http://www.w3.org/2000/svg"
   xmlns="http://www.w3.org/2000/svg"
   xmlns:sodipodi="http://sodipodi.sourceforge.net/DTD/sodipodi-0.dtd"
   xmlns:inkscape="http://www.inkscape.org/namespaces/inkscape"
   width="210mm"
   height="297mm"
   viewBox="0 0 744.09448819 1052.3622047"
   id="svg2"
   version="1.1"
   inkscape:version="0.92.2 (5c3e80d, 2017-08-06)"
   sodipodi:docname="forestdragonscale.svg">
  <defs
     id="defs4" />
  <sodipodi:namedview
     id="base"
     pagecolor="#ffffff"
     bordercolor="#666666"
     borderopacity="1.0"
     inkscape:pageopacity="0.0"
     inkscape:pageshadow="2"
     inkscape:zoom="0.49497475"
     inkscape:cx="17.549391"
     inkscape:cy="1379.5691"
     inkscape:document-units="px"
     inkscape:current-layer="g4271"
     showgrid="false"
     inkscape:window-width="958"
     inkscape:window-height="1008"
     inkscape:window-x="953"
     inkscape:window-y="0"
     inkscape:window-maximized="0"
     inkscape:snap-global="false" />
  <metadata
     id="metadata7">
    <rdf:RDF>
      <cc:Work
         rdf:about="">
        <dc:format>image/svg+xml</dc:format>
        <dc:type
           rdf:resource="http://purl.org/dc/dcmitype/StillImage" />
        <dc:title />
      </cc:Work>
    </rdf:RDF>
  </metadata>
  <g
     inkscape:groupmode="layer"
     id="layer2"
     inkscape:label="Layer 0" />
  <g
     inkscape:label="Layer 1"
     inkscape:groupmode="layer"
     id="layer1">
    <g
       id="g4271"
       transform="matrix(6.3874796,0,0,6.3874796,-644.09239,-904.54652)">
      <g
         id="g4231"
         style="fill:#008000">
        <rect
           style="fill:#008000;fill-opacity:1;stroke:none;stroke-width:0;stroke-linecap:round;stroke-miterlimit:4;stroke-dasharray:none;stroke-dashoffset:0;stroke-opacity:1"
           id="rect4186-1"
           width="79.393578"
           height="32.179703"
           x="60.872231"
           y="126.42637"
           ry="0" />
        <ellipse
           ry="16.060492"
           rx="10.771198"
           cy="142.44644"
           cx="61.688095"
           id="path4284"
           style="fill:#008000;fill-opacity:1;stroke:none;stroke-width:0;stroke-linecap:round;stroke-miterlimit:4;stroke-dasharray:none;stroke-dashoffset:0;stroke-opacity:1" />
        <ellipse
           style="fill:#008000;fill-opacity:1;stroke:none;stroke-width:0;stroke-linecap:round;stroke-miterlimit:4;stroke-dasharray:none;stroke-dashoffset:0;stroke-opacity:1"
           id="ellipse4288"
           cx="141.25696"
           cy="142.44644"
           rx="10.771198"
           ry="16.060492" />
      </g>
      <path
         style="fill:#2ca02c;stroke:none;stroke-width:0.11705497px;stroke-linecap:butt;stroke-linejoin:miter;stroke-opacity:1"
         d="m 139.59272,149.68598 h 5.51829 c 0,0 0.0481,8.26083 -2.85561,8.23025 -2.88326,-0.0305 -2.66268,-8.23025 -2.66268,-8.23025 z"
         id="path3919"
         inkscape:connector-curvature="0"
         sodipodi:nodetypes="ccsc" />
      <path
         sodipodi:nodetypes="ccsc"
         inkscape:connector-curvature="0"
         id="path3956"
         d="m 133.75992,149.68598 h 5.51829 c 0,0 0.0481,8.26083 -2.85561,8.23025 -2.88326,-0.0305 -2.66268,-8.23025 -2.66268,-8.23025 z"
         style="fill:#2ca02c;stroke:none;stroke-width:0.11705497px;stroke-linecap:butt;stroke-linejoin:miter;stroke-opacity:1" />
      <path
         sodipodi:nodetypes="ccsc"
         inkscape:connector-curvature="0"
         id="path3958"
         d="m 127.88005,149.68598 h 5.51829 c 0,0 0.0481,8.26083 -2.85561,8.23025 -2.88326,-0.0305 -2.66268,-8.23025 -2.66268,-8.23025 z"
         style="fill:#2ca02c;stroke:none;stroke-width:0.11705497px;stroke-linecap:butt;stroke-linejoin:miter;stroke-opacity:1" />
      <path
         style="fill:#2ca02c;stroke:none;stroke-width:0.11705497px;stroke-linecap:butt;stroke-linejoin:miter;stroke-opacity:1"
         d="m 122.04725,149.68598 h 5.51829 c 0,0 0.0481,8.26083 -2.85561,8.23025 -2.88326,-0.0305 -2.66268,-8.23025 -2.66268,-8.23025 z"
         id="path3960"
         inkscape:connector-curvature="0"
         sodipodi:nodetypes="ccsc" />
      <path
         style="fill:#2ca02c;stroke:none;stroke-width:0.11705497px;stroke-linecap:butt;stroke-linejoin:miter;stroke-opacity:1"
         d="m 116.01912,149.68598 h 5.51829 c 0,0 0.0481,8.26083 -2.85561,8.23025 -2.88326,-0.0305 -2.66268,-8.23025 -2.66268,-8.23025 z"
         id="path3962"
         inkscape:connector-curvature="0"
         sodipodi:nodetypes="ccsc" />
      <path
         sodipodi:nodetypes="ccsc"
         inkscape:connector-curvature="0"
         id="path3964"
         d="m 110.18632,149.68598 h 5.51829 c 0,0 0.0481,8.26083 -2.85561,8.23025 -2.88326,-0.0305 -2.66268,-8.23025 -2.66268,-8.23025 z"
         style="fill:#2ca02c;stroke:none;stroke-width:0.11705497px;stroke-linecap:butt;stroke-linejoin:miter;stroke-opacity:1" />
      <path
         sodipodi:nodetypes="ccsc"
         inkscape:connector-curvature="0"
         id="path3966"
         d="m 104.1582,149.68598 h 5.51829 c 0,0 0.0481,8.26083 -2.85561,8.23025 -2.88326,-0.0305 -2.66268,-8.23025 -2.66268,-8.23025 z"
         style="fill:#2ca02c;stroke:none;stroke-width:0.11705497px;stroke-linecap:butt;stroke-linejoin:miter;stroke-opacity:1" />
      <path
         style="fill:#2ca02c;stroke:none;stroke-width:0.11705497px;stroke-linecap:butt;stroke-linejoin:miter;stroke-opacity:1"
         d="m 98.325395,149.68598 h 5.518295 c 0,0 0.0481,8.26083 -2.85561,8.23025 -2.883265,-0.0305 -2.662685,-8.23025 -2.662685,-8.23025 z"
         id="path3968"
         inkscape:connector-curvature="0"
         sodipodi:nodetypes="ccsc" />
      <path
         style="fill:#2ca02c;stroke:none;stroke-width:0.11705497px;stroke-linecap:butt;stroke-linejoin:miter;stroke-opacity:1"
         d="m 92.445525,149.68598 h 5.51829 c 0,0 0.0481,8.26083 -2.85561,8.23025 -2.88326,-0.0305 -2.66268,-8.23025 -2.66268,-8.23025 z"
         id="path3970"
         inkscape:connector-curvature="0"
         sodipodi:nodetypes="ccsc" />
      <path
         sodipodi:nodetypes="ccsc"
         inkscape:connector-curvature="0"
         id="path3972"
         d="m 86.612725,149.68598 h 5.51829 c 0,0 0.0481,8.26083 -2.85561,8.23025 -2.88326,-0.0305 -2.66268,-8.23025 -2.66268,-8.23025 z"
         style="fill:#2ca02c;stroke:none;stroke-width:0.11705497px;stroke-linecap:butt;stroke-linejoin:miter;stroke-opacity:1" />
      <path
         sodipodi:nodetypes="ccsc"
         inkscape:connector-curvature="0"
         id="path3974"
         d="m 80.584595,149.68598 h 5.51829 c 0,0 0.0481,8.26083 -2.85561,8.23025 -2.88326,-0.0305 -2.66268,-8.23025 -2.66268,-8.23025 z"
         style="fill:#2ca02c;stroke:none;stroke-width:0.11705497px;stroke-linecap:butt;stroke-linejoin:miter;stroke-opacity:1" />
      <path
         style="fill:#2ca02c;stroke:none;stroke-width:0.11705497px;stroke-linecap:butt;stroke-linejoin:miter;stroke-opacity:1"
         d="m 74.751795,149.68598 h 5.51829 c 0,0 0.0481,8.26083 -2.85561,8.23025 -2.88326,-0.0305 -2.66268,-8.23025 -2.66268,-8.23025 z"
         id="path3976"
         inkscape:connector-curvature="0"
         sodipodi:nodetypes="ccsc" />
      <path
         style="fill:#2ca02c;stroke:none;stroke-width:0.11705497px;stroke-linecap:butt;stroke-linejoin:miter;stroke-opacity:1"
         d="m 68.723675,149.68598 h 5.51829 c 0,0 0.0481,8.26083 -2.85561,8.23025 -2.88326,-0.0305 -2.66268,-8.23025 -2.66268,-8.23025 z"
         id="path3978"
         inkscape:connector-curvature="0"
         sodipodi:nodetypes="ccsc" />
      <path
         sodipodi:nodetypes="ccsc"
         inkscape:connector-curvature="0"
         id="path3980"
         d="m 62.89087,149.68598 h 5.518295 c 0,0 0.0481,8.26083 -2.85561,8.23025 -2.883265,-0.0305 -2.662685,-8.23025 -2.662685,-8.23025 z"
         style="fill:#2ca02c;stroke:none;stroke-width:0.11705497px;stroke-linecap:butt;stroke-linejoin:miter;stroke-opacity:1" />
      <path
         sodipodi:nodetypes="ccsc"
         inkscape:connector-curvature="0"
         id="path3982"
         d="m 57.011,149.68598 h 5.51829 c 0,0 0.0481,8.26083 -2.85561,8.23025 -2.88326,-0.0305 -2.66268,-8.23025 -2.66268,-8.23025 z"
         style="fill:#2ca02c;stroke:none;stroke-width:0.11705497px;stroke-linecap:butt;stroke-linejoin:miter;stroke-opacity:1" />
      <path
         sodipodi:nodetypes="ccsc"
         inkscape:connector-curvature="0"
         id="path3990"
         d="m 137.07227,141.67985 h 5.51829 c 0,0 0.0481,8.26083 -2.85561,8.23025 -2.88326,-0.0305 -2.66268,-8.23025 -2.66268,-8.23025 z"
         style="fill:#2ca02c;stroke:none;stroke-width:0.11705497px;stroke-linecap:butt;stroke-linejoin:miter;stroke-opacity:1" />
      <path
         style="fill:#2ca02c;stroke:none;stroke-width:0.11705497px;stroke-linecap:butt;stroke-linejoin:miter;stroke-opacity:1"
         d="m 131.23947,141.67985 h 5.51829 c 0,0 0.0481,8.26083 -2.85561,8.23025 -2.88326,-0.0305 -2.66268,-8.23025 -2.66268,-8.23025 z"
         id="path3992"
         inkscape:connector-curvature="0"
         sodipodi:nodetypes="ccsc" />
      <path
         style="fill:#2ca02c;stroke:none;stroke-width:0.11705497px;stroke-linecap:butt;stroke-linejoin:miter;stroke-opacity:1"
         d="m 125.3596,141.67985 h 5.51829 c 0,0 0.0481,8.26083 -2.85561,8.23025 -2.88326,-0.0305 -2.66268,-8.23025 -2.66268,-8.23025 z"
         id="path3994"
         inkscape:connector-curvature="0"
         sodipodi:nodetypes="ccsc" />
      <path
         sodipodi:nodetypes="ccsc"
         inkscape:connector-curvature="0"
         id="path3996"
         d="m 119.5268,141.67985 h 5.51829 c 0,0 0.0481,8.26083 -2.85561,8.23025 -2.88326,-0.0305 -2.66268,-8.23025 -2.66268,-8.23025 z"
         style="fill:#2ca02c;stroke:none;stroke-width:0.11705497px;stroke-linecap:butt;stroke-linejoin:miter;stroke-opacity:1" />
      <path
         sodipodi:nodetypes="ccsc"
         inkscape:connector-curvature="0"
         id="path3998"
         d="m 113.49867,141.67985 h 5.51829 c 0,0 0.0481,8.26083 -2.85561,8.23025 -2.88326,-0.0305 -2.66268,-8.23025 -2.66268,-8.23025 z"
         style="fill:#2ca02c;stroke:none;stroke-width:0.11705497px;stroke-linecap:butt;stroke-linejoin:miter;stroke-opacity:1" />
      <path
         style="fill:#2ca02c;stroke:none;stroke-width:0.11705497px;stroke-linecap:butt;stroke-linejoin:miter;stroke-opacity:1"
         d="m 107.66587,141.67985 h 5.51829 c 0,0 0.0481,8.26083 -2.85561,8.23025 -2.88326,-0.0305 -2.66268,-8.23025 -2.66268,-8.23025 z"
         id="path4000"
         inkscape:connector-curvature="0"
         sodipodi:nodetypes="ccsc" />
      <path
         style="fill:#2ca02c;stroke:none;stroke-width:0.11705497px;stroke-linecap:butt;stroke-linejoin:miter;stroke-opacity:1"
         d="m 101.63775,141.67985 h 5.51829 c 0,0 0.0481,8.26083 -2.85561,8.23025 -2.88326,-0.0305 -2.66268,-8.23025 -2.66268,-8.23025 z"
         id="path4002"
         inkscape:connector-curvature="0"
         sodipodi:nodetypes="ccsc" />
      <path
         sodipodi:nodetypes="ccsc"
         inkscape:connector-curvature="0"
         id="path4004"
         d="m 95.804948,141.67985 h 5.518292 c 0,0 0.0481,8.26083 -2.855607,8.23025 -2.883265,-0.0305 -2.662685,-8.23025 -2.662685,-8.23025 z"
         style="fill:#2ca02c;stroke:none;stroke-width:0.11705497px;stroke-linecap:butt;stroke-linejoin:miter;stroke-opacity:1" />
      <path
         sodipodi:nodetypes="ccsc"
         inkscape:connector-curvature="0"
         id="path4006"
         d="m 89.925078,141.67985 h 5.51829 c 0,0 0.0481,8.26083 -2.85561,8.23025 -2.88326,-0.0305 -2.66268,-8.23025 -2.66268,-8.23025 z"
         style="fill:#2ca02c;stroke:none;stroke-width:0.11705497px;stroke-linecap:butt;stroke-linejoin:miter;stroke-opacity:1" />
      <path
         style="fill:#2ca02c;stroke:none;stroke-width:0.11705497px;stroke-linecap:butt;stroke-linejoin:miter;stroke-opacity:1"
         d="m 84.092278,141.67985 h 5.51829 c 0,0 0.0481,8.26083 -2.85561,8.23025 -2.88326,-0.0305 -2.66268,-8.23025 -2.66268,-8.23025 z"
         id="path4008"
         inkscape:connector-curvature="0"
         sodipodi:nodetypes="ccsc" />
      <path
         style="fill:#2ca02c;stroke:none;stroke-width:0.11705497px;stroke-linecap:butt;stroke-linejoin:miter;stroke-opacity:1"
         d="m 78.064148,141.67985 h 5.51829 c 0,0 0.0481,8.26083 -2.85561,8.23025 -2.88326,-0.0305 -2.66268,-8.23025 -2.66268,-8.23025 z"
         id="path4010"
         inkscape:connector-curvature="0"
         sodipodi:nodetypes="ccsc" />
      <path
         sodipodi:nodetypes="ccsc"
         inkscape:connector-curvature="0"
         id="path4012"
         d="m 72.231348,141.67985 h 5.51829 c 0,0 0.0481,8.26083 -2.85561,8.23025 -2.88326,-0.0305 -2.66268,-8.23025 -2.66268,-8.23025 z"
         style="fill:#2ca02c;stroke:none;stroke-width:0.11705497px;stroke-linecap:butt;stroke-linejoin:miter;stroke-opacity:1" />
      <path
         sodipodi:nodetypes="ccsc"
         inkscape:connector-curvature="0"
         id="path4014"
         d="m 66.203228,141.67985 h 5.51829 c 0,0 0.0481,8.26083 -2.85561,8.23025 -2.88326,-0.0305 -2.66268,-8.23025 -2.66268,-8.23025 z"
         style="fill:#2ca02c;stroke:none;stroke-width:0.11705497px;stroke-linecap:butt;stroke-linejoin:miter;stroke-opacity:1" />
      <path
         style="fill:#2ca02c;stroke:none;stroke-width:0.11705497px;stroke-linecap:butt;stroke-linejoin:miter;stroke-opacity:1"
         d="m 60.370423,141.67985 h 5.518295 c 0,0 0.0481,8.26083 -2.85561,8.23025 -2.883265,-0.0305 -2.662685,-8.23025 -2.662685,-8.23025 z"
         id="path4016"
         inkscape:connector-curvature="0"
         sodipodi:nodetypes="ccsc" />
      <path
         style="fill:#2ca02c;stroke:none;stroke-width:0.11705497px;stroke-linecap:butt;stroke-linejoin:miter;stroke-opacity:1"
         d="m 54.490553,141.67985 h 5.51829 c 0,0 0.0481,8.26083 -2.85561,8.23025 -2.88326,-0.0305 -2.66268,-8.23025 -2.66268,-8.23025 z"
         id="path4018"
         inkscape:connector-curvature="0"
         sodipodi:nodetypes="ccsc" />
      <path
         style="fill:#2ca02c;stroke:none;stroke-width:0.11705497px;stroke-linecap:butt;stroke-linejoin:miter;stroke-opacity:1"
         d="m 142.70621,141.67985 h 5.51829 c 0,0 0.0481,8.26083 -2.85561,8.23025 -2.88326,-0.0305 -2.66268,-8.23025 -2.66268,-8.23025 z"
         id="path4020"
         inkscape:connector-curvature="0"
         sodipodi:nodetypes="ccsc" />
      <path
         sodipodi:nodetypes="ccsc"
         inkscape:connector-curvature="0"
         id="path4022"
         d="m 139.59272,134.70885 h 5.51829 c 0,0 0.0481,-8.26083 -2.85561,-8.23025 -2.88326,0.0305 -2.66268,8.23025 -2.66268,8.23025 z"
         style="fill:#2ca02c;stroke:none;stroke-width:0.11705497px;stroke-linecap:butt;stroke-linejoin:miter;stroke-opacity:1" />
      <path
         style="fill:#2ca02c;stroke:none;stroke-width:0.11705497px;stroke-linecap:butt;stroke-linejoin:miter;stroke-opacity:1"
         d="m 133.75992,134.70885 h 5.51829 c 0,0 0.0481,-8.26083 -2.85561,-8.23025 -2.88326,0.0305 -2.66268,8.23025 -2.66268,8.23025 z"
         id="path4024"
         inkscape:connector-curvature="0"
         sodipodi:nodetypes="ccsc" />
      <path
         style="fill:#2ca02c;stroke:none;stroke-width:0.11705497px;stroke-linecap:butt;stroke-linejoin:miter;stroke-opacity:1"
         d="m 127.88005,134.70885 h 5.51829 c 0,0 0.0481,-8.26083 -2.85561,-8.23025 -2.88326,0.0305 -2.66268,8.23025 -2.66268,8.23025 z"
         id="path4026"
         inkscape:connector-curvature="0"
         sodipodi:nodetypes="ccsc" />
      <path
         sodipodi:nodetypes="ccsc"
         inkscape:connector-curvature="0"
         id="path4028"
         d="m 122.04725,134.70885 h 5.51829 c 0,0 0.0481,-8.26083 -2.85561,-8.23025 -2.88326,0.0305 -2.66268,8.23025 -2.66268,8.23025 z"
         style="fill:#2ca02c;stroke:none;stroke-width:0.11705497px;stroke-linecap:butt;stroke-linejoin:miter;stroke-opacity:1" />
      <path
         sodipodi:nodetypes="ccsc"
         inkscape:connector-curvature="0"
         id="path4030"
         d="m 116.01912,134.70885 h 5.51829 c 0,0 0.0481,-8.26083 -2.85561,-8.23025 -2.88326,0.0305 -2.66268,8.23025 -2.66268,8.23025 z"
         style="fill:#2ca02c;stroke:none;stroke-width:0.11705497px;stroke-linecap:butt;stroke-linejoin:miter;stroke-opacity:1" />
      <path
         style="fill:#2ca02c;stroke:none;stroke-width:0.11705497px;stroke-linecap:butt;stroke-linejoin:miter;stroke-opacity:1"
         d="m 110.18632,134.70885 h 5.51829 c 0,0 0.0481,-8.26083 -2.85561,-8.23025 -2.88326,0.0305 -2.66268,8.23025 -2.66268,8.23025 z"
         id="path4032"
         inkscape:connector-curvature="0"
         sodipodi:nodetypes="ccsc" />
      <path
         style="fill:#2ca02c;stroke:none;stroke-width:0.11705497px;stroke-linecap:butt;stroke-linejoin:miter;stroke-opacity:1"
         d="m 104.1582,134.70885 h 5.51829 c 0,0 0.0481,-8.26083 -2.85561,-8.23025 -2.88326,0.0305 -2.66268,8.23025 -2.66268,8.23025 z"
         id="path4034"
         inkscape:connector-curvature="0"
         sodipodi:nodetypes="ccsc" />
      <path
         sodipodi:nodetypes="ccsc"
         inkscape:connector-curvature="0"
         id="path4036"
         d="m 98.325395,134.70885 h 5.518295 c 0,0 0.0481,-8.26083 -2.85561,-8.23025 -2.883265,0.0305 -2.662685,8.23025 -2.662685,8.23025 z"
         style="fill:#2ca02c;stroke:none;stroke-width:0.11705497px;stroke-linecap:butt;stroke-linejoin:miter;stroke-opacity:1" />
      <path
         sodipodi:nodetypes="ccsc"
         inkscape:connector-curvature="0"
         id="path4038"
         d="m 92.445525,134.70885 h 5.51829 c 0,0 0.0481,-8.26083 -2.85561,-8.23025 -2.88326,0.0305 -2.66268,8.23025 -2.66268,8.23025 z"
         style="fill:#2ca02c;stroke:none;stroke-width:0.11705497px;stroke-linecap:butt;stroke-linejoin:miter;stroke-opacity:1" />
      <path
         style="fill:#2ca02c;stroke:none;stroke-width:0.11705497px;stroke-linecap:butt;stroke-linejoin:miter;stroke-opacity:1"
         d="m 86.612725,134.70885 h 5.51829 c 0,0 0.0481,-8.26083 -2.85561,-8.23025 -2.88326,0.0305 -2.66268,8.23025 -2.66268,8.23025 z"
         id="path4040"
         inkscape:connector-curvature="0"
         sodipodi:nodetypes="ccsc" />
      <path
         style="fill:#2ca02c;stroke:none;stroke-width:0.11705497px;stroke-linecap:butt;stroke-linejoin:miter;stroke-opacity:1"
         d="m 80.584595,134.70885 h 5.51829 c 0,0 0.0481,-8.26083 -2.85561,-8.23025 -2.88326,0.0305 -2.66268,8.23025 -2.66268,8.23025 z"
         id="path4042"
         inkscape:connector-curvature="0"
         sodipodi:nodetypes="ccsc" />
      <path
         sodipodi:nodetypes="ccsc"
         inkscape:connector-curvature="0"
         id="path4044"
         d="m 74.751795,134.70885 h 5.51829 c 0,0 0.0481,-8.26083 -2.85561,-8.23025 -2.88326,0.0305 -2.66268,8.23025 -2.66268,8.23025 z"
         style="fill:#2ca02c;stroke:none;stroke-width:0.11705497px;stroke-linecap:butt;stroke-linejoin:miter;stroke-opacity:1" />
      <path
         sodipodi:nodetypes="ccsc"
         inkscape:connector-curvature="0"
         id="path4046"
         d="m 68.723675,134.70885 h 5.51829 c 0,0 0.0481,-8.26083 -2.85561,-8.23025 -2.88326,0.0305 -2.66268,8.23025 -2.66268,8.23025 z"
         style="fill:#2ca02c;stroke:none;stroke-width:0.11705497px;stroke-linecap:butt;stroke-linejoin:miter;stroke-opacity:1" />
      <path
         style="fill:#2ca02c;stroke:none;stroke-width:0.11705497px;stroke-linecap:butt;stroke-linejoin:miter;stroke-opacity:1"
         d="m 62.89087,134.70885 h 5.518295 c 0,0 0.0481,-8.26083 -2.85561,-8.23025 -2.883265,0.0305 -2.662685,8.23025 -2.662685,8.23025 z"
         id="path4048"
         inkscape:connector-curvature="0"
         sodipodi:nodetypes="ccsc" />
      <path
         style="fill:#2ca02c;stroke:none;stroke-width:0.11705497px;stroke-linecap:butt;stroke-linejoin:miter;stroke-opacity:1"
         d="m 57.011,134.70885 h 5.51829 c 0,0 0.0481,-8.26083 -2.85561,-8.23025 -2.88326,0.0305 -2.66268,8.23025 -2.66268,8.23025 z"
         id="path4050"
         inkscape:connector-curvature="0"
         sodipodi:nodetypes="ccsc" />
      <path
         style="fill:#2ca02c;stroke:none;stroke-width:0.11705497px;stroke-linecap:butt;stroke-linejoin:miter;stroke-opacity:1"
         d="m 137.07227,142.71498 h 5.51829 c 0,0 0.0481,-8.26083 -2.85561,-8.23025 -2.88326,0.0305 -2.66268,8.23025 -2.66268,8.23025 z"
         id="path4052"
         inkscape:connector-curvature="0"
         sodipodi:nodetypes="ccsc" />
      <path
         sodipodi:nodetypes="ccsc"
         inkscape:connector-curvature="0"
         id="path4054"
         d="m 131.23947,142.71498 h 5.51829 c 0,0 0.0481,-8.26083 -2.85561,-8.23025 -2.88326,0.0305 -2.66268,8.23025 -2.66268,8.23025 z"
         style="fill:#2ca02c;stroke:none;stroke-width:0.11705497px;stroke-linecap:butt;stroke-linejoin:miter;stroke-opacity:1" />
      <path
         sodipodi:nodetypes="ccsc"
         inkscape:connector-curvature="0"
         id="path4056"
         d="m 125.3596,142.71498 h 5.51829 c 0,0 0.0481,-8.26083 -2.85561,-8.23025 -2.88326,0.0305 -2.66268,8.23025 -2.66268,8.23025 z"
         style="fill:#2ca02c;stroke:none;stroke-width:0.11705497px;stroke-linecap:butt;stroke-linejoin:miter;stroke-opacity:1" />
      <path
         style="fill:#2ca02c;stroke:none;stroke-width:0.11705497px;stroke-linecap:butt;stroke-linejoin:miter;stroke-opacity:1"
         d="m 119.5268,142.71498 h 5.51829 c 0,0 0.0481,-8.26083 -2.85561,-8.23025 -2.88326,0.0305 -2.66268,8.23025 -2.66268,8.23025 z"
         id="path4058"
         inkscape:connector-curvature="0"
         sodipodi:nodetypes="ccsc" />
      <path
         style="fill:#2ca02c;stroke:none;stroke-width:0.11705497px;stroke-linecap:butt;stroke-linejoin:miter;stroke-opacity:1"
         d="m 113.49867,142.71498 h 5.51829 c 0,0 0.0481,-8.26083 -2.85561,-8.23025 -2.88326,0.0305 -2.66268,8.23025 -2.66268,8.23025 z"
         id="path4060"
         inkscape:connector-curvature="0"
         sodipodi:nodetypes="ccsc" />
      <path
         sodipodi:nodetypes="ccsc"
         inkscape:connector-curvature="0"
         id="path4062"
         d="m 107.66587,142.71498 h 5.51829 c 0,0 0.0481,-8.26083 -2.85561,-8.23025 -2.88326,0.0305 -2.66268,8.23025 -2.66268,8.23025 z"
         style="fill:#2ca02c;stroke:none;stroke-width:0.11705497px;stroke-linecap:butt;stroke-linejoin:miter;stroke-opacity:1" />
      <path
         sodipodi:nodetypes="ccsc"
         inkscape:connector-curvature="0"
         id="path4064"
         d="m 101.63775,142.71498 h 5.51829 c 0,0 0.0481,-8.26083 -2.85561,-8.23025 -2.88326,0.0305 -2.66268,8.23025 -2.66268,8.23025 z"
         style="fill:#2ca02c;stroke:none;stroke-width:0.11705497px;stroke-linecap:butt;stroke-linejoin:miter;stroke-opacity:1" />
      <path
         style="fill:#2ca02c;stroke:none;stroke-width:0.11705497px;stroke-linecap:butt;stroke-linejoin:miter;stroke-opacity:1"
         d="m 95.804948,142.71498 h 5.518292 c 0,0 0.0481,-8.26083 -2.855607,-8.23025 -2.883265,0.0305 -2.662685,8.23025 -2.662685,8.23025 z"
         id="path4066"
         inkscape:connector-curvature="0"
         sodipodi:nodetypes="ccsc" />
      <path
         style="fill:#2ca02c;stroke:none;stroke-width:0.11705497px;stroke-linecap:butt;stroke-linejoin:miter;stroke-opacity:1"
         d="m 89.925078,142.71498 h 5.51829 c 0,0 0.0481,-8.26083 -2.85561,-8.23025 -2.88326,0.0305 -2.66268,8.23025 -2.66268,8.23025 z"
         id="path4068"
         inkscape:connector-curvature="0"
         sodipodi:nodetypes="ccsc" />
      <path
         sodipodi:nodetypes="ccsc"
         inkscape:connector-curvature="0"
         id="path4070"
         d="m 84.092278,142.71498 h 5.51829 c 0,0 0.0481,-8.26083 -2.85561,-8.23025 -2.88326,0.0305 -2.66268,8.23025 -2.66268,8.23025 z"
         style="fill:#2ca02c;stroke:none;stroke-width:0.11705497px;stroke-linecap:butt;stroke-linejoin:miter;stroke-opacity:1" />
      <path
         sodipodi:nodetypes="ccsc"
         inkscape:connector-curvature="0"
         id="path4072"
         d="m 78.064148,142.71498 h 5.51829 c 0,0 0.0481,-8.26083 -2.85561,-8.23025 -2.88326,0.0305 -2.66268,8.23025 -2.66268,8.23025 z"
         style="fill:#2ca02c;stroke:none;stroke-width:0.11705497px;stroke-linecap:butt;stroke-linejoin:miter;stroke-opacity:1" />
      <path
         style="fill:#2ca02c;stroke:none;stroke-width:0.11705497px;stroke-linecap:butt;stroke-linejoin:miter;stroke-opacity:1"
         d="m 72.231348,142.71498 h 5.51829 c 0,0 0.0481,-8.26083 -2.85561,-8.23025 -2.88326,0.0305 -2.66268,8.23025 -2.66268,8.23025 z"
         id="path4074"
         inkscape:connector-curvature="0"
         sodipodi:nodetypes="ccsc" />
      <path
         style="fill:#2ca02c;stroke:none;stroke-width:0.11705497px;stroke-linecap:butt;stroke-linejoin:miter;stroke-opacity:1"
         d="m 66.203228,142.71498 h 5.51829 c 0,0 0.0481,-8.26083 -2.85561,-8.23025 -2.88326,0.0305 -2.66268,8.23025 -2.66268,8.23025 z"
         id="path4076"
         inkscape:connector-curvature="0"
         sodipodi:nodetypes="ccsc" />
      <path
         sodipodi:nodetypes="ccsc"
         inkscape:connector-curvature="0"
         id="path4078"
         d="m 60.370423,142.71498 h 5.518295 c 0,0 0.0481,-8.26083 -2.85561,-8.23025 -2.883265,0.0305 -2.662685,8.23025 -2.662685,8.23025 z"
         style="fill:#2ca02c;stroke:none;stroke-width:0.11705497px;stroke-linecap:butt;stroke-linejoin:miter;stroke-opacity:1" />
      <path
         sodipodi:nodetypes="ccsc"
         inkscape:connector-curvature="0"
         id="path4080"
         d="m 54.490553,142.71498 h 5.51829 c 0,0 0.0481,-8.26083 -2.85561,-8.23025 -2.88326,0.0305 -2.66268,8.23025 -2.66268,8.23025 z"
         style="fill:#2ca02c;stroke:none;stroke-width:0.11705497px;stroke-linecap:butt;stroke-linejoin:miter;stroke-opacity:1" />
      <path
         sodipodi:nodetypes="ccsc"
         inkscape:connector-curvature="0"
         id="path4082"
         d="m 142.70621,142.71498 h 5.51829 c 0,0 0.0481,-8.26083 -2.85561,-8.23025 -2.88326,0.0305 -2.66268,8.23025 -2.66268,8.23025 z"
         style="fill:#2ca02c;stroke:none;stroke-width:0.11705497px;stroke-linecap:butt;stroke-linejoin:miter;stroke-opacity:1" />
    </g>
  </g>
</svg>
