<?xml version="1.0" encoding="UTF-8" standalone="no"?>
<!-- Created with Inkscape (http://www.inkscape.org/) -->

<svg
   xmlns:dc="http://purl.org/dc/elements/1.1/"
   xmlns:cc="http://creativecommons.org/ns#"
   xmlns:rdf="http://www.w3.org/1999/02/22-rdf-syntax-ns#"
   xmlns:svg="http://www.w3.org/2000/svg"
   xmlns="http://www.w3.org/2000/svg"
   xmlns:sodipodi="http://sodipodi.sourceforge.net/DTD/sodipodi-0.dtd"
   xmlns:inkscape="http://www.inkscape.org/namespaces/inkscape"
   width="210mm"
   height="297mm"
   viewBox="0 0 744.09448819 1052.3622047"
   id="svg2"
   version="1.1"
   inkscape:version="0.92.2 (5c3e80d, 2017-08-06)"
   sodipodi:docname="body.svg">
  <defs
     id="defs4" />
  <sodipodi:namedview
     id="base"
     pagecolor="#ffffff"
     bordercolor="#666666"
     borderopacity="1.0"
     inkscape:pageopacity="0.0"
     inkscape:pageshadow="2"
     inkscape:zoom="0.7"
     inkscape:cx="208.84831"
     inkscape:cy="1084.1799"
     inkscape:document-units="px"
     inkscape:current-layer="g4271"
     showgrid="false"
     inkscape:window-width="1920"
     inkscape:window-height="1001"
     inkscape:window-x="-9"
     inkscape:window-y="-9"
     inkscape:window-maximized="1"
     showguides="false" />
  <metadata
     id="metadata7">
    <rdf:RDF>
      <cc:Work
         rdf:about="">
        <dc:format>image/svg+xml</dc:format>
        <dc:type
           rdf:resource="http://purl.org/dc/dcmitype/StillImage" />
        <dc:title />
      </cc:Work>
    </rdf:RDF>
  </metadata>
  <g
     inkscape:groupmode="layer"
     id="layer2"
     inkscape:label="Layer 0" />
  <g
     inkscape:label="Layer 1"
     inkscape:groupmode="layer"
     id="layer1">
    <g
       id="g4271"
       transform="matrix(6.3874796,0,0,6.3874796,-644.09239,-904.54652)">
      <path
         style="fill:#f2f2f2;stroke:none;stroke-width:0.13932212px;stroke-linecap:butt;stroke-linejoin:miter;stroke-opacity:1"
         d="m 96.284407,90.456517 c 0,0 -0.0059,9.298045 -3.227017,16.514563 -3.602952,8.07198 -10.483891,14.80563 -10.904227,28.46657 -0.796126,25.87411 0.995157,28.66055 0.995157,28.66055 l 37.81601,0.19903 c 0,0 2.25186,-26.16528 -1.25804,-38.73825 -1.84376,-6.60461 -6.53914,-8.63918 -9.68479,-18.15727 -2.92317,-8.844893 -1.10122,-18.117493 -3.78551,-17.542288 -5.57289,1.194192 -9.951583,0.597095 -9.951583,0.597095 z"
         id="path3722"
         inkscape:connector-curvature="0"
         sodipodi:nodetypes="cssccsssc" />
      <ellipse
         style="fill:#ffccaa;stroke:none;stroke-width:0.13932212"
         id="path3726"
         cx="101.92441"
         cy="88.923973"
         rx="5.699832"
         ry="4.9961491" />
      <ellipse
         style="fill:#ffffff;stroke:none;stroke-width:0.13932212"
         id="path3728"
         cx="103.90981"
         cy="89.287201"
         rx="0.95783961"
         ry="0.67173165" />
      <path
         style="fill:#000000;stroke:none;stroke-width:0.13932212px;stroke-linecap:butt;stroke-linejoin:miter;stroke-opacity:1"
         d="m 99.520284,88.328453 c 0,0 -0.447196,-3.291883 0.732316,-3.542901 0.95896,-0.204079 0.73641,2.369084 1.71665,2.388379 0.957,0.01884 0.82622,-2.443555 1.7664,-2.263984 0.98466,0.188065 1.30328,3.32576 1.30328,3.32576 0,0 -0.67037,-2.108874 -1.35127,-1.967205 -0.51569,0.107298 -0.95104,1.631224 -1.76817,1.60204 -0.78239,-0.02795 -0.91128,-1.591255 -1.4372,-1.556552 -0.32554,0.02148 -0.962006,2.014463 -0.962006,2.014463 z"
         id="path3732"
         inkscape:connector-curvature="0"
         sodipodi:nodetypes="cssscsssc" />
      <ellipse
         ry="0.55681199"
         rx="0.79397267"
         cy="89.260246"
         cx="103.94824"
         id="ellipse3734"
         style="fill:#000000;stroke:none;stroke-width:0.11548693" />
      <ellipse
         style="fill:#552200;stroke:none;stroke-width:0.07413075"
         id="ellipse3736"
         cx="103.91022"
         cy="89.192787"
         rx="0.50964892"
         ry="0.35741615" />
      <ellipse
         ry="0.67173165"
         rx="0.95783961"
         cy="89.287201"
         cx="-100.30344"
         id="ellipse3738"
         style="fill:#ffffff;stroke:none;stroke-width:0.13932212"
         transform="scale(-1,1)" />
      <ellipse
         style="fill:#000000;stroke:none;stroke-width:0.11548693"
         id="ellipse3740"
         cx="-100.26499"
         cy="89.260246"
         rx="0.79397267"
         ry="0.55681199"
         transform="scale(-1,1)" />
      <ellipse
         ry="0.35741615"
         rx="0.50964892"
         cy="89.192787"
         cx="-100.30303"
         id="ellipse3742"
         style="fill:#552200;stroke:none;stroke-width:0.07413075"
         transform="scale(-1,1)" />
      <path
         style="fill:#d4aa00;stroke:none;stroke-width:0.13932212px;stroke-linecap:butt;stroke-linejoin:miter;stroke-opacity:1"
         d="m 101.18554,88.572128 0.8796,-5.224845 0.84442,5.172069 z"
         id="path3744"
         inkscape:connector-curvature="0"
         sodipodi:nodetypes="cccc" />
      <path
         style="fill:#d38d5f;stroke:none;stroke-width:0.13932212px;stroke-linecap:butt;stroke-linejoin:miter;stroke-opacity:1"
         d="m 83.148314,164.0982 9.354492,29.65571 6.169982,-9.75254 1.990312,15.52446 9.35449,-15.32544 4.97579,7.76224 5.97094,-27.6654 z"
         id="path3746"
         inkscape:connector-curvature="0" />
      <path
         style="fill:#e9c6af;stroke:none;stroke-width:0.13932212px;stroke-linecap:butt;stroke-linejoin:miter;stroke-opacity:1"
         d="m 83.148307,164.0982 37.816013,0.19903 c 0,0 0.79005,-9.41676 0.83003,-14.13706 0.0427,-5.0444 -0.63099,-15.12058 -0.63099,-15.12058 l -39.010197,0.5971 c 0,0 -0.132047,9.81843 -0.120822,14.72787 0.02659,11.62675 1.115966,13.73364 1.115966,13.73364 z"
         id="path3748"
         inkscape:connector-curvature="0"
         sodipodi:nodetypes="ccsccsc" />
      <rect
         style="fill:#ff0000;stroke:none;stroke-width:0.13932212"
         id="rect3724"
         width="2.2517855"
         height="12.947767"
         x="100.84665"
         y="92.07534" />
    </g>
  </g>
</svg>
