<?xml version="1.0" encoding="UTF-8" standalone="no"?>
<!-- Created with Inkscape (http://www.inkscape.org/) -->

<svg
   xmlns:dc="http://purl.org/dc/elements/1.1/"
   xmlns:cc="http://creativecommons.org/ns#"
   xmlns:rdf="http://www.w3.org/1999/02/22-rdf-syntax-ns#"
   xmlns:svg="http://www.w3.org/2000/svg"
   xmlns="http://www.w3.org/2000/svg"
   xmlns:sodipodi="http://sodipodi.sourceforge.net/DTD/sodipodi-0.dtd"
   xmlns:inkscape="http://www.inkscape.org/namespaces/inkscape"
   width="210mm"
   height="297mm"
   viewBox="0 0 210 297"
   version="1.1"
   id="svg8"
   inkscape:version="0.91 r13725"
   sodipodi:docname="aats1.svg">
  <defs
     id="defs2">
    <pattern
       id="EMFhbasepattern"
       patternUnits="userSpaceOnUse"
       width="6"
       height="6"
       x="0"
       y="0" />
  </defs>
  <sodipodi:namedview
     id="base"
     pagecolor="#ffffff"
     bordercolor="#666666"
     borderopacity="1.0"
     inkscape:pageopacity="0.0"
     inkscape:pageshadow="2"
     inkscape:zoom="0.49497474"
     inkscape:cx="-38.062554"
     inkscape:cy="1047.0371"
     inkscape:document-units="mm"
     inkscape:current-layer="layer1"
     showgrid="false"
     inkscape:window-width="944"
     inkscape:window-height="1001"
     inkscape:window-x="960"
     inkscape:window-y="0"
     inkscape:window-maximized="0"
     inkscape:snap-global="false" />
  <metadata
     id="metadata5">
    <rdf:RDF>
      <cc:Work
         rdf:about="">
        <dc:format>image/svg+xml</dc:format>
        <dc:type
           rdf:resource="http://purl.org/dc/dcmitype/StillImage" />
        <dc:title />
      </cc:Work>
    </rdf:RDF>
  </metadata>
  <g
     inkscape:label="Layer 1"
     inkscape:groupmode="layer"
     id="layer1">
    <g
       id="g3349"
       transform="translate(31.964188,26.861272)">
      <rect
         y="-119.22775"
         x="-124.29815"
         height="185.87704"
         width="185.87704"
         id="rect3345"
         style="fill:#483e37" />
      <rect
         style="fill:#784421"
         id="rect3347"
         width="173.90337"
         height="173.90337"
         x="-118.5964"
         y="-112.95583" />
    </g>
    <g
       id="g3347"
       transform="translate(-9.5955546,-6.7733329)">
      <rect
         y="-52.149208"
         x="-50.799999"
         height="119.33968"
         width="119.33968"
         id="rect3337"
         style="opacity:1;fill:#93aca7;fill-opacity:1;stroke:none;stroke-width:0;stroke-linecap:round;stroke-miterlimit:4;stroke-dasharray:none;stroke-dashoffset:0;stroke-opacity:1" />
      <ellipse
         ry="24.968172"
         rx="59.541161"
         cy="-52.151176"
         cx="8.7386112"
         id="path3339"
         style="opacity:1;fill:#93aca7;fill-opacity:1;stroke:none;stroke-width:0;stroke-linecap:round;stroke-miterlimit:4;stroke-dasharray:none;stroke-dashoffset:0;stroke-opacity:1" />
      <ellipse
         style="opacity:1;fill:#93aca7;fill-opacity:1;stroke:none;stroke-width:0;stroke-linecap:round;stroke-miterlimit:4;stroke-dasharray:none;stroke-dashoffset:0;stroke-opacity:1"
         id="ellipse3341"
         cx="8.9969711"
         cy="67.183296"
         rx="59.541161"
         ry="24.968172" />
      <ellipse
         transform="matrix(0,1,-1,0,0,0)"
         ry="24.968172"
         rx="59.541161"
         cy="49.445969"
         cx="9.0254469"
         id="ellipse3343"
         style="opacity:1;fill:#93aca7;fill-opacity:1;stroke:none;stroke-width:0;stroke-linecap:round;stroke-miterlimit:4;stroke-dasharray:none;stroke-dashoffset:0;stroke-opacity:1" />
      <ellipse
         style="opacity:1;fill:#93aca7;fill-opacity:1;stroke:none;stroke-width:0;stroke-linecap:round;stroke-miterlimit:4;stroke-dasharray:none;stroke-dashoffset:0;stroke-opacity:1"
         id="ellipse3345"
         cx="7.0298343"
         cy="-68.865341"
         rx="59.541161"
         ry="24.968172"
         transform="matrix(0,1,-1,0,0,0)" />
    </g>
    <path
       style="fill:#37c871;fill-rule:evenodd;stroke:none;stroke-width:0.19489838px;stroke-linecap:butt;stroke-linejoin:miter;stroke-opacity:1"
       d="m 41.217048,-27.801965 c 0,0 -9.027494,-4.561997 -17.984279,-6.399767 -10.779006,-2.21166 -21.9548585,-1.726007 -23.77966058,-1.117739 -1.71128372,0.570423 -8.39086132,-5.223184 -23.19281542,-12.641121 -14.097433,-7.06487 -20.241684,-2.115476 -20.241684,-2.115476 0,0 20.046697,15.59188 12.807607,22.274103 -9.330678,8.612919 -7.795929,16.705579 -7.795929,16.705579 l 62.367481,20.0466901 13.921313,-17.2624319 13.92131,5.846954 c 0,0 0.791382,-12.7353932 -2.750461,-17.3428992 -3.027573,-3.938495 -7.272882,-7.993892 -7.272882,-7.993892 z"
       id="path3340"
       inkscape:connector-curvature="0"
       sodipodi:nodetypes="cssscsccccsc" />
    <path
       style="fill:#37c871;fill-rule:evenodd;stroke:none;stroke-width:0.19489838px;stroke-linecap:butt;stroke-linejoin:miter;stroke-opacity:1"
       d="m -40.361849,-4.6925793 10.023348,3.89796439 c 0,0 -5.622783,8.70054701 -6.179297,13.67009991 -0.526067,4.697641 2.838179,13.894099 2.838179,13.894099 l -14.693601,-5.056112 -23.172374,7.56195 8.345697,-16.422589 -8.62412,-16.7101361 20.596927,4.54145819 z"
       id="path3342"
       inkscape:connector-curvature="0"
       sodipodi:nodetypes="ccsccccccc" />
    <path
       style="fill:#37c871;fill-rule:evenodd;stroke:none;stroke-width:0.19489838px;stroke-linecap:butt;stroke-linejoin:miter;stroke-opacity:1"
       d="m -22.542564,-2.1867438 -12.900868,13.0234248 14.014574,21.223003 c 0,0 39.571917,11.374638 58.393904,8.209118 C 70.132555,34.690622 72.95764,-3.85731 72.95764,-3.85731 L 49.023123,8.9124811 37.552992,-1.1493469 20.018613,13.641654 Z"
       id="path3344"
       inkscape:connector-curvature="0"
       sodipodi:nodetypes="cccsccccc" />
    <path
       style="fill:#cccccc;fill-rule:evenodd;stroke:none;stroke-width:0.10949934px;stroke-linecap:butt;stroke-linejoin:miter;stroke-opacity:1"
       d="m 23.438001,-22.423711 c 0,0 2.594326,5.137564 4.539272,6.130556 2.142779,1.094046 9.174176,0.363738 9.174176,0.363738 0,0 -4.161089,-5.299527 -6.220839,-6.234558 -1.932714,-0.877361 -7.492609,-0.259736 -7.492609,-0.259736 z"
       id="path3346"
       inkscape:connector-curvature="0"
       sodipodi:nodetypes="cscsc" />
    <path
       style="fill:#217844;fill-rule:evenodd;stroke:none;stroke-width:0.19489838px;stroke-linecap:butt;stroke-linejoin:miter;stroke-opacity:1"
       d="m -29.737115,19.467624 c 0,0 7.65726,-5.679969 8.009037,-8.751352 0.524437,-4.5788395 -7.239083,1.594809 -5.489873,-1.5214475 1.792531,-3.19343 7.449953,-1.884323 7.449953,1.1783645 0,3.062689 -8.563659,11.072396 -8.563659,11.072396 z"
       id="path3348"
       inkscape:connector-curvature="0"
       sodipodi:nodetypes="cssscc" />
  </g>
</svg>
