<?xml version="1.0" encoding="UTF-8" standalone="no"?>
<!-- Created with Inkscape (http://www.inkscape.org/) -->

<svg
   xmlns:dc="http://purl.org/dc/elements/1.1/"
   xmlns:cc="http://creativecommons.org/ns#"
   xmlns:rdf="http://www.w3.org/1999/02/22-rdf-syntax-ns#"
   xmlns:svg="http://www.w3.org/2000/svg"
   xmlns="http://www.w3.org/2000/svg"
   xmlns:sodipodi="http://sodipodi.sourceforge.net/DTD/sodipodi-0.dtd"
   xmlns:inkscape="http://www.inkscape.org/namespaces/inkscape"
   width="210mm"
   height="297mm"
   viewBox="0 0 210 297"
   version="1.1"
   id="svg8"
   sodipodi:docname="astrohawk.svg"
   inkscape:version="0.92.2 (5c3e80d, 2017-08-06)">
  <defs
     id="defs2" />
  <sodipodi:namedview
     id="base"
     pagecolor="#ffffff"
     bordercolor="#666666"
     borderopacity="1.0"
     inkscape:pageopacity="0.0"
     inkscape:pageshadow="2"
     inkscape:zoom="0.7"
     inkscape:cx="218.41876"
     inkscape:cy="1078.4911"
     inkscape:document-units="mm"
     inkscape:current-layer="layer1"
     showgrid="false"
     inkscape:snap-global="false"
     inkscape:lockguides="true"
     inkscape:window-width="1920"
     inkscape:window-height="1017"
     inkscape:window-x="-8"
     inkscape:window-y="-8"
     inkscape:window-maximized="1" />
  <metadata
     id="metadata5">
    <rdf:RDF>
      <cc:Work
         rdf:about="">
        <dc:format>image/svg+xml</dc:format>
        <dc:type
           rdf:resource="http://purl.org/dc/dcmitype/StillImage" />
      </cc:Work>
    </rdf:RDF>
  </metadata>
  <g
     inkscape:label="Layer 1"
     inkscape:groupmode="layer"
     id="layer1">
    <path
       sodipodi:nodetypes="cccccsc"
       inkscape:connector-curvature="0"
       id="path3719"
       d="m 25.925143,-36.2851 3.207235,-5.61266 2.939965,5.879928 -6.414469,32.0723439 -7.750816,-9.6217029 c 0,0 5.138369,-7.900516 6.576886,-12.331405 1.079328,-3.324522 1.441199,-10.386504 1.441199,-10.386504 z"
       style="fill:#333333;fill-rule:evenodd;stroke:none;stroke-width:0.26458332px;stroke-linecap:butt;stroke-linejoin:miter;stroke-opacity:1" />
    <path
       style="fill:#333333;fill-rule:evenodd;stroke:none;stroke-width:0.26458332px;stroke-linecap:butt;stroke-linejoin:miter;stroke-opacity:1"
       d="m -23.252448,-36.2851 -3.207235,-5.61266 -2.939965,5.879928 6.414469,32.0723439 7.750816,-9.6217029 c 0,0 -5.138369,-7.900516 -6.576886,-12.331405 -1.079328,-3.324522 -1.441199,-10.386504 -1.441199,-10.386504 z"
       id="path3717"
       inkscape:connector-curvature="0"
       sodipodi:nodetypes="cccccsc" />
    <path
       style="fill:#aa4400;fill-rule:evenodd;stroke:none;stroke-width:1.05217576px;stroke-linecap:butt;stroke-linejoin:miter;stroke-opacity:1"
       d="m -9.0877378,-37.855717 c 0,0 4.998851,-7.798732 6.564953,-12.117352 1.79891796,-4.96063 3.731485,-15.51696 3.731485,-15.51696 0,0 1.214445,10.61228 3.267548,15.5392 1.834399,4.40208 7.4274618,12.22797 7.4274618,12.22797 z"
       id="path3715"
       inkscape:connector-curvature="0"
       sodipodi:nodetypes="cscscc" />
    <path
       style="fill:#d45500;fill-rule:evenodd;stroke:none;stroke-width:1.05217576px;stroke-linecap:butt;stroke-linejoin:miter;stroke-opacity:1"
       d="m -8.1443838,63.802319 3.381993,-6.763987 2.818328,3.945659 2.63043996,-4.509325 0.93944304,10.145982 1.503108,-9.958094 1.690997,2.63044 1.503108,-7.515542 -14.843194,-0.375777 c 0,0 0.150988,8.279522 0.375777,12.400644 z"
       id="path3703"
       inkscape:connector-curvature="0"
       sodipodi:nodetypes="cccccccccc" />
    <path
       style="fill:#999999;fill-rule:evenodd;stroke:none;stroke-width:1.05217576px;stroke-linecap:butt;stroke-linejoin:miter;stroke-opacity:1"
       d="m -17.645633,46.398582 2.549373,16.464294 7.5155412,-11.085424 h 13.715864 l 4.6972138,11.64909 4.885101,-17.285746 z"
       id="path3701"
       inkscape:connector-curvature="0" />
    <path
       style="fill:#808080;fill-rule:evenodd;stroke:none;stroke-width:1.05217576px;stroke-linecap:butt;stroke-linejoin:miter;stroke-opacity:1"
       d="M -9.1427688,-38.098636 H 12.114393 c 0,0 27.368593,59.785768 17.537158,70.680064 C 15.784318,47.947824 14.240109,46.398582 14.240109,46.398582 h -31.885742 l -12.222869,-15.94287 c -8.754049,-11.418325 20.7257332,-68.554348 20.7257332,-68.554348 z"
       id="path3699"
       inkscape:connector-curvature="0"
       sodipodi:nodetypes="ccsccsc" />
    <path
       style="fill:#cccccc;fill-rule:evenodd;stroke:none;stroke-width:1.39676714px;stroke-linecap:butt;stroke-linejoin:miter;stroke-opacity:1"
       d="m -31.374106,26.254718 c 0,0 -20.452663,31.926108 -10.974599,25.690539 9.478062,-6.235568 14.466516,-19.454971 14.466516,-19.454971 z"
       id="path3705"
       inkscape:connector-curvature="0" />
    <path
       inkscape:connector-curvature="0"
       id="path3707"
       d="m -23.642002,35.857492 c 0,0 -20.452663,31.926108 -10.9746,25.69054 9.478063,-6.235569 14.466518,-19.454971 14.466518,-19.454971 z"
       style="fill:#cccccc;fill-rule:evenodd;stroke:none;stroke-width:1.39676714px;stroke-linecap:butt;stroke-linejoin:miter;stroke-opacity:1" />
    <path
       inkscape:connector-curvature="0"
       id="path3709"
       d="m 31.823857,26.254718 c 0,0 20.45266,31.926108 10.974597,25.690539 C 33.320394,45.709689 28.33194,32.490286 28.33194,32.490286 Z"
       style="fill:#cccccc;fill-rule:evenodd;stroke:none;stroke-width:1.39676714px;stroke-linecap:butt;stroke-linejoin:miter;stroke-opacity:1" />
    <path
       style="fill:#cccccc;fill-rule:evenodd;stroke:none;stroke-width:1.39676714px;stroke-linecap:butt;stroke-linejoin:miter;stroke-opacity:1"
       d="m 24.091752,35.857492 c 0,0 20.45266,31.926108 10.974601,25.69054 C 25.58829,55.312463 20.599835,42.093061 20.599835,42.093061 Z"
       id="path3711"
       inkscape:connector-curvature="0" />
    <ellipse
       style="fill:#000080;stroke:none;stroke-width:1.05217576"
       id="path3713"
       cx="1.0872403"
       cy="-20.428619"
       rx="6.7757206"
       ry="13.950012" />
  </g>
</svg>
