<?xml version="1.0" encoding="UTF-8" standalone="no"?>
<!-- Created with Inkscape (http://www.inkscape.org/) -->

<svg
   xmlns:dc="http://purl.org/dc/elements/1.1/"
   xmlns:cc="http://creativecommons.org/ns#"
   xmlns:rdf="http://www.w3.org/1999/02/22-rdf-syntax-ns#"
   xmlns:svg="http://www.w3.org/2000/svg"
   xmlns="http://www.w3.org/2000/svg"
   xmlns:sodipodi="http://sodipodi.sourceforge.net/DTD/sodipodi-0.dtd"
   xmlns:inkscape="http://www.inkscape.org/namespaces/inkscape"
   width="210mm"
   height="297mm"
   viewBox="0 0 210 297"
   version="1.1"
   id="svg8"
   sodipodi:docname="blademaster.svg"
   inkscape:version="0.91 r13725">
  <defs
     id="defs2" />
  <sodipodi:namedview
     id="base"
     pagecolor="#ffffff"
     bordercolor="#666666"
     borderopacity="1.0"
     inkscape:pageopacity="0.0"
     inkscape:pageshadow="2"
     inkscape:zoom="0.7"
     inkscape:cx="-175.61672"
     inkscape:cy="890.1044"
     inkscape:document-units="mm"
     inkscape:current-layer="layer1"
     showgrid="false"
     inkscape:snap-global="false"
     inkscape:lockguides="true"
     inkscape:window-width="1920"
     inkscape:window-height="1017"
     inkscape:window-x="-8"
     inkscape:window-y="-8"
     inkscape:window-maximized="1" />
  <metadata
     id="metadata5">
    <rdf:RDF>
      <cc:Work
         rdf:about="">
        <dc:format>image/svg+xml</dc:format>
        <dc:type
           rdf:resource="http://purl.org/dc/dcmitype/StillImage" />
      </cc:Work>
    </rdf:RDF>
  </metadata>
  <g
     inkscape:label="Layer 1"
     inkscape:groupmode="layer"
     id="layer1">
    <path
       sodipodi:nodetypes="cccccccccc"
       inkscape:connector-curvature="0"
       id="path3366"
       d="m -13.425116,59.093236 6.6429691,-8.084313 5.5358,4.715849 5.16676,-5.389543 1.84526,12.126473 2.95243,-11.901909 3.3215009,3.1439 2.95243,-8.982572 -29.15526,-0.449128 c 0,0 0.29658,9.895681 0.73811,14.821243 z"
       style="fill:#00ffff;fill-rule:evenodd;stroke:none;stroke-width:1.05217576px;stroke-linecap:butt;stroke-linejoin:miter;stroke-opacity:1" />
    <path
       style="fill:#b3b3b3;fill-rule:evenodd;stroke:none;stroke-width:0.28222221px;stroke-linecap:butt;stroke-linejoin:miter;stroke-opacity:1"
       d="m -10.061666,-53.565706 20.280409,0 c 0,0 15.603566,-1.378074 20.659368,2.143219 5.010288,3.489601 4.044017,14.952142 4.044017,14.952142 l 0,63.697855 c 0,0 0.977852,11.319286 -3.810559,15.35289 -4.651525,3.918297 -19.189155,4.419223 -19.189155,4.419223 l -23.28857,0 c 0,0 -18.88206,-2.669212 -20.79039,-4.224745 -1.79655,-1.464432 -2.90901,-13.398355 -2.90901,-13.398355 l 0.27392,-63.585639 c 0,0 -1.67954,-12.754088 3.52633,-16.525003 4.49831,-3.258385 21.20364,-2.831587 21.20364,-2.831587 z"
       id="path3344"
       inkscape:connector-curvature="0"
       sodipodi:nodetypes="ccsccsccsccsc" />
    <rect
       style="fill:#333333;stroke:none"
       id="rect3346"
       width="20.961523"
       height="6.2643628"
       x="-34.609596"
       y="-35.248459" />
    <rect
       style="fill:#333333;stroke:none"
       id="rect3348"
       width="20.720585"
       height="5.7824888"
       x="-6.4199624"
       y="-9.9500704" />
    <rect
       style="fill:#333333;stroke:none"
       id="rect3350"
       width="23.129955"
       height="5.5415521"
       x="9.4818926"
       y="15.589254" />
    <rect
       style="fill:#333333;stroke:none"
       id="rect3352"
       width="21.684334"
       height="6.0234265"
       x="-22.080866"
       y="30.527351" />
    <rect
       style="fill:#333333;stroke:none"
       id="rect3354"
       width="18.793089"
       height="4.8187408"
       x="13.818753"
       y="-48.981873" />
    <rect
       y="-32.647667"
       x="10.92336"
       height="3.2150795"
       width="11.520701"
       id="rect3356"
       style="fill:#800000;stroke:none" />
    <rect
       style="fill:#800000;stroke:none"
       id="rect3358"
       width="11.520701"
       height="3.2150795"
       x="-24.002131"
       y="-3.0035949" />
    <rect
       y="25.618265"
       x="3.2567801"
       height="3.2150795"
       width="11.520701"
       id="rect3360"
       style="fill:#800000;stroke:none" />
    <rect
       style="fill:#536c53;stroke:none"
       id="rect3362"
       width="11.520701"
       height="3.2150795"
       x="-6.9653115"
       y="9.0925484" />
    <rect
       y="-23.107044"
       x="-6.9653115"
       height="3.2150795"
       width="11.520701"
       id="rect3364"
       style="fill:#536c53;stroke:none" />
    <ellipse
       style="fill:#999999;stroke:none"
       id="path3368"
       cx="0.085340023"
       cy="-50.066093"
       rx="33.369781"
       ry="13.372005" />
    <ellipse
       ry="12.551342"
       rx="31.321817"
       cy="-49.872993"
       cx="-0.39654019"
       id="ellipse3370"
       style="fill:#aa4400;stroke:none" />
    <ellipse
       ry="3.8136771"
       rx="9.5170145"
       cy="-52.475464"
       cx="0.085340023"
       id="ellipse3372"
       style="fill:#808000;stroke:none" />
    <ellipse
       style="fill:#a05a2c;stroke:none"
       id="ellipse3374"
       cx="-0.052095894"
       cy="-52.384274"
       rx="8.9329367"
       ry="3.5796249" />
    <path
       style="fill:#cccccc;fill-rule:evenodd;stroke:none;stroke-width:0.28222221px;stroke-linecap:butt;stroke-linejoin:miter;stroke-opacity:1"
       d="m 41.053232,-26.862178 0,41.143924 3.003118,3.071947 3.300506,-3.071947 0,-41.143924 -3.151812,-3.041831 z"
       id="path3378"
       inkscape:connector-curvature="0"
       sodipodi:nodetypes="ccccccc" />
    <path
       sodipodi:nodetypes="ccccccc"
       inkscape:connector-curvature="0"
       id="path3380"
       d="m -48.575346,-26.862178 0,41.143924 3.00312,3.071947 3.30051,-3.071947 0,-41.143924 -3.15182,-3.041831 z"
       style="fill:#cccccc;fill-rule:evenodd;stroke:none;stroke-width:0.28222221px;stroke-linecap:butt;stroke-linejoin:miter;stroke-opacity:1" />
  </g>
</svg>
