<?xml version="1.0" encoding="UTF-8" standalone="no"?>
<!-- Created with Inkscape (http://www.inkscape.org/) -->

<svg
   xmlns:dc="http://purl.org/dc/elements/1.1/"
   xmlns:cc="http://creativecommons.org/ns#"
   xmlns:rdf="http://www.w3.org/1999/02/22-rdf-syntax-ns#"
   xmlns:svg="http://www.w3.org/2000/svg"
   xmlns="http://www.w3.org/2000/svg"
   xmlns:sodipodi="http://sodipodi.sourceforge.net/DTD/sodipodi-0.dtd"
   xmlns:inkscape="http://www.inkscape.org/namespaces/inkscape"
   width="210mm"
   height="297mm"
   viewBox="0 0 210 297"
   version="1.1"
   id="svg8"
   sodipodi:docname="fairgravesvessel.svg"
   inkscape:version="0.92.2 (5c3e80d, 2017-08-06)">
  <defs
     id="defs2" />
  <sodipodi:namedview
     id="base"
     pagecolor="#ffffff"
     bordercolor="#666666"
     borderopacity="1.0"
     inkscape:pageopacity="0.0"
     inkscape:pageshadow="2"
     inkscape:zoom="0.7"
     inkscape:cx="-659.30571"
     inkscape:cy="1116.5686"
     inkscape:document-units="mm"
     inkscape:current-layer="layer1"
     showgrid="false"
     inkscape:snap-global="false"
     inkscape:lockguides="true"
     inkscape:window-width="1920"
     inkscape:window-height="1017"
     inkscape:window-x="-8"
     inkscape:window-y="-8"
     inkscape:window-maximized="1" />
  <metadata
     id="metadata5">
    <rdf:RDF>
      <cc:Work
         rdf:about="">
        <dc:format>image/svg+xml</dc:format>
        <dc:type
           rdf:resource="http://purl.org/dc/dcmitype/StillImage" />
      </cc:Work>
    </rdf:RDF>
  </metadata>
  <g
     inkscape:label="Layer 1"
     inkscape:groupmode="layer"
     id="layer1">
    <path
       sodipodi:nodetypes="cscscc"
       inkscape:connector-curvature="0"
       id="path4519"
       d="m -15.150344,-38.475446 c 0,0 10.7837788,-14.327961 13.7478138,-20.632767 2.544831,-5.413123 3.428603,-17.034101 3.428603,-17.034101 0,0 0.651353,11.899066 3.4503,18.081852 2.6534419,5.861442 9.7703832,18.800986 9.7703832,18.800986 z"
       style="fill:#37c871;fill-opacity:1;stroke:none;stroke-width:0.63154107px;stroke-linecap:butt;stroke-linejoin:miter;stroke-opacity:1" />
    <path
       style="fill:#453b2c;fill-opacity:1;stroke:none;stroke-width:0.27428257px;stroke-linecap:butt;stroke-linejoin:miter;stroke-opacity:1"
       d="m -0.54484023,-52.409006 c 0,0 -10.75798677,7.034195 -14.14216877,12.280846 -4.185965,6.489706 -6.624943,22.200393 -6.624943,22.200393 v 59.248812 c 0,0 2.412595,16.025382 6.806379,21.740016 4.34446,5.65049 13.96072177,11.957559 13.96072177,11.957559 0,0 14.23913823,-9.704676 17.63235023,-15.383505 2.447219,-4.09564 5.485759,-18.31407 5.485759,-18.31407 v -58.465148 c 0,0 -2.635694,-17.255285 -6.939331,-23.683089 -4.095547,-6.117006 -16.17876723,-11.581814 -16.17876723,-11.581814 z"
       id="path18"
       inkscape:connector-curvature="0"
       sodipodi:nodetypes="csccscsccsc" />
    <path
       style="fill:#453b2c;fill-opacity:1;stroke:none;stroke-width:0.31590185px;stroke-linecap:butt;stroke-linejoin:miter;stroke-opacity:1"
       d="m -7.2258462,-45.387849 c 0,0 5.2555379,-5.503865 6.73817697,-8.657578 1.272945,-2.707687 1.71501703,-8.520593 1.71501703,-8.520593 0,0 0.325812,5.952008 1.725861,9.044686 1.327275,2.93194 5.5801879,8.572854 5.5801879,8.572854 z"
       id="path4517"
       inkscape:connector-curvature="0"
       sodipodi:nodetypes="cscscc" />
    <rect
       style="fill:#37c871;fill-opacity:1;stroke:none;stroke-width:0.27428257"
       id="rect4521"
       width="3.8789415"
       height="12.745093"
       x="-9.9964848"
       y="-21.421537" />
    <rect
       style="fill:#37c871;fill-opacity:1;stroke:none;stroke-width:0.27428257"
       id="rect4525"
       width="2.4936051"
       height="15.515766"
       x="5.7963576"
       y="-37.491436" />
    <rect
       style="fill:#37c871;fill-opacity:1;stroke:none;stroke-width:0.27428257"
       id="rect4527"
       width="2.216538"
       height="21.888311"
       x="-5.0092721"
       y="36.208454" />
    <rect
       style="fill:#453b4c;fill-opacity:1;stroke:none;stroke-width:0.28101638"
       id="rect4529"
       width="0.55413449"
       height="109.64614"
       x="-11.935976"
       y="-43.200848" />
    <rect
       y="-38.107029"
       x="-16.050219"
       height="99.164612"
       width="0.55413449"
       id="rect4531"
       style="fill:#453b4c;fill-opacity:1;stroke:none;stroke-width:0.26724729" />
    <rect
       style="fill:#453b4c;fill-opacity:1;stroke:none;stroke-width:0.29257834"
       id="rect4533"
       width="0.55413449"
       height="118.85419"
       x="-6.2544122"
       y="-48.04977" />
    <rect
       y="-49.519142"
       x="-1.2585319"
       height="123.94801"
       width="0.55413449"
       id="rect4535"
       style="fill:#453b4c;fill-opacity:1;stroke:none;stroke-width:0.29878217" />
    <rect
       style="fill:#453b4c;fill-opacity:1;stroke:none;stroke-width:0.2946209"
       id="rect4537"
       width="0.55413449"
       height="120.51948"
       x="4.4230247"
       y="-49.666077" />
    <rect
       style="fill:#37c871;fill-opacity:1;stroke:none;stroke-width:0.27428257"
       id="rect4523"
       width="2.4936051"
       height="24.93605"
       x="4.1339316"
       y="6.0081244" />
    <rect
       y="-44.817158"
       x="11.084177"
       height="110.08694"
       width="0.55413449"
       id="rect4539"
       style="fill:#453b4c;fill-opacity:1;stroke:none;stroke-width:0.28158066" />
    <rect
       style="fill:#453b4c;fill-opacity:1;stroke:none;stroke-width:0.26532644"
       id="rect4541"
       width="0.55413449"
       height="97.744225"
       x="16.667795"
       y="-37.911114" />
    <rect
       style="fill:#64513a;fill-opacity:1;stroke:none;stroke-width:0.21703862"
       id="rect4545"
       width="18.875206"
       height="0.86583513"
       x="-0.4723762"
       y="-2.6848607" />
    <path
       style="fill:#e9ddaf;stroke:none;stroke-width:0.27428257px;stroke-linecap:butt;stroke-linejoin:miter;stroke-opacity:1"
       d="m -0.29916323,-26.685812 v 24.6589864 c 0,0 4.15999703,-6.3282636 7.48081903,-6.6496122 4.6981472,-0.4546308 12.1909812,7.2037477 12.1909812,7.2037477 z"
       id="path4543"
       inkscape:connector-curvature="0"
       sodipodi:nodetypes="ccscc" />
    <rect
       y="33.755539"
       x="-0.36877218"
       height="0.86583513"
       width="18.875206"
       id="rect4547"
       style="fill:#64513a;fill-opacity:1;stroke:none;stroke-width:0.21703862"
       transform="scale(-1,1)" />
    <path
       sodipodi:nodetypes="ccscc"
       inkscape:connector-curvature="0"
       id="path4549"
       d="M 0.19555177,9.7545892 V 34.413575 c 0,0 -4.15999697,-6.328264 -7.48081897,-6.649612 -4.6981468,-0.454631 -12.1909798,7.203747 -12.1909798,7.203747 z"
       style="fill:#e9ddaf;stroke:none;stroke-width:0.27428257px;stroke-linecap:butt;stroke-linejoin:miter;stroke-opacity:1" />
  </g>
</svg>
