<?xml version="1.0" encoding="UTF-8" standalone="no"?>
<!-- Created with Inkscape (http://www.inkscape.org/) -->

<svg
   xmlns:dc="http://purl.org/dc/elements/1.1/"
   xmlns:cc="http://creativecommons.org/ns#"
   xmlns:rdf="http://www.w3.org/1999/02/22-rdf-syntax-ns#"
   xmlns:svg="http://www.w3.org/2000/svg"
   xmlns="http://www.w3.org/2000/svg"
   xmlns:sodipodi="http://sodipodi.sourceforge.net/DTD/sodipodi-0.dtd"
   xmlns:inkscape="http://www.inkscape.org/namespaces/inkscape"
   width="210mm"
   height="297mm"
   viewBox="0 0 744.09448819 1052.3622047"
   id="svg3362"
   version="1.1"
   inkscape:version="0.91 r13725"
   sodipodi:docname="electric.svg">
  <defs
     id="defs3364" />
  <sodipodi:namedview
     id="base"
     pagecolor="#ffffff"
     bordercolor="#666666"
     borderopacity="1.0"
     inkscape:pageopacity="0.0"
     inkscape:pageshadow="2"
     inkscape:zoom="0.35"
     inkscape:cx="375"
     inkscape:cy="977.14286"
     inkscape:document-units="px"
     inkscape:current-layer="layer1"
     showgrid="false"
     inkscape:window-width="1920"
     inkscape:window-height="1017"
     inkscape:window-x="-8"
     inkscape:window-y="-8"
     inkscape:window-maximized="1" />
  <metadata
     id="metadata3367">
    <rdf:RDF>
      <cc:Work
         rdf:about="">
        <dc:format>image/svg+xml</dc:format>
        <dc:type
           rdf:resource="http://purl.org/dc/dcmitype/StillImage" />
        <dc:title />
      </cc:Work>
    </rdf:RDF>
  </metadata>
  <g
     inkscape:label="Layer 1"
     inkscape:groupmode="layer"
     id="layer1">
    <path
       style="fill:#ffff00;fill-rule:evenodd;stroke:none;stroke-width:0.28222221px;stroke-linecap:butt;stroke-linejoin:miter;stroke-opacity:1"
       d="m -206.57141,-476.35786 c 22.85715,5.71429 451.42855,0 451.42855,0 L -57.999989,-219.21504 159.14288,49.356403 -52.285699,443.64211 -0.8571289,83.642123 -246.57141,-184.92933 -103.71426,-350.64356 c -23.37361,-52.2152 -62.55099,-86.89408 -102.85715,-125.7143 z"
       id="path3346"
       inkscape:connector-curvature="0"
       sodipodi:nodetypes="ccccccccc" />
    <path
       sodipodi:nodetypes="ccccccccc"
       inkscape:connector-curvature="0"
       id="path3348"
       d="m -164.24051,-455.78844 c 17.6825,4.42063 349.22936,0 349.22936,0 L -100.73284,-202.57461 114.39376,48.051903 -33.455079,381.64644 40.61626,76.004233 -196.61346,-194.62233 -84.669263,-358.53468 c -18.082047,-40.39416 -48.390027,-67.22207 -79.571247,-97.25376 z"
       style="fill:#00ffff;fill-rule:evenodd;stroke:none;stroke-width:0.28222221px;stroke-linecap:butt;stroke-linejoin:miter;stroke-opacity:1" />
    <ellipse
       style="fill:#ffff00;stroke:none"
       id="path3350"
       cx="-66.387894"
       cy="418.05948"
       rx="53.538086"
       ry="16.162441" />
    <ellipse
       ry="16.162441"
       rx="53.538082"
       cy="364.95889"
       cx="143.3824"
       id="ellipse3352"
       style="fill:#ffff00;stroke:none"
       transform="matrix(0.86602541,0.5,-0.5,0.86602541,0,0)" />
    <ellipse
       transform="matrix(0.86602541,-0.5,-0.5,-0.86602541,0,0)"
       style="fill:#ffff00;stroke:none"
       id="ellipse3354"
       cx="-271.64661"
       cy="-353.89252"
       rx="53.538082"
       ry="16.162441" />
    <ellipse
       ry="16.162441"
       rx="53.538086"
       cy="418.05948"
       cx="-9.970871"
       id="ellipse3356"
       style="fill:#ffff00;stroke:none"
       transform="scale(-1,1)" />
    <ellipse
       transform="matrix(-0.86602541,0.5,0.5,0.86602541,0,0)"
       style="fill:#ffff00;stroke:none"
       id="ellipse3358"
       cx="192.24094"
       cy="336.75043"
       rx="53.538082"
       ry="16.162441" />
    <ellipse
       ry="16.162441"
       rx="53.538082"
       cy="-382.10098"
       cx="-222.78812"
       id="ellipse3360"
       style="fill:#ffff00;stroke:none"
       transform="matrix(-0.86602541,-0.5,0.5,-0.86602541,0,0)" />
    <circle
       style="fill:#ffff00"
       id="path3357"
       cx="-148.57143"
       cy="152.3622"
       r="40" />
    <circle
       r="40"
       cy="-353.35208"
       cx="-222.85713"
       id="circle3359"
       style="fill:#ffff00" />
    <circle
       style="fill:#ffff00"
       id="circle3361"
       cx="117.14286"
       cy="-196.20923"
       r="40" />
  </g>
</svg>
