<?xml version="1.0" encoding="UTF-8" standalone="no"?>
<!-- Created with Inkscape (http://www.inkscape.org/) -->

<svg
   xmlns:dc="http://purl.org/dc/elements/1.1/"
   xmlns:cc="http://creativecommons.org/ns#"
   xmlns:rdf="http://www.w3.org/1999/02/22-rdf-syntax-ns#"
   xmlns:svg="http://www.w3.org/2000/svg"
   xmlns="http://www.w3.org/2000/svg"
   xmlns:sodipodi="http://sodipodi.sourceforge.net/DTD/sodipodi-0.dtd"
   xmlns:inkscape="http://www.inkscape.org/namespaces/inkscape"
   width="210mm"
   height="297mm"
   viewBox="0 0 744.09448819 1052.3622047"
   id="svg3362"
   version="1.1"
   inkscape:version="0.91 r13725"
   sodipodi:docname="fire.svg">
  <defs
     id="defs3364" />
  <sodipodi:namedview
     id="base"
     pagecolor="#ffffff"
     bordercolor="#666666"
     borderopacity="1.0"
     inkscape:pageopacity="0.0"
     inkscape:pageshadow="2"
     inkscape:zoom="0.35"
     inkscape:cx="360.71429"
     inkscape:cy="1202.8571"
     inkscape:document-units="px"
     inkscape:current-layer="layer1"
     showgrid="false"
     inkscape:window-width="1920"
     inkscape:window-height="1017"
     inkscape:window-x="-8"
     inkscape:window-y="-8"
     inkscape:window-maximized="1" />
  <metadata
     id="metadata3367">
    <rdf:RDF>
      <cc:Work
         rdf:about="">
        <dc:format>image/svg+xml</dc:format>
        <dc:type
           rdf:resource="http://purl.org/dc/dcmitype/StillImage" />
        <dc:title></dc:title>
      </cc:Work>
    </rdf:RDF>
  </metadata>
  <g
     inkscape:label="Layer 1"
     inkscape:groupmode="layer"
     id="layer1">
    <g
       id="g215"
       transform="matrix(3.5433071,0,0,3.5433071,16.074243,331.14207)">
      <path
         sodipodi:nodetypes="csscscc"
         inkscape:connector-curvature="0"
         id="path183"
         d="M -57.006202,-110.59011 C -68.779249,-5.9407489 -41.766944,47.526221 -17.762727,49.000164 56.799987,53.578574 48.951297,-83.119658 50.259383,-98.817061 51.567482,-114.51445 18.574421,-237.43214 18.574421,-237.43214 c -0.290055,11.02554 -14.9128359,85.74278 -30.271138,91.58294 -13.10158,4.98203 -37.348386,-40.75576 -38.768906,-31.45487 -1.308147,18.31362 -6.540579,66.71396 -6.540579,66.71396 z"
         style="fill:#ff0000;stroke:none;stroke-width:0.45784092px;stroke-linecap:butt;stroke-linejoin:miter;stroke-opacity:1" />
      <path
         style="fill:#ff6600;stroke:none;stroke-width:0.37205774px;stroke-linecap:butt;stroke-linejoin:miter;stroke-opacity:1"
         d="M -51.767221,-79.449898 C -62.255068,-1.8732547 -38.191575,37.761849 -16.807787,38.854484 49.61525,42.248464 42.62338,-59.08603 43.788665,-70.722531 44.953963,-82.359032 15.562604,-173.47799 15.562604,-173.47799 c -0.258387,8.17325 -13.2848789,63.56119 -26.96658,67.89049 -11.671334,3.6932 -33.271232,-30.21227 -34.536673,-23.31751 -1.165358,13.57591 -5.826572,49.455112 -5.826572,49.455112 z"
         id="path185"
         inkscape:connector-curvature="0"
         sodipodi:nodetypes="csscscc" />
      <path
         sodipodi:nodetypes="csscscc"
         inkscape:connector-curvature="0"
         id="path187"
         d="m -48.282539,-47.685201 c -9.598083,56.1558786 12.423938,84.846788 31.993561,85.637718 60.787897,2.45682 54.389187,-70.896812 55.455616,-79.32019 1.066442,-8.423379 -25.831443,-74.382237 -25.831443,-74.382237 -0.236457,5.91643 -12.1578119,46.010443 -24.678803,49.144321 -10.681169,2.673401 -30.448577,-21.869948 -31.606663,-16.87899 -1.06649,9.827267 -5.332268,35.799378 -5.332268,35.799378 z"
         style="fill:#ffff00;stroke:none;stroke-width:0.30282494px;stroke-linecap:butt;stroke-linejoin:miter;stroke-opacity:1" />
    </g>
    <circle
       style="fill:#ff0000"
       id="path3382"
       cx="-41.428574"
       cy="-289.06638"
       r="30" />
    <circle
       r="30"
       cy="-360.49493"
       cx="-121.42857"
       id="circle3384"
       style="fill:#ff0000" />
    <circle
       style="fill:#ff0000"
       id="circle3386"
       cx="18.571426"
       cy="-463.35208"
       r="30" />
  </g>
</svg>
