<?xml version="1.0" encoding="UTF-8" standalone="no"?>
<!-- Created with Inkscape (http://www.inkscape.org/) -->

<svg
   xmlns:dc="http://purl.org/dc/elements/1.1/"
   xmlns:cc="http://creativecommons.org/ns#"
   xmlns:rdf="http://www.w3.org/1999/02/22-rdf-syntax-ns#"
   xmlns:svg="http://www.w3.org/2000/svg"
   xmlns="http://www.w3.org/2000/svg"
   xmlns:sodipodi="http://sodipodi.sourceforge.net/DTD/sodipodi-0.dtd"
   xmlns:inkscape="http://www.inkscape.org/namespaces/inkscape"
   width="210mm"
   height="297mm"
   viewBox="0 0 744.09448819 1052.3622047"
   id="svg2"
   version="1.1"
   inkscape:version="0.91 r13725"
   sodipodi:docname="2.svg">
  <defs
     id="defs4" />
  <sodipodi:namedview
     id="base"
     pagecolor="#ffffff"
     bordercolor="#666666"
     borderopacity="1.0"
     inkscape:pageopacity="0.0"
     inkscape:pageshadow="2"
     inkscape:zoom="0.35"
     inkscape:cx="-313.65431"
     inkscape:cy="1149.854"
     inkscape:document-units="px"
     inkscape:current-layer="g4244"
     showgrid="false"
     inkscape:window-width="1920"
     inkscape:window-height="1017"
     inkscape:window-x="-8"
     inkscape:window-y="-8"
     inkscape:window-maximized="1"
     inkscape:snap-global="false" />
  <metadata
     id="metadata7">
    <rdf:RDF>
      <cc:Work
         rdf:about="">
        <dc:format>image/svg+xml</dc:format>
        <dc:type
           rdf:resource="http://purl.org/dc/dcmitype/StillImage" />
        <dc:title />
      </cc:Work>
    </rdf:RDF>
  </metadata>
  <g
     inkscape:label="Layer 1"
     inkscape:groupmode="layer"
     id="layer1">
    <g
       id="g4244"
       transform="matrix(10.463086,0,0,10.463086,-1852.4595,-1923.2476)">
      <path
         style="fill:#784421;fill-rule:evenodd;stroke:none;stroke-width:0.0955741px;stroke-linecap:butt;stroke-linejoin:miter;stroke-opacity:1"
         d="m 154.92404,202.74461 c 0,0 10.36042,0.25687 11.73039,-0.85623 1.36997,-1.1131 -14.29908,-16.78215 -5.99363,-14.21346 8.30545,2.5687 14.47033,14.3847 14.89844,14.47033 0.42812,0.0856 -2.39744,-8.21983 -2.39744,-8.21983 0,0 9.84666,6.42174 9.84666,7.19235 0,0.77061 1.36997,-9.41855 -0.77061,-8.99044 -2.14058,0.42812 1.7981,-2.99681 1.7981,-2.99681 l 6.42174,11.13102 c 0,0 0.34249,-6.76424 1.54121,-6.84986 1.19873,-0.0856 4.79491,5.99363 4.79491,5.99363 l 3.85304,0.85623 3.51056,-2.99681 c 0,0 3.42492,3.25368 2.56869,4.02429 -0.85624,0.7706 -3.85305,3.42493 -3.85305,3.42493 z"
         id="path3370"
         inkscape:connector-curvature="0" />
      <circle
         style="fill:#784421;stroke:none"
         id="path3362"
         cx="157.57271"
         cy="202.53288"
         r="9.2633495" />
      <circle
         r="7.5075512"
         cy="202.59343"
         cx="157.51216"
         id="circle3364"
         style="fill:#ff0000;stroke:none" />
      <circle
         style="fill:#d45500;stroke:none"
         id="circle3366"
         cx="157.52684"
         cy="202.68578"
         r="6.2361112" />
      <circle
         r="4.9041262"
         cy="202.65398"
         cx="157.45161"
         id="circle3368"
         style="fill:#ffff00;stroke:none" />
      <g
         id="g3839"
         transform="matrix(-0.53899131,0,0,-0.53899131,227.96251,247.73458)">
        <rect
           transform="matrix(0,1,-1,0,0,0)"
           style="fill:#803300;fill-opacity:1;stroke:none;stroke-width:0;stroke-linecap:round;stroke-miterlimit:4;stroke-dasharray:none;stroke-dashoffset:0;stroke-opacity:1"
           id="rect4218-6"
           width="25.902433"
           height="9.0726509"
           x="123.39433"
           y="-135.14513"
           ry="3.3671696" />
        <rect
           ry="1.1928749"
           y="-135.48851"
           x="130.25201"
           height="9.5783014"
           width="2.918611"
           id="rect4220-9"
           style="fill:#808000;fill-opacity:1;stroke:none;stroke-width:0;stroke-linecap:round;stroke-miterlimit:4;stroke-dasharray:none;stroke-dashoffset:0;stroke-opacity:1"
           transform="matrix(0,1,-1,0,0,0)" />
        <rect
           transform="matrix(0,1,-1,0,0,0)"
           style="fill:#808000;fill-opacity:1;stroke:none;stroke-width:0;stroke-linecap:round;stroke-miterlimit:4;stroke-dasharray:none;stroke-dashoffset:0;stroke-opacity:1"
           id="rect4222-2"
           width="2.918611"
           height="9.5783014"
           x="136.05629"
           y="-135.48851"
           ry="1.1928749" />
        <rect
           transform="matrix(0,1,-1,0,0,0)"
           style="fill:#b3b3b3;fill-opacity:1;stroke:none;stroke-width:0;stroke-linecap:round;stroke-miterlimit:4;stroke-dasharray:none;stroke-dashoffset:0;stroke-opacity:1"
           id="rect4226-8"
           width="40.061047"
           height="9.2583094"
           x="83.893555"
           y="-135.23007"
           ry="2.1849012"
           rx="4.0246334" />
        <rect
           transform="matrix(0,1,-1,0,0,0)"
           style="fill:#803300;fill-opacity:1;stroke:none;stroke-width:0;stroke-linecap:round;stroke-miterlimit:4;stroke-dasharray:none;stroke-dashoffset:0;stroke-opacity:1"
           id="rect4230-6"
           width="6.1678343"
           height="23.496359"
           x="121.33058"
           y="-142.57553"
           ry="1.9237107" />
        <rect
           rx="4.0246334"
           ry="1.1130555"
           y="-130.68819"
           x="83.893555"
           height="4.716466"
           width="40.061047"
           id="rect3761"
           style="fill:#cccccc;fill-opacity:1;stroke:none;stroke-width:0;stroke-linecap:round;stroke-miterlimit:4;stroke-dasharray:none;stroke-dashoffset:0;stroke-opacity:1"
           transform="matrix(0,1,-1,0,0,0)" />
        <rect
           ry="1.7136978"
           y="-141.28004"
           x="121.03084"
           height="20.931248"
           width="3.7455177"
           id="rect3759"
           style="fill:#999999;fill-opacity:1;stroke:none;stroke-width:0;stroke-linecap:round;stroke-miterlimit:4;stroke-dasharray:none;stroke-dashoffset:0;stroke-opacity:1"
           transform="matrix(0,1,-1,0,0,0)" />
      </g>
      <path
         style="fill:#784421;fill-rule:evenodd;stroke:none;stroke-width:0.0955741px;stroke-linecap:butt;stroke-linejoin:miter;stroke-opacity:1"
         d="m 155.17557,199.68117 c 0,0 -7.53485,-10.61728 -12.32975,-7.70609 -4.7949,2.91119 0,7.53485 3.93866,7.70609 3.93868,0.17125 8.39109,0 8.39109,0 z"
         id="path3354"
         inkscape:connector-curvature="0" />
      <path
         inkscape:connector-curvature="0"
         id="path3356"
         d="m 156.02193,202.33687 c 0,0 -12.96225,1.21673 -12.83854,6.82483 0.12371,5.6081 6.52537,3.76742 8.643,0.44206 2.11765,-3.32537 4.19554,-7.26689 4.19554,-7.26689 z"
         style="fill:#784421;fill-rule:evenodd;stroke:none;stroke-width:0.0955741px;stroke-linecap:butt;stroke-linejoin:miter;stroke-opacity:1" />
      <path
         inkscape:connector-curvature="0"
         id="path3358"
         d="m 160.15009,199.68117 c 0,0 7.53485,-10.61728 12.32975,-7.70609 4.7949,2.91119 0,7.53485 -3.93867,7.70609 -3.93867,0.17125 -8.39108,0 -8.39108,0 z"
         style="fill:#784421;fill-rule:evenodd;stroke:none;stroke-width:0.0955741px;stroke-linecap:butt;stroke-linejoin:miter;stroke-opacity:1" />
      <path
         style="fill:#784421;fill-rule:evenodd;stroke:none;stroke-width:0.0955741px;stroke-linecap:butt;stroke-linejoin:miter;stroke-opacity:1"
         d="m 159.30372,202.33687 c 0,0 12.96226,1.21673 12.83855,6.82483 -0.12371,5.6081 -6.52537,3.76742 -8.643,0.44206 -2.11765,-3.32537 -4.19555,-7.26689 -4.19555,-7.26689 z"
         id="path3360"
         inkscape:connector-curvature="0" />
      <path
         inkscape:connector-curvature="0"
         id="path3372"
         d="m 153.2972,206.59766 c 0,0 10.36042,0.25687 11.73039,-0.85624 1.36997,-1.11309 -14.29908,-16.78214 -5.99363,-14.21345 8.30546,2.5687 14.47033,14.3847 14.89845,14.47033 0.42811,0.0856 -2.39745,-8.21984 -2.39745,-8.21984 0,0 9.84666,6.42175 9.84666,7.19235 0,0.77061 1.36997,-9.41855 -0.77061,-8.99043 -2.14058,0.42811 1.7981,-2.99681 1.7981,-2.99681 l 6.42174,11.13102 c 0,0 0.34249,-6.76424 1.54122,-6.84986 1.19872,-0.0856 4.7949,5.99363 4.7949,5.99363 l 3.85304,0.85623 3.51056,-2.99681 c 0,0 3.42492,3.25367 2.56869,4.02428 -0.85623,0.77061 -3.85304,3.42493 -3.85304,3.42493 z"
         style="fill:#784421;fill-rule:evenodd;stroke:none;stroke-width:0.0955741px;stroke-linecap:butt;stroke-linejoin:miter;stroke-opacity:1" />
      <path
         style="fill:#784421;fill-rule:evenodd;stroke:none;stroke-width:0.0955741px;stroke-linecap:butt;stroke-linejoin:miter;stroke-opacity:1"
         d="m 161.68828,211.22132 c 0,0 10.36041,0.25686 11.73038,-0.85624 1.36997,-1.1131 -14.29908,-16.78215 -5.99362,-14.21345 8.30545,2.56869 14.47032,14.3847 14.89844,14.47033 0.42811,0.0856 -2.39745,-8.21984 -2.39745,-8.21984 0,0 9.84667,6.42174 9.84667,7.19235 0,0.77061 1.36997,-9.41855 -0.77061,-8.99044 -2.14058,0.42812 1.79809,-2.9968 1.79809,-2.9968 l 6.42174,11.13101 c 0,0 0.3425,-6.76423 1.54122,-6.84985 1.19872,-0.0856 4.7949,5.99362 4.7949,5.99362 l 3.85304,0.85623 3.51056,-2.99681 c 0,0 3.42493,3.25368 2.5687,4.02429 -0.85624,0.77061 -3.85305,3.42493 -3.85305,3.42493 z"
         id="path3374"
         inkscape:connector-curvature="0" />
    </g>
  </g>
</svg>
