<?xml version="1.0" encoding="UTF-8" standalone="no"?>
<!-- Created with Inkscape (http://www.inkscape.org/) -->

<svg
   xmlns:dc="http://purl.org/dc/elements/1.1/"
   xmlns:cc="http://creativecommons.org/ns#"
   xmlns:rdf="http://www.w3.org/1999/02/22-rdf-syntax-ns#"
   xmlns:svg="http://www.w3.org/2000/svg"
   xmlns="http://www.w3.org/2000/svg"
   xmlns:sodipodi="http://sodipodi.sourceforge.net/DTD/sodipodi-0.dtd"
   xmlns:inkscape="http://www.inkscape.org/namespaces/inkscape"
   width="210mm"
   height="297mm"
   viewBox="0 0 744.09448819 1052.3622047"
   id="svg4300"
   version="1.1"
   inkscape:version="0.92.2 (5c3e80d, 2017-08-06)"
   sodipodi:docname="arcaneRoots.svg">
  <defs
     id="defs4302" />
  <sodipodi:namedview
     id="base"
     pagecolor="#ffffff"
     bordercolor="#666666"
     borderopacity="1.0"
     inkscape:pageopacity="0.0"
     inkscape:pageshadow="2"
     inkscape:zoom="0.35"
     inkscape:cx="-248.76383"
     inkscape:cy="1362.619"
     inkscape:document-units="px"
     inkscape:current-layer="layer1"
     showgrid="false"
     inkscape:window-width="944"
     inkscape:window-height="1001"
     inkscape:window-x="0"
     inkscape:window-y="0"
     inkscape:window-maximized="0"
     inkscape:snap-global="false" />
  <metadata
     id="metadata4305">
    <rdf:RDF>
      <cc:Work
         rdf:about="">
        <dc:format>image/svg+xml</dc:format>
        <dc:type
           rdf:resource="http://purl.org/dc/dcmitype/StillImage" />
        <dc:title />
      </cc:Work>
    </rdf:RDF>
  </metadata>
  <g
     inkscape:label="Layer 1"
     inkscape:groupmode="layer"
     id="layer1">
    <g
       id="g3873"
       transform="matrix(0.84186249,0,0,0.84186249,12.486566,16.396942)">
      <rect
         y="-123.8779"
         x="-150.92583"
         height="182.74507"
         width="134.77449"
         id="rect3345"
         style="opacity:1;fill:#a05a2c;fill-opacity:1;stroke:none;stroke-width:0;stroke-linecap:round;stroke-miterlimit:4;stroke-dasharray:none;stroke-dashoffset:0;stroke-opacity:1" />
      <ellipse
         ry="49.683815"
         rx="105.64948"
         cy="52.585312"
         cx="-125.22729"
         id="path3349"
         style="opacity:1;fill:#a05a2c;fill-opacity:1;stroke:none;stroke-width:0;stroke-linecap:round;stroke-miterlimit:4;stroke-dasharray:none;stroke-dashoffset:0;stroke-opacity:1" />
      <rect
         y="24.602474"
         x="-179.45676"
         height="77.666656"
         width="163.3284"
         id="rect3351"
         style="opacity:1;fill:#a05a2c;fill-opacity:1;stroke:none;stroke-width:0;stroke-linecap:round;stroke-miterlimit:4;stroke-dasharray:none;stroke-dashoffset:0;stroke-opacity:1" />
      <rect
         style="opacity:1;fill:#a05a2c;fill-opacity:1;stroke:none;stroke-width:0;stroke-linecap:round;stroke-miterlimit:4;stroke-dasharray:none;stroke-dashoffset:0;stroke-opacity:1"
         id="rect3353"
         width="163.3284"
         height="53.681366"
         x="-230.87677"
         y="48.587765" />
    </g>
    <path
       style="fill:#008000;stroke:none;stroke-width:0.78924608px;stroke-linecap:butt;stroke-linejoin:miter;stroke-opacity:1"
       d="m -3.2983555,-60.539015 c 0,0 -110.4944545,16.912416 -110.4944545,36.079821 0,19.1674051 110.4944545,-36.079821 110.4944545,-36.079821 z"
       id="path3863"
       inkscape:connector-curvature="0" />
    <path
       inkscape:connector-curvature="0"
       id="path3865"
       d="m -113.79281,1.4731772 c 0,0 110.4944545,16.9124158 110.4944545,36.0798208 0,19.167405 -110.4944545,-36.0798208 -110.4944545,-36.0798208 z"
       style="fill:#008000;stroke:none;stroke-width:0.78924608px;stroke-linecap:butt;stroke-linejoin:miter;stroke-opacity:1" />
    <path
       style="fill:#008000;stroke:none;stroke-width:0.78924608px;stroke-linecap:butt;stroke-linejoin:miter;stroke-opacity:1"
       d="m -3.2983555,52.210426 c 0,0 -172.5066445,14.657427 -172.5066445,33.824833 0,19.167411 172.5066445,-33.824833 172.5066445,-33.824833 z"
       id="path3867"
       inkscape:connector-curvature="0"
       sodipodi:nodetypes="csc" />
    <path
       inkscape:connector-curvature="0"
       id="path3875"
       d="m -113.79281,-60.539015 c 0,0 110.4944585,16.912416 110.4944585,36.079821 0,19.1674051 -110.4944585,-36.079821 -110.4944585,-36.079821 z"
       style="fill:#800066;stroke:none;stroke-width:0.78924608px;stroke-linecap:butt;stroke-linejoin:miter;stroke-opacity:1" />
    <path
       style="fill:#800066;stroke:none;stroke-width:0.78924608px;stroke-linecap:butt;stroke-linejoin:miter;stroke-opacity:1"
       d="m -3.2983515,1.4731772 c 0,0 -110.4944585,16.9124158 -110.4944585,36.0798208 0,19.167405 110.4944585,-36.0798208 110.4944585,-36.0798208 z"
       id="path3877"
       inkscape:connector-curvature="0" />
    <path
       sodipodi:nodetypes="csc"
       inkscape:connector-curvature="0"
       id="path3879"
       d="m -181.44247,52.210426 c 0,0 172.5066425,14.657427 172.5066425,33.824833 0,19.167411 -172.5066425,-33.824833 -172.5066425,-33.824833 z"
       style="fill:#800066;stroke:none;stroke-width:0.78924608px;stroke-linecap:butt;stroke-linejoin:miter;stroke-opacity:1" />
    <path
       style="fill:#a05a2c;fill-opacity:1;stroke:none;stroke-width:0.78924608px;stroke-linecap:butt;stroke-linejoin:miter;stroke-opacity:1"
       d="m -120.65567,20.572819 c 0,0 -66.40311,22.27823 -96.36068,39.923339 -18.86315,11.110457 -51.40457,40.876832 -51.40457,40.876832 l -18.97417,0.72036 c 0,0 49.35966,-41.696982 59.90671,-48.832913 24.64616,-16.675106 106.83271,-32.687618 106.83271,-32.687618 z"
       id="path3881"
       inkscape:connector-curvature="0"
       sodipodi:nodetypes="csccsc" />
    <path
       sodipodi:nodetypes="csccsc"
       inkscape:connector-curvature="0"
       id="path3883"
       d="m -173.27476,64.422062 c 0,0 9.33649,-0.842281 -20.62108,16.802828 -18.86315,11.110458 -51.40457,21.74262 -51.40457,21.74262 l -18.97418,0.72036 c 0,0 50.15693,-22.56277 60.70398,-29.698701 24.64616,-16.675106 30.29585,-9.567107 30.29585,-9.567107 z"
       style="fill:#a05a2c;fill-opacity:1;stroke:none;stroke-width:0.78924608px;stroke-linecap:butt;stroke-linejoin:miter;stroke-opacity:1" />
    <path
       style="fill:#a05a2c;fill-opacity:1;stroke:none;stroke-width:0.78924608px;stroke-linecap:butt;stroke-linejoin:miter;stroke-opacity:1"
       d="m -158.12685,73.19191 c 0,0 31.65975,-10.409388 1.70218,7.235721 -18.86315,11.110458 -51.40457,21.742619 -51.40457,21.742619 l -18.97417,0.72036 c 0,0 50.15692,-22.562769 60.70397,-29.6987 24.64616,-16.675106 7.97259,0 7.97259,0 z"
       id="path3885"
       inkscape:connector-curvature="0"
       sodipodi:nodetypes="csccsc" />
    <g
       id="g3895"
       transform="matrix(-0.84186249,0,0,0.84186249,-9.1761775,16.396942)">
      <rect
         style="opacity:1;fill:#a05a2c;fill-opacity:1;stroke:none;stroke-width:0;stroke-linecap:round;stroke-miterlimit:4;stroke-dasharray:none;stroke-dashoffset:0;stroke-opacity:1"
         id="rect3887"
         width="134.77449"
         height="182.74507"
         x="-150.92583"
         y="-123.8779" />
      <ellipse
         style="opacity:1;fill:#a05a2c;fill-opacity:1;stroke:none;stroke-width:0;stroke-linecap:round;stroke-miterlimit:4;stroke-dasharray:none;stroke-dashoffset:0;stroke-opacity:1"
         id="ellipse3889"
         cx="-125.22729"
         cy="52.585312"
         rx="105.64948"
         ry="49.683815" />
      <rect
         style="opacity:1;fill:#a05a2c;fill-opacity:1;stroke:none;stroke-width:0;stroke-linecap:round;stroke-miterlimit:4;stroke-dasharray:none;stroke-dashoffset:0;stroke-opacity:1"
         id="rect3891"
         width="163.3284"
         height="77.666656"
         x="-179.45676"
         y="24.602474" />
      <rect
         y="48.587765"
         x="-230.87677"
         height="53.681366"
         width="163.3284"
         id="rect3893"
         style="opacity:1;fill:#a05a2c;fill-opacity:1;stroke:none;stroke-width:0;stroke-linecap:round;stroke-miterlimit:4;stroke-dasharray:none;stroke-dashoffset:0;stroke-opacity:1" />
    </g>
    <path
       inkscape:connector-curvature="0"
       id="path3897"
       d="m 6.6087435,-60.539015 c 0,0 110.4944465,16.912416 110.4944465,36.079821 0,19.1674051 -110.4944465,-36.079821 -110.4944465,-36.079821 z"
       style="fill:#008000;stroke:none;stroke-width:0.78924608px;stroke-linecap:butt;stroke-linejoin:miter;stroke-opacity:1" />
    <path
       style="fill:#008000;stroke:none;stroke-width:0.78924608px;stroke-linecap:butt;stroke-linejoin:miter;stroke-opacity:1"
       d="m 117.10319,1.4731772 c 0,0 -110.4944465,16.9124158 -110.4944465,36.0798208 0,19.167405 110.4944465,-36.0798208 110.4944465,-36.0798208 z"
       id="path3899"
       inkscape:connector-curvature="0" />
    <path
       sodipodi:nodetypes="csc"
       inkscape:connector-curvature="0"
       id="path3901"
       d="m 6.6087435,52.210426 c 0,0 172.5066365,14.657427 172.5066365,33.824833 0,19.167411 -172.5066365,-33.824833 -172.5066365,-33.824833 z"
       style="fill:#008000;stroke:none;stroke-width:0.78924608px;stroke-linecap:butt;stroke-linejoin:miter;stroke-opacity:1" />
    <path
       style="fill:#800066;stroke:none;stroke-width:0.78924608px;stroke-linecap:butt;stroke-linejoin:miter;stroke-opacity:1"
       d="m 117.10319,-60.539015 c 0,0 -110.4944465,16.912416 -110.4944465,36.079821 0,19.1674051 110.4944465,-36.079821 110.4944465,-36.079821 z"
       id="path3903"
       inkscape:connector-curvature="0" />
    <path
       inkscape:connector-curvature="0"
       id="path3905"
       d="m 6.6087435,1.4731772 c 0,0 110.4944465,16.9124158 110.4944465,36.0798208 0,19.167405 -110.4944465,-36.0798208 -110.4944465,-36.0798208 z"
       style="fill:#800066;stroke:none;stroke-width:0.78924608px;stroke-linecap:butt;stroke-linejoin:miter;stroke-opacity:1" />
    <path
       style="fill:#800066;stroke:none;stroke-width:0.78924608px;stroke-linecap:butt;stroke-linejoin:miter;stroke-opacity:1"
       d="m 184.75285,52.210426 c 0,0 -172.506634,14.657427 -172.506634,33.824833 0,19.167411 172.506634,-33.824833 172.506634,-33.824833 z"
       id="path3907"
       inkscape:connector-curvature="0"
       sodipodi:nodetypes="csc" />
    <path
       sodipodi:nodetypes="csccsc"
       inkscape:connector-curvature="0"
       id="path3909"
       d="m 123.96605,20.572819 c 0,0 66.40311,22.27823 96.36069,39.923339 18.86315,11.110457 51.40457,40.876832 51.40457,40.876832 l 18.97417,0.72036 c 0,0 -49.35966,-41.696982 -59.90672,-48.832913 C 206.1526,36.585331 123.96605,20.572819 123.96605,20.572819 Z"
       style="fill:#a05a2c;fill-opacity:1;stroke:none;stroke-width:0.78924608px;stroke-linecap:butt;stroke-linejoin:miter;stroke-opacity:1" />
    <path
       style="fill:#a05a2c;fill-opacity:1;stroke:none;stroke-width:0.78924608px;stroke-linecap:butt;stroke-linejoin:miter;stroke-opacity:1"
       d="m 176.58514,64.422062 c 0,0 -9.33649,-0.842281 20.62108,16.802828 18.86315,11.110458 51.40458,21.74262 51.40458,21.74262 l 18.97417,0.72036 c 0,0 -50.15693,-22.56277 -60.70398,-29.698701 -24.64616,-16.675106 -30.29585,-9.567107 -30.29585,-9.567107 z"
       id="path3911"
       inkscape:connector-curvature="0"
       sodipodi:nodetypes="csccsc" />
    <path
       sodipodi:nodetypes="csccsc"
       inkscape:connector-curvature="0"
       id="path3913"
       d="m 161.43723,73.19191 c 0,0 -31.65975,-10.409388 -1.70218,7.235721 18.86315,11.110458 51.40457,21.742619 51.40457,21.742619 l 18.97418,0.72036 c 0,0 -50.15693,-22.562769 -60.70399,-29.6987 -24.64615,-16.675106 -7.97258,0 -7.97258,0 z"
       style="fill:#a05a2c;fill-opacity:1;stroke:none;stroke-width:0.78924608px;stroke-linecap:butt;stroke-linejoin:miter;stroke-opacity:1" />
  </g>
</svg>
