<?xml version="1.0" encoding="UTF-8" standalone="no"?>
<!-- Created with Inkscape (http://www.inkscape.org/) -->

<svg
   xmlns:dc="http://purl.org/dc/elements/1.1/"
   xmlns:cc="http://creativecommons.org/ns#"
   xmlns:rdf="http://www.w3.org/1999/02/22-rdf-syntax-ns#"
   xmlns:svg="http://www.w3.org/2000/svg"
   xmlns="http://www.w3.org/2000/svg"
   xmlns:sodipodi="http://sodipodi.sourceforge.net/DTD/sodipodi-0.dtd"
   xmlns:inkscape="http://www.inkscape.org/namespaces/inkscape"
   width="210mm"
   height="297mm"
   viewBox="0 0 744.09448819 1052.3622047"
   id="svg4300"
   version="1.1"
   inkscape:version="0.91 r13725"
   sodipodi:docname="clothTunic.svg">
  <defs
     id="defs4302" />
  <sodipodi:namedview
     id="base"
     pagecolor="#ffffff"
     bordercolor="#666666"
     borderopacity="1.0"
     inkscape:pageopacity="0.0"
     inkscape:pageshadow="2"
     inkscape:zoom="0.7"
     inkscape:cx="107.18622"
     inkscape:cy="1019.4589"
     inkscape:document-units="px"
     inkscape:current-layer="layer1"
     showgrid="false"
     inkscape:window-width="944"
     inkscape:window-height="1001"
     inkscape:window-x="0"
     inkscape:window-y="0"
     inkscape:window-maximized="0" />
  <metadata
     id="metadata4305">
    <rdf:RDF>
      <cc:Work
         rdf:about="">
        <dc:format>image/svg+xml</dc:format>
        <dc:type
           rdf:resource="http://purl.org/dc/dcmitype/StillImage" />
        <dc:title />
      </cc:Work>
    </rdf:RDF>
  </metadata>
  <g
     inkscape:label="Layer 1"
     inkscape:groupmode="layer"
     id="layer1">
    <ellipse
       style="opacity:1;fill:#a6b277;fill-opacity:1;stroke:none;stroke-width:0;stroke-linecap:round;stroke-miterlimit:4;stroke-dasharray:none;stroke-dashoffset:0;stroke-opacity:1"
       id="path3357"
       cx="1.0101629"
       cy="-89.61525"
       rx="73.741135"
       ry="28.789347" />
    <rect
       style="opacity:1;fill:#c1c792;fill-opacity:1;stroke:none;stroke-width:0;stroke-linecap:round;stroke-miterlimit:4;stroke-dasharray:none;stroke-dashoffset:0;stroke-opacity:1"
       id="rect3359"
       width="182.85715"
       height="245.71428"
       x="-87.54895"
       y="-86.758904"
       ry="0" />
    <path
       style="fill:#c1c792;fill-rule:evenodd;stroke:none;stroke-width:1px;stroke-linecap:butt;stroke-linejoin:miter;stroke-opacity:1;fill-opacity:1"
       d="m 3.0304548,-85.069562 c 0,0 -54.8117498,-5.050762 -46.3791798,-22.223358 8.43258,-17.17259 -50.59546,-16.16244 -50.59546,-16.16244 l 6.32443,37.375646 z"
       id="path3361"
       inkscape:connector-curvature="0" />
    <path
       inkscape:connector-curvature="0"
       id="path3363"
       d="m 3.0304548,-85.069562 c 0,0 54.8117502,-5.050762 46.3791802,-22.223358 -8.43258,-17.17259 50.595455,-16.16244 50.595455,-16.16244 l -6.324425,37.375646 z"
       style="fill:#c1c792;fill-rule:evenodd;stroke:none;stroke-width:1px;stroke-linecap:butt;stroke-linejoin:miter;stroke-opacity:1;fill-opacity:1" />
    <rect
       style="opacity:1;fill:#c1c792;fill-opacity:1;stroke:none;stroke-width:0;stroke-linecap:round;stroke-miterlimit:4;stroke-dasharray:none;stroke-dashoffset:0;stroke-opacity:1"
       id="rect3365"
       width="138.3909"
       height="55.558392"
       x="-119.04218"
       y="-154.36104"
       transform="matrix(0.70710678,-0.70710678,0.70710678,0.70710678,0,0)" />
    <rect
       transform="matrix(-0.70710678,-0.70710678,-0.70710678,0.70710678,0,0)"
       y="-157.93246"
       x="-122.61362"
       height="55.558392"
       width="138.3909"
       id="rect3367"
       style="opacity:1;fill:#c1c792;fill-opacity:1;stroke:none;stroke-width:0;stroke-linecap:round;stroke-miterlimit:4;stroke-dasharray:none;stroke-dashoffset:0;stroke-opacity:1" />
    <path
       style="fill:#decdb8;fill-rule:evenodd;stroke:none;stroke-width:1px;stroke-linecap:butt;stroke-linejoin:miter;stroke-opacity:1;fill-opacity:1"
       d="M -86.873119,-3.2472057 -47.47717,15.945693 c 0,0 40.4061022,24.243661 90.913729,1.010152 50.507628,-23.2335084 51.51778,-21.2132033 51.51778,-21.2132033 l 0.252539,-5.303302 c 0,0 -72.478446,30.0520393 -94.1967255,29.5469623 C -20.708127,19.481226 -87.678572,-6.3877981 -87.678572,-6.3877981 Z"
       id="path3369"
       inkscape:connector-curvature="0" />
    <path
       inkscape:connector-curvature="0"
       id="path3371"
       d="m -86.873119,22.46708 39.395949,19.192899 c 0,0 40.4061022,24.243661 90.913729,1.010152 50.507628,-23.233509 51.51778,-21.213204 51.51778,-21.213204 l 0.252539,-5.303302 c 0,0 -72.478446,30.05204 -94.1967255,29.546963 -21.7182795,-0.505076 -88.6887245,-26.3741 -88.6887245,-26.3741 z"
       style="fill:#decdb8;fill-rule:evenodd;stroke:none;stroke-width:1px;stroke-linecap:butt;stroke-linejoin:miter;stroke-opacity:1;fill-opacity:1" />
    <path
       style="fill:#decdb8;fill-rule:evenodd;stroke:none;stroke-width:1px;stroke-linecap:butt;stroke-linejoin:miter;stroke-opacity:1;fill-opacity:1"
       d="m -86.873119,48.181366 39.395949,19.192899 c 0,0 40.4061022,24.243661 90.913729,1.010152 50.507628,-23.233509 51.51778,-21.213204 51.51778,-21.213204 l 0.252539,-5.303302 c 0,0 -72.478446,30.05204 -94.1967255,29.546963 -21.7182795,-0.505076 -88.6887245,-26.3741 -88.6887245,-26.3741 z"
       id="path3373"
       inkscape:connector-curvature="0" />
  </g>
</svg>
