<?xml version="1.0" encoding="UTF-8" standalone="no"?>
<!-- Created with Inkscape (http://www.inkscape.org/) -->

<svg
   xmlns:dc="http://purl.org/dc/elements/1.1/"
   xmlns:cc="http://creativecommons.org/ns#"
   xmlns:rdf="http://www.w3.org/1999/02/22-rdf-syntax-ns#"
   xmlns:svg="http://www.w3.org/2000/svg"
   xmlns="http://www.w3.org/2000/svg"
   xmlns:sodipodi="http://sodipodi.sourceforge.net/DTD/sodipodi-0.dtd"
   xmlns:inkscape="http://www.inkscape.org/namespaces/inkscape"
   width="210mm"
   height="297mm"
   viewBox="0 0 744.09448819 1052.3622047"
   id="svg4300"
   version="1.1"
   inkscape:version="0.91 r13725"
   sodipodi:docname="crystalrobe.svg">
  <defs
     id="defs4302" />
  <sodipodi:namedview
     id="base"
     pagecolor="#ffffff"
     bordercolor="#666666"
     borderopacity="1.0"
     inkscape:pageopacity="0.0"
     inkscape:pageshadow="2"
     inkscape:zoom="0.49497475"
     inkscape:cx="136.64581"
     inkscape:cy="1114.0886"
     inkscape:document-units="px"
     inkscape:current-layer="layer1"
     showgrid="false"
     inkscape:window-width="944"
     inkscape:window-height="1001"
     inkscape:window-x="0"
     inkscape:window-y="0"
     inkscape:window-maximized="0" />
  <metadata
     id="metadata4305">
    <rdf:RDF>
      <cc:Work
         rdf:about="">
        <dc:format>image/svg+xml</dc:format>
        <dc:type
           rdf:resource="http://purl.org/dc/dcmitype/StillImage" />
        <dc:title />
      </cc:Work>
    </rdf:RDF>
  </metadata>
  <g
     inkscape:label="Layer 1"
     inkscape:groupmode="layer"
     id="layer1">
    <ellipse
       style="opacity:1;fill:#800080;fill-opacity:1;stroke:none;stroke-width:0;stroke-linecap:round;stroke-miterlimit:4;stroke-dasharray:none;stroke-dashoffset:0;stroke-opacity:1"
       id="path3357"
       cx="1.833304"
       cy="-130.02504"
       rx="68.487541"
       ry="26.738285" />
    <path
       style="fill:#5d536c;fill-opacity:1;fill-rule:evenodd;stroke:none;stroke-width:1px;stroke-linecap:butt;stroke-linejoin:miter;stroke-opacity:1"
       d="m -71.572895,-132.66037 139.4769,0 37.395985,290.83751 -209.21537,0 z"
       id="path3388"
       inkscape:connector-curvature="0" />
    <path
       inkscape:connector-curvature="0"
       id="path3394"
       d="m 2.694922,-122.15452 c 0,0 -50.906755,-4.69092 -43.074953,-20.64008 7.831811,-15.94915 -46.99085,-15.01097 -46.99085,-15.01097 l 5.873854,34.71287 z"
       style="fill:#5d536c;fill-opacity:1;fill-rule:evenodd;stroke:none;stroke-width:1px;stroke-linecap:butt;stroke-linejoin:miter;stroke-opacity:1" />
    <path
       style="fill:#5d536c;fill-opacity:1;fill-rule:evenodd;stroke:none;stroke-width:1px;stroke-linecap:butt;stroke-linejoin:miter;stroke-opacity:1"
       d="m 2.694922,-122.15452 c 0,0 50.906757,-4.69092 43.074954,-20.64008 -7.831811,-15.94915 46.990838,-15.01097 46.990838,-15.01097 l -5.873841,34.71287 z"
       id="path3396"
       inkscape:connector-curvature="0" />
    <rect
       transform="matrix(0.70710678,-0.70710678,0.70710678,0.70710678,0,0)"
       y="-173.50087"
       x="-78.768951"
       height="51.600204"
       width="128.53142"
       id="rect3398"
       style="opacity:1;fill:#5d536c;fill-opacity:1;stroke:none;stroke-width:0;stroke-linecap:round;stroke-miterlimit:4;stroke-dasharray:none;stroke-dashoffset:0;stroke-opacity:1" />
    <path
       inkscape:connector-curvature="0"
       id="path3400"
       d="m -95.304829,83.864379 41.162172,17.825521 c 0,0 42.217628,22.51646 94.989652,0.9382 52.77202,-21.578272 53.827458,-19.701906 53.827458,-19.701906 l 0.263869,-4.925473 c 0,0 -75.727847,27.911019 -98.4198245,27.441929 C -26.173469,104.97356 -96.146409,80.947535 -96.146409,80.947535 Z"
       style="fill:#00aad4;fill-opacity:1;fill-rule:evenodd;stroke:none;stroke-width:1px;stroke-linecap:butt;stroke-linejoin:miter;stroke-opacity:1" />
    <path
       inkscape:connector-curvature="0"
       id="path3402"
       d="m -97.262889,111.72707 42.734129,17.82552 c 0,0 43.829893,22.51645 98.617235,0.93819 54.787337,-21.57826 55.883084,-19.7019 55.883084,-19.7019 l 0.273931,-4.92547 c 0,0 -78.619831,27.91102 -102.1783835,27.44192 -23.5585615,-0.46908 -96.2036955,-24.49511 -96.2036955,-24.49511 z"
       style="fill:#00aad4;fill-opacity:1;fill-rule:evenodd;stroke:none;stroke-width:1px;stroke-linecap:butt;stroke-linejoin:miter;stroke-opacity:1" />
    <rect
       style="opacity:1;fill:#5d536c;fill-opacity:1;stroke:none;stroke-width:0;stroke-linecap:round;stroke-miterlimit:4;stroke-dasharray:none;stroke-dashoffset:0;stroke-opacity:1"
       id="rect3404"
       width="128.53142"
       height="51.600204"
       x="-61.526203"
       y="-178.37558"
       transform="matrix(0,-1,1,0,0,0)" />
    <path
       sodipodi:nodetypes="ccccccc"
       inkscape:connector-curvature="0"
       id="path3406"
       d="m -140.54366,-1.1861647 0,17.4521747 -12.42904,10.625864 -15.49522,-9.652611 0,-19.4558177 15.22814,-8.7919693 z"
       style="fill:#00ccff;fill-rule:evenodd;stroke:none;stroke-width:1px;stroke-linecap:butt;stroke-linejoin:miter;stroke-opacity:1" />
    <path
       style="fill:#00ccff;fill-rule:evenodd;stroke:none;stroke-width:1px;stroke-linecap:butt;stroke-linejoin:miter;stroke-opacity:1"
       d="m -134.57308,-66.8625 0,17.452175 -12.42905,10.625863 -15.49522,-9.65261 0,-19.455818 15.22814,-8.791969 z"
       id="path3408"
       inkscape:connector-curvature="0"
       sodipodi:nodetypes="ccccccc" />
    <path
       sodipodi:nodetypes="ccccccc"
       inkscape:connector-curvature="0"
       id="path3410"
       d="m -92.115649,-115.9539 0,17.452173 -12.429051,10.625862 -15.49522,-9.652609 0,-19.455816 15.22813,-8.79197 z"
       style="fill:#00ccff;fill-rule:evenodd;stroke:none;stroke-width:1px;stroke-linecap:butt;stroke-linejoin:miter;stroke-opacity:1" />
    <rect
       style="opacity:1;fill:#5d536c;fill-opacity:1;stroke:none;stroke-width:0;stroke-linecap:round;stroke-miterlimit:4;stroke-dasharray:none;stroke-dashoffset:0;stroke-opacity:1"
       id="rect3412"
       width="128.53142"
       height="51.600204"
       x="-82.858337"
       y="-177.12115"
       transform="matrix(-0.70710678,-0.70710678,-0.70710678,0.70710678,0,0)" />
    <rect
       transform="matrix(0,-1,-1,0,0,0)"
       y="-183.82715"
       x="-61.857899"
       height="51.600204"
       width="128.53142"
       id="rect3414"
       style="opacity:1;fill:#5d536c;fill-opacity:1;stroke:none;stroke-width:0;stroke-linecap:round;stroke-miterlimit:4;stroke-dasharray:none;stroke-dashoffset:0;stroke-opacity:1" />
    <path
       style="fill:#00ccff;fill-rule:evenodd;stroke:none;stroke-width:1px;stroke-linecap:butt;stroke-linejoin:miter;stroke-opacity:1"
       d="m 145.99522,-0.85446571 0,17.45217471 12.42904,10.625863 15.49522,-9.65261 0,-19.4558177 -15.22813,-8.7919693 z"
       id="path3416"
       inkscape:connector-curvature="0"
       sodipodi:nodetypes="ccccccc" />
    <path
       sodipodi:nodetypes="ccccccc"
       inkscape:connector-curvature="0"
       id="path3418"
       d="m 140.02465,-66.530801 0,17.452175 12.42904,10.625863 15.49522,-9.65261 0,-19.455818 -15.22814,-8.791969 z"
       style="fill:#00ccff;fill-rule:evenodd;stroke:none;stroke-width:1px;stroke-linecap:butt;stroke-linejoin:miter;stroke-opacity:1" />
    <path
       style="fill:#00ccff;fill-rule:evenodd;stroke:none;stroke-width:1px;stroke-linecap:butt;stroke-linejoin:miter;stroke-opacity:1"
       d="m 97.567213,-115.6222 0,17.452172 12.429057,10.625862 15.49522,-9.652609 0,-19.455815 -15.22814,-8.79197 z"
       id="path3420"
       inkscape:connector-curvature="0"
       sodipodi:nodetypes="ccccccc" />
    <path
       inkscape:connector-curvature="0"
       id="path3422"
       d="m -74.274786,-110.4272 31.444659,17.825524 c 0,0 32.250949,22.516451 72.564627,0.938193 40.313678,-21.578267 41.11995,-19.701897 41.11995,-19.701897 l 0.201568,-4.92548 c 0,0 -57.850129,27.911022 -75.1850025,27.441926 -17.3348825,-0.469087 -70.7886965,-24.495106 -70.7886965,-24.495106 z"
       style="fill:#00aad4;fill-opacity:1;fill-rule:evenodd;stroke:none;stroke-width:1px;stroke-linecap:butt;stroke-linejoin:miter;stroke-opacity:1" />
    <path
       style="fill:#00aad4;fill-opacity:1;fill-rule:evenodd;stroke:none;stroke-width:1px;stroke-linecap:butt;stroke-linejoin:miter;stroke-opacity:1"
       d="m -75.578212,-78.584126 32.587902,17.825527 c 0,0 33.4234945,22.516451 75.202862,0.938183 41.779367,-21.578268 42.61495,-19.701893 42.61495,-19.701893 l 0.208905,-4.925473 c 0,0 -59.95339,27.911021 -77.9185175,27.441924 -17.9651365,-0.469096 -73.3623635,-24.49511 -73.3623635,-24.49511 z"
       id="path3424"
       inkscape:connector-curvature="0" />
    <path
       sodipodi:nodetypes="ccccccc"
       inkscape:connector-curvature="0"
       id="path3426"
       d="m -15.015038,-95.920308 0,17.452175 12.4290515,10.625862 15.4952215,-9.652609 0,-19.455819 -15.2281385,-8.791971 z"
       style="fill:#00ccff;fill-rule:evenodd;stroke:none;stroke-width:1px;stroke-linecap:butt;stroke-linejoin:miter;stroke-opacity:1" />
    <path
       style="fill:#00ccff;fill-rule:evenodd;stroke:none;stroke-width:1px;stroke-linecap:butt;stroke-linejoin:miter;stroke-opacity:1"
       d="m -15.015038,-45.258291 0,17.452175 12.4290515,10.625862 15.4952215,-9.652609 0,-19.455818 -15.2281385,-8.79197 z"
       id="path3428"
       inkscape:connector-curvature="0"
       sodipodi:nodetypes="ccccccc" />
    <path
       sodipodi:nodetypes="ccccccc"
       inkscape:connector-curvature="0"
       id="path3430"
       d="m -15.015038,7.2800973 0,17.4521747 12.4290515,10.625862 15.4952215,-9.652609 0,-19.4558177 -15.2281385,-8.791969 z"
       style="fill:#00ccff;fill-rule:evenodd;stroke:none;stroke-width:1px;stroke-linecap:butt;stroke-linejoin:miter;stroke-opacity:1" />
    <path
       style="fill:#00ccff;fill-rule:evenodd;stroke:none;stroke-width:1px;stroke-linecap:butt;stroke-linejoin:miter;stroke-opacity:1"
       d="m -15.015038,55.127557 0,17.452172 12.4290515,10.625863 15.4952215,-9.65261 0,-19.455815 -15.2281385,-8.791969 z"
       id="path3432"
       inkscape:connector-curvature="0"
       sodipodi:nodetypes="ccccccc" />
    <path
       sodipodi:nodetypes="ccccccc"
       inkscape:connector-curvature="0"
       id="path3434"
       d="m -15.015038,108.86274 0,17.45217 12.4290515,10.62586 15.4952215,-9.65261 0,-19.45581 -15.2281385,-8.791971 z"
       style="fill:#00ccff;fill-rule:evenodd;stroke:none;stroke-width:1px;stroke-linecap:butt;stroke-linejoin:miter;stroke-opacity:1" />
    <path
       style="fill:#8787de;fill-rule:evenodd;stroke:none;stroke-width:1px;stroke-linecap:butt;stroke-linejoin:miter;stroke-opacity:1"
       d="m -46.323644,3.7725943 -17.452175,0 -10.625863,12.4290527 9.65261,15.49522 19.455818,0 8.791969,-15.228138 z"
       id="path3436"
       inkscape:connector-curvature="0"
       sodipodi:nodetypes="ccccccc" />
    <path
       sodipodi:nodetypes="ccccccc"
       inkscape:connector-curvature="0"
       id="path3438"
       d="m 62.473521,3.7725943 -17.452176,0 -10.625863,12.4290527 9.65261,15.49522 19.455819,0 8.791969,-15.228138 z"
       style="fill:#8787de;fill-rule:evenodd;stroke:none;stroke-width:1px;stroke-linecap:butt;stroke-linejoin:miter;stroke-opacity:1" />
  </g>
</svg>
