<?xml version="1.0" encoding="UTF-8" standalone="no"?>
<!-- Created with Inkscape (http://www.inkscape.org/) -->

<svg
   xmlns:dc="http://purl.org/dc/elements/1.1/"
   xmlns:cc="http://creativecommons.org/ns#"
   xmlns:rdf="http://www.w3.org/1999/02/22-rdf-syntax-ns#"
   xmlns:svg="http://www.w3.org/2000/svg"
   xmlns="http://www.w3.org/2000/svg"
   xmlns:sodipodi="http://sodipodi.sourceforge.net/DTD/sodipodi-0.dtd"
   xmlns:inkscape="http://www.inkscape.org/namespaces/inkscape"
   width="210mm"
   height="297mm"
   viewBox="0 0 744.09448819 1052.3622047"
   id="svg2"
   version="1.1"
   inkscape:version="0.92.2 (5c3e80d, 2017-08-06)"
   sodipodi:docname="energyStaff.svg">
  <defs
     id="defs4" />
  <sodipodi:namedview
     id="base"
     pagecolor="#ffffff"
     bordercolor="#666666"
     borderopacity="1.0"
     inkscape:pageopacity="0.0"
     inkscape:pageshadow="2"
     inkscape:zoom="0.7"
     inkscape:cx="-47.265941"
     inkscape:cy="1425.2787"
     inkscape:document-units="px"
     inkscape:current-layer="g3459"
     showgrid="false"
     inkscape:window-width="1920"
     inkscape:window-height="1017"
     inkscape:window-x="-8"
     inkscape:window-y="-8"
     inkscape:window-maximized="1" />
  <metadata
     id="metadata7">
    <rdf:RDF>
      <cc:Work
         rdf:about="">
        <dc:format>image/svg+xml</dc:format>
        <dc:type
           rdf:resource="http://purl.org/dc/dcmitype/StillImage" />
        <dc:title />
      </cc:Work>
    </rdf:RDF>
  </metadata>
  <g
     inkscape:label="Layer 1"
     inkscape:groupmode="layer"
     id="layer1">
    <g
       id="g4244"
       transform="matrix(10.463086,0,0,10.463086,-1852.4595,-1923.2476)">
      <circle
         style="opacity:1;fill:#ffff00;fill-opacity:1;stroke:none;stroke-width:0;stroke-linecap:round;stroke-miterlimit:4;stroke-dasharray:none;stroke-dashoffset:0;stroke-opacity:1"
         id="circle3373-7"
         cx="250.76984"
         cy="-5.287096"
         r="0.8446539"
         transform="matrix(0.70710678,0.70710678,-0.70710678,0.70710678,0,0)" />
      <circle
         r="6.0498705"
         cy="-12.489965"
         cx="255.02502"
         id="circle3384"
         style="opacity:1;fill:#decd87;fill-opacity:1;stroke:none;stroke-width:0;stroke-linecap:round;stroke-miterlimit:4;stroke-dasharray:none;stroke-dashoffset:0;stroke-opacity:1"
         transform="matrix(0.70710678,0.70710678,-0.70710678,0.70710678,0,0)" />
      <path
         inkscape:connector-curvature="0"
         id="path3386"
         d="m 184.0652,174.56053 c 0,0 -1.6428,-6.64939 -0.74317,-7.07965 0.89963,-0.43025 -4.06786,1.40811 -3.05089,3.12913 1.01696,1.72102 3.79406,3.95053 3.79406,3.95053 z"
         style="fill:#808000;fill-rule:evenodd;stroke:none;stroke-width:0.0955741px;stroke-linecap:butt;stroke-linejoin:miter;stroke-opacity:1" />
      <path
         style="fill:#808000;fill-rule:evenodd;stroke:none;stroke-width:0.0955741px;stroke-linecap:butt;stroke-linejoin:miter;stroke-opacity:1"
         d="m 186.23478,176.73011 c 0,0 6.64939,1.6428 7.07965,0.74316 0.43025,-0.89962 -1.40811,4.06787 -3.12913,3.0509 -1.72102,-1.01697 -3.95053,-3.79407 -3.95053,-3.79407 z"
         id="path3388"
         inkscape:connector-curvature="0" />
      <circle
         style="opacity:1;fill:#666666;fill-opacity:1;stroke:none;stroke-width:0;stroke-linecap:round;stroke-miterlimit:4;stroke-dasharray:none;stroke-dashoffset:0;stroke-opacity:1"
         id="circle3390"
         cx="255.16331"
         cy="-12.628253"
         r="5.0818472"
         transform="matrix(0.70710678,0.70710678,-0.70710678,0.70710678,0,0)" />
      <circle
         r="4.1414824"
         cy="-12.794201"
         cx="255.32925"
         id="circle3392"
         style="opacity:1;fill:#808080;fill-opacity:1;stroke:none;stroke-width:0;stroke-linecap:round;stroke-miterlimit:4;stroke-dasharray:none;stroke-dashoffset:0;stroke-opacity:1"
         transform="matrix(0.70710678,0.70710678,-0.70710678,0.70710678,0,0)" />
      <circle
         style="opacity:1;fill:#cccccc;fill-opacity:1;stroke:none;stroke-width:0;stroke-linecap:round;stroke-miterlimit:4;stroke-dasharray:none;stroke-dashoffset:0;stroke-opacity:1"
         id="circle3394"
         cx="255.27396"
         cy="-12.738885"
         r="3.1458015"
         transform="matrix(0.70710678,0.70710678,-0.70710678,0.70710678,0,0)" />
      <circle
         r="2.3160675"
         cy="-12.729409"
         cx="255.32314"
         id="circle3396"
         style="opacity:1;fill:#ffffff;fill-opacity:1;stroke:none;stroke-width:0;stroke-linecap:round;stroke-miterlimit:4;stroke-dasharray:none;stroke-dashoffset:0;stroke-opacity:1"
         transform="matrix(0.70710678,0.70710678,-0.70710678,0.70710678,0,0)" />
      <circle
         r="0.8446539"
         cy="-5.287096"
         cx="259.57001"
         id="circle3398"
         style="opacity:1;fill:#ffff00;fill-opacity:1;stroke:none;stroke-width:0;stroke-linecap:round;stroke-miterlimit:4;stroke-dasharray:none;stroke-dashoffset:0;stroke-opacity:1"
         transform="matrix(0.70710678,0.70710678,-0.70710678,0.70710678,0,0)" />
      <g
         id="g3459"
         style="fill:#d3bc5f">
        <rect
           transform="matrix(0.70710678,0.70710678,-0.70710678,0.70710678,0,0)"
           style="opacity:1;fill:#d3bc5f;fill-opacity:1;stroke:none;stroke-width:0;stroke-linecap:round;stroke-miterlimit:4;stroke-dasharray:none;stroke-dashoffset:0;stroke-opacity:1"
           id="rect3355-4"
           width="5.5405178"
           height="32.660564"
           x="252.36864"
           y="-6.8113904"
           rx="0.0047725351"
           ry="0.00053490099" />
        <path
           style="fill:#d3bc5f;fill-rule:evenodd;stroke:none;stroke-width:0.0955741px;stroke-linecap:butt;stroke-linejoin:miter;stroke-opacity:1"
           d="m 158.40401,195.73174 c 0,0 -0.10118,1.99951 1.142,2.47215 1.24316,0.47266 2.89565,0.45543 1.71479,-0.62556 -1.18086,-1.08098 -1.94412,-3.81137 -2.46777,-3.55419 -0.52363,0.25718 -0.389,1.70758 -0.389,1.70758 z"
           id="path3400"
           inkscape:connector-curvature="0" />
        <path
           inkscape:connector-curvature="0"
           id="path3402"
           d="m 165.1721,202.49984 c 0,0 -1.99951,0.10117 -2.47215,-1.14201 -0.47266,-1.24316 -0.45542,-2.89565 0.62556,-1.71479 1.08098,1.18087 3.81138,1.94412 3.55419,2.46777 -0.25718,0.52363 -1.70758,0.389 -1.70758,0.389 z"
           style="fill:#d3bc5f;fill-rule:evenodd;stroke:none;stroke-width:0.0955741px;stroke-linecap:butt;stroke-linejoin:miter;stroke-opacity:1" />
        <rect
           transform="matrix(0.70710678,0.70710678,-0.70710678,0.70710678,0,0)"
           style="opacity:1;fill:#d3bc5f;fill-opacity:1;stroke:none;stroke-width:0;stroke-linecap:round;stroke-miterlimit:4;stroke-dasharray:none;stroke-dashoffset:0;stroke-opacity:1"
           id="rect3404"
           width="4.4077206"
           height="1.3287981"
           x="253.08736"
           y="25.813997"
           rx="0.0004561308"
           ry="5.1122668e-005" />
      </g>
      <g
         id="g3465"
         transform="translate(0.06826755,0)"
         style="fill:#d4aa00">
        <path
           style="fill:#d4aa00;fill-rule:evenodd;stroke:none;stroke-width:0.0955741px;stroke-linecap:butt;stroke-linejoin:miter;stroke-opacity:1"
           d="m 171.27702,193.46043 -4.49437,-3.35792 -0.26752,0.28262 4.42643,3.41705 z"
           id="path3467"
           inkscape:connector-curvature="0" />
        <path
           style="fill:#d4aa00;fill-rule:evenodd;stroke:none;stroke-width:0.0955741px;stroke-linecap:butt;stroke-linejoin:miter;stroke-opacity:1"
           d="m 169.53975,195.1977 -4.49437,-3.35792 -0.26753,0.28263 4.42644,3.41704 z"
           id="path3469"
           inkscape:connector-curvature="0" />
        <path
           style="fill:#d4aa00;fill-rule:evenodd;stroke:none;stroke-width:0.0955741px;stroke-linecap:butt;stroke-linejoin:miter;stroke-opacity:1"
           d="m 167.87486,196.86259 -4.49437,-3.35792 -0.26752,0.28262 4.42643,3.41705 z"
           id="path3471"
           inkscape:connector-curvature="0" />
        <path
           style="fill:#d4aa00;fill-rule:evenodd;stroke:none;stroke-width:0.0955741px;stroke-linecap:butt;stroke-linejoin:miter;stroke-opacity:1"
           d="m 166.20997,198.52747 -4.49437,-3.35791 -0.26752,0.28262 4.42644,3.41705 z"
           id="path3473"
           inkscape:connector-curvature="0" />
        <path
           style="fill:#d4aa00;fill-rule:evenodd;stroke:none;stroke-width:0.0955741px;stroke-linecap:butt;stroke-linejoin:miter;stroke-opacity:1"
           d="m 164.93597,199.80147 -4.49437,-3.35791 -0.26752,0.28262 4.42644,3.41705 z"
           id="path3475"
           inkscape:connector-curvature="0" />
        <path
           sodipodi:nodetypes="cccccc"
           style="fill:#d4aa00;fill-rule:evenodd;stroke:none;stroke-width:0.0955741px;stroke-linecap:butt;stroke-linejoin:miter;stroke-opacity:1"
           d="m 172.06125,191.51568 -3.74401,-2.94776 -0.26752,0.28262 4.42644,3.41704 0.1774,-0.15034 z"
           id="path3477"
           inkscape:connector-curvature="0" />
        <path
           inkscape:connector-curvature="0"
           id="path3479"
           d="m 180.50793,184.22951 -4.49437,-3.35791 -0.26752,0.28262 4.42643,3.41705 z"
           style="fill:#d4aa00;fill-rule:evenodd;stroke:none;stroke-width:0.0955741px;stroke-linecap:butt;stroke-linejoin:miter;stroke-opacity:1" />
        <path
           inkscape:connector-curvature="0"
           id="path3481"
           d="m 178.77066,185.96679 -4.49437,-3.35792 -0.26752,0.28262 4.42643,3.41705 z"
           style="fill:#d4aa00;fill-rule:evenodd;stroke:none;stroke-width:0.0955741px;stroke-linecap:butt;stroke-linejoin:miter;stroke-opacity:1" />
        <path
           inkscape:connector-curvature="0"
           id="path3483"
           d="m 177.10577,187.63168 -4.49437,-3.35792 -0.26752,0.28262 4.42644,3.41705 z"
           style="fill:#d4aa00;fill-rule:evenodd;stroke:none;stroke-width:0.0955741px;stroke-linecap:butt;stroke-linejoin:miter;stroke-opacity:1" />
        <path
           inkscape:connector-curvature="0"
           id="path3485"
           d="m 175.44088,189.29656 -4.49437,-3.35791 -0.26752,0.28262 4.42644,3.41705 z"
           style="fill:#d4aa00;fill-rule:evenodd;stroke:none;stroke-width:0.0955741px;stroke-linecap:butt;stroke-linejoin:miter;stroke-opacity:1" />
        <path
           inkscape:connector-curvature="0"
           id="path3487"
           d="m 174.16689,190.57056 -4.49438,-3.35792 -0.26752,0.28263 4.42644,3.41705 z"
           style="fill:#d4aa00;fill-rule:evenodd;stroke:none;stroke-width:0.0955741px;stroke-linecap:butt;stroke-linejoin:miter;stroke-opacity:1" />
        <path
           inkscape:connector-curvature="0"
           id="path3489"
           d="m 181.29216,182.28477 -3.74401,-2.94776 -0.26752,0.28262 4.42644,3.41704 0.17741,-0.15034 z"
           style="fill:#d4aa00;fill-rule:evenodd;stroke:none;stroke-width:0.0955741px;stroke-linecap:butt;stroke-linejoin:miter;stroke-opacity:1"
           sodipodi:nodetypes="cccccc" />
        <path
           style="fill:#d4aa00;fill-rule:evenodd;stroke:none;stroke-width:0.0955741px;stroke-linecap:butt;stroke-linejoin:miter;stroke-opacity:1"
           d="m 186.18023,178.55722 -4.49438,-3.35792 -0.26752,0.28263 4.42644,3.41705 z"
           id="path3491"
           inkscape:connector-curvature="0" />
        <path
           style="fill:#d4aa00;fill-rule:evenodd;stroke:none;stroke-width:0.0955741px;stroke-linecap:butt;stroke-linejoin:miter;stroke-opacity:1"
           d="m 184.51534,180.22211 -4.49437,-3.35792 -0.26752,0.28262 4.42643,3.41705 z"
           id="path3493"
           inkscape:connector-curvature="0" />
        <path
           style="fill:#d4aa00;fill-rule:evenodd;stroke:none;stroke-width:0.0955741px;stroke-linecap:butt;stroke-linejoin:miter;stroke-opacity:1"
           d="m 183.24134,181.49611 -4.49437,-3.35792 -0.26752,0.28262 4.42643,3.41705 z"
           id="path3495"
           inkscape:connector-curvature="0" />
      </g>
    </g>
  </g>
</svg>
