<?xml version="1.0" encoding="UTF-8" standalone="no"?>
<!-- Created with Inkscape (http://www.inkscape.org/) -->

<svg
   xmlns:dc="http://purl.org/dc/elements/1.1/"
   xmlns:cc="http://creativecommons.org/ns#"
   xmlns:rdf="http://www.w3.org/1999/02/22-rdf-syntax-ns#"
   xmlns:svg="http://www.w3.org/2000/svg"
   xmlns="http://www.w3.org/2000/svg"
   xmlns:sodipodi="http://sodipodi.sourceforge.net/DTD/sodipodi-0.dtd"
   xmlns:inkscape="http://www.inkscape.org/namespaces/inkscape"
   width="210mm"
   height="297mm"
   viewBox="0 0 210 297"
   version="1.1"
   id="svg8"
   inkscape:version="0.92.2 (5c3e80d, 2017-08-06)"
   sodipodi:docname="fortressLeggings.svg">
  <defs
     id="defs2" />
  <sodipodi:namedview
     id="base"
     pagecolor="#ffffff"
     bordercolor="#666666"
     borderopacity="1.0"
     inkscape:pageopacity="0.0"
     inkscape:pageshadow="2"
     inkscape:zoom="0.175"
     inkscape:cx="-33.82518"
     inkscape:cy="1316.5155"
     inkscape:document-units="mm"
     inkscape:current-layer="layer1"
     showgrid="false"
     inkscape:window-width="1920"
     inkscape:window-height="1017"
     inkscape:window-x="-8"
     inkscape:window-y="-8"
     inkscape:window-maximized="1"
     inkscape:snap-global="false" />
  <metadata
     id="metadata5">
    <rdf:RDF>
      <cc:Work
         rdf:about="">
        <dc:format>image/svg+xml</dc:format>
        <dc:type
           rdf:resource="http://purl.org/dc/dcmitype/StillImage" />
        <dc:title />
      </cc:Work>
    </rdf:RDF>
  </metadata>
  <g
     inkscape:label="Layer 1"
     inkscape:groupmode="layer"
     id="layer1">
    <rect
       style="fill:#53536c;fill-opacity:1;stroke-width:0.74144864"
       id="rect3376"
       width="66.267593"
       height="156.18187"
       x="75.199089"
       y="-74.893532"
       transform="matrix(0,-1,1,0,0,0)" />
    <rect
       transform="matrix(0.98409217,0.17765869,0.17765869,-0.98409217,0,0)"
       y="-142.4586"
       x="-91.103493"
       height="234.74461"
       width="86.103691"
       id="rect3417"
       style="fill:#53536c;fill-opacity:1;stroke-width:0.74144864" />
    <path
       style="fill:#000000;fill-rule:evenodd;stroke:none;stroke-width:0.28222221px;stroke-linecap:butt;stroke-linejoin:miter;stroke-opacity:1"
       d="m -106.57741,93.877014 c 0,0 19.556042,36.192606 68.510402,17.463436 39.5613945,-15.135574 -32.240194,10.07506 -68.510402,-17.463436 z"
       id="path3414"
       inkscape:connector-curvature="0"
       sodipodi:nodetypes="csc" />
    <path
       sodipodi:nodetypes="csc"
       inkscape:connector-curvature="0"
       id="path3416"
       d="m -101.0486,60.518344 c 0,0 19.556048,36.192613 68.510408,17.463433 C 7.0232026,62.846206 -64.778386,88.056837 -101.0486,60.518344 Z"
       style="fill:#000000;fill-rule:evenodd;stroke:none;stroke-width:0.28222221px;stroke-linecap:butt;stroke-linejoin:miter;stroke-opacity:1" />
    <path
       style="fill:#000000;fill-rule:evenodd;stroke:none;stroke-width:0.28222221px;stroke-linecap:butt;stroke-linejoin:miter;stroke-opacity:1"
       d="m -93.809259,26.589498 c 0,0 19.556047,36.192614 68.510407,17.463434 39.561395,-15.135572 -32.240194,10.07506 -68.510407,-17.463434 z"
       id="path3418"
       inkscape:connector-curvature="0"
       sodipodi:nodetypes="csc" />
    <rect
       style="fill:#53536c;fill-opacity:1;stroke-width:0.74144864"
       id="rect3420"
       width="86.103691"
       height="234.74461"
       x="-93.213043"
       y="-142.83943"
       transform="matrix(-0.98409217,0.17765869,-0.17765869,-0.98409217,0,0)" />
    <path
       sodipodi:nodetypes="csc"
       inkscape:connector-curvature="0"
       id="path38"
       d="m -87.661683,-6.3996683 c 0,0 19.556042,36.1926063 68.510402,17.4634363 39.561395,-15.1355743 -32.240194,10.07506 -68.510402,-17.4634363 z"
       style="fill:#000000;fill-rule:evenodd;stroke:none;stroke-width:0.28222221px;stroke-linecap:butt;stroke-linejoin:miter;stroke-opacity:1" />
    <path
       style="fill:#000000;fill-rule:evenodd;stroke:none;stroke-width:0.28222221px;stroke-linecap:butt;stroke-linejoin:miter;stroke-opacity:1"
       d="m -82.132873,-39.758338 c 0,0 19.556048,36.1926127 68.510408,17.463433 39.561395,-15.135571 -32.240194,10.07506 -68.510408,-17.463433 z"
       id="path40"
       inkscape:connector-curvature="0"
       sodipodi:nodetypes="csc" />
    <path
       sodipodi:nodetypes="csc"
       inkscape:connector-curvature="0"
       id="path42"
       d="m -74.893532,-73.687184 c 0,0 19.556047,36.192614 68.5104072,17.463434 C 33.17827,-71.359322 -38.623319,-46.14869 -74.893532,-73.687184 Z"
       style="fill:#000000;fill-rule:evenodd;stroke:none;stroke-width:0.28222221px;stroke-linecap:butt;stroke-linejoin:miter;stroke-opacity:1" />
    <path
       sodipodi:nodetypes="csc"
       inkscape:connector-curvature="0"
       id="path44"
       d="m 110.24999,93.877014 c 0,0 -19.55604,36.192606 -68.5104,17.463436 -39.561399,-15.135574 32.240194,10.07506 68.5104,-17.463436 z"
       style="fill:#000000;fill-rule:evenodd;stroke:none;stroke-width:0.28222221px;stroke-linecap:butt;stroke-linejoin:miter;stroke-opacity:1" />
    <path
       style="fill:#000000;fill-rule:evenodd;stroke:none;stroke-width:0.28222221px;stroke-linecap:butt;stroke-linejoin:miter;stroke-opacity:1"
       d="m 104.72118,60.518344 c 0,0 -19.556046,36.192613 -68.510406,17.463433 -39.561393,-15.135571 32.240194,10.07506 68.510406,-17.463433 z"
       id="path46"
       inkscape:connector-curvature="0"
       sodipodi:nodetypes="csc" />
    <path
       sodipodi:nodetypes="csc"
       inkscape:connector-curvature="0"
       id="path48"
       d="m 97.481841,26.589498 c 0,0 -19.556047,36.192614 -68.510407,17.463434 -39.561393,-15.135572 32.240194,10.07506 68.510407,-17.463434 z"
       style="fill:#000000;fill-rule:evenodd;stroke:none;stroke-width:0.28222221px;stroke-linecap:butt;stroke-linejoin:miter;stroke-opacity:1" />
    <path
       style="fill:#000000;fill-rule:evenodd;stroke:none;stroke-width:0.28222221px;stroke-linecap:butt;stroke-linejoin:miter;stroke-opacity:1"
       d="m 91.334265,-6.3996683 c 0,0 -19.556042,36.1926063 -68.510402,17.4634363 -39.561392,-15.1355743 32.240194,10.07506 68.510402,-17.4634363 z"
       id="path50"
       inkscape:connector-curvature="0"
       sodipodi:nodetypes="csc" />
    <path
       sodipodi:nodetypes="csc"
       inkscape:connector-curvature="0"
       id="path52"
       d="m 85.805455,-39.758338 c 0,0 -19.556048,36.1926127 -68.510408,17.463433 -39.561396,-15.135571 32.240194,10.07506 68.510408,-17.463433 z"
       style="fill:#000000;fill-rule:evenodd;stroke:none;stroke-width:0.28222221px;stroke-linecap:butt;stroke-linejoin:miter;stroke-opacity:1" />
    <path
       style="fill:#000000;fill-rule:evenodd;stroke:none;stroke-width:0.28222221px;stroke-linecap:butt;stroke-linejoin:miter;stroke-opacity:1"
       d="m 78.566114,-73.687184 c 0,0 -19.556047,36.192614 -68.510407,17.463434 -39.561396,-15.135572 32.240194,10.07506 68.510407,-17.463434 z"
       id="path54"
       inkscape:connector-curvature="0"
       sodipodi:nodetypes="csc" />
    <path
       style="fill:#4d4d4d;stroke:none;stroke-width:0.13694286px;stroke-linecap:butt;stroke-linejoin:miter;stroke-opacity:1"
       d="m -73.171605,-140.00429 h 26.60604 c 0,0 -1.02782,37.48445 -14.29899,37.1692 -13.04756,-0.30994 -12.30705,-37.1692 -12.30705,-37.1692 z"
       id="path56"
       inkscape:connector-curvature="0"
       sodipodi:nodetypes="ccsc" />
    <path
       sodipodi:nodetypes="ccsc"
       inkscape:connector-curvature="0"
       id="path58"
       d="m -47.377512,-140.00429 h 26.60604 c 0,0 -1.02782,37.48445 -14.29899,37.1692 -13.04756,-0.30994 -12.30705,-37.1692 -12.30705,-37.1692 z"
       style="fill:#4d4d4d;stroke:none;stroke-width:0.13694286px;stroke-linecap:butt;stroke-linejoin:miter;stroke-opacity:1" />
    <path
       style="fill:#4d4d4d;stroke:none;stroke-width:0.13694286px;stroke-linecap:butt;stroke-linejoin:miter;stroke-opacity:1"
       d="M -23.851275,-140.00429 H 2.7547647 c 0,0 -1.02782,37.48445 -14.2989897,37.1692 -13.04756,-0.30994 -12.30705,-37.1692 -12.30705,-37.1692 z"
       id="path60"
       inkscape:connector-curvature="0"
       sodipodi:nodetypes="ccsc" />
    <path
       sodipodi:nodetypes="ccsc"
       inkscape:connector-curvature="0"
       id="path62"
       d="M 0.87374043,-140.00429 H 27.479779 c 0,0 -1.02782,37.48445 -14.298989,37.1692 -13.04755958,-0.30994 -12.30704957,-37.1692 -12.30704957,-37.1692 z"
       style="fill:#4d4d4d;stroke:none;stroke-width:0.13694286px;stroke-linecap:butt;stroke-linejoin:miter;stroke-opacity:1" />
    <path
       style="fill:#4d4d4d;stroke:none;stroke-width:0.13694286px;stroke-linecap:butt;stroke-linejoin:miter;stroke-opacity:1"
       d="m 27.202373,-140.00429 h 26.606039 c 0,0 -1.02782,37.48445 -14.298989,37.1692 -13.04756,-0.30994 -12.30705,-37.1692 -12.30705,-37.1692 z"
       id="path64"
       inkscape:connector-curvature="0"
       sodipodi:nodetypes="ccsc" />
    <path
       sodipodi:nodetypes="ccsc"
       inkscape:connector-curvature="0"
       id="path66"
       d="m 53.71443,-140.00429 h 26.606039 c 0,0 -1.02782,37.48445 -14.298989,37.1692 -13.04756,-0.30994 -12.30705,-37.1692 -12.30705,-37.1692 z"
       style="fill:#4d4d4d;stroke:none;stroke-width:0.13694286px;stroke-linecap:butt;stroke-linejoin:miter;stroke-opacity:1" />
    <path
       sodipodi:nodetypes="ccsc"
       inkscape:connector-curvature="0"
       id="path68"
       d="m -73.171605,-112.03405 h 26.60604 c 0,0 -1.02782,37.484448 -14.29899,37.169198 -13.04756,-0.30994 -12.30705,-37.169198 -12.30705,-37.169198 z"
       style="fill:#4d4d4d;stroke:none;stroke-width:0.13694286px;stroke-linecap:butt;stroke-linejoin:miter;stroke-opacity:1" />
    <path
       style="fill:#4d4d4d;stroke:none;stroke-width:0.13694286px;stroke-linecap:butt;stroke-linejoin:miter;stroke-opacity:1"
       d="m -47.377512,-112.03405 h 26.60604 c 0,0 -1.02782,37.484448 -14.29899,37.169198 -13.04756,-0.30994 -12.30705,-37.169198 -12.30705,-37.169198 z"
       id="path70"
       inkscape:connector-curvature="0"
       sodipodi:nodetypes="ccsc" />
    <path
       sodipodi:nodetypes="ccsc"
       inkscape:connector-curvature="0"
       id="path72"
       d="M -23.851275,-112.03405 H 2.7547647 c 0,0 -1.02782,37.484448 -14.2989897,37.169198 -13.04756,-0.30994 -12.30705,-37.169198 -12.30705,-37.169198 z"
       style="fill:#4d4d4d;stroke:none;stroke-width:0.13694286px;stroke-linecap:butt;stroke-linejoin:miter;stroke-opacity:1" />
    <path
       style="fill:#4d4d4d;stroke:none;stroke-width:0.13694286px;stroke-linecap:butt;stroke-linejoin:miter;stroke-opacity:1"
       d="M 0.87374043,-112.03405 H 27.479779 c 0,0 -1.02782,37.484448 -14.298989,37.169198 C 0.13323042,-75.174792 0.87374043,-112.03405 0.87374043,-112.03405 Z"
       id="path74"
       inkscape:connector-curvature="0"
       sodipodi:nodetypes="ccsc" />
    <path
       sodipodi:nodetypes="ccsc"
       inkscape:connector-curvature="0"
       id="path76"
       d="m 27.202373,-112.03405 h 26.606039 c 0,0 -1.02782,37.484448 -14.298989,37.169198 -13.04756,-0.30994 -12.30705,-37.169198 -12.30705,-37.169198 z"
       style="fill:#4d4d4d;stroke:none;stroke-width:0.13694286px;stroke-linecap:butt;stroke-linejoin:miter;stroke-opacity:1" />
    <path
       style="fill:#4d4d4d;stroke:none;stroke-width:0.13694286px;stroke-linecap:butt;stroke-linejoin:miter;stroke-opacity:1"
       d="m 53.71443,-112.03405 h 26.606039 c 0,0 -1.02782,37.484448 -14.298989,37.169198 -13.04756,-0.30994 -12.30705,-37.169198 -12.30705,-37.169198 z"
       id="path78"
       inkscape:connector-curvature="0"
       sodipodi:nodetypes="ccsc" />
  </g>
</svg>
