<?xml version="1.0" encoding="UTF-8" standalone="no"?>
<!-- Created with Inkscape (http://www.inkscape.org/) -->

<svg
   xmlns:dc="http://purl.org/dc/elements/1.1/"
   xmlns:cc="http://creativecommons.org/ns#"
   xmlns:rdf="http://www.w3.org/1999/02/22-rdf-syntax-ns#"
   xmlns:svg="http://www.w3.org/2000/svg"
   xmlns="http://www.w3.org/2000/svg"
   xmlns:sodipodi="http://sodipodi.sourceforge.net/DTD/sodipodi-0.dtd"
   xmlns:inkscape="http://www.inkscape.org/namespaces/inkscape"
   width="210mm"
   height="297mm"
   viewBox="0 0 744.09448819 1052.3622047"
   id="svg2"
   version="1.1"
   inkscape:version="0.91 r13725"
   sodipodi:docname="garen sword.svg">
  <defs
     id="defs4" />
  <sodipodi:namedview
     id="base"
     pagecolor="#ffffff"
     bordercolor="#666666"
     borderopacity="1.0"
     inkscape:pageopacity="0.0"
     inkscape:pageshadow="2"
     inkscape:zoom="0.35"
     inkscape:cx="-26.132153"
     inkscape:cy="1622.6103"
     inkscape:document-units="px"
     inkscape:current-layer="g4244"
     showgrid="false"
     inkscape:window-width="958"
     inkscape:window-height="1008"
     inkscape:window-x="953"
     inkscape:window-y="0"
     inkscape:window-maximized="0"
     inkscape:snap-global="false" />
  <metadata
     id="metadata7">
    <rdf:RDF>
      <cc:Work
         rdf:about="">
        <dc:format>image/svg+xml</dc:format>
        <dc:type
           rdf:resource="http://purl.org/dc/dcmitype/StillImage" />
        <dc:title />
      </cc:Work>
    </rdf:RDF>
  </metadata>
  <g
     inkscape:label="Layer 1"
     inkscape:groupmode="layer"
     id="layer1">
    <g
       id="g4244"
       transform="matrix(10.463086,0,0,10.463086,-1852.4595,-1923.2476)">
      <rect
         rx="1.0559866"
         ry="0.31780583"
         y="-255.8754"
         x="-30.57196"
         height="1.3466718"
         width="10.511251"
         id="rect4226-4"
         style="fill:#917c6f;fill-opacity:1;stroke:none;stroke-width:0;stroke-linecap:round;stroke-miterlimit:4;stroke-dasharray:none;stroke-dashoffset:0;stroke-opacity:1"
         transform="matrix(0.70710678,-0.70710678,-0.70710678,-0.70710678,0,0)" />
      <g
         id="g3391"
         transform="matrix(0.31495964,0.31495964,0.31495964,-0.31495964,78.232526,171.81673)">
        <g
           transform="translate(-0.13653443,0)"
           id="g3375">
          <path
             sodipodi:nodetypes="sccccscsscss"
             inkscape:connector-curvature="0"
             id="path3373"
             d="m 175.07258,101.43509 c -9.52613,0.59653 -15.22151,-6.758458 -15.22151,-6.758458 l -2.24015,7.577658 3.0443,-2.389352 1.436,3.072022 c 0,0 -3.61079,-0.57577 -4.4803,1.29707 -1.23828,2.66716 -3.15918,13.58519 -3.15918,13.58519 0,0 7.62128,-11.42164 12.34953,-11.60543 0.61385,-0.0239 1.25255,5.84623 1.37707,8.26128 0.32701,6.34251 4.82641,9.23913 4.82641,9.23913 0,0 4.35958,0.78995 5.29057,-1.28533 2.62691,-5.85571 1.2857,-21.27611 -3.22274,-20.99378 z"
             style="fill:#ffe680;fill-rule:evenodd;stroke:none;stroke-width:0.0955741px;stroke-linecap:butt;stroke-linejoin:miter;stroke-opacity:1" />
        </g>
        <g
           id="g3387"
           transform="matrix(-1,0,0,1,351.3234,0)">
          <path
             style="fill:#ffe680;fill-rule:evenodd;stroke:none;stroke-width:0.0955741px;stroke-linecap:butt;stroke-linejoin:miter;stroke-opacity:1"
             d="m 175.07258,101.43509 c -9.52613,0.59653 -15.22151,-6.758458 -15.22151,-6.758458 l -2.24015,7.577658 3.0443,-2.389352 1.436,3.072022 c 0,0 -3.61079,-0.57577 -4.4803,1.29707 -1.23828,2.66716 -3.15918,13.58519 -3.15918,13.58519 0,0 7.62128,-11.42164 12.34953,-11.60543 0.61385,-0.0239 1.25255,5.84623 1.37707,8.26128 0.32701,6.34251 4.82641,9.23913 4.82641,9.23913 0,0 4.35958,0.78995 5.29057,-1.28533 2.62691,-5.85571 1.2857,-21.27611 -3.22274,-20.99378 z"
             id="path3389"
             inkscape:connector-curvature="0"
             sodipodi:nodetypes="sccccscsscss" />
        </g>
      </g>
      <path
         inkscape:connector-curvature="0"
         id="path3407"
         d="m 158.62569,201.38818 c 0,0 -0.82804,-0.0335 -1.10159,0.22245 -0.65581,0.61353 -0.70779,2.59955 -0.70779,2.59955 0,0 1.97257,-0.20974 2.55934,-0.89748 0.23299,-0.27314 0.19191,-1.05981 0.19191,-1.05981 z"
         style="fill:#784421;fill-rule:evenodd;stroke:none;stroke-width:0.0955741px;stroke-linecap:butt;stroke-linejoin:miter;stroke-opacity:1"
         sodipodi:nodetypes="cscscc" />
      <ellipse
         style="opacity:1;fill:#550000;fill-opacity:1;stroke:none;stroke-width:0;stroke-linecap:round;stroke-miterlimit:4;stroke-dasharray:none;stroke-dashoffset:0;stroke-opacity:1"
         id="ellipse3379"
         cx="255.08904"
         cy="-15.955073"
         rx="3.107223"
         ry="4.2994418"
         transform="matrix(0.70710678,0.70710678,0.70710678,-0.70710678,0,0)" />
      <ellipse
         ry="2.7437"
         rx="2.1290162"
         cy="-15.996234"
         cx="255.13396"
         id="ellipse3413"
         style="opacity:1;fill:#0000ff;fill-opacity:1;stroke:none;stroke-width:0;stroke-linecap:round;stroke-miterlimit:4;stroke-dasharray:none;stroke-dashoffset:0;stroke-opacity:1"
         transform="matrix(0.70710678,0.70710678,0.70710678,-0.70710678,0,0)" />
      <rect
         style="fill:#550000;stroke:none"
         id="rect3381"
         width="1.2470822"
         height="2.3651559"
         x="254.38176"
         y="-12.003205"
         rx="0.16209367"
         ry="0.067970395"
         transform="matrix(0.70710678,0.70710678,0.70710678,-0.70710678,0,0)" />
      <path
         style="fill:#cccccc;fill-rule:evenodd;stroke:none;stroke-width:0.08806175px;stroke-linecap:butt;stroke-linejoin:miter;stroke-opacity:1"
         d="m 173.57637,189.4118 0.60781,2.80575 2.53001,-0.50136 c 0,0 4.61217,-7.61647 7.71477,-10.77879 3.38232,-3.44743 11.63874,-8.57472 11.63874,-8.57472 l 1.17283,-8.97635 -8.66211,1.12786 c 0,0 -5.34806,8.47134 -8.89892,11.93175 -3.1033,3.02427 -10.59119,7.55836 -10.59119,7.55836 l -0.23128,2.82679 2.31521,0.18179 z"
         id="path3383"
         inkscape:connector-curvature="0"
         sodipodi:nodetypes="cccscccscccc" />
      <path
         sodipodi:nodetypes="cccscccscccc"
         inkscape:connector-curvature="0"
         id="path3385"
         d="m 173.14421,188.99308 0.57503,1.45023 1.45611,-0.25254 c 0,0 4.6079,-7.62073 7.72264,-10.7709 3.39554,-3.43423 11.63086,-8.58261 11.63086,-8.58261 l 0.43754,-5.06732 -4.80784,0.33782 c 0,0 -5.39207,8.42735 -8.92454,11.90615 -3.08723,3.04031 -10.56558,7.58394 -10.56558,7.58394 l -0.29531,1.40963 1.34367,0.56339 z"
         style="fill:#550000;fill-rule:evenodd;stroke:none;stroke-width:0.08806175px;stroke-linecap:butt;stroke-linejoin:miter;stroke-opacity:1" />
      <ellipse
         style="opacity:1;fill:#0000ff;fill-opacity:1;stroke:none;stroke-width:0;stroke-linecap:round;stroke-miterlimit:4;stroke-dasharray:none;stroke-dashoffset:0;stroke-opacity:1"
         id="ellipse3397"
         cx="255.05264"
         cy="-7.8256922"
         rx="1.1446394"
         ry="1.4751164"
         transform="matrix(0.70710678,0.70710678,0.70710678,-0.70710678,0,0)" />
    </g>
  </g>
</svg>
