<?xml version="1.0" encoding="UTF-8" standalone="no"?>
<!-- Created with Inkscape (http://www.inkscape.org/) -->

<svg
   xmlns:dc="http://purl.org/dc/elements/1.1/"
   xmlns:cc="http://creativecommons.org/ns#"
   xmlns:rdf="http://www.w3.org/1999/02/22-rdf-syntax-ns#"
   xmlns:svg="http://www.w3.org/2000/svg"
   xmlns="http://www.w3.org/2000/svg"
   xmlns:sodipodi="http://sodipodi.sourceforge.net/DTD/sodipodi-0.dtd"
   xmlns:inkscape="http://www.inkscape.org/namespaces/inkscape"
   width="210mm"
   height="297mm"
   viewBox="0 0 210 297"
   version="1.1"
   id="svg8"
   inkscape:version="0.92.2 (5c3e80d, 2017-08-06)"
   sodipodi:docname="spelltome.svg">
  <defs
     id="defs2">
    <pattern
       y="0"
       x="0"
       height="6"
       width="6"
       patternUnits="userSpaceOnUse"
       id="EMFhbasepattern" />
  </defs>
  <sodipodi:namedview
     id="base"
     pagecolor="#ffffff"
     bordercolor="#666666"
     borderopacity="1.0"
     inkscape:pageopacity="0.0"
     inkscape:pageshadow="2"
     inkscape:zoom="0.175"
     inkscape:cx="-3070.5463"
     inkscape:cy="1485.9978"
     inkscape:document-units="mm"
     inkscape:current-layer="layer1"
     showgrid="false"
     inkscape:window-width="1920"
     inkscape:window-height="1017"
     inkscape:window-x="-8"
     inkscape:window-y="-8"
     inkscape:window-maximized="1"
     inkscape:snap-global="false" />
  <metadata
     id="metadata5">
    <rdf:RDF>
      <cc:Work
         rdf:about="">
        <dc:format>image/svg+xml</dc:format>
        <dc:type
           rdf:resource="http://purl.org/dc/dcmitype/StillImage" />
        <dc:title />
      </cc:Work>
    </rdf:RDF>
  </metadata>
  <g
     inkscape:label="Layer 1"
     inkscape:groupmode="layer"
     id="layer1">
    <rect
       style="fill:#d38d5f;stroke-width:0.27292863"
       id="rect115"
       width="211.73726"
       height="296.65274"
       x="-103.90018"
       y="-149.53925" />
    <rect
       y="-149.53925"
       x="-100.04041"
       height="288.93314"
       width="202.36348"
       id="rect117"
       style="fill:#e9c6af;stroke-width:0.26332435" />
    <rect
       style="fill:#c87137;stroke-width:0.25613892"
       id="rect119"
       width="195.1953"
       height="283.41913"
       x="-103.90018"
       y="-149.53925" />
    <rect
       y="114.81161"
       x="-103.90018"
       height="32.324783"
       width="8.0401659"
       id="rect121"
       style="fill:#c87137;stroke-width:0.01755604" />
    <path
       style="fill:#ff00ff;stroke:none;stroke-width:0.27292863px;stroke-linecap:butt;stroke-linejoin:miter;stroke-opacity:1"
       d="m -97.121591,-33.780381 c 0,0 -5.848479,-30.996896 7.992901,-32.946387 3.899,-0.779794 7.40807,20.664599 7.40807,20.664599 0,0 4.28888,-17.545414 9.74746,-19.105005 13.64643,-2.339389 7.21313,31.971638 7.21313,31.971638 l -6.43335,-25.73327 c 0,0 -7.01817,23.393883 -10.91715,22.614087 -3.89897,-0.779794 -7.01816,-18.715107 -7.01816,-18.715107 z"
       id="path125"
       inkscape:connector-curvature="0"
       sodipodi:nodetypes="ccccccscc" />
    <path
       style="fill:#ff00ff;stroke:none;stroke-width:0.27292863px;stroke-linecap:butt;stroke-linejoin:miter;stroke-opacity:1"
       d="m -18.16723,-67.116662 c 0,0 29.632241,-1.559601 28.0726609,0.779793 -0.59464,5.785632 -8.96765996,1.559593 -8.96765996,5.458572 0,3.89898 0.26829996,21.195707 -18.08871094,22.523541 -23.04386,-6.529604 5.01732,-5.163279 9.3062104,-13.741036 C -4.0038091,-65.53037 -25.93152,-62.458469 -18.16723,-67.116662 Z"
       id="path129"
       inkscape:connector-curvature="0"
       sodipodi:nodetypes="ccsccc" />
    <path
       style="fill:#ff00ff;stroke:none;stroke-width:0.33492997px;stroke-linecap:butt;stroke-linejoin:miter;stroke-opacity:1"
       d="m 19.82231,-67.184886 c 0,0 19.11566,-2.537473 19.96149,0 0.84584,2.537476 -7.78159,4.398291 -7.78159,5.751613 0,1.353322 -3.21415,15.901525 0.33831,17.593178 3.5525,1.691652 20.13066,4.059965 2.70666,4.567461 -17.42402,0.507497 -18.9465,-1.353321 -13.02572,-3.044977 5.92079,-1.69165 4.73661,-20.29982 4.05996,-19.961487 -0.67666,0.338329 -13.0257,0.845825 -10.1499,-0.676663 2.87579,-1.522488 3.89079,-4.229125 3.89079,-4.229125 z"
       id="path131"
       inkscape:connector-curvature="0"
       sodipodi:nodetypes="csscssccc" />
    <path
       style="fill:#ff00ff;stroke:none;stroke-width:0.38302845px;stroke-linecap:butt;stroke-linejoin:miter;stroke-opacity:1"
       d="m 67.03892,-52.913298 c -3.67572,2.128041 -12.57484,11.027138 -11.80098,13.155182 0.77385,2.128045 11.26621,-7.654004 18.18511,-6.96451 4.83097,0.481427 10.25331,6.577593 11.41403,6.384137 1.16078,-0.193459 -9.28599,-13.34865 -7.35143,-14.122477 1.9346,-0.773842 12.7683,-17.41127 9.4795,-16.057073 -3.28879,1.354208 -12.76828,13.929027 -15.08977,11.220607 -2.32151,-2.708421 -17.4113,-11.607517 -16.8309,-8.899089 1.28247,7.208117 15.64789,12.379766 11.99444,15.283223 z"
       id="path133"
       inkscape:connector-curvature="0"
       sodipodi:nodetypes="ccscssccc" />
    <g
       id="g139"
       transform="matrix(1.0315414,0,0,1.0315414,423.97716,34.738822)">
      <path
         sodipodi:nodetypes="sscss"
         inkscape:connector-curvature="0"
         id="path127"
         d="m -463.77677,-67.369038 c -3.34585,-2.348597 4.53573,-30.994046 10.58333,-31.372021 6.04761,-0.377976 13.60715,27.214284 10.20535,30.238093 -3.40177,3.023809 -7.18153,-21.166666 -9.82736,-20.410714 -2.64583,0.755954 -5.84123,25.138656 -10.96132,21.544642 z"
         style="fill:#ff00ff;stroke:none;stroke-width:0.26458332px;stroke-linecap:butt;stroke-linejoin:miter;stroke-opacity:1" />
      <rect
         y="-83.244041"
         x="-457.35117"
         height="3.7797618"
         width="9.0714283"
         id="rect135"
         style="fill:#ff00ff;stroke:none;stroke-width:0.26458332" />
    </g>
  </g>
</svg>
