<?xml version="1.0" encoding="UTF-8" standalone="no"?>
<!-- Created with Inkscape (http://www.inkscape.org/) -->

<svg
   xmlns:dc="http://purl.org/dc/elements/1.1/"
   xmlns:cc="http://creativecommons.org/ns#"
   xmlns:rdf="http://www.w3.org/1999/02/22-rdf-syntax-ns#"
   xmlns:svg="http://www.w3.org/2000/svg"
   xmlns="http://www.w3.org/2000/svg"
   xmlns:sodipodi="http://sodipodi.sourceforge.net/DTD/sodipodi-0.dtd"
   xmlns:inkscape="http://www.inkscape.org/namespaces/inkscape"
   width="210mm"
   height="297mm"
   viewBox="0 0 744.09448819 1052.3622047"
   id="svg4300"
   version="1.1"
   inkscape:version="0.91 r13725"
   sodipodi:docname="warmogs.svg">
  <defs
     id="defs4302" />
  <sodipodi:namedview
     id="base"
     pagecolor="#ffffff"
     bordercolor="#666666"
     borderopacity="1.0"
     inkscape:pageopacity="0.0"
     inkscape:pageshadow="2"
     inkscape:zoom="0.98994949"
     inkscape:cx="-96.362709"
     inkscape:cy="1020.9732"
     inkscape:document-units="px"
     inkscape:current-layer="layer1"
     showgrid="false"
     inkscape:window-width="1920"
     inkscape:window-height="1017"
     inkscape:window-x="-8"
     inkscape:window-y="-8"
     inkscape:window-maximized="1" />
  <metadata
     id="metadata4305">
    <rdf:RDF>
      <cc:Work
         rdf:about="">
        <dc:format>image/svg+xml</dc:format>
        <dc:type
           rdf:resource="http://purl.org/dc/dcmitype/StillImage" />
        <dc:title />
      </cc:Work>
    </rdf:RDF>
  </metadata>
  <g
     inkscape:label="Layer 1"
     inkscape:groupmode="layer"
     id="layer1">
    <ellipse
       style="opacity:1;fill:#504416;fill-opacity:1;stroke:none;stroke-width:0;stroke-linecap:round;stroke-miterlimit:4;stroke-dasharray:none;stroke-dashoffset:0;stroke-opacity:1"
       id="path3357"
       cx="1.0101629"
       cy="-89.61525"
       rx="73.741135"
       ry="28.789347" />
    <rect
       style="opacity:1;fill:#a0892c;fill-opacity:1;stroke:none;stroke-width:0;stroke-linecap:round;stroke-miterlimit:4;stroke-dasharray:none;stroke-dashoffset:0;stroke-opacity:1"
       id="rect3359"
       width="182.85715"
       height="245.71428"
       x="-87.54895"
       y="-86.758904"
       ry="0" />
    <path
       style="fill:#a0892c;fill-rule:evenodd;stroke:none;stroke-width:1px;stroke-linecap:butt;stroke-linejoin:miter;stroke-opacity:1;fill-opacity:1"
       d="m 3.0304548,-85.069562 c 0,0 -54.8117498,-5.050762 -46.3791798,-22.223358 8.43258,-17.17259 -50.59546,-16.16244 -50.59546,-16.16244 l 6.32443,37.375646 z"
       id="path3361"
       inkscape:connector-curvature="0" />
    <path
       inkscape:connector-curvature="0"
       id="path3363"
       d="m 3.0304548,-85.069562 c 0,0 54.8117502,-5.050762 46.3791802,-22.223358 -8.43258,-17.17259 50.595455,-16.16244 50.595455,-16.16244 l -6.324425,37.375646 z"
       style="fill:#a0892c;fill-rule:evenodd;stroke:none;stroke-width:1px;stroke-linecap:butt;stroke-linejoin:miter;stroke-opacity:1;fill-opacity:1" />
    <path
       style="fill:#786721;fill-opacity:1;fill-rule:evenodd;stroke:none;stroke-width:1px;stroke-linecap:butt;stroke-linejoin:miter;stroke-opacity:1"
       d="M -86.873119,-3.2472057 -47.47717,15.945693 c 0,0 40.4061022,24.243661 90.913729,1.010152 50.507628,-23.2335084 51.51778,-21.2132033 51.51778,-21.2132033 l 0.252539,-5.303302 c 0,0 -102.7830223,25.0012763 -124.501302,24.4961993 -21.718279,-0.505076 -58.384148,-21.3233371 -58.384148,-21.3233371 z"
       id="path3369"
       inkscape:connector-curvature="0"
       sodipodi:nodetypes="ccsccscc" />
    <path
       inkscape:connector-curvature="0"
       id="path3371"
       d="m -86.873119,22.46708 39.395949,19.192899 c 0,0 40.4061022,24.243661 90.913729,1.010152 50.507628,-23.233509 51.51778,-21.213204 51.51778,-21.213204 L 50.760166,18.17393 c 0,0 -28.031734,28.031735 -49.7500135,27.526658 -21.7182795,-0.505076 -88.6887245,-26.3741 -88.6887245,-26.3741 z"
       style="fill:#786721;fill-opacity:1;fill-rule:evenodd;stroke:none;stroke-width:1px;stroke-linecap:butt;stroke-linejoin:miter;stroke-opacity:1"
       sodipodi:nodetypes="ccsccscc" />
    <path
       style="fill:#786721;fill-opacity:1;fill-rule:evenodd;stroke:none;stroke-width:1px;stroke-linecap:butt;stroke-linejoin:miter;stroke-opacity:1"
       d="M -28.284271,55.252434 -47.47717,67.374265 c 0,0 40.4061022,24.243661 90.913729,1.010152 50.507628,-23.233509 51.51778,-21.213204 51.51778,-21.213204 l 0.252539,-5.303302 c 0,0 -72.478446,30.05204 -94.1967255,29.546963 -21.7182795,-0.505076 -88.6887245,-26.3741 -88.6887245,-26.3741 z"
       id="path3373"
       inkscape:connector-curvature="0"
       sodipodi:nodetypes="ccsccscc" />
    <path
       inkscape:connector-curvature="0"
       id="path3342"
       d="M -86.873119,-78.961491 -3.9352076e-7,-63.809203 c 0,0 32.32488139352076,36.365491 36.36549139352076,2.020304 6.495802,-55.214321 58.588848,-18.182745 58.588848,-18.182745 l 0.252539,-5.303302 c 0,0 -58.33631,10.859141 -80.05459,10.354064 -21.7182794,-0.505076 -102.83086,-7.181202 -102.83086,-7.181202 z"
       style="fill:#786721;fill-opacity:1;fill-rule:evenodd;stroke:none;stroke-width:1px;stroke-linecap:butt;stroke-linejoin:miter;stroke-opacity:1"
       sodipodi:nodetypes="ccsccscc" />
    <path
       style="fill:#786721;fill-opacity:1;fill-rule:evenodd;stroke:none;stroke-width:1px;stroke-linecap:butt;stroke-linejoin:miter;stroke-opacity:1"
       d="m -86.873119,-53.247206 39.395949,19.192899 c 0,0 13.131983,18.182746 63.63961,-5.050763 50.507628,-23.233509 78.791899,-15.152289 78.791899,-15.152289 l 0.252539,-5.303302 c 0,0 -104.8033274,20.960667 -126.521607,20.45559 -21.718279,-0.505076 -56.363843,-17.282727 -56.363843,-17.282727 z"
       id="path3344"
       inkscape:connector-curvature="0"
       sodipodi:nodetypes="ccsccscc" />
    <path
       inkscape:connector-curvature="0"
       id="path3346"
       d="m -71.720831,-16.421242 39.395949,19.1928993 c 0,0 25.2538142,13.1319827 75.761441,-10.101526 50.507628,-23.2335093 51.51778,-21.2132043 51.51778,-21.2132043 l 0.252539,-5.303302 c 0,0 -63.053497,33.93917233 -84.0952,28.5368108 -98.79025,-25.3639478 -98.79025,-25.3639478 -98.79025,-25.3639478 z"
       style="fill:#786721;fill-opacity:1;fill-rule:evenodd;stroke:none;stroke-width:1px;stroke-linecap:butt;stroke-linejoin:miter;stroke-opacity:1"
       sodipodi:nodetypes="ccsccscc" />
    <path
       style="fill:#786721;fill-opacity:1;fill-rule:evenodd;stroke:none;stroke-width:1px;stroke-linecap:butt;stroke-linejoin:miter;stroke-opacity:1"
       d="m -86.873119,71.038509 39.395949,19.192898 c 0,0 0,30.304583 50.5076272,7.071067 C 53.538085,74.068966 94.954339,70.028356 94.954339,70.028356 l 0.252539,-5.303302 c 0,0 -70.458141,20.960666 -92.1764204,20.455589 C -18.687822,84.675567 -87.678572,67.897916 -87.678572,67.897916 Z"
       id="path3348"
       inkscape:connector-curvature="0"
       sodipodi:nodetypes="ccsccscc" />
    <path
       inkscape:connector-curvature="0"
       id="path3350"
       d="m -86.873119,96.752794 39.395949,19.192896 c 0,0 40.4061022,24.24366 90.913729,1.01016 50.507628,-23.233514 51.51778,-21.213209 51.51778,-21.213209 l 0.252539,-5.303302 c 0,0 -61.656626,15.974441 -80.05459,27.526651 -21.7182794,13.63707 -102.83086,-24.353788 -102.83086,-24.353788 z"
       style="fill:#786721;fill-opacity:1;fill-rule:evenodd;stroke:none;stroke-width:1px;stroke-linecap:butt;stroke-linejoin:miter;stroke-opacity:1"
       sodipodi:nodetypes="ccsccscc" />
    <path
       style="fill:#786721;fill-opacity:1;fill-rule:evenodd;stroke:none;stroke-width:1px;stroke-linecap:butt;stroke-linejoin:miter;stroke-opacity:1"
       d="m -86.873119,122.46708 39.395949,19.1929 c 0,0 40.4061022,24.24366 90.913729,1.01015 50.507628,-23.23351 51.51778,-21.2132 51.51778,-21.2132 l 0.252539,-5.3033 c 0,0 -72.478446,30.05204 -94.1967255,29.54696 -21.7182795,-0.50508 -88.6887245,-26.3741 -88.6887245,-26.3741 z"
       id="path3352"
       inkscape:connector-curvature="0" />
    <path
       style="fill:#786721;fill-rule:evenodd;stroke:none;stroke-width:1px;stroke-linecap:butt;stroke-linejoin:miter;stroke-opacity:1"
       d="m 93.045114,-148.47362 c 0,0 -33.33504,17.17259 -31.31473,27.27412 2.0203,10.10153 6.06091,-14.14214 31.31473,-27.27412 z"
       id="path3354"
       inkscape:connector-curvature="0" />
    <path
       inkscape:connector-curvature="0"
       id="path3356"
       d="m 118.04511,-148.47362 c 0,0 -33.335036,17.17259 -31.314726,27.27412 2.0203,10.10153 6.06091,-14.14214 31.314726,-27.27412 z"
       style="fill:#786721;fill-rule:evenodd;stroke:none;stroke-width:1px;stroke-linecap:butt;stroke-linejoin:miter;stroke-opacity:1" />
    <path
       style="fill:#786721;fill-rule:evenodd;stroke:none;stroke-width:1px;stroke-linecap:butt;stroke-linejoin:miter;stroke-opacity:1"
       d="m -85.143588,-148.47362 c 0,0 33.335036,17.17259 31.314726,27.27412 -2.0203,10.10153 -6.06091,-14.14214 -31.314726,-27.27412 z"
       id="path3358"
       inkscape:connector-curvature="0" />
    <path
       inkscape:connector-curvature="0"
       id="path3360"
       d="m -103.71502,-148.47362 c 0,0 33.335039,17.17259 31.314729,27.27412 -2.0203,10.10153 -6.06091,-14.14214 -31.314729,-27.27412 z"
       style="fill:#786721;fill-rule:evenodd;stroke:none;stroke-width:1px;stroke-linecap:butt;stroke-linejoin:miter;stroke-opacity:1" />
  </g>
</svg>
