<?xml version="1.0" encoding="UTF-8" standalone="no"?>
<!-- Created with Inkscape (http://www.inkscape.org/) -->

<svg
   xmlns:dc="http://purl.org/dc/elements/1.1/"
   xmlns:cc="http://creativecommons.org/ns#"
   xmlns:rdf="http://www.w3.org/1999/02/22-rdf-syntax-ns#"
   xmlns:svg="http://www.w3.org/2000/svg"
   xmlns="http://www.w3.org/2000/svg"
   xmlns:sodipodi="http://sodipodi.sourceforge.net/DTD/sodipodi-0.dtd"
   xmlns:inkscape="http://www.inkscape.org/namespaces/inkscape"
   width="210mm"
   height="297mm"
   viewBox="0 0 744.09448819 1052.3622047"
   id="svg4300"
   version="1.1"
   inkscape:version="0.91 r13725"
   sodipodi:docname="wiseOak.svg">
  <defs
     id="defs4302" />
  <sodipodi:namedview
     id="base"
     pagecolor="#ffffff"
     bordercolor="#666666"
     borderopacity="1.0"
     inkscape:pageopacity="0.0"
     inkscape:pageshadow="2"
     inkscape:zoom="0.7"
     inkscape:cx="-202.90685"
     inkscape:cy="1118.9342"
     inkscape:document-units="px"
     inkscape:current-layer="layer1"
     showgrid="false"
     inkscape:window-width="1920"
     inkscape:window-height="1017"
     inkscape:window-x="-8"
     inkscape:window-y="-8"
     inkscape:window-maximized="1" />
  <metadata
     id="metadata4305">
    <rdf:RDF>
      <cc:Work
         rdf:about="">
        <dc:format>image/svg+xml</dc:format>
        <dc:type
           rdf:resource="http://purl.org/dc/dcmitype/StillImage" />
        <dc:title />
      </cc:Work>
    </rdf:RDF>
  </metadata>
  <g
     inkscape:label="Layer 1"
     inkscape:groupmode="layer"
     id="layer1">
    <ellipse
       style="opacity:1;fill:#803300;fill-opacity:1;stroke:none;stroke-width:0;stroke-linecap:round;stroke-miterlimit:4;stroke-dasharray:none;stroke-dashoffset:0;stroke-opacity:1"
       id="path3357"
       cx="1.0101629"
       cy="-89.61525"
       rx="73.741135"
       ry="28.789347" />
    <g
       id="g21"
       style="fill:#a05a2c">
      <rect
         ry="0"
         y="-86.758904"
         x="-87.54895"
         height="245.71428"
         width="182.85715"
         id="rect3359"
         style="opacity:1;fill:#a05a2c;fill-opacity:1;stroke:none;stroke-width:0;stroke-linecap:round;stroke-miterlimit:4;stroke-dasharray:none;stroke-dashoffset:0;stroke-opacity:1" />
      <path
         inkscape:connector-curvature="0"
         id="path3361"
         d="m 3.0304548,-85.069562 c 0,0 -54.8117498,-5.050762 -46.3791798,-22.223358 8.43258,-17.17259 -50.59546,-16.16244 -50.59546,-16.16244 l 6.32443,37.375646 z"
         style="fill:#a05a2c;fill-rule:evenodd;stroke:none;stroke-width:1px;stroke-linecap:butt;stroke-linejoin:miter;stroke-opacity:1;fill-opacity:1" />
      <path
         style="fill:#a05a2c;fill-rule:evenodd;stroke:none;stroke-width:1px;stroke-linecap:butt;stroke-linejoin:miter;stroke-opacity:1;fill-opacity:1"
         d="m 3.0304548,-85.069562 c 0,0 54.8117502,-5.050762 46.3791802,-22.223358 -8.43258,-17.17259 50.595455,-16.16244 50.595455,-16.16244 l -6.324425,37.375646 z"
         id="path3363"
         inkscape:connector-curvature="0" />
    </g>
    <rect
       style="opacity:1;fill:#a05a2c;fill-opacity:1;stroke:none;stroke-width:0;stroke-linecap:round;stroke-miterlimit:4;stroke-dasharray:none;stroke-dashoffset:0;stroke-opacity:1"
       id="rect3365"
       width="75.444473"
       height="55.558392"
       x="-1.5426764"
       y="-156.5509"
       transform="rotate(-90)" />
    <path
       style="fill:#aa4400;fill-rule:evenodd;stroke:none;stroke-width:1px;stroke-linecap:butt;stroke-linejoin:miter;stroke-opacity:1;fill-opacity:1"
       d="M -86.873119,-3.2472057 -47.47717,15.945693 c 0,0 40.4061022,24.243661 90.913729,1.010152 50.507628,-23.2335084 51.51778,-21.2132033 51.51778,-21.2132033 l 0.252539,-5.303302 c 0,0 -72.478446,30.0520393 -94.1967255,29.5469623 C -20.708127,19.481226 -87.678572,-6.3877981 -87.678572,-6.3877981 Z"
       id="path3369"
       inkscape:connector-curvature="0" />
    <path
       inkscape:connector-curvature="0"
       id="path3371"
       d="m -86.873119,22.46708 39.395949,19.192899 c 0,0 40.4061022,24.243661 90.913729,1.010152 50.507628,-23.233509 51.51778,-21.213204 51.51778,-21.213204 l 0.252539,-5.303302 c 0,0 -72.478446,30.05204 -94.1967255,29.546963 -21.7182795,-0.505076 -88.6887245,-26.3741 -88.6887245,-26.3741 z"
       style="fill:#aa4400;fill-rule:evenodd;stroke:none;stroke-width:1px;stroke-linecap:butt;stroke-linejoin:miter;stroke-opacity:1;fill-opacity:1" />
    <path
       style="fill:#aa4400;fill-rule:evenodd;stroke:none;stroke-width:1px;stroke-linecap:butt;stroke-linejoin:miter;stroke-opacity:1;fill-opacity:1"
       d="m -86.873119,48.181366 39.395949,19.192899 c 0,0 40.4061022,24.243661 90.913729,1.010152 50.507628,-23.233509 51.51778,-21.213204 51.51778,-21.213204 l 0.252539,-5.303302 c 0,0 -72.478446,30.05204 -94.1967255,29.546963 -21.7182795,-0.505076 -88.6887245,-26.3741 -88.6887245,-26.3741 z"
       id="path3373"
       inkscape:connector-curvature="0" />
    <rect
       transform="rotate(-90)"
       y="-156.5509"
       x="-118.06053"
       height="55.558392"
       width="75.444473"
       id="rect16"
       style="opacity:1;fill:#784421;fill-opacity:1;stroke:none;stroke-width:0;stroke-linecap:round;stroke-miterlimit:4;stroke-dasharray:none;stroke-dashoffset:0;stroke-opacity:1" />
    <rect
       transform="rotate(-90)"
       y="109.96696"
       x="-1.5426764"
       height="55.558392"
       width="75.444473"
       id="rect23"
       style="opacity:1;fill:#a05a2c;fill-opacity:1;stroke:none;stroke-width:0;stroke-linecap:round;stroke-miterlimit:4;stroke-dasharray:none;stroke-dashoffset:0;stroke-opacity:1" />
    <rect
       style="opacity:1;fill:#784421;fill-opacity:1;stroke:none;stroke-width:0;stroke-linecap:round;stroke-miterlimit:4;stroke-dasharray:none;stroke-dashoffset:0;stroke-opacity:1"
       id="rect25"
       width="75.444473"
       height="55.558392"
       x="-118.06053"
       y="109.96696"
       transform="rotate(-90)" />
    <path
       style="fill:#5599ff;fill-rule:evenodd;stroke:none;stroke-width:1px;stroke-linecap:butt;stroke-linejoin:miter;stroke-opacity:1"
       d="m -23.57143,-29.871229 c 0,0 15.6591449,11.405719 25.750918,11.520144 10.47867,0.118818 27.106223,-11.520144 27.106223,-11.520144 l 0,-8.809524 c 0,0 -17.07346,10.926949 -25.947037,10.987581 C -5.7245419,-27.631252 -23.0773,-38.19195 -23.0773,-38.19195 Z"
       id="path3345"
       inkscape:connector-curvature="0"
       sodipodi:nodetypes="csccscc" />
    <path
       sodipodi:nodetypes="csccscc"
       inkscape:connector-curvature="0"
       id="path3347"
       d="m -69.285716,-70.585515 c 0,0 15.659145,11.405719 25.750918,11.520144 10.47867,0.118818 27.106223,-11.520144 27.106223,-11.520144 l 0,-8.809524 c 0,0 -17.07346,10.926949 -25.947037,10.987581 -9.063216,0.06192 -26.415974,-10.498778 -26.415974,-10.498778 z"
       style="fill:#5599ff;fill-rule:evenodd;stroke:none;stroke-width:1px;stroke-linecap:butt;stroke-linejoin:miter;stroke-opacity:1" />
    <path
       style="fill:#5599ff;fill-rule:evenodd;stroke:none;stroke-width:1px;stroke-linecap:butt;stroke-linejoin:miter;stroke-opacity:1"
       d="m 29.999998,-70.585515 c 0,0 15.659145,11.405719 25.750918,11.520144 10.47867,0.118818 27.106223,-11.520144 27.106223,-11.520144 l 0,-8.809524 c 0,0 -17.07346,10.926949 -25.947037,10.987581 -9.063216,0.06192 -26.415974,-10.498778 -26.415974,-10.498778 z"
       id="path3349"
       inkscape:connector-curvature="0"
       sodipodi:nodetypes="csccscc" />
    <path
       sodipodi:nodetypes="csccscc"
       inkscape:connector-curvature="0"
       id="path3351"
       d="m -79.285716,105.12877 c 0,0 15.659145,11.40572 25.750918,11.52014 10.47867,0.11882 27.106223,-11.52014 27.106223,-11.52014 l 0,-8.809523 c 0,0 -17.07346,10.926953 -25.947037,10.987583 -9.063216,0.0619 -26.415974,-10.49878 -26.415974,-10.49878 z"
       style="fill:#5599ff;fill-rule:evenodd;stroke:none;stroke-width:1px;stroke-linecap:butt;stroke-linejoin:miter;stroke-opacity:1" />
    <path
       style="fill:#5599ff;fill-rule:evenodd;stroke:none;stroke-width:1px;stroke-linecap:butt;stroke-linejoin:miter;stroke-opacity:1"
       d="m 18.571427,105.12877 c 0,0 15.659145,11.40572 25.750918,11.52014 10.47867,0.11882 27.106223,-11.52014 27.106223,-11.52014 l 0,-8.809523 c 0,0 -17.07346,10.926953 -25.947037,10.987583 -9.063216,0.0619 -26.415974,-10.49878 -26.415974,-10.49878 z"
       id="path3353"
       inkscape:connector-curvature="0"
       sodipodi:nodetypes="csccscc" />
    <path
       sodipodi:nodetypes="csccscc"
       inkscape:connector-curvature="0"
       id="path3355"
       d="m -156.42857,-28.442659 c 0,0 15.65914,11.40572 25.75091,11.52014 10.47867,0.11882 27.10623,-11.52014 27.10623,-11.52014 l 0,-8.809523 c 0,0 -17.07346,10.926953 -25.94704,10.987583 -9.06322,0.0619 -26.41597,-10.49878 -26.41597,-10.49878 z"
       style="fill:#5599ff;fill-rule:evenodd;stroke:none;stroke-width:1px;stroke-linecap:butt;stroke-linejoin:miter;stroke-opacity:1" />
    <path
       style="fill:#5599ff;fill-rule:evenodd;stroke:none;stroke-width:1px;stroke-linecap:butt;stroke-linejoin:miter;stroke-opacity:1"
       d="m 110.71429,-28.442659 c 0,0 15.65914,11.40572 25.75091,11.52014 10.47867,0.11882 27.10623,-11.52014 27.10623,-11.52014 l 0,-8.809523 c 0,0 -17.07346,10.926953 -25.94704,10.987583 -9.06322,0.0619 -26.41597,-10.49878 -26.41597,-10.49878 z"
       id="path3358"
       inkscape:connector-curvature="0"
       sodipodi:nodetypes="csccscc" />
  </g>
</svg>
