<?xml version="1.0" encoding="UTF-8" standalone="no"?>
<!-- Created with Inkscape (http://www.inkscape.org/) -->

<svg
   xmlns:dc="http://purl.org/dc/elements/1.1/"
   xmlns:cc="http://creativecommons.org/ns#"
   xmlns:rdf="http://www.w3.org/1999/02/22-rdf-syntax-ns#"
   xmlns:svg="http://www.w3.org/2000/svg"
   xmlns="http://www.w3.org/2000/svg"
   xmlns:sodipodi="http://sodipodi.sourceforge.net/DTD/sodipodi-0.dtd"
   xmlns:inkscape="http://www.inkscape.org/namespaces/inkscape"
   width="210mm"
   height="297mm"
   viewBox="0 0 210 297"
   version="1.1"
   id="svg8"
   inkscape:version="0.91 r13725"
   sodipodi:docname="1.svg">
  <defs
     id="defs2" />
  <sodipodi:namedview
     id="base"
     pagecolor="#ffffff"
     bordercolor="#666666"
     borderopacity="1.0"
     inkscape:pageopacity="0.0"
     inkscape:pageshadow="2"
     inkscape:zoom="0.175"
     inkscape:cx="-335.2197"
     inkscape:cy="1219.1939"
     inkscape:document-units="mm"
     inkscape:current-layer="layer1"
     showgrid="false"
     inkscape:window-width="1920"
     inkscape:window-height="1017"
     inkscape:window-x="-8"
     inkscape:window-y="-8"
     inkscape:window-maximized="1"
     showguides="false"
     inkscape:snap-global="false" />
  <metadata
     id="metadata5">
    <rdf:RDF>
      <cc:Work
         rdf:about="">
        <dc:format>image/svg+xml</dc:format>
        <dc:type
           rdf:resource="http://purl.org/dc/dcmitype/StillImage" />
        <dc:title />
      </cc:Work>
    </rdf:RDF>
  </metadata>
  <g
     inkscape:label="Layer 1"
     inkscape:groupmode="layer"
     id="layer1">
    <ellipse
       style="fill:#241c1c"
       id="path3345"
       cx="-0.63902938"
       cy="5.1581922"
       rx="139.30142"
       ry="67.909447" />
    <path
       style="fill:#483737;fill-opacity:1;fill-rule:evenodd;stroke:none;stroke-width:0.28222221px;stroke-linecap:butt;stroke-linejoin:miter;stroke-opacity:1"
       d="m -66.368163,-16.375805 c 0,0 -9.90419,67.26795 21.31375,67.26795 36.6531312,0 26.99728,-66.503542 26.99728,-66.503542 z"
       id="path3353"
       inkscape:connector-curvature="0"
       sodipodi:nodetypes="cscc" />
    <path
       sodipodi:nodetypes="cscc"
       inkscape:connector-curvature="0"
       id="path3355"
       d="m -57.412463,-16.375805 c 0,0 -6.86606,43.656625 14.77574,43.656625 25.40967,0 18.71575,-43.160527 18.71575,-43.160527 z"
       style="fill:#de8787;fill-opacity:1;fill-rule:evenodd;stroke:none;stroke-width:0.28222221px;stroke-linecap:butt;stroke-linejoin:miter;stroke-opacity:1" />
    <path
       sodipodi:nodetypes="cscc"
       inkscape:connector-curvature="0"
       id="path3357"
       d="m 22.218757,-16.375805 c 0,0 -9.90419,67.26795 21.31376,67.26795 36.65312,0 26.99727,-66.503542 26.99727,-66.503542 z"
       style="fill:#483737;fill-opacity:1;fill-rule:evenodd;stroke:none;stroke-width:0.28222221px;stroke-linecap:butt;stroke-linejoin:miter;stroke-opacity:1" />
    <path
       style="fill:#de8787;fill-opacity:1;fill-rule:evenodd;stroke:none;stroke-width:0.28222221px;stroke-linecap:butt;stroke-linejoin:miter;stroke-opacity:1"
       d="m 31.174457,-16.375805 c 0,0 -6.86606,43.656625 14.77575,43.656625 25.40966,0 18.71575,-43.160527 18.71575,-43.160527 z"
       id="path3359"
       inkscape:connector-curvature="0"
       sodipodi:nodetypes="cscc" />
    <path
       style="fill:#241c1c;fill-rule:evenodd;stroke:none;stroke-width:0.28222221px;stroke-linecap:butt;stroke-linejoin:miter;stroke-opacity:1"
       d="m 112.92398,-33.058207 -18.898483,87.983422 22.146683,-2.93996 c 0,0 49.60871,-98.036214 82.68121,-4.72464 12.07849,34.078619 55.5144,-99.21737 86.2245,-11.811596 4.6713,13.295336 11.4489,33.061205 25.0106,16.992436 14.32409,-16.972068 13.75819,-51.71949576 42.31549,-46.5214048 56.9739,10.3705668 108.6667,44.8840448 122.8406,48.4275248 0,0 -83.1583,-68.218471 -125.9671,-83.167497 -78.61219,-27.451713 -236.3535,-4.238285 -236.3535,-4.238285 z"
       id="path3361"
       inkscape:connector-curvature="0"
       sodipodi:nodetypes="cccsssscsc" />
    <circle
       style="fill:#000000;fill-opacity:1;stroke:none"
       id="path3363"
       cx="-18.671015"
       cy="-43.166832"
       r="8.7696581" />
    <circle
       r="8.7696581"
       cy="-43.166832"
       cx="16.616585"
       id="circle3365"
       style="fill:#000000;fill-opacity:1;stroke:none" />
    <path
       style="fill:#241c1c;fill-rule:evenodd;stroke:none;stroke-width:0.28222221px;stroke-linecap:butt;stroke-linejoin:miter;stroke-opacity:1"
       d="m -26.814083,-59.453345 c 0,0 7.94212,-11.97137 14.19843,-14.6161 7.9493718,-3.36043 17.9179118,-3.30274 25.89143,0 6.5475,2.71207 15.03366,15.03371 15.03366,15.03371 z"
       id="path3367"
       inkscape:connector-curvature="0"
       sodipodi:nodetypes="csscc" />
    <path
       sodipodi:nodetypes="csscc"
       inkscape:connector-curvature="0"
       id="path3369"
       d="m -13.083123,-70.528995 c 0,0 3.6663608,-3.57175 6.5545018,-4.36082 3.66967,-1.00262 8.2715001,-0.9854 11.95236,0 3.0225398,0.80916 6.9400482,4.48542 6.9400482,4.48542 z"
       style="fill:#de8787;fill-rule:evenodd;stroke:none;stroke-width:0.28222221px;stroke-linecap:butt;stroke-linejoin:miter;stroke-opacity:1" />
    <path
       sodipodi:nodetypes="cccsssscsc"
       inkscape:connector-curvature="0"
       id="path3371"
       d="m -112.42902,-33.058207 18.898557,87.983422 -22.146747,-2.93996 c 0,0 -49.60866,-98.036214 -82.68116,-4.72464 -12.07851,34.078619 -55.51442,-99.21737 -86.22454,-11.811596 -4.67131,13.295336 -11.44888,33.061205 -25.0106,16.992436 -14.3241,-16.972068 -13.75818,-51.71949576 -42.31548,-46.5214048 -56.97393,10.3705668 -108.66672,44.8840448 -122.84059,48.4275248 0,0 83.15832,-68.218471 125.96713,-83.167497 78.61214,-27.451713 236.35343,-4.238285 236.35343,-4.238285 z"
       style="fill:#241c1c;fill-rule:evenodd;stroke:none;stroke-width:0.28222221px;stroke-linecap:butt;stroke-linejoin:miter;stroke-opacity:1" />
  </g>
</svg>
