<?xml version="1.0" encoding="UTF-8" standalone="no"?>
<!-- Created with Inkscape (http://www.inkscape.org/) -->

<svg
   xmlns:dc="http://purl.org/dc/elements/1.1/"
   xmlns:cc="http://creativecommons.org/ns#"
   xmlns:rdf="http://www.w3.org/1999/02/22-rdf-syntax-ns#"
   xmlns:svg="http://www.w3.org/2000/svg"
   xmlns="http://www.w3.org/2000/svg"
   xmlns:sodipodi="http://sodipodi.sourceforge.net/DTD/sodipodi-0.dtd"
   xmlns:inkscape="http://www.inkscape.org/namespaces/inkscape"
   width="210mm"
   height="297mm"
   viewBox="0 0 210 297"
   version="1.1"
   id="svg8"
   inkscape:version="0.91 r13725"
   sodipodi:docname="2.svg">
  <defs
     id="defs2" />
  <sodipodi:namedview
     id="base"
     pagecolor="#ffffff"
     bordercolor="#666666"
     borderopacity="1.0"
     inkscape:pageopacity="0.0"
     inkscape:pageshadow="2"
     inkscape:zoom="0.35"
     inkscape:cx="187.34553"
     inkscape:cy="1104.851"
     inkscape:document-units="mm"
     inkscape:current-layer="layer1"
     showgrid="false"
     inkscape:window-width="1920"
     inkscape:window-height="1017"
     inkscape:window-x="-8"
     inkscape:window-y="-8"
     inkscape:window-maximized="1"
     showguides="false"
     inkscape:snap-global="false" />
  <metadata
     id="metadata5">
    <rdf:RDF>
      <cc:Work
         rdf:about="">
        <dc:format>image/svg+xml</dc:format>
        <dc:type
           rdf:resource="http://purl.org/dc/dcmitype/StillImage" />
        <dc:title />
      </cc:Work>
    </rdf:RDF>
  </metadata>
  <g
     inkscape:label="Layer 1"
     inkscape:groupmode="layer"
     id="layer1">
    <ellipse
       style="fill:#241c1c"
       id="path3345"
       cx="0.58647734"
       cy="8.3045883"
       rx="144.07434"
       ry="70.236244" />
    <path
       style="fill:#483737;fill-opacity:1;fill-rule:evenodd;stroke:none;stroke-width:0.28222221px;stroke-linecap:butt;stroke-linejoin:miter;stroke-opacity:1"
       d="m -67.394752,-13.967236 c 0,0 -10.243539,69.572771 22.04403,69.572771 37.9089868,0 27.922295,-68.782172 27.922295,-68.782172 z"
       id="path3353"
       inkscape:connector-curvature="0"
       sodipodi:nodetypes="cscc" />
    <path
       sodipodi:nodetypes="cscc"
       inkscape:connector-curvature="0"
       id="path3355"
       d="m -58.1322,-13.967236 c 0,0 -7.101314,45.152444 15.282005,45.152444 26.280289,0 19.357013,-44.639348 19.357013,-44.639348 z"
       style="fill:#de8787;fill-opacity:1;fill-rule:evenodd;stroke:none;stroke-width:0.28222221px;stroke-linecap:butt;stroke-linejoin:miter;stroke-opacity:1" />
    <path
       sodipodi:nodetypes="cscc"
       inkscape:connector-curvature="0"
       id="path3357"
       d="m 24.227446,-13.967236 c 0,0 -10.243539,69.572771 22.04404,69.572771 37.908976,0 27.922284,-68.782172 27.922284,-68.782172 z"
       style="fill:#483737;fill-opacity:1;fill-rule:evenodd;stroke:none;stroke-width:0.28222221px;stroke-linecap:butt;stroke-linejoin:miter;stroke-opacity:1" />
    <path
       style="fill:#de8787;fill-opacity:1;fill-rule:evenodd;stroke:none;stroke-width:0.28222221px;stroke-linecap:butt;stroke-linejoin:miter;stroke-opacity:1"
       d="m 33.489998,-13.967236 c 0,0 -7.101314,45.152444 15.282015,45.152444 26.280279,0 19.357014,-44.639348 19.357014,-44.639348 z"
       id="path3359"
       inkscape:connector-curvature="0"
       sodipodi:nodetypes="cscc" />
    <circle
       style="fill:#000000;fill-opacity:1;stroke:none"
       id="path3363"
       cx="-18.063343"
       cy="-41.676205"
       r="9.0701351" />
    <circle
       r="9.0701351"
       cy="-41.676205"
       cx="18.433325"
       id="circle3365"
       style="fill:#000000;fill-opacity:1;stroke:none" />
    <path
       style="fill:#241c1c;fill-rule:evenodd;stroke:none;stroke-width:0.28222221px;stroke-linecap:butt;stroke-linejoin:miter;stroke-opacity:1"
       d="m -26.485419,-58.520753 c 0,0 8.214243,-12.381549 14.684915,-15.116895 8.2217428,-3.47557 18.5318374,-3.415903 26.778555,0 6.771838,2.804994 15.548762,15.548813 15.548762,15.548813 z"
       id="path3367"
       inkscape:connector-curvature="0"
       sodipodi:nodetypes="csscc" />
    <path
       sodipodi:nodetypes="csscc"
       inkscape:connector-curvature="0"
       id="path3369"
       d="m -12.283991,-69.975891 c 0,0 3.7919818,-3.69413 6.7790798,-4.510237 3.7954049,-1.036972 8.5549088,-1.019162 12.3618869,0 3.1261017,0.836886 7.1778373,4.639106 7.1778373,4.639106 z"
       style="fill:#de8787;fill-rule:evenodd;stroke:none;stroke-width:0.28222221px;stroke-linecap:butt;stroke-linejoin:miter;stroke-opacity:1" />
    <path
       sodipodi:nodetypes="cccsssscsc"
       inkscape:connector-curvature="0"
       id="path3371"
       d="m -101.81148,-40.966337 -7.94087,91.488877 -10.17317,-7.531645 c 0,0 -12.64291,-104.658705 -54.93909,-15.25845 -15.44711,32.650155 -12.85808,-108.083015 -52.30561,-24.302343 -6.00038,12.743922 -14.81437,31.714025 -19.81188,13.552899 -5.27844,-19.1820493 2.97852,-54.160595 -16.41512,-53.017497 -38.69173,2.280556 -79.50167,29.6796223 -89.34627,31.2191474 0,0 68.53622,-56.8876484 99.23455,-65.8223854 56.37304,-16.407344 151.69746,29.671397 151.69746,29.671397 z"
       style="fill:#241c1c;fill-rule:evenodd;stroke:none;stroke-width:0.28222221px;stroke-linecap:butt;stroke-linejoin:miter;stroke-opacity:1" />
    <path
       style="fill:#241c1c;fill-rule:evenodd;stroke:none;stroke-width:0.28222221px;stroke-linecap:butt;stroke-linejoin:miter;stroke-opacity:1"
       d="m 104.45652,-40.966337 7.94087,91.488877 10.17317,-7.531645 c 0,0 12.64291,-104.658705 54.93909,-15.25845 15.44711,32.650155 12.85808,-108.083015 52.30561,-24.302343 6.00038,12.743922 14.81437,31.714025 19.81188,13.552899 5.27844,-19.1820493 -2.97852,-54.160595 16.41512,-53.017497 38.69173,2.280556 79.50167,29.6796223 89.34627,31.2191474 0,0 -68.53622,-56.8876484 -99.23455,-65.8223854 -56.37304,-16.407344 -151.69746,29.671397 -151.69746,29.671397 z"
       id="path3344"
       inkscape:connector-curvature="0"
       sodipodi:nodetypes="cccsssscsc" />
  </g>
</svg>
