<?xml version="1.0" encoding="UTF-8" standalone="no"?>
<!-- Created with Inkscape (http://www.inkscape.org/) -->

<svg
   xmlns:dc="http://purl.org/dc/elements/1.1/"
   xmlns:cc="http://creativecommons.org/ns#"
   xmlns:rdf="http://www.w3.org/1999/02/22-rdf-syntax-ns#"
   xmlns:svg="http://www.w3.org/2000/svg"
   xmlns="http://www.w3.org/2000/svg"
   xmlns:sodipodi="http://sodipodi.sourceforge.net/DTD/sodipodi-0.dtd"
   xmlns:inkscape="http://www.inkscape.org/namespaces/inkscape"
   width="210mm"
   height="297mm"
   viewBox="0 0 210 297"
   version="1.1"
   id="svg8"
   inkscape:version="0.91 r13725"
   sodipodi:docname="3.svg">
  <defs
     id="defs2" />
  <sodipodi:namedview
     id="base"
     pagecolor="#ffffff"
     bordercolor="#666666"
     borderopacity="1.0"
     inkscape:pageopacity="0.0"
     inkscape:pageshadow="2"
     inkscape:zoom="0.35"
     inkscape:cx="34.763062"
     inkscape:cy="1110.2036"
     inkscape:document-units="mm"
     inkscape:current-layer="layer1"
     showgrid="false"
     inkscape:window-width="1920"
     inkscape:window-height="1017"
     inkscape:window-x="-8"
     inkscape:window-y="-8"
     inkscape:window-maximized="1"
     showguides="false"
     inkscape:snap-global="false" />
  <metadata
     id="metadata5">
    <rdf:RDF>
      <cc:Work
         rdf:about="">
        <dc:format>image/svg+xml</dc:format>
        <dc:type
           rdf:resource="http://purl.org/dc/dcmitype/StillImage" />
        <dc:title />
      </cc:Work>
    </rdf:RDF>
  </metadata>
  <g
     inkscape:label="Layer 1"
     inkscape:groupmode="layer"
     id="layer1">
    <ellipse
       style="fill:#241c1c"
       id="path3345"
       cx="-4.1787953"
       cy="7.711051"
       rx="160.60135"
       ry="78.293159" />
    <path
       style="fill:#483737;fill-opacity:1;fill-rule:evenodd;stroke:none;stroke-width:0.28222221px;stroke-linecap:butt;stroke-linejoin:miter;stroke-opacity:1"
       d="m -79.958269,-17.115612 c 0,0 -11.41859,77.553584 24.57274,77.553584 42.257589,0 31.12531,-76.672293 31.12531,-76.672293 z"
       id="path3353"
       inkscape:connector-curvature="0"
       sodipodi:nodetypes="cscc" />
    <path
       sodipodi:nodetypes="cscc"
       inkscape:connector-curvature="0"
       id="path3355"
       d="m -69.633189,-17.115612 c 0,0 -7.91592,50.33196 17.03503,50.33196 29.29495,0 21.57749,-49.760005 21.57749,-49.760005 z"
       style="fill:#de8787;fill-opacity:1;fill-rule:evenodd;stroke:none;stroke-width:0.28222221px;stroke-linecap:butt;stroke-linejoin:miter;stroke-opacity:1" />
    <path
       sodipodi:nodetypes="cscc"
       inkscape:connector-curvature="0"
       id="path3357"
       d="m 22.174071,-17.115612 c 0,0 -11.418589,77.553584 24.57275,77.553584 42.25758,0 31.1253,-76.672293 31.1253,-76.672293 z"
       style="fill:#483737;fill-opacity:1;fill-rule:evenodd;stroke:none;stroke-width:0.28222221px;stroke-linecap:butt;stroke-linejoin:miter;stroke-opacity:1" />
    <path
       style="fill:#de8787;fill-opacity:1;fill-rule:evenodd;stroke:none;stroke-width:0.28222221px;stroke-linecap:butt;stroke-linejoin:miter;stroke-opacity:1"
       d="m 32.499151,-17.115612 c 0,0 -7.91592,50.33196 17.03504,50.33196 29.29493,0 21.57749,-49.760005 21.57749,-49.760005 z"
       id="path3359"
       inkscape:connector-curvature="0"
       sodipodi:nodetypes="cscc" />
    <circle
       style="fill:#000000;fill-opacity:1;stroke:none"
       id="path3363"
       cx="-24.967968"
       cy="-48.003128"
       r="10.110585" />
    <circle
       r="10.110585"
       cy="-48.003128"
       cx="15.715293"
       id="circle3365"
       style="fill:#000000;fill-opacity:1;stroke:none" />
    <path
       style="fill:#241c1c;fill-rule:evenodd;stroke:none;stroke-width:0.28222221px;stroke-linecap:butt;stroke-linejoin:miter;stroke-opacity:1"
       d="m -34.356149,-66.779941 c 0,0 9.15651,-13.801856 16.36944,-16.85098 9.1648802,-3.874258 20.6576606,-3.807747 29.85037,0 7.54865,3.126761 17.33239,17.332446 17.33239,17.332446 z"
       id="path3367"
       inkscape:connector-curvature="0"
       sodipodi:nodetypes="csscc" />
    <path
       sodipodi:nodetypes="csscc"
       inkscape:connector-curvature="0"
       id="path3369"
       d="m -18.525659,-79.549116 c 0,0 4.226969,-4.117892 7.556719,-5.027614 4.2307916,-1.155926 9.5362616,-1.136072 13.7799416,0 3.4847105,0.932886 8.0012204,5.171265 8.0012204,5.171265 z"
       style="fill:#de8787;fill-rule:evenodd;stroke:none;stroke-width:0.28222221px;stroke-linecap:butt;stroke-linejoin:miter;stroke-opacity:1" />
    <path
       sodipodi:nodetypes="cccsssscsc"
       inkscape:connector-curvature="0"
       id="path3371"
       d="m -125.06296,-24.465248 -8.2082,67.288757 -7.1967,-1.718839 c 0,0 0.0121,-85.202268 -39.88877,15.480765 -14.57228,36.770774 9.36711,-115.913507 -27.91013,-21.576529 -5.67024,14.349648 -14.03915,35.699267 -14.18848,16.479964 -0.15773,-20.299708 10.41699,-58.9398973 -1.54514,-55.9408267 -23.86534,5.9833561 -53.00945,39.3686567 -59.23412,41.9301707 0,0 50.67276,-67.846167 70.74015,-80.311919 36.85083,-22.891542 87.43139,18.368457 87.43139,18.368457 z"
       style="fill:#241c1c;fill-rule:evenodd;stroke:none;stroke-width:0.28222221px;stroke-linecap:butt;stroke-linejoin:miter;stroke-opacity:1" />
    <path
       style="fill:#241c1c;fill-rule:evenodd;stroke:none;stroke-width:0.28222221px;stroke-linecap:butt;stroke-linejoin:miter;stroke-opacity:1"
       d="m 123.94972,-24.465248 8.20819,67.288757 7.1967,-1.718839 c 0,0 -0.0121,-85.202268 39.88879,15.480765 14.57227,36.770774 -9.36712,-115.913507 27.91014,-21.576529 5.67024,14.349648 14.03914,35.699267 14.18845,16.479964 0.15775,-20.299708 -10.41699,-58.9398973 1.54515,-55.9408267 23.86533,5.9833561 53.00945,39.3686567 59.23412,41.9301707 0,0 -50.67276,-67.846167 -70.74015,-80.311919 -36.85084,-22.891542 -87.43139,18.368457 -87.43139,18.368457 z"
       id="path3344"
       inkscape:connector-curvature="0"
       sodipodi:nodetypes="cccsssscsc" />
  </g>
</svg>
