<?xml version="1.0" encoding="UTF-8" standalone="no"?>
<!-- Created with Inkscape (http://www.inkscape.org/) -->

<svg
   xmlns:dc="http://purl.org/dc/elements/1.1/"
   xmlns:cc="http://creativecommons.org/ns#"
   xmlns:rdf="http://www.w3.org/1999/02/22-rdf-syntax-ns#"
   xmlns:svg="http://www.w3.org/2000/svg"
   xmlns="http://www.w3.org/2000/svg"
   xmlns:sodipodi="http://sodipodi.sourceforge.net/DTD/sodipodi-0.dtd"
   xmlns:inkscape="http://www.inkscape.org/namespaces/inkscape"
   width="210mm"
   height="297mm"
   viewBox="0 0 210 297"
   version="1.1"
   id="svg8"
   inkscape:version="0.92.2 (5c3e80d, 2017-08-06)"
   sodipodi:docname="totem.svg">
  <defs
     id="defs2" />
  <sodipodi:namedview
     id="base"
     pagecolor="#ffffff"
     bordercolor="#666666"
     borderopacity="1.0"
     inkscape:pageopacity="0.0"
     inkscape:pageshadow="2"
     inkscape:zoom="0.087499999"
     inkscape:cx="-3407.6315"
     inkscape:cy="1324.1065"
     inkscape:document-units="mm"
     inkscape:current-layer="layer1"
     showgrid="false"
     inkscape:snap-global="false"
     inkscape:window-width="1366"
     inkscape:window-height="705"
     inkscape:window-x="-8"
     inkscape:window-y="-8"
     inkscape:window-maximized="1" />
  <metadata
     id="metadata5">
    <rdf:RDF>
      <cc:Work
         rdf:about="">
        <dc:format>image/svg+xml</dc:format>
        <dc:type
           rdf:resource="http://purl.org/dc/dcmitype/StillImage" />
        <dc:title />
      </cc:Work>
    </rdf:RDF>
  </metadata>
  <g
     inkscape:label="Layer 1"
     inkscape:groupmode="layer"
     id="layer1">
    <circle
       style="fill:#803300;stroke-width:0.26458332"
       id="path3757"
       cx="28.726231"
       cy="7.0166731"
       r="300.86905" />
    <circle
       r="270.63095"
       cy="10.040479"
       cx="25.702366"
       id="circle3759"
       style="fill:#0000ff;stroke-width:0.23799203" />
    <circle
       style="fill:#aa4400;stroke-width:0.22144739"
       id="circle3761"
       cx="26.965977"
       cy="5.0297127"
       r="251.81734" />
    <circle
       r="220.06734"
       cy="0.34280857"
       cx="31.123814"
       id="circle3763"
       style="fill:#ff0000;stroke-width:0.19352654" />
    <circle
       style="fill:#d45500;stroke-width:0.16375321"
       id="circle3769"
       cx="30.61594"
       cy="4.1516581"
       r="186.21085" />
    <path
       style="fill:#803300;stroke:none;stroke-width:0.26458332px;stroke-linecap:butt;stroke-linejoin:miter;stroke-opacity:1"
       d="m 77.220975,-252.3269 c 0,0 -5.93553,-108.86329 27.476215,-136.88987 33.41172,-28.02656 79.54714,-106.13294 84.19304,-64.0553 4.6459,42.07762 -28.76583,70.10418 -50.85687,145.55576 -22.09107,75.45157 -60.812385,55.38941 -60.812385,55.38941 z"
       id="path3772"
       inkscape:connector-curvature="0" />
    <path
       inkscape:connector-curvature="0"
       id="path3774"
       d="m -172.01236,-196.00901 c 0,0 -98.9773,-45.71581 -108.1028,-88.36035 -9.1255,-42.64454 -56.5487,-119.97582 -17.1912,-104.38399 39.3574,15.59184 48.4829,58.23638 104.8156,113.07775 56.3328,54.84141 20.4784,79.66659 20.4784,79.66659 z"
       style="fill:#803300;stroke:none;stroke-width:0.26458332px;stroke-linecap:butt;stroke-linejoin:miter;stroke-opacity:1" />
    <path
       style="fill:#803300;stroke:none;stroke-width:0.26458332px;stroke-linecap:butt;stroke-linejoin:miter;stroke-opacity:1"
       d="m -250.50726,37.590735 c 0,0 -96.6057,50.535046 -135.9623,31.749648 -39.3566,-18.785397 -129.5613,-28.386807 -93.1965,-50.0597 36.3649,-21.6727905 75.7215,-2.887401 153.5417,-14.0657739 77.8204,-11.1784235 75.6171,32.3758259 75.6171,32.3758259 z"
       id="path3776"
       inkscape:connector-curvature="0" />
    <path
       inkscape:connector-curvature="0"
       id="path3778"
       d="m -124.10826,249.71268 c 0,0 -19.1426,107.33131 -58.0829,126.9652 -38.9402,19.63389 -101.7303,85.10511 -96.6207,43.08125 5.1097,-42.02388 44.05,-61.65777 82.8265,-130.04871 38.7766,-68.39112 71.8771,-39.99774 71.8771,-39.99774 z"
       style="fill:#803300;stroke:none;stroke-width:0.26458332px;stroke-linecap:butt;stroke-linejoin:miter;stroke-opacity:1" />
    <path
       style="fill:#803300;stroke:none;stroke-width:0.26458332px;stroke-linecap:butt;stroke-linejoin:miter;stroke-opacity:1"
       d="m 106.05096,264.76751 c 0,0 93.61307,55.88419 98.19725,99.25263 4.58421,43.36835 43.60053,125.26343 6.10374,105.61391 -37.49677,-19.64962 -42.08096,-63.01806 -92.32552,-123.48643 -50.244675,-60.46851 -11.97547,-81.38011 -11.97547,-81.38011 z"
       id="path3780"
       inkscape:connector-curvature="0" />
    <path
       inkscape:connector-curvature="0"
       id="path3782"
       d="m 285.21064,-100.53402 c 0,0 86.50936,-66.35192 128.50427,-54.59337 41.99484,11.75851 132.50989,5.74997 100.40003,33.33747 -32.10994,27.587407 -74.10485,15.82889 -148.85562,40.185735 -74.75094,24.356915 -80.04868,-18.929835 -80.04868,-18.929835 z"
       style="fill:#803300;stroke:none;stroke-width:0.26458332px;stroke-linecap:butt;stroke-linejoin:miter;stroke-opacity:1" />
    <path
       style="fill:#803300;stroke:none;stroke-width:0.26458332px;stroke-linecap:butt;stroke-linejoin:miter;stroke-opacity:1"
       d="m 281.93166,116.45267 c 0,0 107.5216,18.04315 127.55304,56.78046 20.03141,38.73722 86.14187,100.85392 44.06791,96.1747 -42.07398,-4.67931 -62.10541,-43.4166 -130.88965,-81.4911 -68.78441,-38.07456 -40.7313,-71.46406 -40.7313,-71.46406 z"
       id="path3784"
       inkscape:connector-curvature="0" />
    <g
       id="g3807"
       transform="matrix(0.79667262,0.41363017,-0.41363017,0.79667262,810.28537,405.37198)">
      <path
         style="fill:#aa4400;stroke:none;stroke-width:0.24103497px;stroke-linecap:butt;stroke-linejoin:miter;stroke-opacity:1"
         d="m -934.66751,-225.905 c 0,0 -5.40726,-99.17428 25.03079,-124.70645 30.43802,-25.53215 72.4673,-96.68693 76.69971,-58.35427 4.23241,38.33264 -26.20562,63.86479 -46.33052,132.60106 -20.12492,68.73625 -55.39998,50.45966 -55.39998,50.45966 z"
         id="path3786"
         inkscape:connector-curvature="0" />
      <path
         inkscape:connector-curvature="0"
         id="path3788"
         d="m -1161.7187,-174.5995 c 0,0 -90.1681,-41.64703 -98.4814,-80.49613 -8.3134,-38.84911 -51.5158,-109.29777 -15.6612,-95.09364 35.8545,14.20414 44.1678,53.05324 95.4868,103.01364 51.3191,49.96043 18.6558,72.57613 18.6558,72.57613 z"
         style="fill:#aa4400;stroke:none;stroke-width:0.24103497px;stroke-linecap:butt;stroke-linejoin:miter;stroke-opacity:1" />
      <path
         style="fill:#aa4400;stroke:none;stroke-width:0.24103497px;stroke-linecap:butt;stroke-linejoin:miter;stroke-opacity:1"
         d="m -1233.2274,38.209682 c 0,0 -88.0076,46.037337 -123.8614,28.92387 -35.8538,-17.113465 -118.0302,-25.86033 -84.9019,-45.604292 33.1284,-19.7438828 68.9822,-2.630417 139.8763,-12.8138993 70.8942,-10.1835311 68.887,29.4943213 68.887,29.4943213 z"
         id="path3790"
         inkscape:connector-curvature="0" />
      <path
         inkscape:connector-curvature="0"
         id="path3792"
         d="m -1118.0781,231.45222 c 0,0 -17.4389,97.77864 -52.9134,115.66508 -35.4745,17.88644 -92.6762,77.53062 -88.0213,39.24695 4.6549,-38.28368 40.1294,-56.17013 75.4548,-118.47416 35.3254,-62.30419 65.4799,-36.43787 65.4799,-36.43787 z"
         style="fill:#aa4400;stroke:none;stroke-width:0.24103497px;stroke-linecap:butt;stroke-linejoin:miter;stroke-opacity:1" />
      <path
         style="fill:#aa4400;stroke:none;stroke-width:0.24103497px;stroke-linecap:butt;stroke-linejoin:miter;stroke-opacity:1"
         d="m -908.40344,245.16714 c 0,0 85.28134,50.91041 89.45752,90.41898 4.17621,39.5085 39.72001,114.11478 5.5605,96.2141 -34.1595,-17.90077 -38.33569,-57.40935 -84.10839,-112.49593 -45.77282,-55.08671 -10.90963,-74.13715 -10.90963,-74.13715 z"
         id="path3794"
         inkscape:connector-curvature="0" />
      <path
         inkscape:connector-curvature="0"
         id="path3796"
         d="m -745.18928,-87.621942 c 0,0 78.80988,-60.446488 117.06718,-49.734468 38.25723,10.71198 120.71629,5.23821 91.46426,30.37038 -29.2521,25.13211 -67.5094,14.42009 -135.60722,36.609231 -68.09799,22.18921 -72.92422,-17.245143 -72.92422,-17.245143 z"
         style="fill:#aa4400;stroke:none;stroke-width:0.24103497px;stroke-linecap:butt;stroke-linejoin:miter;stroke-opacity:1" />
      <path
         style="fill:#aa4400;stroke:none;stroke-width:0.24103497px;stroke-linecap:butt;stroke-linejoin:miter;stroke-opacity:1"
         d="m -748.17642,110.05268 c 0,0 97.95199,16.43719 116.2006,51.7268 18.24858,35.28954 78.4751,91.87775 40.1458,87.61499 -38.32933,-4.26285 -56.57793,-39.55245 -119.24026,-74.23826 -62.66248,-34.68586 -37.10614,-65.10353 -37.10614,-65.10353 z"
         id="path3798"
         inkscape:connector-curvature="0" />
    </g>
    <circle
       style="fill:#b3b3b3;stroke:none;stroke-width:0.26458332"
       id="path3809"
       cx="27.214329"
       cy="11.552377"
       r="75.595238" />
  </g>
</svg>
