<?xml version="1.0" encoding="UTF-8" standalone="no"?>
<!-- Created with Inkscape (http://www.inkscape.org/) -->

<svg
   xmlns:dc="http://purl.org/dc/elements/1.1/"
   xmlns:cc="http://creativecommons.org/ns#"
   xmlns:rdf="http://www.w3.org/1999/02/22-rdf-syntax-ns#"
   xmlns:svg="http://www.w3.org/2000/svg"
   xmlns="http://www.w3.org/2000/svg"
   xmlns:sodipodi="http://sodipodi.sourceforge.net/DTD/sodipodi-0.dtd"
   xmlns:inkscape="http://www.inkscape.org/namespaces/inkscape"
   width="210mm"
   height="297mm"
   viewBox="0 0 210 297"
   version="1.1"
   id="svg8"
   inkscape:version="0.91 r13725"
   sodipodi:docname="bush.svg">
  <defs
     id="defs2" />
  <sodipodi:namedview
     id="base"
     pagecolor="#ffffff"
     bordercolor="#666666"
     borderopacity="1.0"
     inkscape:pageopacity="0.0"
     inkscape:pageshadow="2"
     inkscape:zoom="0.175"
     inkscape:cx="-435.38116"
     inkscape:cy="1290.563"
     inkscape:document-units="mm"
     inkscape:current-layer="layer1"
     showgrid="false"
     inkscape:window-width="1920"
     inkscape:window-height="1017"
     inkscape:window-x="-8"
     inkscape:window-y="-8"
     inkscape:window-maximized="1" />
  <metadata
     id="metadata5">
    <rdf:RDF>
      <cc:Work
         rdf:about="">
        <dc:format>image/svg+xml</dc:format>
        <dc:type
           rdf:resource="http://purl.org/dc/dcmitype/StillImage" />
        <dc:title />
      </cc:Work>
    </rdf:RDF>
  </metadata>
  <g
     inkscape:label="Layer 1"
     inkscape:groupmode="layer"
     id="layer1">
    <rect
       style="opacity:1;fill:#008000;fill-opacity:1;stroke:none;stroke-width:0;stroke-linecap:round;stroke-miterlimit:4;stroke-dasharray:none;stroke-dashoffset:0;stroke-opacity:1"
       id="rect4139"
       width="556.79333"
       height="75.857407"
       x="-284.71927"
       y="108.60636"
       ry="0" />
    <ellipse
       style="opacity:1;fill:#008000;fill-opacity:1;stroke:none;stroke-width:0;stroke-linecap:round;stroke-miterlimit:4;stroke-dasharray:none;stroke-dashoffset:0;stroke-opacity:1"
       id="path4141"
       cx="-272.58209"
       cy="120.74355"
       rx="62.203079"
       ry="65.237373" />
    <ellipse
       cy="120.74355"
       cx="262.97116"
       id="circle4143"
       style="opacity:1;fill:#008000;fill-opacity:1;stroke:none;stroke-width:0;stroke-linecap:round;stroke-miterlimit:4;stroke-dasharray:none;stroke-dashoffset:0;stroke-opacity:1"
       rx="62.203079"
       ry="65.237373" />
    <ellipse
       style="opacity:1;fill:#008000;fill-opacity:1;stroke:none;stroke-width:0;stroke-linecap:round;stroke-miterlimit:4;stroke-dasharray:none;stroke-dashoffset:0;stroke-opacity:1"
       id="path4142"
       cx="-6.9458833"
       cy="18.367214"
       rx="312.79501"
       ry="161.72568" />
    <ellipse
       ry="123.80605"
       rx="239.45428"
       cy="-94.155632"
       cx="-2.5579746"
       id="ellipse4146"
       style="opacity:1;fill:#008000;fill-opacity:1;stroke:none;stroke-width:0;stroke-linecap:round;stroke-miterlimit:4;stroke-dasharray:none;stroke-dashoffset:0;stroke-opacity:1" />
    <path
       style="fill:#008000;fill-rule:evenodd;stroke:none;stroke-width:0.28222221px;stroke-linecap:butt;stroke-linejoin:miter;stroke-opacity:1"
       d="m -295.30161,-150.24617 c 0,0 51.09255,-29.69718 75.22125,-28.83481 21.66847,0.77443 48.89382,30.0885 48.89382,30.0885 0,0 -25.62839,32.21064 -50.1475,32.59589 -24.51913,0.38525 -73.96757,-33.84958 -73.96757,-33.84958 z"
       id="path3342"
       inkscape:connector-curvature="0"
       sodipodi:nodetypes="csczc" />
    <path
       sodipodi:nodetypes="csczc"
       inkscape:connector-curvature="0"
       id="path3344"
       d="m -361.74705,-82.547041 c 0,0 51.09255,-29.697169 75.22125,-28.834809 21.66847,0.77443 48.89382,30.088497 48.89382,30.088497 0,0 -25.62839,32.210638 -50.1475,32.595886 -24.51912,0.385248 -73.96757,-33.849574 -73.96757,-33.849574 z"
       style="fill:#008000;fill-rule:evenodd;stroke:none;stroke-width:0.28222221px;stroke-linecap:butt;stroke-linejoin:miter;stroke-opacity:1" />
    <path
       style="fill:#008000;fill-rule:evenodd;stroke:none;stroke-width:0.28222221px;stroke-linecap:butt;stroke-linejoin:miter;stroke-opacity:1"
       d="m -411.89455,-13.594227 c 0,0 51.09255,-29.697174 75.22125,-28.834813 21.66847,0.774431 48.89382,30.0885 48.89382,30.0885 0,0 -25.62838,32.210639 -50.1475,32.595886 -24.51913,0.385248 -73.96757,-33.849573 -73.96757,-33.849573 z"
       id="path3346"
       inkscape:connector-curvature="0"
       sodipodi:nodetypes="csczc" />
    <path
       sodipodi:nodetypes="csczc"
       inkscape:connector-curvature="0"
       id="path3348"
       d="m -411.89455,56.612274 c 0,0 51.09255,-29.697174 75.22125,-28.834813 21.66847,0.774431 48.89382,30.088501 48.89382,30.088501 0,0 -25.62838,32.210638 -50.1475,32.595885 -24.51913,0.385248 -73.96757,-33.849573 -73.96757,-33.849573 z"
       style="fill:#008000;fill-rule:evenodd;stroke:none;stroke-width:0.28222221px;stroke-linecap:butt;stroke-linejoin:miter;stroke-opacity:1" />
    <path
       style="fill:#008000;fill-rule:evenodd;stroke:none;stroke-width:0.28222221px;stroke-linecap:butt;stroke-linejoin:miter;stroke-opacity:1"
       d="m -431.95355,129.32615 c 0,0 51.09255,-29.697171 75.22125,-28.83482 21.66848,0.77443 48.89381,30.08851 48.89381,30.08851 0,0 -25.62838,32.21064 -50.14749,32.59588 -24.51912,0.38525 -73.96757,-33.84957 -73.96757,-33.84957 z"
       id="path3350"
       inkscape:connector-curvature="0"
       sodipodi:nodetypes="csczc" />
    <path
       sodipodi:nodetypes="csczc"
       inkscape:connector-curvature="0"
       id="path3352"
       d="m -96.599728,-290.03992 c 0,0 29.697174,51.09255 28.834813,75.22125 -0.774431,21.66848 -30.088501,48.89381 -30.088501,48.89381 0,0 -32.210644,-25.62838 -32.595884,-50.14749 -0.38525,-24.51912 33.849572,-73.96757 33.849572,-73.96757 z"
       style="fill:#008000;fill-rule:evenodd;stroke:none;stroke-width:0.28222221px;stroke-linecap:butt;stroke-linejoin:miter;stroke-opacity:1" />
    <path
       style="fill:#008000;fill-rule:evenodd;stroke:none;stroke-width:0.28222221px;stroke-linecap:butt;stroke-linejoin:miter;stroke-opacity:1"
       d="m 17.485837,-303.83048 c 0,0 29.697173,51.09254 28.834812,75.22126 -0.774431,21.66846 -30.0885,48.8938 -30.0885,48.8938 0,0 -32.21064,-25.62838 -32.595888,-50.1475 -0.385247,-24.51912 33.849576,-73.96756 33.849576,-73.96756 z"
       id="path3354"
       inkscape:connector-curvature="0"
       sodipodi:nodetypes="csczc" />
    <path
       sodipodi:nodetypes="csczc"
       inkscape:connector-curvature="0"
       id="path3356"
       d="m 103.99028,-298.81573 c 0,0 29.69717,51.09255 28.83481,75.22125 -0.77443,21.66847 -30.0885,48.89382 -30.0885,48.89382 0,0 -32.210642,-25.62838 -32.59589,-50.1475 -0.385247,-24.51913 33.84958,-73.96757 33.84958,-73.96757 z"
       style="fill:#008000;fill-rule:evenodd;stroke:none;stroke-width:0.28222221px;stroke-linecap:butt;stroke-linejoin:miter;stroke-opacity:1" />
    <path
       style="fill:#008000;fill-rule:evenodd;stroke:none;stroke-width:0.28222221px;stroke-linecap:butt;stroke-linejoin:miter;stroke-opacity:1"
       d="m 196.44172,-274.74149 c 0,0 15.46152,57.0378 8.38359,80.12115 -6.35626,20.7297 -41.71791,39.44031 -41.71791,39.44031 0,0 -24.47999,-33.09183 -18.50608,-56.87519 5.97388,-23.78337 51.8404,-62.68627 51.8404,-62.68627 z"
       id="path3358"
       inkscape:connector-curvature="0"
       sodipodi:nodetypes="csczc" />
    <path
       sodipodi:nodetypes="csczc"
       inkscape:connector-curvature="0"
       id="path3360"
       d="m -170.41621,-283.5576 c 0,0 41.909,41.66542 47.32099,65.19515 4.86017,21.13058 -16.40861,55.01528 -16.40861,55.01528 0,0 -37.7462,-16.41839 -44.46433,-40.00234 -6.71815,-23.58393 13.55195,-80.20809 13.55195,-80.20809 z"
       style="fill:#008000;fill-rule:evenodd;stroke:none;stroke-width:0.28222221px;stroke-linecap:butt;stroke-linejoin:miter;stroke-opacity:1" />
    <path
       sodipodi:nodetypes="csczc"
       inkscape:connector-curvature="0"
       id="path3374"
       d="m -319.12167,-116.3966 c 0,0 51.09254,-29.69718 75.22125,-28.83481 21.66848,0.77443 48.89381,30.08849 48.89381,30.08849 0,0 -25.62838,32.210643 -50.1475,32.59589 -24.51912,0.385248 -73.96756,-33.84957 -73.96756,-33.84957 z"
       style="fill:#008000;fill-rule:evenodd;stroke:none;stroke-width:0.28222221px;stroke-linecap:butt;stroke-linejoin:miter;stroke-opacity:1" />
    <path
       style="fill:#008000;fill-rule:evenodd;stroke:none;stroke-width:0.28222221px;stroke-linecap:butt;stroke-linejoin:miter;stroke-opacity:1"
       d="m -383.05973,-44.936415 c 0,0 51.09254,-29.697174 75.22124,-28.834813 21.66847,0.774431 48.89382,30.0885 48.89382,30.0885 0,0 -25.62838,32.210639 -50.1475,32.595887 -24.51912,0.385247 -73.96756,-33.849574 -73.96756,-33.849574 z"
       id="path3376"
       inkscape:connector-curvature="0"
       sodipodi:nodetypes="csczc" />
    <path
       sodipodi:nodetypes="csczc"
       inkscape:connector-curvature="0"
       id="path3378"
       d="m -414.40192,21.509023 c 0,0 51.09254,-29.6971733 75.22124,-28.834813 21.66848,0.7744312 48.89382,30.0885 48.89382,30.0885 0,0 -25.62838,32.21064 -50.1475,32.595889 -24.51912,0.385247 -73.96756,-33.849576 -73.96756,-33.849576 z"
       style="fill:#008000;fill-rule:evenodd;stroke:none;stroke-width:0.28222221px;stroke-linecap:butt;stroke-linejoin:miter;stroke-opacity:1" />
    <path
       style="fill:#008000;fill-rule:evenodd;stroke:none;stroke-width:0.28222221px;stroke-linecap:butt;stroke-linejoin:miter;stroke-opacity:1"
       d="m -429.44617,94.222899 c 0,0 51.09255,-29.697174 75.22125,-28.834813 21.66847,0.774431 48.89381,30.088501 48.89381,30.088501 0,0 -25.62838,32.210643 -50.1475,32.595883 -24.51912,0.38525 -73.96756,-33.849571 -73.96756,-33.849571 z"
       id="path3380"
       inkscape:connector-curvature="0"
       sodipodi:nodetypes="csczc" />
    <path
       style="fill:#008000;fill-rule:evenodd;stroke:none;stroke-width:0.28222221px;stroke-linecap:butt;stroke-linejoin:miter;stroke-opacity:1"
       d="m -221.76514,-254.65634 c 0,0 51.26478,29.39887 62.58231,50.72613 10.16355,19.15266 -1.6105,57.38753 -1.6105,57.38753 0,0 -40.70942,-6.0895 -53.30262,-27.13107 -12.5932,-21.04155 -7.66919,-80.98259 -7.66919,-80.98259 z"
       id="path3382"
       inkscape:connector-curvature="0"
       sodipodi:nodetypes="csczc" />
    <path
       style="fill:#008000;fill-rule:evenodd;stroke:none;stroke-width:0.28222221px;stroke-linecap:butt;stroke-linejoin:miter;stroke-opacity:1"
       d="m -41.437477,-291.2936 c 0,0 29.697173,51.09254 28.834813,75.22125 -0.774431,21.66846 -30.0885,48.89381 -30.0885,48.89381 0,0 -32.21064,-25.62838 -32.595888,-50.1475 -0.385247,-24.51912 33.849575,-73.96756 33.849575,-73.96756 z"
       id="path3384"
       inkscape:connector-curvature="0"
       sodipodi:nodetypes="csczc" />
    <path
       sodipodi:nodetypes="csczc"
       inkscape:connector-curvature="0"
       id="path3386"
       d="m 58.857525,-300.06942 c 0,0 29.697178,51.09255 28.834814,75.22126 -0.774433,21.66847 -30.088502,48.89381 -30.088502,48.89381 0,0 -32.21064,-25.62838 -32.595888,-50.14751 -0.385247,-24.51911 33.849576,-73.96756 33.849576,-73.96756 z"
       style="fill:#008000;fill-rule:evenodd;stroke:none;stroke-width:0.28222221px;stroke-linecap:butt;stroke-linejoin:miter;stroke-opacity:1" />
    <path
       style="fill:#008000;fill-rule:evenodd;stroke:none;stroke-width:0.28222221px;stroke-linecap:butt;stroke-linejoin:miter;stroke-opacity:1"
       d="m 145.36196,-287.53254 c 0,0 29.69718,51.09255 28.83481,75.22125 -0.77443,21.66847 -30.08849,48.89381 -30.08849,48.89381 0,0 -32.21064,-25.62838 -32.5959,-50.1475 -0.38524,-24.51911 33.84958,-73.96756 33.84958,-73.96756 z"
       id="path3388"
       inkscape:connector-curvature="0"
       sodipodi:nodetypes="csczc" />
    <path
       sodipodi:nodetypes="csczc"
       inkscape:connector-curvature="0"
       id="path3390"
       d="m 247.54627,-250.90132 c 0,0 0.17222,59.09601 -12.63896,79.56091 -11.50492,18.37822 -50.50431,27.29903 -50.50431,27.29903 0,0 -15.08104,-38.30014 -3.15512,-59.72695 11.92593,-21.4268 66.29839,-47.13299 66.29839,-47.13299 z"
       style="fill:#008000;fill-rule:evenodd;stroke:none;stroke-width:0.28222221px;stroke-linecap:butt;stroke-linejoin:miter;stroke-opacity:1" />
    <path
       sodipodi:nodetypes="csczc"
       inkscape:connector-curvature="0"
       id="path3392"
       d="m 287.66309,-150.24617 c 0,0 -51.09255,-29.69718 -75.22125,-28.83481 -21.66848,0.77443 -48.89381,30.0885 -48.89381,30.0885 0,0 25.62838,32.21064 50.14749,32.59589 24.51912,0.38525 73.96757,-33.84958 73.96757,-33.84958 z"
       style="fill:#008000;fill-rule:evenodd;stroke:none;stroke-width:0.28222221px;stroke-linecap:butt;stroke-linejoin:miter;stroke-opacity:1" />
    <path
       style="fill:#008000;fill-rule:evenodd;stroke:none;stroke-width:0.28222221px;stroke-linecap:butt;stroke-linejoin:miter;stroke-opacity:1"
       d="m 354.10853,-82.547041 c 0,0 -51.09255,-29.697169 -75.22126,-28.834809 -21.66847,0.77443 -48.8938,30.088497 -48.8938,30.088497 0,0 25.62838,32.210638 50.14749,32.595886 24.51912,0.385248 73.96757,-33.849574 73.96757,-33.849574 z"
       id="path3394"
       inkscape:connector-curvature="0"
       sodipodi:nodetypes="csczc" />
    <path
       sodipodi:nodetypes="csczc"
       inkscape:connector-curvature="0"
       id="path3396"
       d="m 404.25603,-13.594227 c 0,0 -51.09255,-29.697174 -75.22125,-28.834813 -21.66848,0.774431 -48.89382,30.0885 -48.89382,30.0885 0,0 25.62839,32.210639 50.1475,32.595886 24.51912,0.385248 73.96757,-33.849573 73.96757,-33.849573 z"
       style="fill:#008000;fill-rule:evenodd;stroke:none;stroke-width:0.28222221px;stroke-linecap:butt;stroke-linejoin:miter;stroke-opacity:1" />
    <path
       style="fill:#008000;fill-rule:evenodd;stroke:none;stroke-width:0.28222221px;stroke-linecap:butt;stroke-linejoin:miter;stroke-opacity:1"
       d="m 404.25603,56.612274 c 0,0 -51.09255,-29.697174 -75.22125,-28.834813 -21.66848,0.774431 -48.89382,30.088501 -48.89382,30.088501 0,0 25.62839,32.210638 50.1475,32.595885 24.51912,0.385248 73.96757,-33.849573 73.96757,-33.849573 z"
       id="path3398"
       inkscape:connector-curvature="0"
       sodipodi:nodetypes="csczc" />
    <path
       sodipodi:nodetypes="csczc"
       inkscape:connector-curvature="0"
       id="path3400"
       d="m 424.31503,129.32615 c 0,0 -51.09255,-29.697171 -75.22126,-28.83482 -21.66847,0.77443 -48.89381,30.08851 -48.89381,30.08851 0,0 25.62838,32.21064 50.14751,32.59588 24.51911,0.38525 73.96756,-33.84957 73.96756,-33.84957 z"
       style="fill:#008000;fill-rule:evenodd;stroke:none;stroke-width:0.28222221px;stroke-linecap:butt;stroke-linejoin:miter;stroke-opacity:1" />
    <path
       style="fill:#008000;fill-rule:evenodd;stroke:none;stroke-width:0.28222221px;stroke-linecap:butt;stroke-linejoin:miter;stroke-opacity:1"
       d="m 311.48315,-116.3966 c 0,0 -51.09254,-29.69718 -75.22126,-28.83481 -21.66846,0.77443 -48.89381,30.08849 -48.89381,30.08849 0,0 25.62838,32.210643 50.14751,32.59589 24.51912,0.385248 73.96756,-33.84957 73.96756,-33.84957 z"
       id="path3402"
       inkscape:connector-curvature="0"
       sodipodi:nodetypes="csczc" />
    <path
       sodipodi:nodetypes="csczc"
       inkscape:connector-curvature="0"
       id="path3404"
       d="m 375.42122,-44.936415 c 0,0 -51.09255,-29.697174 -75.22126,-28.834813 -21.66847,0.774431 -48.89381,30.0885 -48.89381,30.0885 0,0 25.62838,32.210639 50.1475,32.595887 24.51912,0.385247 73.96757,-33.849574 73.96757,-33.849574 z"
       style="fill:#008000;fill-rule:evenodd;stroke:none;stroke-width:0.28222221px;stroke-linecap:butt;stroke-linejoin:miter;stroke-opacity:1" />
    <path
       style="fill:#008000;fill-rule:evenodd;stroke:none;stroke-width:0.28222221px;stroke-linecap:butt;stroke-linejoin:miter;stroke-opacity:1"
       d="m 406.7634,21.509023 c 0,0 -51.09254,-29.6971733 -75.22125,-28.834813 -21.66847,0.7744312 -48.89382,30.0885 -48.89382,30.0885 0,0 25.62838,32.21064 50.14751,32.595889 24.51912,0.385247 73.96756,-33.849576 73.96756,-33.849576 z"
       id="path3406"
       inkscape:connector-curvature="0"
       sodipodi:nodetypes="csczc" />
    <path
       sodipodi:nodetypes="csczc"
       inkscape:connector-curvature="0"
       id="path3408"
       d="m 421.80765,94.222899 c 0,0 -51.09254,-29.697174 -75.22125,-28.834813 -21.66848,0.774431 -48.89381,30.088501 -48.89381,30.088501 0,0 25.62838,32.210643 50.1475,32.595883 24.51912,0.38525 73.96756,-33.849571 73.96756,-33.849571 z"
       style="fill:#008000;fill-rule:evenodd;stroke:none;stroke-width:0.28222221px;stroke-linecap:butt;stroke-linejoin:miter;stroke-opacity:1" />
    <path
       sodipodi:nodetypes="csczc"
       inkscape:connector-curvature="0"
       id="path3410"
       d="m -403.57662,198.30044 c 0,0 29.39885,-51.26477 50.72611,-62.58229 19.15266,-10.16356 57.38754,1.61049 57.38754,1.61049 0,0 -6.08951,40.70942 -27.13108,53.30262 -21.04155,12.59319 -80.98257,7.66918 -80.98257,7.66918 z"
       style="fill:#008000;fill-rule:evenodd;stroke:none;stroke-width:0.28222221px;stroke-linecap:butt;stroke-linejoin:miter;stroke-opacity:1" />
    <path
       style="fill:#008000;fill-rule:evenodd;stroke:none;stroke-width:0.28222221px;stroke-linecap:butt;stroke-linejoin:miter;stroke-opacity:1"
       d="m 391.55778,198.30044 c 0,0 -29.39885,-51.26477 -50.72611,-62.58229 -19.15266,-10.16356 -57.38753,1.61049 -57.38753,1.61049 0,0 6.08951,40.70942 27.13107,53.30262 21.04156,12.59319 80.98257,7.66918 80.98257,7.66918 z"
       id="path3412"
       inkscape:connector-curvature="0"
       sodipodi:nodetypes="csczc" />
    <path
       style="fill:#a05a2c;fill-rule:evenodd;stroke:none;stroke-width:0.28222221px;stroke-linecap:butt;stroke-linejoin:miter;stroke-opacity:1"
       d="m -16.126984,185.72381 0,-204.812703 c 0,0 -190.298416,-77.409525 -175.784126,-93.536507 14.51428,-16.12698 166.107935,85.473015 179.009523,74.184126 C 0,-49.730163 3.225397,-185.19683 20.965079,-173.90794 38.704762,-162.61905 -1.6126984,-33.603178 9.6761906,-35.215878 20.965079,-36.828574 188.68572,-67.469844 195.13651,-54.568259 201.5873,-41.66667 12.901587,-36.828574 11.288889,-15.863496 c -1.6126984,20.9650792 0,199.974606 0,199.974606 z"
       id="path3414"
       inkscape:connector-curvature="0" />
    <ellipse
       ry="31.060738"
       rx="56.134483"
       style="opacity:1;fill:#00ff00;fill-opacity:1;stroke:none;stroke-width:0;stroke-linecap:round;stroke-miterlimit:4;stroke-dasharray:none;stroke-dashoffset:0;stroke-opacity:1"
       id="ellipse3416"
       cx="-76.583336"
       cy="-70.816803" />
    <ellipse
       ry="31.060738"
       rx="56.134483"
       cy="-70.816803"
       cx="84.234352"
       id="ellipse3418"
       style="opacity:1;fill:#00ff00;fill-opacity:1;stroke:none;stroke-width:0;stroke-linecap:round;stroke-miterlimit:4;stroke-dasharray:none;stroke-dashoffset:0;stroke-opacity:1" />
    <path
       sodipodi:nodetypes="csczc"
       inkscape:connector-curvature="0"
       id="path3420"
       d="m 67.367392,68.752235 c 0,0 -51.09254,29.697173 -75.2212601,28.834812 -21.6684569,-0.774431 -48.8937969,-30.0885 -48.8937969,-30.0885 0,0 25.62838,-32.21064 50.1474969,-32.595888 C 17.918952,34.517412 67.367392,68.752235 67.367392,68.752235 Z"
       style="fill:#008000;fill-rule:evenodd;stroke:none;stroke-width:0.28222221px;stroke-linecap:butt;stroke-linejoin:miter;stroke-opacity:1" />
    <path
       style="fill:#008000;fill-rule:evenodd;stroke:none;stroke-width:0.28222221px;stroke-linecap:butt;stroke-linejoin:miter;stroke-opacity:1"
       d="m -77.66337,-111.91936 c 0,0 29.697172,51.092535 28.834811,75.221255 -0.774431,21.668459 -30.088501,48.893795 -30.088501,48.893795 0,0 -32.21064,-25.628376 -32.59589,-50.147495 -0.38524,-24.51912 33.84958,-73.967555 33.84958,-73.967555 z"
       id="path3422"
       inkscape:connector-curvature="0"
       sodipodi:nodetypes="csczc" />
    <path
       sodipodi:nodetypes="csczc"
       inkscape:connector-curvature="0"
       id="path3424"
       d="m 90.057265,-113.53206 c 0,0 29.697185,51.092537 28.834815,75.221257 -0.77443,21.668459 -30.088505,48.893795 -30.088505,48.893795 0,0 -32.21064,-25.628376 -32.59589,-50.147495 -0.38524,-24.51912 33.84958,-73.967557 33.84958,-73.967557 z"
       style="fill:#008000;fill-rule:evenodd;stroke:none;stroke-width:0.28222221px;stroke-linecap:butt;stroke-linejoin:miter;stroke-opacity:1" />
    <path
       style="fill:#008000;fill-rule:evenodd;stroke:none;stroke-width:0.28222221px;stroke-linecap:butt;stroke-linejoin:miter;stroke-opacity:1"
       d="m 77.043577,-131.22237 c 0,0 -51.09254,29.69718 -75.2212606,28.83481 -21.6684544,-0.77443 -48.8937904,-30.0885 -48.8937904,-30.0885 0,0 25.628376,-32.21064 50.1474904,-32.59589 24.5191206,-0.38524 73.9675606,33.84958 73.9675606,33.84958 z"
       id="path3426"
       inkscape:connector-curvature="0"
       sodipodi:nodetypes="csczc" />
  </g>
</svg>
