<?xml version="1.0" encoding="UTF-8" standalone="no"?>
<!-- Created with Inkscape (http://www.inkscape.org/) -->

<svg
   xmlns:dc="http://purl.org/dc/elements/1.1/"
   xmlns:cc="http://creativecommons.org/ns#"
   xmlns:rdf="http://www.w3.org/1999/02/22-rdf-syntax-ns#"
   xmlns:svg="http://www.w3.org/2000/svg"
   xmlns="http://www.w3.org/2000/svg"
   xmlns:sodipodi="http://sodipodi.sourceforge.net/DTD/sodipodi-0.dtd"
   xmlns:inkscape="http://www.inkscape.org/namespaces/inkscape"
   width="210mm"
   height="297mm"
   viewBox="0 0 210 297"
   version="1.1"
   id="svg8"
   inkscape:version="0.91 r13725"
   sodipodi:docname="2.svg">
  <defs
     id="defs2">
    <pattern
       y="0"
       x="0"
       height="6"
       width="6"
       patternUnits="userSpaceOnUse"
       id="EMFhbasepattern" />
  </defs>
  <sodipodi:namedview
     id="base"
     pagecolor="#ffffff"
     bordercolor="#666666"
     borderopacity="1.0"
     inkscape:pageopacity="0.0"
     inkscape:pageshadow="2"
     inkscape:zoom="0.030935923"
     inkscape:cx="4962.919"
     inkscape:cy="-1555.6505"
     inkscape:document-units="mm"
     inkscape:current-layer="layer1"
     showgrid="false"
     inkscape:window-width="1920"
     inkscape:window-height="1017"
     inkscape:window-x="-8"
     inkscape:window-y="-8"
     inkscape:window-maximized="1" />
  <metadata
     id="metadata5">
    <rdf:RDF>
      <cc:Work
         rdf:about="">
        <dc:format>image/svg+xml</dc:format>
        <dc:type
           rdf:resource="http://purl.org/dc/dcmitype/StillImage" />
        <dc:title />
      </cc:Work>
    </rdf:RDF>
  </metadata>
  <g
     inkscape:label="Layer 1"
     inkscape:groupmode="layer"
     id="layer1">
    <g
       id="g3363"
       transform="translate(590.2476,303.18729)">
      <path
         sodipodi:nodetypes="cscccc"
         inkscape:connector-curvature="0"
         id="path3355"
         d="m -970.28181,-184.62048 c 0,0 4.5566,-44.37098 11.91782,-46.42879 7.87264,-2.20078 31.72307,34.73525 31.72307,34.73525 l 57.01095,171.82069 -62.49809,16.7463098 z"
         style="fill:#008000;fill-rule:evenodd;stroke:#000000;stroke-width:0.09761196px;stroke-linecap:butt;stroke-linejoin:miter;stroke-opacity:1" />
      <path
         style="fill:#008000;fill-rule:evenodd;stroke:#000000;stroke-width:0.09761196px;stroke-linecap:butt;stroke-linejoin:miter;stroke-opacity:1"
         d="m -887.18883,-201.87732 c 0,0 15.88539,-41.67974 23.52839,-41.76221 8.17399,-0.0882 21.65198,41.76221 21.65198,41.76221 l 10.59788,180.72157 -64.70278,-10e-6 z"
         id="path3357"
         inkscape:connector-curvature="0"
         sodipodi:nodetypes="cscccc" />
      <path
         sodipodi:nodetypes="cscccc"
         inkscape:connector-curvature="0"
         id="path3359"
         d="m -809.61341,-198.89442 c 0,0 26.13162,-36.14809 33.53554,-34.2496 7.91829,2.0304 10.10535,45.94315 10.10535,45.94315 l -36.53742,177.3065617 -62.49808,-16.7463187 z"
         style="fill:#008000;fill-rule:evenodd;stroke:#000000;stroke-width:0.09761196px;stroke-linecap:butt;stroke-linejoin:miter;stroke-opacity:1" />
      <rect
         y="-44.892048"
         x="-932.13959"
         height="164.49522"
         width="132.24126"
         id="rect3361"
         style="fill:#008000" />
    </g>
    <g
       transform="translate(1241.7777,303.18729)"
       id="g3369">
      <path
         style="fill:#008000;fill-rule:evenodd;stroke:#000000;stroke-width:0.09761196px;stroke-linecap:butt;stroke-linejoin:miter;stroke-opacity:1"
         d="m -970.28181,-184.62048 c 0,0 4.5566,-44.37098 11.91782,-46.42879 7.87264,-2.20078 31.72307,34.73525 31.72307,34.73525 l 57.01095,171.82069 -62.49809,16.7463098 z"
         id="path3371"
         inkscape:connector-curvature="0"
         sodipodi:nodetypes="cscccc" />
      <path
         sodipodi:nodetypes="cscccc"
         inkscape:connector-curvature="0"
         id="path3373"
         d="m -887.18883,-201.87732 c 0,0 15.88539,-41.67974 23.52839,-41.76221 8.17399,-0.0882 21.65198,41.76221 21.65198,41.76221 l 10.59788,180.72157 -64.70278,-10e-6 z"
         style="fill:#008000;fill-rule:evenodd;stroke:#000000;stroke-width:0.09761196px;stroke-linecap:butt;stroke-linejoin:miter;stroke-opacity:1" />
      <path
         style="fill:#008000;fill-rule:evenodd;stroke:#000000;stroke-width:0.09761196px;stroke-linecap:butt;stroke-linejoin:miter;stroke-opacity:1"
         d="m -809.61341,-198.89442 c 0,0 26.13162,-36.14809 33.53554,-34.2496 7.91829,2.0304 10.10535,45.94315 10.10535,45.94315 l -36.53742,177.3065617 -62.49808,-16.7463187 z"
         id="path3375"
         inkscape:connector-curvature="0"
         sodipodi:nodetypes="cscccc" />
      <rect
         style="fill:#008000"
         id="rect3377"
         width="132.24126"
         height="164.49522"
         x="-932.13959"
         y="-44.892048" />
    </g>
    <g
       transform="matrix(3.5570333,0,0,3.5570333,-31.251284,582.32124)"
       id="g3399">
      <path
         inkscape:connector-curvature="0"
         id="path3401"
         d="m -37.797038,294.09432 c 0,0 -143.231832,-237.522702 4.25557,-451.23982 53.86129,-78.33254 128.86908,28.32743 128.86908,28.32743 0,0 144.428018,205.604478 -4.25579,431.42398 0,0 -126.47492,-19.41689 -128.86886,-8.51159 z"
         style="fill:#008000;fill-opacity:1;fill-rule:evenodd;stroke:none" />
      <path
         inkscape:connector-curvature="0"
         id="path3403"
         d="m -10.001918,-318.06638 c 0,0 -53.32943,-38.43327 2.3937098,-104.39739 36.4396202,-43.35561 64.7670402,-6.5166 64.7670402,-6.5166 0,0 70.884908,54.52674 3.45767,112.77584 0,0 -69.2884302,-4.38893 -70.61842,-1.86119 z"
         style="fill:#008000;fill-opacity:1;fill-rule:evenodd;stroke:none" />
      <path
         inkscape:connector-curvature="0"
         id="path3405"
         d="m -39.924938,287.84376 c 0,0 115.775293,226.21845 -4.716005,306.67845 -43.548754,112.38566 42.8062352,167.06553 42.8062352,167.06553 0,0 37.5213028,-78.36021 39.6491928,-173.44922 2.12834,-95.22214 57.513127,-291.78317 57.513127,-291.78317 z"
         style="fill:#008000;fill-opacity:1;fill-rule:evenodd;stroke:none"
         sodipodi:nodetypes="cccccc" />
      <path
         inkscape:connector-curvature="0"
         id="path3407"
         d="m -6.9432082,147.80445 c 0,0 -116.3675318,-113.309702 -143.0987018,-54.659862 -26.8643,58.782522 30.98697,-93.36073991 30.98697,-93.36073991 L -166.26695,-70.968142 c 0,0 5.98474,-36.970138 54.79255,-38.831998 48.808042,-1.86118 108.3880318,31.251228 106.2601318,48.540438 -2.12834,17.28899 -1.72983,209.064152 -1.72983,209.064152 z"
         style="fill:#338000;fill-opacity:1;fill-rule:evenodd;stroke:none" />
      <path
         inkscape:connector-curvature="0"
         id="path3409"
         d="m 61.680442,147.80445 c 0,0 116.368418,-113.309702 143.231158,-54.659862 C 231.643,151.92711 173.9262,-0.21615191 173.9262,-0.21615191 L 221.00374,-70.968142 c 0,0 -5.98474,-36.970138 -54.79122,-38.831998 -48.80826,-1.86118 -108.255778,31.251228 -106.127888,48.540438 1.99477,17.28899 1.59626,209.064152 1.59626,209.064152 z"
         style="fill:#338000;fill-opacity:1;fill-rule:evenodd;stroke:none" />
      <path
         inkscape:connector-curvature="0"
         id="path3411"
         d="m -7.4750782,-309.68793 c 0,0 -50.5367598,-38.30013 2.26081,-104.39738 34.5775402,-43.35562 61.3089302,-6.5166 61.3089302,-6.5166 0,0 67.427238,54.65986 3.32498,112.90874 0,0 -65.6978602,-4.52161 -66.8947202,-1.99476 z"
         style="fill:#800000;fill-opacity:1;fill-rule:evenodd;stroke:none" />
      <path
         inkscape:connector-curvature="0"
         id="path3413"
         d="m -31.147528,-148.89996 c 0,0 -83.651622,-79.92858 3.7237,-217.97313 57.18605,-90.56784 101.60561,-13.56506 101.60561,-13.56506 0,0 111.314718,113.9727 5.31974,235.66085 0,0 -108.52116,-9.30949 -110.64905,-4.12266 z"
         style="fill:#008000;fill-opacity:1;fill-rule:evenodd;stroke:none" />
      <path
         inkscape:connector-curvature="0"
         id="path3415"
         d="m 2.3662818,-380.43815 c 11.5698502,0 21.1453802,3.32476 21.1453802,7.44764 0,4.12266 -9.57553,7.44741 -21.1453802,7.44741 -11.70321,0 -21.1456098,-3.32475 -21.1456098,-7.44741 0,-4.12288 9.4423998,-7.44764 21.1456098,-7.44764 z"
         style="fill:#ffffff;fill-opacity:1;fill-rule:nonzero;stroke:none" />
      <path
         inkscape:connector-curvature="0"
         id="path3417"
         d="m 3.2973218,-380.43815 c 3.59079,0 6.38369,1.86119 6.38369,4.12266 0,2.12834 -2.7929,3.98975 -6.38369,3.98975 -3.45788996,0 -6.25078,-1.86118 -6.25078,-3.98975 0,-2.2608 2.79289004,-4.12266 6.25078,-4.12266 z"
         style="fill:#ff0000;fill-opacity:1;fill-rule:nonzero;stroke:none" />
      <path
         inkscape:connector-curvature="0"
         id="path3419"
         d="m 48.780162,-380.43815 c 11.70343,0 21.14583,3.32476 21.14583,7.44764 0,4.12266 -9.4424,7.44741 -21.14583,7.44741 -11.5703,0 -21.14584,-3.32475 -21.14584,-7.44741 0,-4.12288 9.57554,-7.44764 21.14584,-7.44764 z"
         style="fill:#ffffff;fill-opacity:1;fill-rule:nonzero;stroke:none" />
      <path
         inkscape:connector-curvature="0"
         id="path3421"
         d="m 49.844102,-380.43815 c 3.5908,0 6.38369,1.86119 6.38369,4.12266 0,2.12834 -2.79289,3.98975 -6.38369,3.98975 -3.45788,0 -6.25055,-1.86118 -6.25055,-3.98975 0,-2.2608 2.79267,-4.12266 6.25055,-4.12266 z"
         style="fill:#ff0000;fill-opacity:1;fill-rule:nonzero;stroke:none" />
      <path
         inkscape:connector-curvature="0"
         id="path3423"
         d="m -14.124578,-355.16966 -3.32476,-10.10739 38.30102,-8.51159 3.32498,10.24053 z"
         style="fill:#5aa02c;fill-opacity:1;fill-rule:nonzero;stroke:none" />
      <path
         inkscape:connector-curvature="0"
         id="path3425"
         d="m 65.936242,-355.16966 3.32475,-10.10739 -38.16878,-8.51159 -3.32475,10.24053 z"
         style="fill:#5aa02c;fill-opacity:1;fill-rule:nonzero;stroke:none" />
      <path
         inkscape:connector-curvature="0"
         id="path3427"
         d="m 72.984922,-400.25399 -4.12288,12.3682 -8.6445,-9.70844 z"
         style="fill:#ffeeaa;fill-opacity:1;fill-rule:nonzero;stroke:none" />
      <path
         inkscape:connector-curvature="0"
         id="path3429"
         d="m 49.046202,-417.80902 1.46268,12.90029 -11.83634,-5.18683 z"
         style="fill:#ffeeaa;fill-opacity:1;fill-rule:nonzero;stroke:none" />
      <path
         inkscape:connector-curvature="0"
         id="path3431"
         d="m 19.255872,-420.469 8.6445,9.57553 -12.63425,2.79289 z"
         style="fill:#ffeeaa;fill-opacity:1;fill-rule:nonzero;stroke:none" />
      <path
         inkscape:connector-curvature="0"
         id="path3433"
         d="m -9.8690082,-405.44082 12.36842,3.98975 -9.57553,8.77763 z"
         style="fill:#ffeeaa;fill-opacity:1;fill-rule:nonzero;stroke:none" />
      <path
         inkscape:connector-curvature="0"
         id="path3435"
         d="m -5.7461282,-413.9524 8.37845,-9.84136 4.3887,12.3682 z"
         style="fill:#ffeeaa;fill-opacity:1;fill-rule:nonzero;stroke:none" />
      <path
         inkscape:connector-curvature="0"
         id="path3437"
         d="m 29.230362,-435.76301 12.63424,2.9258 -8.91053,9.4424 z"
         style="fill:#ffeeaa;fill-opacity:1;fill-rule:nonzero;stroke:none" />
      <path
         inkscape:connector-curvature="0"
         id="path3439"
         d="m 60.350452,-417.14425 8.51159,9.84158 -12.76738,2.39394 z"
         style="fill:#ffeeaa;fill-opacity:1;fill-rule:nonzero;stroke:none" />
    </g>
  </g>
</svg>
