<?xml version="1.0" encoding="UTF-8" standalone="no"?>
<!-- Created with Inkscape (http://www.inkscape.org/) -->

<svg
   xmlns:dc="http://purl.org/dc/elements/1.1/"
   xmlns:cc="http://creativecommons.org/ns#"
   xmlns:rdf="http://www.w3.org/1999/02/22-rdf-syntax-ns#"
   xmlns:svg="http://www.w3.org/2000/svg"
   xmlns="http://www.w3.org/2000/svg"
   xmlns:sodipodi="http://sodipodi.sourceforge.net/DTD/sodipodi-0.dtd"
   xmlns:inkscape="http://www.inkscape.org/namespaces/inkscape"
   width="210mm"
   height="297mm"
   viewBox="0 0 210 297"
   version="1.1"
   id="svg8"
   inkscape:version="0.91 r13725"
   sodipodi:docname="3.svg">
  <defs
     id="defs2" />
  <sodipodi:namedview
     id="base"
     pagecolor="#ffffff"
     bordercolor="#666666"
     borderopacity="1.0"
     inkscape:pageopacity="0.0"
     inkscape:pageshadow="2"
     inkscape:zoom="0.24748738"
     inkscape:cx="-438.27571"
     inkscape:cy="1129.1176"
     inkscape:document-units="mm"
     inkscape:current-layer="layer1"
     showgrid="false"
     inkscape:window-width="1920"
     inkscape:window-height="1017"
     inkscape:window-x="-8"
     inkscape:window-y="-8"
     inkscape:window-maximized="1" />
  <metadata
     id="metadata5">
    <rdf:RDF>
      <cc:Work
         rdf:about="">
        <dc:format>image/svg+xml</dc:format>
        <dc:type
           rdf:resource="http://purl.org/dc/dcmitype/StillImage" />
        <dc:title />
      </cc:Work>
    </rdf:RDF>
  </metadata>
  <g
     inkscape:label="Layer 1"
     inkscape:groupmode="layer"
     id="layer1">
    <path
       style="fill:#b3b3b3;fill-rule:evenodd;stroke:none;stroke-width:0.28222221px;stroke-linecap:butt;stroke-linejoin:miter;stroke-opacity:1"
       d="m 227.20963,-253.6839 50.30359,0 c 0,0 -4.95058,-63.23034 -10.29678,-94.44351 -3.41512,-19.93893 -13.87507,-59.08043 -13.87507,-59.08043 0,0 -11.13325,40.04739 -14.8648,60.46398 -5.61788,30.73733 -11.26694,93.05996 -11.26694,93.05996 z"
       id="path3381"
       inkscape:connector-curvature="0"
       sodipodi:nodetypes="ccscsc" />
    <rect
       style="fill:#784421;stroke:none"
       id="rect3383"
       width="50.956882"
       height="24.825146"
       x="226.55635"
       y="-254.99051" />
    <rect
       transform="matrix(0,1,-1,0,0,0)"
       style="opacity:1;fill:#918a6f;fill-opacity:1;stroke:none;stroke-width:0;stroke-linecap:round;stroke-miterlimit:4;stroke-dasharray:none;stroke-dashoffset:0;stroke-opacity:1"
       id="rect3355"
       width="164.87251"
       height="107.17819"
       x="-185.1152"
       y="17.803917" />
    <rect
       y="17.803917"
       x="-185.1152"
       height="107.17819"
       width="38.601383"
       id="rect3357"
       style="opacity:1;fill:#4d4d4d;fill-opacity:1;stroke:none;stroke-width:0;stroke-linecap:round;stroke-miterlimit:4;stroke-dasharray:none;stroke-dashoffset:0;stroke-opacity:1"
       transform="matrix(0,1,-1,0,0,0)" />
    <rect
       y="-135.56285"
       x="-236.2372"
       height="107.17819"
       width="154.41982"
       id="rect3351"
       style="opacity:1;fill:#918a6f;fill-opacity:1;stroke:none;stroke-width:0;stroke-linecap:round;stroke-miterlimit:4;stroke-dasharray:none;stroke-dashoffset:0;stroke-opacity:1"
       transform="matrix(0,-1,-1,0,0,0)" />
    <rect
       transform="matrix(0,-1,-1,0,0,0)"
       style="opacity:1;fill:#4d4d4d;fill-opacity:1;stroke:none;stroke-width:0;stroke-linecap:round;stroke-miterlimit:4;stroke-dasharray:none;stroke-dashoffset:0;stroke-opacity:1"
       id="rect3353"
       width="36.154106"
       height="107.17819"
       x="-236.2372"
       y="-135.56285" />
    <rect
       style="opacity:1;fill:#808080;fill-opacity:1;stroke:none;stroke-width:0;stroke-linecap:round;stroke-miterlimit:4;stroke-dasharray:none;stroke-dashoffset:0;stroke-opacity:1"
       id="rect3344"
       width="523.99249"
       height="199.23666"
       x="-266.62631"
       y="-78.772629" />
    <path
       style="fill:#808080;fill-opacity:1;fill-rule:evenodd;stroke:none;stroke-width:0.28222221px;stroke-linecap:butt;stroke-linejoin:miter;stroke-opacity:1"
       d="m -265.55282,-79.136122 c 0,0 -20.0172,6.53647 -34.5164,25.43376 -14.49917,18.89729 -23.48038,50.1553954 -23.94946,68.604705 -0.51157,20.119866 5.65201,47.943986 20.39635,69.329316 14.74437,21.385321 38.06951,36.331881 38.06951,36.331881 l 0,-199.699662"
       id="path3348"
       inkscape:connector-curvature="0"
       sodipodi:nodetypes="cccscc" />
    <path
       sodipodi:nodetypes="cccscc"
       inkscape:connector-curvature="0"
       id="path3350"
       d="m 256.38421,-79.136122 c 0,0 20.01718,6.53647 34.51637,25.43376 14.49921,18.89729 23.4804,50.1553954 23.94947,68.604705 0.51158,20.119866 -5.65198,47.943986 -20.39634,69.329316 -14.74436,21.385321 -38.0695,36.331881 -38.0695,36.331881 l 0,-199.699662"
       style="fill:#808080;fill-opacity:1;fill-rule:evenodd;stroke:none;stroke-width:0.28222221px;stroke-linecap:butt;stroke-linejoin:miter;stroke-opacity:1" />
    <rect
       y="-302.08426"
       x="-233.90347"
       height="103.43718"
       width="200.53853"
       id="rect3352"
       style="opacity:1;fill:#918a6f;fill-opacity:1;stroke:none;stroke-width:0;stroke-linecap:round;stroke-miterlimit:4;stroke-dasharray:none;stroke-dashoffset:0;stroke-opacity:1"
       transform="matrix(0,1,-1,0,0,0)" />
    <rect
       transform="matrix(0,1,-1,0,0,0)"
       style="opacity:1;fill:#808080;fill-opacity:1;stroke:none;stroke-width:0;stroke-linecap:round;stroke-miterlimit:4;stroke-dasharray:none;stroke-dashoffset:0;stroke-opacity:1"
       id="rect3354"
       width="119.01379"
       height="107.17819"
       x="-148.22464"
       y="-303.71201" />
    <rect
       transform="matrix(0,1,-1,0,0,0)"
       style="opacity:1;fill:#918a6f;fill-opacity:1;stroke:none;stroke-width:0;stroke-linecap:round;stroke-miterlimit:4;stroke-dasharray:none;stroke-dashoffset:0;stroke-opacity:1"
       id="rect3356"
       width="275.83331"
       height="103.43718"
       x="-310.758"
       y="207.90717" />
    <rect
       y="206.27937"
       x="-192.90991"
       height="107.17819"
       width="163.69905"
       id="rect3358"
       style="opacity:1;fill:#808080;fill-opacity:1;stroke:none;stroke-width:0;stroke-linecap:round;stroke-miterlimit:4;stroke-dasharray:none;stroke-dashoffset:0;stroke-opacity:1"
       transform="matrix(0,1,-1,0,0,0)" />
    <circle
       style="opacity:1;fill:#666666;fill-opacity:1;stroke:none;stroke-width:0;stroke-linecap:round;stroke-miterlimit:4;stroke-dasharray:none;stroke-dashoffset:0;stroke-opacity:1"
       id="path3360"
       cx="7.0530734"
       cy="17.015558"
       r="121.15816" />
    <rect
       style="fill:#000000"
       id="rect3359"
       width="24.021303"
       height="40.65144"
       x="-20.033035"
       y="-99.361908" />
    <rect
       y="-99.361908"
       x="12.765278"
       height="40.65144"
       width="24.021303"
       id="rect3361"
       style="fill:#000000" />
    <ellipse
       style="fill:#ff0000"
       id="path3363"
       cx="-8.0223885"
       cy="-85.272476"
       rx="10.624807"
       ry="7.1601958" />
    <ellipse
       ry="7.1601958"
       rx="10.624807"
       cy="-85.272476"
       cx="25.237888"
       id="ellipse3365"
       style="fill:#ff0000" />
    <path
       sodipodi:type="star"
       style="fill:#f9f9f9"
       id="path3367"
       sodipodi:sides="3"
       sodipodi:cx="103.77187"
       sodipodi:cy="46.987774"
       sodipodi:r1="23.411184"
       sodipodi:r2="11.705592"
       sodipodi:arg1="0.52359878"
       sodipodi:arg2="1.5707963"
       inkscape:flatsided="false"
       inkscape:rounded="0"
       inkscape:randomized="0"
       d="m 124.04655,58.693366 -20.27468,0 -20.274677,0 10.13734,-17.558388 10.137337,-17.558388 10.13734,17.558388 z"
       inkscape:transform-center-y="6.7059968"
       transform="matrix(0.57288845,-0.99227189,0.99227189,0.57288845,11.382041,21.171603)" />
    <path
       d="m 124.04655,110.00911 -20.27468,0 -20.274677,0 10.13734,-17.558386 10.137337,-17.558388 10.13734,17.558388 z"
       inkscape:randomized="0"
       inkscape:rounded="0"
       inkscape:flatsided="false"
       sodipodi:arg2="1.5707963"
       sodipodi:arg1="0.52359878"
       sodipodi:r2="11.705592"
       sodipodi:r1="23.411184"
       sodipodi:cy="98.30352"
       sodipodi:cx="103.77187"
       sodipodi:sides="3"
       id="path3369"
       style="fill:#f9f9f9"
       sodipodi:type="star"
       transform="matrix(0.99227189,-0.57288845,0.57288845,0.99227189,-24.191551,-19.804812)"
       inkscape:transform-center-x="-6.7060009" />
    <path
       sodipodi:type="star"
       style="fill:#f9f9f9"
       id="path3371"
       sodipodi:sides="3"
       sodipodi:cx="115.49652"
       sodipodi:cy="88.191675"
       sodipodi:r1="26.823994"
       sodipodi:r2="13.411996"
       sodipodi:arg1="0.52359878"
       sodipodi:arg2="1.5707963"
       inkscape:flatsided="false"
       inkscape:rounded="0"
       inkscape:randomized="0"
       d="m 138.72678,101.60367 -23.23026,0 -23.230259,0 11.615129,-20.117994 11.61513,-20.117996 11.61513,20.117995 z"
       inkscape:transform-center-y="-6.7059952" />
    <path
       transform="matrix(-0.57288845,-0.99227189,-0.99227189,0.57288845,3.3708922,21.171603)"
       inkscape:transform-center-y="6.7059968"
       d="m 124.04655,58.693366 -20.27468,0 -20.274677,0 10.13734,-17.558388 10.137337,-17.558388 10.13734,17.558388 z"
       inkscape:randomized="0"
       inkscape:rounded="0"
       inkscape:flatsided="false"
       sodipodi:arg2="1.5707963"
       sodipodi:arg1="0.52359878"
       sodipodi:r2="11.705592"
       sodipodi:r1="23.411184"
       sodipodi:cy="46.987774"
       sodipodi:cx="103.77187"
       sodipodi:sides="3"
       id="path3373"
       style="fill:#f9f9f9"
       sodipodi:type="star" />
    <path
       inkscape:transform-center-x="6.7060014"
       transform="matrix(-0.99227189,-0.57288845,-0.57288845,0.99227189,38.944484,-19.804812)"
       sodipodi:type="star"
       style="fill:#f9f9f9"
       id="path3375"
       sodipodi:sides="3"
       sodipodi:cx="103.77187"
       sodipodi:cy="98.30352"
       sodipodi:r1="23.411184"
       sodipodi:r2="11.705592"
       sodipodi:arg1="0.52359878"
       sodipodi:arg2="1.5707963"
       inkscape:flatsided="false"
       inkscape:rounded="0"
       inkscape:randomized="0"
       d="m 124.04655,110.00911 -20.27468,0 -20.274677,0 10.13734,-17.558386 10.137337,-17.558388 10.13734,17.558388 z" />
    <path
       inkscape:transform-center-y="-6.7059952"
       d="m 123.97384,101.60367 -23.23026,0 -23.230256,0 11.61513,-20.117994 11.615126,-20.117996 11.61513,20.117995 z"
       inkscape:randomized="0"
       inkscape:rounded="0"
       inkscape:flatsided="false"
       sodipodi:arg2="1.5707963"
       sodipodi:arg1="0.52359878"
       sodipodi:r2="13.411996"
       sodipodi:r1="26.823994"
       sodipodi:cy="88.191675"
       sodipodi:cx="100.74358"
       sodipodi:sides="3"
       id="path3377"
       style="fill:#f9f9f9"
       sodipodi:type="star"
       transform="scale(-1,1)" />
    <path
       style="fill:#666666;fill-rule:evenodd;stroke:none;stroke-width:0.642528px;stroke-linecap:butt;stroke-linejoin:miter;stroke-opacity:1"
       d="m -469.83959,-278.1605 c 0,0 139.53072,-27.19955 210.14338,-26.77205 64.4886,0.39042 191.608039,26.77205 191.608039,26.77205 0,0 7.693323,-8.06677 -8.94306,-17.9455 -63.368279,-37.62826 -134.100829,-57.73366 -180.447739,-58.54282 -52.57217,-0.9179 -157.191,32.74122 -204.38152,61.16247 -16.82593,10.13369 -7.9791,15.32585 -7.9791,15.32585 z"
       id="path3385"
       inkscape:connector-curvature="0"
       sodipodi:nodetypes="cscsssc" />
    <path
       sodipodi:type="star"
       style="fill:#f9f9f9"
       id="path3387"
       sodipodi:sides="3"
       sodipodi:cx="103.77187"
       sodipodi:cy="46.987774"
       sodipodi:r1="23.411184"
       sodipodi:r2="11.705592"
       sodipodi:arg1="0.52359878"
       sodipodi:arg2="1.5707963"
       inkscape:flatsided="false"
       inkscape:rounded="0"
       inkscape:randomized="0"
       d="m 124.04655,58.693366 -20.27468,0 -20.274677,0 10.13734,-17.558388 10.137337,-17.558388 10.13734,17.558388 z"
       inkscape:transform-center-y="-4.0588293"
       transform="matrix(0.41909316,-0.60057601,-0.72589066,-0.3467427,-273.90746,-283.0544)" />
    <path
       transform="matrix(0.06265733,-0.72966066,-0.80201111,0.06265735,-420.89366,-234.38596)"
       inkscape:transform-center-y="0.73343397"
       d="m 124.04655,58.693366 -20.27468,0 -20.274677,0 10.13734,-17.558388 10.137337,-17.558388 10.13734,17.558388 z"
       inkscape:randomized="0"
       inkscape:rounded="0"
       inkscape:flatsided="false"
       sodipodi:arg2="1.5707963"
       sodipodi:arg1="0.52359878"
       sodipodi:r2="11.705592"
       sodipodi:r1="23.411184"
       sodipodi:cy="46.987774"
       sodipodi:cx="103.77187"
       sodipodi:sides="3"
       id="path3389"
       style="fill:#f9f9f9"
       sodipodi:type="star"
       inkscape:transform-center-x="-4.0588291" />
    <path
       inkscape:transform-center-x="-2.101002"
       sodipodi:type="star"
       style="fill:#f9f9f9"
       id="path3391"
       sodipodi:sides="3"
       sodipodi:cx="103.77187"
       sodipodi:cy="46.987774"
       sodipodi:r1="23.411184"
       sodipodi:r2="11.705592"
       sodipodi:arg1="0.52359878"
       sodipodi:arg2="1.5707963"
       inkscape:flatsided="false"
       inkscape:rounded="0"
       inkscape:randomized="0"
       d="m 124.04655,58.693366 -20.27468,0 -20.274677,0 10.13734,-17.558388 10.137337,-17.558388 10.13734,17.558388 z"
       inkscape:transform-center-y="-1.7213545"
       transform="matrix(0.24937241,-0.68858116,-0.79090016,-0.14705339,-338.23903,-267.13672)" />
    <path
       inkscape:transform-center-x="4.0588278"
       sodipodi:type="star"
       style="fill:#f9f9f9"
       id="path3393"
       sodipodi:sides="3"
       sodipodi:cx="103.77187"
       sodipodi:cy="46.987774"
       sodipodi:r1="23.411184"
       sodipodi:r2="11.705592"
       sodipodi:arg1="0.52359878"
       sodipodi:arg2="1.5707963"
       inkscape:flatsided="false"
       inkscape:rounded="0"
       inkscape:randomized="0"
       d="m 124.04655,58.693366 -20.27468,0 -20.274677,0 10.13734,-17.558388 10.137337,-17.558388 10.13734,17.558388 z"
       inkscape:transform-center-y="0.73343397"
       transform="matrix(-0.06265733,-0.72966066,0.80201111,0.06265735,-112.31018,-234.38596)" />
    <path
       transform="matrix(-0.24937241,-0.68858116,0.79090016,-0.14705339,-192.4241,-268.75354)"
       inkscape:transform-center-y="-1.7213573"
       d="m 124.04655,58.693366 -20.27468,0 -20.274677,0 10.13734,-17.558388 10.137337,-17.558388 10.13734,17.558388 z"
       inkscape:randomized="0"
       inkscape:rounded="0"
       inkscape:flatsided="false"
       sodipodi:arg2="1.5707963"
       sodipodi:arg1="0.52359878"
       sodipodi:r2="11.705592"
       sodipodi:r1="23.411184"
       sodipodi:cy="46.987774"
       sodipodi:cx="103.77187"
       sodipodi:sides="3"
       id="path3395"
       style="fill:#f9f9f9"
       sodipodi:type="star"
       inkscape:transform-center-x="2.1010055" />
    <rect
       y="-254.99051"
       x="218.5739"
       height="10.000596"
       width="66.351608"
       id="rect3399"
       style="fill:#784421;stroke:none" />
  </g>
</svg>
