<?xml version="1.0" encoding="UTF-8" standalone="no"?>
<!-- Created with Inkscape (http://www.inkscape.org/) -->

<svg
   xmlns:dc="http://purl.org/dc/elements/1.1/"
   xmlns:cc="http://creativecommons.org/ns#"
   xmlns:rdf="http://www.w3.org/1999/02/22-rdf-syntax-ns#"
   xmlns:svg="http://www.w3.org/2000/svg"
   xmlns="http://www.w3.org/2000/svg"
   xmlns:sodipodi="http://sodipodi.sourceforge.net/DTD/sodipodi-0.dtd"
   xmlns:inkscape="http://www.inkscape.org/namespaces/inkscape"
   width="210mm"
   height="297mm"
   viewBox="0 0 744.09448819 1052.3622047"
   id="svg2"
   version="1.1"
   inkscape:version="0.91 r13725"
   sodipodi:docname="fortitude.svg">
  <defs
     id="defs4" />
  <sodipodi:namedview
     id="base"
     pagecolor="#ffffff"
     bordercolor="#666666"
     borderopacity="1.0"
     inkscape:pageopacity="0.0"
     inkscape:pageshadow="2"
     inkscape:zoom="0.7"
     inkscape:cx="337.62062"
     inkscape:cy="988.22241"
     inkscape:document-units="px"
     inkscape:current-layer="g4244"
     showgrid="false"
     inkscape:window-width="1920"
     inkscape:window-height="1017"
     inkscape:window-x="-8"
     inkscape:window-y="-8"
     inkscape:window-maximized="1" />
  <metadata
     id="metadata7">
    <rdf:RDF>
      <cc:Work
         rdf:about="">
        <dc:format>image/svg+xml</dc:format>
        <dc:type
           rdf:resource="http://purl.org/dc/dcmitype/StillImage" />
        <dc:title />
      </cc:Work>
    </rdf:RDF>
  </metadata>
  <g
     inkscape:label="Layer 1"
     inkscape:groupmode="layer"
     id="layer1">
    <g
       id="g4244"
       transform="matrix(10.463086,0,0,10.463086,-1852.4595,-1923.2476)">
      <path
         style="fill:#666666;fill-rule:evenodd;stroke:none;stroke-width:0.0955741px;stroke-linecap:butt;stroke-linejoin:miter;stroke-opacity:1"
         d="m 177.43794,173.96337 c 2.78523,0.0733 6.64264,-1.20751 6.64264,-1.20751 l 7.32553,3.68949 -3.98542,4.06628 -2.35411,-2.81253 -0.0899,8.44845 3.50521,6.11165 -5.57239,2.60192 -2.3368,-7.36541 -1.1684,0.0899 0.0651,7.32159 -3.39989,-0.0481 -0.37001,-7.54306 -1.30002,0.0635 -2.7471,7.40902 -5.84387,-3.63683 4.09524,-4.32952 0.0635,-9.30282 -2.15705,2.87605 -4.27688,-3.70488 6.88331,-4.29417 c 0,0 4.74208,1.50706 7.02132,1.56701 z"
         id="path3342"
         inkscape:connector-curvature="0"
         sodipodi:nodetypes="cccccccccccccccccccccsc" />
      <g
         id="g3344"
         transform="matrix(0.32019595,0,0,0.32019595,122.86171,120.26175)">
        <rect
           y="171.40433"
           x="175.66199"
           height="6.5536523"
           width="2.184551"
           id="rect3370"
           style="opacity:1;fill:#3e326d;fill-opacity:1;stroke:none;stroke-width:0;stroke-linecap:round;stroke-miterlimit:4;stroke-dasharray:none;stroke-dashoffset:0;stroke-opacity:1" />
        <rect
           style="opacity:1;fill:#ff0000;fill-opacity:1;stroke:none;stroke-width:0;stroke-linecap:round;stroke-miterlimit:4;stroke-dasharray:none;stroke-dashoffset:0;stroke-opacity:1"
           id="rect4172"
           width="2.184551"
           height="6.5536523"
           x="176.75426"
           y="171.06299" />
        <g
           id="g4181"
           transform="translate(44.080808,-23.556838)">
          <ellipse
             ry="7.4411259"
             rx="5.3931098"
             cy="205.26952"
             cx="128.37262"
             id="ellipse4183"
             style="opacity:1;fill:#ff0000;fill-opacity:1;stroke:none;stroke-width:0;stroke-linecap:round;stroke-miterlimit:4;stroke-dasharray:none;stroke-dashoffset:0;stroke-opacity:1" />
          <ellipse
             style="opacity:1;fill:#ff0000;fill-opacity:1;stroke:none;stroke-width:0;stroke-linecap:round;stroke-miterlimit:4;stroke-dasharray:none;stroke-dashoffset:0;stroke-opacity:1"
             id="ellipse4185"
             cx="137.3839"
             cy="205.26952"
             rx="5.3931098"
             ry="7.4411259" />
          <ellipse
             ry="8.6016684"
             rx="7.9189968"
             cy="212.16451"
             cx="132.53693"
             id="ellipse4187"
             style="opacity:1;fill:#ff0000;fill-opacity:1;stroke:none;stroke-width:0;stroke-linecap:round;stroke-miterlimit:4;stroke-dasharray:none;stroke-dashoffset:0;stroke-opacity:1" />
          <path
             inkscape:connector-curvature="0"
             id="path4189"
             d="m 141.00205,210.9357 c 0,0 -7.23632,-10.92276 -7.78246,-9.28434 -0.54614,1.63841 7.78246,9.28434 7.78246,9.28434 z"
             style="fill:#800000;fill-rule:evenodd;stroke:none;stroke-width:0.0955741px;stroke-linecap:butt;stroke-linejoin:miter;stroke-opacity:1" />
          <path
             style="fill:#000080;fill-rule:evenodd;stroke:none;stroke-width:0.0955741px;stroke-linecap:butt;stroke-linejoin:miter;stroke-opacity:1"
             d="m 125.488,211.61362 c 0,0 8.67768,-9.81676 6.95374,-9.92024 -1.72394,-0.10348 -6.95374,9.92024 -6.95374,9.92024 z"
             id="path4191"
             inkscape:connector-curvature="0" />
        </g>
      </g>
      <path
         style="fill:#aaeeff;fill-rule:evenodd;stroke:none;stroke-width:0.0955741px;stroke-linecap:butt;stroke-linejoin:miter;stroke-opacity:1"
         d="m 162.65274,173.5759 11.8595,0 c 0,0 -0.97027,14.81641 -6.30036,14.70083 -5.2377,-0.11356 -5.55914,-14.70083 -5.55914,-14.70083 z"
         id="path3354"
         inkscape:connector-curvature="0"
         sodipodi:nodetypes="ccsc" />
      <path
         sodipodi:nodetypes="ccsc"
         inkscape:connector-curvature="0"
         id="path3356"
         d="m 163.68153,174.97794 9.36129,0 c 0,0 -0.76588,11.69532 -4.97319,11.60408 -4.13438,-0.0896 -4.3881,-11.60408 -4.3881,-11.60408 z"
         style="fill:#00ffff;fill-rule:evenodd;stroke:none;stroke-width:0.0955741px;stroke-linecap:butt;stroke-linejoin:miter;stroke-opacity:1" />
    </g>
  </g>
</svg>
