<?xml version="1.0" encoding="UTF-8" standalone="no"?>
<!-- Created with Inkscape (http://www.inkscape.org/) -->

<svg
   xmlns:dc="http://purl.org/dc/elements/1.1/"
   xmlns:cc="http://creativecommons.org/ns#"
   xmlns:rdf="http://www.w3.org/1999/02/22-rdf-syntax-ns#"
   xmlns:svg="http://www.w3.org/2000/svg"
   xmlns="http://www.w3.org/2000/svg"
   xmlns:sodipodi="http://sodipodi.sourceforge.net/DTD/sodipodi-0.dtd"
   xmlns:inkscape="http://www.inkscape.org/namespaces/inkscape"
   width="210mm"
   height="297mm"
   viewBox="0 0 210 297"
   version="1.1"
   id="svg8"
   inkscape:version="0.91 r13725"
   sodipodi:docname="leaves.svg">
  <defs
     id="defs2" />
  <sodipodi:namedview
     id="base"
     pagecolor="#ffffff"
     bordercolor="#666666"
     borderopacity="1.0"
     inkscape:pageopacity="0.0"
     inkscape:pageshadow="2"
     inkscape:zoom="0.0875"
     inkscape:cx="-3774.7022"
     inkscape:cy="2057.6879"
     inkscape:document-units="mm"
     inkscape:current-layer="layer1"
     showgrid="false"
     inkscape:window-width="1920"
     inkscape:window-height="1017"
     inkscape:window-x="-8"
     inkscape:window-y="-8"
     inkscape:window-maximized="1" />
  <metadata
     id="metadata5">
    <rdf:RDF>
      <cc:Work
         rdf:about="">
        <dc:format>image/svg+xml</dc:format>
        <dc:type
           rdf:resource="http://purl.org/dc/dcmitype/StillImage" />
        <dc:title />
      </cc:Work>
    </rdf:RDF>
  </metadata>
  <g
     inkscape:label="Layer 1"
     inkscape:groupmode="layer"
     id="layer1">
    <path
       style="opacity:1;fill:#008000;fill-opacity:1;stroke:none;stroke-width:0;stroke-linecap:round;stroke-miterlimit:4;stroke-dasharray:none;stroke-dashoffset:0;stroke-opacity:1"
       id="path4137"
       sodipodi:type="arc"
       sodipodi:cx="-165.08542"
       sodipodi:cy="202.39325"
       sodipodi:rx="54.48687"
       sodipodi:ry="54.48687"
       sodipodi:start="0"
       sodipodi:end="5.2695974"
       d="m -110.59855,202.39325 a 54.48687,54.48687 0 0 1 -40.82734,52.74691 54.48687,54.48687 0 0 1 -61.29768,-26.30025 54.48687,54.48687 0 0 1 10.09344,-65.93354 54.48687,54.48687 0 0 1 66.3584,-6.75802"
       sodipodi:open="true"
       transform="matrix(-0.01652669,0.99986342,-0.99986342,-0.01652669,0,0)" />
    <path
       style="fill:#008000;fill-rule:evenodd;stroke:none;stroke-width:2.13880134px;stroke-linecap:butt;stroke-linejoin:miter;stroke-opacity:1"
       d="m -414.66497,-144.05572 c -1.31762,26.85083 18.41584,56.637277 41.75241,55.778835 34.34712,11.7315 36.96932,-10.120874 59.80065,-20.087305 32.31762,-18.70452 1.81252,-42.90867 -7.8531,-54.40313 -30.78419,6.60249 -39.47533,-13.43356 -34.40786,-31.93356 -22.71451,-9.54941 -58.40684,19.67717 -59.2921,50.64516 z"
       id="path4141"
       inkscape:connector-curvature="0"
       sodipodi:nodetypes="cccccc" />
    <path
       sodipodi:nodetypes="cccccc"
       inkscape:connector-curvature="0"
       id="path4157"
       d="m -45.164499,-89.853304 c 26.876479,-0.598863 55.181206,-22.404476 52.6621944,-45.620586 9.2544206,-35.09571 -12.7292528,-36.15424 -24.2971104,-58.21741 -20.959642,-30.90278 -42.928771,1.24936 -53.70532,11.7094 8.779094,30.23552 -10.586773,40.33215 -29.400827,36.5957 -7.906698,23.33718 23.788707,56.85638 54.741063,55.532896 z"
       style="fill:#008000;fill-rule:evenodd;stroke:none;stroke-width:2.13880134px;stroke-linecap:butt;stroke-linejoin:miter;stroke-opacity:1" />
    <path
       style="fill:#008000;fill-rule:evenodd;stroke:none;stroke-width:2.13880134px;stroke-linecap:butt;stroke-linejoin:miter;stroke-opacity:1"
       d="m -236.27974,-72.923467 c -23.75056,-12.59419 -59.09755,-7.375793 -68.22939,14.117052 -25.20569,26.115641 -6.53452,37.768531 -7.20568,62.6713358 3.21206,37.2017312 38.07878,19.8606572 52.58973,15.9903632 7.09369,-30.674729 28.9242,-30.035884 43.5219,-17.5925432 18.2907,-16.5103168 6.98518,-61.2352698 -20.67656,-75.1862078 z"
       id="path4159"
       inkscape:connector-curvature="0"
       sodipodi:nodetypes="cccccc" />
    <path
       sodipodi:nodetypes="cccccc"
       inkscape:connector-curvature="0"
       id="path4161"
       d="m -197.61809,-292.65629 c -1.31764,26.85083 18.41582,56.63728 41.7524,55.77885 34.34712,11.73149 36.96932,-10.12089 59.80065,-20.08732 32.317611,-18.7045 1.812524,-42.90867 -7.8531,-54.40312 -30.78419,6.60248 -39.47533,-13.43357 -34.40786,-31.93358 -22.7145,-9.54941 -58.40685,19.67719 -59.29209,50.64517 z"
       style="fill:#008000;fill-rule:evenodd;stroke:none;stroke-width:2.13880134px;stroke-linecap:butt;stroke-linejoin:miter;stroke-opacity:1" />
    <path
       sodipodi:open="true"
       d="m -272.13636,-293.5925 a 54.48687,54.48687 0 0 1 -40.82734,52.74691 54.48687,54.48687 0 0 1 -61.29768,-26.30025 54.48687,54.48687 0 0 1 10.09344,-65.93354 54.48687,54.48687 0 0 1 66.3584,-6.75801"
       sodipodi:end="5.2695974"
       sodipodi:start="0"
       sodipodi:ry="54.48687"
       sodipodi:rx="54.48687"
       sodipodi:cy="-293.5925"
       sodipodi:cx="-326.62323"
       sodipodi:type="arc"
       id="path4163"
       style="opacity:1;fill:#008000;fill-opacity:1;stroke:none;stroke-width:0;stroke-linecap:round;stroke-miterlimit:4;stroke-dasharray:none;stroke-dashoffset:0;stroke-opacity:1" />
    <path
       style="opacity:1;fill:#008000;fill-opacity:1;stroke:none;stroke-width:0;stroke-linecap:round;stroke-miterlimit:4;stroke-dasharray:none;stroke-dashoffset:0;stroke-opacity:1"
       id="path4165"
       sodipodi:type="arc"
       sodipodi:cx="0.93081278"
       sodipodi:cy="-141.54688"
       sodipodi:rx="54.48687"
       sodipodi:ry="54.48687"
       sodipodi:start="0"
       sodipodi:end="5.2695974"
       d="m 55.417683,-141.54687 a 54.48687,54.48687 0 0 1 -40.827344,52.746903 54.48687,54.48687 0 0 1 -61.297676,-26.300253 54.48687,54.48687 0 0 1 10.093437,-65.93353 54.48687,54.48687 0 0 1 66.358402,-6.75802"
       sodipodi:open="true"
       transform="matrix(0.31821591,-0.94801827,0.94801827,0.31821591,0,0)" />
    <path
       transform="matrix(-0.01652669,0.99986342,-0.99986342,-0.01652669,0,0)"
       sodipodi:open="true"
       d="m -118.08012,-250.24103 a 54.48687,54.48687 0 0 1 -40.82734,52.74691 54.48687,54.48687 0 0 1 -61.29768,-26.30025 54.48687,54.48687 0 0 1 10.09344,-65.93354 54.48687,54.48687 0 0 1 66.3584,-6.75801"
       sodipodi:end="5.2695974"
       sodipodi:start="0"
       sodipodi:ry="54.48687"
       sodipodi:rx="54.48687"
       sodipodi:cy="-250.24103"
       sodipodi:cx="-172.56699"
       sodipodi:type="arc"
       id="path4167"
       style="opacity:1;fill:#008000;fill-opacity:1;stroke:none;stroke-width:0;stroke-linecap:round;stroke-miterlimit:4;stroke-dasharray:none;stroke-dashoffset:0;stroke-opacity:1" />
    <path
       sodipodi:nodetypes="cccccc"
       inkscape:connector-curvature="0"
       id="path4169"
       d="m 38.031127,-144.05572 c -1.317622,26.85083 18.415834,56.637277 41.752405,55.778835 34.347128,11.7315 36.969328,-10.120874 59.800648,-20.087305 32.31763,-18.70452 1.81253,-42.90867 -7.85309,-54.40313 -30.7842,6.60249 -39.475339,-13.43356 -34.407865,-31.93356 -22.714506,-9.54941 -58.40684,19.67717 -59.292098,50.64516 z"
       style="fill:#008000;fill-rule:evenodd;stroke:none;stroke-width:2.13880134px;stroke-linecap:butt;stroke-linejoin:miter;stroke-opacity:1" />
    <path
       style="fill:#008000;fill-rule:evenodd;stroke:none;stroke-width:2.13880134px;stroke-linecap:butt;stroke-linejoin:miter;stroke-opacity:1"
       d="m 407.53159,-89.853304 c 26.87648,-0.598863 55.18121,-22.404476 52.66219,-45.620586 9.25442,-35.09571 -12.72925,-36.15424 -24.29711,-58.21741 -20.95964,-30.90278 -42.92876,1.24936 -53.70531,11.7094 8.77909,30.23552 -10.58678,40.33215 -29.40083,36.5957 -7.9067,23.33718 23.78871,56.85638 54.74106,55.532896 z"
       id="path4171"
       inkscape:connector-curvature="0"
       sodipodi:nodetypes="cccccc" />
    <path
       sodipodi:nodetypes="cccccc"
       inkscape:connector-curvature="0"
       id="path4173"
       d="m 216.41636,-72.923467 c -23.75057,-12.59419 -59.09756,-7.375793 -68.2294,14.117052 -25.20568,26.115641 -6.53451,37.768531 -7.20568,62.6713358 3.21206,37.2017312 38.07878,19.8606572 52.58973,15.9903632 7.0937,-30.674729 28.92421,-30.035884 43.5219,-17.5925432 18.2907,-16.5103168 6.98518,-61.2352698 -20.67655,-75.1862078 z"
       style="fill:#008000;fill-rule:evenodd;stroke:none;stroke-width:2.13880134px;stroke-linecap:butt;stroke-linejoin:miter;stroke-opacity:1" />
    <path
       style="fill:#008000;fill-rule:evenodd;stroke:none;stroke-width:2.13880134px;stroke-linecap:butt;stroke-linejoin:miter;stroke-opacity:1"
       d="m 255.078,-292.65629 c -1.31764,26.85083 18.41582,56.63728 41.7524,55.77885 34.34713,11.73149 36.96932,-10.12089 59.80065,-20.08732 32.31761,-18.7045 1.81253,-42.90867 -7.85309,-54.40312 -30.7842,6.60248 -39.47534,-13.43357 -34.40787,-31.93358 -22.7145,-9.54941 -58.40685,19.67719 -59.29209,50.64517 z"
       id="path4175"
       inkscape:connector-curvature="0"
       sodipodi:nodetypes="cccccc" />
    <path
       style="opacity:1;fill:#008000;fill-opacity:1;stroke:none;stroke-width:0;stroke-linecap:round;stroke-miterlimit:4;stroke-dasharray:none;stroke-dashoffset:0;stroke-opacity:1"
       id="path4177"
       sodipodi:type="arc"
       sodipodi:cx="126.07287"
       sodipodi:cy="-293.5925"
       sodipodi:rx="54.48687"
       sodipodi:ry="54.48687"
       sodipodi:start="0"
       sodipodi:end="5.2695974"
       d="m 180.55974,-293.5925 a 54.48687,54.48687 0 0 1 -40.82735,52.74691 54.48687,54.48687 0 0 1 -61.297672,-26.30025 54.48687,54.48687 0 0 1 10.093437,-65.93354 54.48687,54.48687 0 0 1 66.358405,-6.75801"
       sodipodi:open="true" />
    <path
       transform="matrix(0.31821591,-0.94801827,0.94801827,0.31821591,0,0)"
       sodipodi:open="true"
       d="m 199.47277,287.61731 a 54.48687,54.48687 0 0 1 -40.82734,52.74691 54.48687,54.48687 0 0 1 -61.297679,-26.30025 54.48687,54.48687 0 0 1 10.093439,-65.93354 54.48687,54.48687 0 0 1 66.3584,-6.75802"
       sodipodi:end="5.2695974"
       sodipodi:start="0"
       sodipodi:ry="54.48687"
       sodipodi:rx="54.48687"
       sodipodi:cy="287.61731"
       sodipodi:cx="144.9859"
       sodipodi:type="arc"
       id="path4179"
       style="opacity:1;fill:#008000;fill-opacity:1;stroke:none;stroke-width:0;stroke-linecap:round;stroke-miterlimit:4;stroke-dasharray:none;stroke-dashoffset:0;stroke-opacity:1" />
    <path
       style="opacity:1;fill:#008000;fill-opacity:1;stroke:none;stroke-width:0;stroke-linecap:round;stroke-miterlimit:4;stroke-dasharray:none;stroke-dashoffset:0;stroke-opacity:1"
       id="path4181"
       sodipodi:type="arc"
       sodipodi:cx="231.99991"
       sodipodi:cy="-256.9281"
       sodipodi:rx="54.48687"
       sodipodi:ry="54.48687"
       sodipodi:start="0"
       sodipodi:end="5.2695974"
       d="m 286.48678,-256.9281 a 54.48687,54.48687 0 0 1 -40.82735,52.74691 54.48687,54.48687 0 0 1 -61.29767,-26.30025 54.48687,54.48687 0 0 1 10.09344,-65.93354 54.48687,54.48687 0 0 1 66.3584,-6.75802"
       sodipodi:open="true"
       transform="matrix(-0.01652669,0.99986342,-0.99986342,-0.01652669,0,0)" />
    <path
       style="fill:#008000;fill-rule:evenodd;stroke:none;stroke-width:2.13880134px;stroke-linecap:butt;stroke-linejoin:miter;stroke-opacity:1"
       d="m 38.031127,260.56646 c -1.317622,26.85082 18.415834,56.63728 41.752405,55.77884 34.347128,11.7315 36.969328,-10.12087 59.800648,-20.08732 32.31763,-18.70451 1.81253,-42.90867 -7.85309,-54.40312 -30.7842,6.60248 -39.475339,-13.43357 -34.407865,-31.93357 -22.714506,-9.54941 -58.40684,19.67718 -59.292098,50.64517 z"
       id="path4183"
       inkscape:connector-curvature="0"
       sodipodi:nodetypes="cccccc" />
    <path
       sodipodi:nodetypes="cccccc"
       inkscape:connector-curvature="0"
       id="path4185"
       d="m 407.53159,314.76887 c 26.87648,-0.59886 55.18121,-22.40447 52.66219,-45.62058 9.25442,-35.0957 -12.72925,-36.15423 -24.29711,-58.21742 -20.95964,-30.90278 -42.92876,1.24936 -53.70531,11.7094 8.77909,30.23552 -10.58678,40.33217 -29.40083,36.5957 -7.9067,23.33718 23.78871,56.8564 54.74106,55.5329 z"
       style="fill:#008000;fill-rule:evenodd;stroke:none;stroke-width:2.13880134px;stroke-linecap:butt;stroke-linejoin:miter;stroke-opacity:1" />
    <path
       style="fill:#008000;fill-rule:evenodd;stroke:none;stroke-width:2.13880134px;stroke-linecap:butt;stroke-linejoin:miter;stroke-opacity:1"
       d="m 216.41636,331.69871 c -23.75057,-12.59419 -59.09756,-7.37578 -68.2294,14.11706 -25.20568,26.11563 -6.53451,37.76852 -7.20568,62.67133 3.21206,37.20173 38.07878,19.86066 52.58973,15.99036 7.0937,-30.67473 28.92421,-30.03588 43.5219,-17.59254 18.2907,-16.51032 6.98518,-61.23528 -20.67655,-75.18621 z"
       id="path4187"
       inkscape:connector-curvature="0"
       sodipodi:nodetypes="cccccc" />
    <path
       sodipodi:nodetypes="cccccc"
       inkscape:connector-curvature="0"
       id="path4189"
       d="m 255.078,111.96588 c -1.31764,26.85083 18.41582,56.63728 41.7524,55.77885 34.34713,11.73149 36.96932,-10.12089 59.80065,-20.08732 32.31761,-18.70451 1.81253,-42.90867 -7.85309,-54.403125 C 317.99376,99.856768 309.30262,79.820718 314.37009,61.320709 291.65559,51.771297 255.96324,80.9979 255.078,111.96588 Z"
       style="fill:#008000;fill-rule:evenodd;stroke:none;stroke-width:2.13880134px;stroke-linecap:butt;stroke-linejoin:miter;stroke-opacity:1" />
    <path
       sodipodi:open="true"
       d="M 180.55974,111.02969 A 54.48687,54.48687 0 0 1 139.73239,163.7766 54.48687,54.48687 0 0 1 78.434718,137.47635 54.48687,54.48687 0 0 1 88.528155,71.542816 54.48687,54.48687 0 0 1 154.88656,64.784799"
       sodipodi:end="5.2695974"
       sodipodi:start="0"
       sodipodi:ry="54.48687"
       sodipodi:rx="54.48687"
       sodipodi:cy="111.02969"
       sodipodi:cx="126.07287"
       sodipodi:type="arc"
       id="path4191"
       style="opacity:1;fill:#008000;fill-opacity:1;stroke:none;stroke-width:0;stroke-linecap:round;stroke-miterlimit:4;stroke-dasharray:none;stroke-dashoffset:0;stroke-opacity:1" />
    <path
       style="opacity:1;fill:#008000;fill-opacity:1;stroke:none;stroke-width:0;stroke-linecap:round;stroke-miterlimit:4;stroke-dasharray:none;stroke-dashoffset:0;stroke-opacity:1"
       id="path4193"
       sodipodi:type="arc"
       sodipodi:cx="-238.6033"
       sodipodi:cy="416.37451"
       sodipodi:rx="54.48687"
       sodipodi:ry="54.48687"
       sodipodi:start="0"
       sodipodi:end="5.2695974"
       d="m -184.11643,416.37451 a 54.48687,54.48687 0 0 1 -40.82735,52.74691 54.48687,54.48687 0 0 1 -61.29767,-26.30025 54.48687,54.48687 0 0 1 10.09343,-65.93354 54.48687,54.48687 0 0 1 66.35841,-6.75801"
       sodipodi:open="true"
       transform="matrix(0.31821591,-0.94801827,0.94801827,0.31821591,0,0)" />
    <path
       transform="matrix(-0.01652669,0.99986342,-0.99986342,-0.01652669,0,0)"
       sodipodi:open="true"
       d="m 293.96833,195.70619 a 54.48687,54.48687 0 0 1 -40.82734,52.74691 54.48687,54.48687 0 0 1 -61.29768,-26.30025 54.48687,54.48687 0 0 1 10.09344,-65.93354 54.48687,54.48687 0 0 1 66.3584,-6.75801"
       sodipodi:end="5.2695974"
       sodipodi:start="0"
       sodipodi:ry="54.48687"
       sodipodi:rx="54.48687"
       sodipodi:cy="195.70619"
       sodipodi:cx="239.48146"
       sodipodi:type="arc"
       id="path4195"
       style="opacity:1;fill:#008000;fill-opacity:1;stroke:none;stroke-width:0;stroke-linecap:round;stroke-miterlimit:4;stroke-dasharray:none;stroke-dashoffset:0;stroke-opacity:1" />
    <path
       sodipodi:nodetypes="cccccc"
       inkscape:connector-curvature="0"
       id="path4197"
       d="m -414.66497,260.56646 c -1.31762,26.85082 18.41584,56.63728 41.75241,55.77884 34.34712,11.7315 36.96932,-10.12087 59.80065,-20.08732 32.31762,-18.70451 1.81252,-42.90867 -7.8531,-54.40312 -30.78419,6.60248 -39.47533,-13.43357 -34.40786,-31.93357 -22.71451,-9.54941 -58.40684,19.67718 -59.2921,50.64517 z"
       style="fill:#008000;fill-rule:evenodd;stroke:none;stroke-width:2.13880134px;stroke-linecap:butt;stroke-linejoin:miter;stroke-opacity:1" />
    <path
       style="fill:#008000;fill-rule:evenodd;stroke:none;stroke-width:2.13880134px;stroke-linecap:butt;stroke-linejoin:miter;stroke-opacity:1"
       d="m -45.164499,314.76887 c 26.876479,-0.59886 55.181206,-22.40447 52.6621944,-45.62058 9.2544206,-35.0957 -12.7292528,-36.15423 -24.2971104,-58.21742 -20.959642,-30.90278 -42.928771,1.24936 -53.70532,11.7094 8.779094,30.23552 -10.586773,40.33217 -29.400827,36.5957 -7.906698,23.33718 23.788707,56.8564 54.741063,55.5329 z"
       id="path4199"
       inkscape:connector-curvature="0"
       sodipodi:nodetypes="cccccc" />
    <path
       sodipodi:nodetypes="cccccc"
       inkscape:connector-curvature="0"
       id="path4201"
       d="m -236.27974,331.69871 c -23.75056,-12.59419 -59.09755,-7.37578 -68.22939,14.11706 -25.20569,26.11563 -6.53452,37.76852 -7.20568,62.67133 3.21206,37.20173 38.07878,19.86066 52.58973,15.99036 7.09369,-30.67473 28.9242,-30.03588 43.5219,-17.59254 18.2907,-16.51032 6.98518,-61.23528 -20.67656,-75.18621 z"
       style="fill:#008000;fill-rule:evenodd;stroke:none;stroke-width:2.13880134px;stroke-linecap:butt;stroke-linejoin:miter;stroke-opacity:1" />
    <path
       style="fill:#008000;fill-rule:evenodd;stroke:none;stroke-width:2.13880134px;stroke-linecap:butt;stroke-linejoin:miter;stroke-opacity:1"
       d="m -197.61809,111.96588 c -1.31764,26.85083 18.41582,56.63728 41.7524,55.77885 34.34712,11.73149 36.96932,-10.12089 59.80065,-20.08732 32.317611,-18.70451 1.812524,-42.90867 -7.8531,-54.403125 -30.78419,6.602483 -39.47533,-13.433567 -34.40786,-31.933576 -22.7145,-9.549412 -58.40685,19.677191 -59.29209,50.645171 z"
       id="path4203"
       inkscape:connector-curvature="0"
       sodipodi:nodetypes="cccccc" />
    <path
       style="opacity:1;fill:#008000;fill-opacity:1;stroke:none;stroke-width:0;stroke-linecap:round;stroke-miterlimit:4;stroke-dasharray:none;stroke-dashoffset:0;stroke-opacity:1"
       id="path4205"
       sodipodi:type="arc"
       sodipodi:cx="-326.62323"
       sodipodi:cy="111.02969"
       sodipodi:rx="54.48687"
       sodipodi:ry="54.48687"
       sodipodi:start="0"
       sodipodi:end="5.2695974"
       d="m -272.13636,111.02969 a 54.48687,54.48687 0 0 1 -40.82734,52.74691 54.48687,54.48687 0 0 1 -61.29768,-26.30025 54.48687,54.48687 0 0 1 10.09344,-65.933534 54.48687,54.48687 0 0 1 66.3584,-6.758017"
       sodipodi:open="true" />
    <path
       transform="matrix(0.31821591,-0.94801827,0.94801827,0.31821591,0,0)"
       sodipodi:open="true"
       d="m -328.17152,-12.789635 a 54.48687,54.48687 0 0 1 -40.82734,52.746909 54.48687,54.48687 0 0 1 -61.29768,-26.300253 54.48687,54.48687 0 0 1 10.09344,-65.933533 54.48687,54.48687 0 0 1 66.3584,-6.758017"
       sodipodi:end="5.2695974"
       sodipodi:start="0"
       sodipodi:ry="54.48687"
       sodipodi:rx="54.48687"
       sodipodi:cy="-12.789635"
       sodipodi:cx="-382.65839"
       sodipodi:type="arc"
       id="path4207"
       style="opacity:1;fill:#008000;fill-opacity:1;stroke:none;stroke-width:0;stroke-linecap:round;stroke-miterlimit:4;stroke-dasharray:none;stroke-dashoffset:0;stroke-opacity:1" />
    <path
       sodipodi:nodetypes="cccccc"
       inkscape:connector-curvature="0"
       id="path4209"
       d="m 11.175246,-50.692088 c -26.743325,2.738212 -53.220827,26.729545 -48.860201,49.6711629 C -44.113859,34.700522 -22.115737,34.004244 -8.8268704,55.075693 14.528144,84.21037 33.865891,50.410153 43.774831,39.124791 32.614769,9.6848137 51.114679,-1.9226039 70.166614,0.30304423 76.188914,-23.589873 41.923754,-54.47735 11.175246,-50.692088 Z"
       style="fill:#008000;fill-rule:evenodd;stroke:none;stroke-width:2.13880134px;stroke-linecap:butt;stroke-linejoin:miter;stroke-opacity:1" />
  </g>
</svg>
