<?xml version="1.0" encoding="UTF-8" standalone="no"?>
<!-- Created with Inkscape (http://www.inkscape.org/) -->

<svg
   xmlns:dc="http://purl.org/dc/elements/1.1/"
   xmlns:cc="http://creativecommons.org/ns#"
   xmlns:rdf="http://www.w3.org/1999/02/22-rdf-syntax-ns#"
   xmlns:svg="http://www.w3.org/2000/svg"
   xmlns="http://www.w3.org/2000/svg"
   xmlns:sodipodi="http://sodipodi.sourceforge.net/DTD/sodipodi-0.dtd"
   xmlns:inkscape="http://www.inkscape.org/namespaces/inkscape"
   width="210mm"
   height="297mm"
   viewBox="0 0 744.09448819 1052.3622047"
   id="svg2"
   version="1.1"
   inkscape:version="0.91 r13725"
   sodipodi:docname="power.svg">
  <defs
     id="defs4" />
  <sodipodi:namedview
     id="base"
     pagecolor="#ffffff"
     bordercolor="#666666"
     borderopacity="1.0"
     inkscape:pageopacity="0.0"
     inkscape:pageshadow="2"
     inkscape:zoom="0.9899495"
     inkscape:cx="-171.60288"
     inkscape:cy="1030.2337"
     inkscape:document-units="px"
     inkscape:current-layer="g4244"
     showgrid="false"
     inkscape:window-width="1920"
     inkscape:window-height="1017"
     inkscape:window-x="-8"
     inkscape:window-y="-8"
     inkscape:window-maximized="1" />
  <metadata
     id="metadata7">
    <rdf:RDF>
      <cc:Work
         rdf:about="">
        <dc:format>image/svg+xml</dc:format>
        <dc:type
           rdf:resource="http://purl.org/dc/dcmitype/StillImage" />
        <dc:title />
      </cc:Work>
    </rdf:RDF>
  </metadata>
  <g
     inkscape:label="Layer 1"
     inkscape:groupmode="layer"
     id="layer1">
    <g
       id="g4244"
       transform="matrix(10.463086,0,0,10.463086,-1852.4595,-1923.2476)">
      <g
         id="g3370"
         transform="matrix(0.71049045,0,0,0.71049045,70.129864,58.333475)">
        <path
           inkscape:connector-curvature="0"
           id="path3353"
           d="m 150.28639,186.63257 c 0,0 -12.42463,-5.12004 -13.78998,-13.99478 -1.36534,-8.87473 -11.26409,14.40439 -0.34133,15.838 10.92275,1.43361 14.13131,-1.84322 14.13131,-1.84322 z"
           style="fill:#ff8080;fill-rule:evenodd;stroke:none;stroke-width:0.0955741px;stroke-linecap:butt;stroke-linejoin:miter;stroke-opacity:1" />
        <path
           sodipodi:nodetypes="cssc"
           style="fill:#ff5555;fill-rule:evenodd;stroke:none;stroke-width:0.0955741px;stroke-linecap:butt;stroke-linejoin:miter;stroke-opacity:1"
           d="m 150.28639,186.63257 c 0,0 -12.56116,-1.70668 -13.92651,-10.58142 -1.36534,-8.87473 -10.10355,10.51316 0.81921,11.94677 10.92275,1.43361 13.1073,-1.36535 13.1073,-1.36535 z"
           id="path3355"
           inkscape:connector-curvature="0" />
        <path
           inkscape:connector-curvature="0"
           id="path3357"
           d="m 150.28639,186.63257 c 0,0 -12.28809,1.91148 -13.65344,-6.96326 -1.36534,-8.87473 -8.87474,5.93926 2.04802,7.37287 10.92275,1.43361 11.60542,-0.40961 11.60542,-0.40961 z"
           style="fill:#ff2a2a;fill-rule:evenodd;stroke:none;stroke-width:0.0955741px;stroke-linecap:butt;stroke-linejoin:miter;stroke-opacity:1"
           sodipodi:nodetypes="cssc" />
      </g>
      <g
         id="g3365"
         transform="matrix(0.71049045,0,0,0.71049045,70.129864,58.333475)">
        <path
           style="fill:#ff8080;fill-rule:evenodd;stroke:none;stroke-width:0.0955741px;stroke-linecap:butt;stroke-linejoin:miter;stroke-opacity:1"
           d="m 150.39889,186.63257 c 0,0 12.42463,-5.12004 13.78998,-13.99478 1.36534,-8.87473 11.26409,14.40439 0.34133,15.838 -10.92275,1.43361 -14.13131,-1.84322 -14.13131,-1.84322 z"
           id="path3359"
           inkscape:connector-curvature="0" />
        <path
           inkscape:connector-curvature="0"
           id="path3361"
           d="m 150.39889,186.63257 c 0,0 12.56116,-1.70668 13.92651,-10.58142 1.36534,-8.87473 10.10355,10.51316 -0.81921,11.94677 -10.92275,1.43361 -13.1073,-1.36535 -13.1073,-1.36535 z"
           style="fill:#ff5555;fill-rule:evenodd;stroke:none;stroke-width:0.0955741px;stroke-linecap:butt;stroke-linejoin:miter;stroke-opacity:1"
           sodipodi:nodetypes="cssc" />
        <path
           sodipodi:nodetypes="cssc"
           style="fill:#ff2a2a;fill-rule:evenodd;stroke:none;stroke-width:0.0955741px;stroke-linecap:butt;stroke-linejoin:miter;stroke-opacity:1"
           d="m 150.39889,186.63257 c 0,0 12.28809,1.91148 13.65344,-6.96326 1.36534,-8.87473 8.87474,5.93926 -2.04802,7.37287 -10.92275,1.43361 -11.60542,-0.40961 -11.60542,-0.40961 z"
           id="path3363"
           inkscape:connector-curvature="0" />
      </g>
      <g
         transform="matrix(0.43019492,0,0,0.43019492,112.42237,105.07442)"
         id="g3375">
        <path
           style="fill:#ff8080;fill-rule:evenodd;stroke:none;stroke-width:0.0955741px;stroke-linecap:butt;stroke-linejoin:miter;stroke-opacity:1"
           d="m 150.28639,186.63257 c 0,0 -12.42463,-5.12004 -13.78998,-13.99478 -1.36534,-8.87473 -11.26409,14.40439 -0.34133,15.838 10.92275,1.43361 14.13131,-1.84322 14.13131,-1.84322 z"
           id="path3377"
           inkscape:connector-curvature="0" />
        <path
           inkscape:connector-curvature="0"
           id="path3379"
           d="m 150.28639,186.63257 c 0,0 -12.56116,-1.70668 -13.92651,-10.58142 -1.36534,-8.87473 -10.10355,10.51316 0.81921,11.94677 10.92275,1.43361 13.1073,-1.36535 13.1073,-1.36535 z"
           style="fill:#ff5555;fill-rule:evenodd;stroke:none;stroke-width:0.0955741px;stroke-linecap:butt;stroke-linejoin:miter;stroke-opacity:1"
           sodipodi:nodetypes="cssc" />
        <path
           sodipodi:nodetypes="cssc"
           style="fill:#ff2a2a;fill-rule:evenodd;stroke:none;stroke-width:0.0955741px;stroke-linecap:butt;stroke-linejoin:miter;stroke-opacity:1"
           d="m 150.28639,186.63257 c 0,0 -12.28809,1.91148 -13.65344,-6.96326 -1.36534,-8.87473 -8.87474,5.93926 2.04802,7.37287 10.92275,1.43361 11.60542,-0.40961 11.60542,-0.40961 z"
           id="path3381"
           inkscape:connector-curvature="0" />
      </g>
      <g
         transform="matrix(0.43019492,0,0,0.43019492,112.42237,105.07442)"
         id="g3383">
        <path
           inkscape:connector-curvature="0"
           id="path3385"
           d="m 150.39889,186.63257 c 0,0 12.42463,-5.12004 13.78998,-13.99478 1.36534,-8.87473 11.26409,14.40439 0.34133,15.838 -10.92275,1.43361 -14.13131,-1.84322 -14.13131,-1.84322 z"
           style="fill:#ff8080;fill-rule:evenodd;stroke:none;stroke-width:0.0955741px;stroke-linecap:butt;stroke-linejoin:miter;stroke-opacity:1" />
        <path
           sodipodi:nodetypes="cssc"
           style="fill:#ff5555;fill-rule:evenodd;stroke:none;stroke-width:0.0955741px;stroke-linecap:butt;stroke-linejoin:miter;stroke-opacity:1"
           d="m 150.39889,186.63257 c 0,0 12.56116,-1.70668 13.92651,-10.58142 1.36534,-8.87473 10.10355,10.51316 -0.81921,11.94677 -10.92275,1.43361 -13.1073,-1.36535 -13.1073,-1.36535 z"
           id="path3387"
           inkscape:connector-curvature="0" />
        <path
           inkscape:connector-curvature="0"
           id="path3389"
           d="m 150.39889,186.63257 c 0,0 12.28809,1.91148 13.65344,-6.96326 1.36534,-8.87473 8.87474,5.93926 -2.04802,7.37287 -10.92275,1.43361 -11.60542,-0.40961 -11.60542,-0.40961 z"
           style="fill:#ff2a2a;fill-rule:evenodd;stroke:none;stroke-width:0.0955741px;stroke-linecap:butt;stroke-linejoin:miter;stroke-opacity:1"
           sodipodi:nodetypes="cssc" />
      </g>
      <path
         style="fill:#ff0000;fill-rule:evenodd;stroke:none;stroke-width:0.0955741px;stroke-linecap:butt;stroke-linejoin:miter;stroke-opacity:1"
         d="m 174.85278,172.7725 -0.0479,26.23498 4.78287,0 0.0479,-26.23998 -2.31433,-4.20912 z"
         id="path3351"
         inkscape:connector-curvature="0"
         sodipodi:nodetypes="cccccc" />
      <rect
         style="fill:#ff0000;stroke:none"
         id="rect3391"
         width="11.294583"
         height="2.488637"
         x="171.51456"
         y="191.9071" />
      <rect
         style="fill:#55ddff;stroke:none"
         id="rect3393"
         width="2.9991267"
         height="22.90822"
         x="175.72609"
         y="173.97615" />
      <rect
         y="174.61427"
         x="176.23659"
         height="21.695807"
         width="1.9584173"
         id="rect3395"
         style="fill:#00ccff;stroke:none" />
      <rect
         style="fill:#00aad4;stroke:none"
         id="rect3397"
         width="0.9214853"
         height="20.642923"
         x="176.76303"
         y="175.12476" />
    </g>
  </g>
</svg>
