<?xml version="1.0" encoding="UTF-8" standalone="no"?>
<!-- Created with Inkscape (http://www.inkscape.org/) -->

<svg
   xmlns:dc="http://purl.org/dc/elements/1.1/"
   xmlns:cc="http://creativecommons.org/ns#"
   xmlns:rdf="http://www.w3.org/1999/02/22-rdf-syntax-ns#"
   xmlns:svg="http://www.w3.org/2000/svg"
   xmlns="http://www.w3.org/2000/svg"
   xmlns:sodipodi="http://sodipodi.sourceforge.net/DTD/sodipodi-0.dtd"
   xmlns:inkscape="http://www.inkscape.org/namespaces/inkscape"
   width="210mm"
   height="297mm"
   viewBox="0 0 210 297"
   version="1.1"
   id="svg8"
   inkscape:version="0.92.2 (5c3e80d, 2017-08-06)"
   sodipodi:docname="1.svg">
  <defs
     id="defs2">
    <inkscape:path-effect
       only_selected="false"
       apply_with_weight="true"
       apply_no_weight="true"
       helper_size="0"
       steps="2"
       weight="33.333333"
       is_visible="true"
       id="path-effect197"
       effect="bspline" />
    <inkscape:path-effect
       effect="bspline"
       id="path-effect193"
       is_visible="true"
       weight="33.333333"
       steps="2"
       helper_size="0"
       apply_no_weight="true"
       apply_with_weight="true"
       only_selected="false" />
    <pattern
       y="0"
       x="0"
       height="6"
       width="6"
       patternUnits="userSpaceOnUse"
       id="EMFhbasepattern" />
  </defs>
  <sodipodi:namedview
     id="base"
     pagecolor="#ffffff"
     bordercolor="#666666"
     borderopacity="1.0"
     inkscape:pageopacity="0.0"
     inkscape:pageshadow="2"
     inkscape:zoom="0.175"
     inkscape:cx="-1877.7036"
     inkscape:cy="1661.3692"
     inkscape:document-units="mm"
     inkscape:current-layer="layer1"
     showgrid="false"
     inkscape:window-width="1920"
     inkscape:window-height="1017"
     inkscape:window-x="-8"
     inkscape:window-y="-8"
     inkscape:window-maximized="1"
     inkscape:snap-global="false" />
  <metadata
     id="metadata5">
    <rdf:RDF>
      <cc:Work
         rdf:about="">
        <dc:format>image/svg+xml</dc:format>
        <dc:type
           rdf:resource="http://purl.org/dc/dcmitype/StillImage" />
        <dc:title />
      </cc:Work>
    </rdf:RDF>
  </metadata>
  <g
     inkscape:label="Layer 1"
     inkscape:groupmode="layer"
     id="layer1">
    <rect
       style="fill:#d38d5f;stroke-width:0.39176056"
       id="rect115"
       width="436.25513"
       height="296.65274"
       x="-213.51328"
       y="-149.53925" />
    <rect
       y="-149.53925"
       x="-200.58208"
       height="288.93314"
       width="202.36348"
       id="rect117"
       style="fill:#e9c6af;stroke-width:0.26332435" />
    <rect
       style="fill:#e9c6af;stroke-width:0.26332435"
       id="rect179"
       width="202.36348"
       height="288.93314"
       x="7.3048277"
       y="-149.53925" />
    <rect
       y="-149.53925"
       x="-4.0344582"
       height="288.93314"
       width="20.178955"
       id="rect181"
       style="fill:#ffccaa;stroke-width:0.08315231" />
    <g
       id="g210"
       transform="matrix(1.8152251,0,0,1.8152251,1136.583,148.55537)">
      <circle
         r="35.529762"
         cy="-86.26786"
         cx="-626.68451"
         id="path189"
         style="fill:#ff6600;stroke:none;stroke-width:0.30704731" />
      <path
         sodipodi:nodetypes="cccccc"
         inkscape:original-d="m -669.01784,-133.89285 c 31.45552,0.71247 62.90982,1.42517 94.36434,2.13816 -0.71246,32.044952 -1.42517,64.08991 -2.13816,96.135643 -30.99403,-2.64e-4 -61.98798,-2.65e-4 -92.98215,0 36.65821,-17.325062 73.31623,-34.649897 109.97435,-51.974635 -36.40612,-15.433428 -72.81144,-30.866138 -109.21838,-46.299168 z"
         inkscape:path-effect="#path-effect193"
         inkscape:connector-curvature="0"
         id="path191"
         d="m -635.08668,-125.81981 c -2.47565,-7.3603 28.97865,-6.64759 44.34956,9.73124 15.37091,16.378826 14.65819,48.423784 -1.19519,64.446654 -15.85338,16.022869 -46.84733,16.022869 -44.01528,7.360395 2.83204,-8.662474 39.49006,-25.987307 39.61597,-42.366289 0.12591,-16.37898 -36.27941,-31.8117 -38.75506,-39.172 z"
         style="fill:#800080;stroke:none;stroke-width:0.26458332px;stroke-linecap:butt;stroke-linejoin:miter;stroke-opacity:1" />
      <path
         style="fill:#800080;stroke:none;stroke-width:0.26458332px;stroke-linecap:butt;stroke-linejoin:miter;stroke-opacity:1"
         d="m -619.144,-125.81981 c 2.47565,-7.3603 -28.97865,-6.64759 -44.34956,9.73124 -15.37091,16.378826 -14.65819,48.423784 1.19519,64.446654 15.85338,16.022869 46.84733,16.022869 44.01528,7.360395 -2.83204,-8.662474 -39.49006,-25.987307 -39.61597,-42.366289 -0.12591,-16.37898 36.27941,-31.8117 38.75506,-39.172 z"
         id="path195"
         inkscape:connector-curvature="0"
         inkscape:path-effect="#path-effect197"
         inkscape:original-d="m -585.21284,-133.89285 c -31.45552,0.71247 -62.90982,1.42517 -94.36434,2.13816 0.71246,32.044952 1.42517,64.08991 2.13816,96.135643 30.99403,-2.64e-4 61.98798,-2.65e-4 92.98215,0 -36.65821,-17.325062 -73.31623,-34.649897 -109.97435,-51.974635 36.40612,-15.433428 72.81144,-30.866138 109.21838,-46.299168 z"
         sodipodi:nodetypes="cccccc" />
      <rect
         transform="rotate(-45)"
         y="-508.49078"
         x="-424.92581"
         height="8.8198938"
         width="86.060791"
         id="rect199"
         style="fill:#800080;stroke:none;stroke-width:0.26458332" />
      <rect
         style="fill:#800080;stroke:none;stroke-width:0.26458332"
         id="rect201"
         width="86.060791"
         height="8.8198938"
         x="461.05045"
         y="377.48547"
         transform="matrix(-0.70710678,-0.70710678,-0.70710678,0.70710678,0,0)" />
    </g>
    <g
       id="g215"
       transform="translate(10.583333,-30.994048)">
      <path
         sodipodi:nodetypes="csscscc"
         inkscape:connector-curvature="0"
         id="path183"
         d="M -57.006202,-110.59011 C -68.779249,-5.9407489 -41.766944,47.526221 -17.762727,49.000164 56.799987,53.578574 48.951297,-83.119658 50.259383,-98.817061 51.567482,-114.51445 18.574421,-237.43214 18.574421,-237.43214 c -0.290055,11.02554 -14.9128359,85.74278 -30.271138,91.58294 -13.10158,4.98203 -37.348386,-40.75576 -38.768906,-31.45487 -1.308147,18.31362 -6.540579,66.71396 -6.540579,66.71396 z"
         style="fill:#ff0000;stroke:none;stroke-width:0.45784092px;stroke-linecap:butt;stroke-linejoin:miter;stroke-opacity:1" />
      <path
         style="fill:#ff6600;stroke:none;stroke-width:0.37205774px;stroke-linecap:butt;stroke-linejoin:miter;stroke-opacity:1"
         d="M -51.767221,-79.449898 C -62.255068,-1.8732547 -38.191575,37.761849 -16.807787,38.854484 49.61525,42.248464 42.62338,-59.08603 43.788665,-70.722531 44.953963,-82.359032 15.562604,-173.47799 15.562604,-173.47799 c -0.258387,8.17325 -13.2848789,63.56119 -26.96658,67.89049 -11.671334,3.6932 -33.271232,-30.21227 -34.536673,-23.31751 -1.165358,13.57591 -5.826572,49.455112 -5.826572,49.455112 z"
         id="path185"
         inkscape:connector-curvature="0"
         sodipodi:nodetypes="csscscc" />
      <path
         sodipodi:nodetypes="csscscc"
         inkscape:connector-curvature="0"
         id="path187"
         d="m -48.282539,-47.685201 c -9.598083,56.1558786 12.423938,84.846788 31.993561,85.637718 60.787897,2.45682 54.389187,-70.896812 55.455616,-79.32019 1.066442,-8.423379 -25.831443,-74.382237 -25.831443,-74.382237 -0.236457,5.91643 -12.1578119,46.010443 -24.678803,49.144321 -10.681169,2.673401 -30.448577,-21.869948 -31.606663,-16.87899 -1.06649,9.827267 -5.332268,35.799378 -5.332268,35.799378 z"
         style="fill:#ffff00;stroke:none;stroke-width:0.30282494px;stroke-linecap:butt;stroke-linejoin:miter;stroke-opacity:1" />
    </g>
  </g>
</svg>
