<?xml version="1.0" encoding="UTF-8" standalone="no"?>
<!-- Created with Inkscape (http://www.inkscape.org/) -->

<svg
   xmlns:dc="http://purl.org/dc/elements/1.1/"
   xmlns:cc="http://creativecommons.org/ns#"
   xmlns:rdf="http://www.w3.org/1999/02/22-rdf-syntax-ns#"
   xmlns:svg="http://www.w3.org/2000/svg"
   xmlns="http://www.w3.org/2000/svg"
   xmlns:sodipodi="http://sodipodi.sourceforge.net/DTD/sodipodi-0.dtd"
   xmlns:inkscape="http://www.inkscape.org/namespaces/inkscape"
   width="210mm"
   height="297mm"
   viewBox="0 0 744.09448819 1052.3622047"
   id="svg2"
   version="1.1"
   inkscape:version="0.91 r13725"
   sodipodi:docname="1.svg">
  <defs
     id="defs4" />
  <sodipodi:namedview
     id="base"
     pagecolor="#ffffff"
     bordercolor="#666666"
     borderopacity="1.0"
     inkscape:pageopacity="0.0"
     inkscape:pageshadow="2"
     inkscape:zoom="0.69999999"
     inkscape:cx="28.173192"
     inkscape:cy="975.12005"
     inkscape:document-units="px"
     inkscape:current-layer="g4244"
     showgrid="false"
     inkscape:window-width="944"
     inkscape:window-height="1001"
     inkscape:window-x="960"
     inkscape:window-y="0"
     inkscape:window-maximized="0"
     showguides="false"
     inkscape:snap-global="false" />
  <metadata
     id="metadata7">
    <rdf:RDF>
      <cc:Work
         rdf:about="">
        <dc:format>image/svg+xml</dc:format>
        <dc:type
           rdf:resource="http://purl.org/dc/dcmitype/StillImage" />
        <dc:title />
      </cc:Work>
    </rdf:RDF>
  </metadata>
  <g
     inkscape:label="Layer 1"
     inkscape:groupmode="layer"
     id="layer1">
    <g
       id="g4244"
       transform="matrix(10.463086,0,0,10.463086,-1852.4595,-1923.2476)">
      <g
         id="g3362"
         transform="matrix(5.8900091,0,0,5.8900091,-730.0533,-763.10151)">
        <path
           sodipodi:nodetypes="ssscss"
           inkscape:connector-curvature="0"
           id="path3358"
           d="m 155.20163,156.35606 c 4.00256,2.04561 0.79404,2.09097 0.3499,1.96291 -3.21045,-0.92565 -4.13873,1.1933 -4.13873,2.33793 0,1.46774 2.28695,4.40323 2.28695,4.40323 0,0 -4.30083,0.51633 -4.30083,-4.30084 0,-4.62987 4.61824,-5.00859 5.80271,-4.40323 z"
           style="fill:#ff0000;fill-rule:evenodd;stroke:none;stroke-width:0.0955741px;stroke-linecap:butt;stroke-linejoin:miter;stroke-opacity:1" />
        <path
           style="fill:#ff0000;fill-rule:evenodd;stroke:none;stroke-width:0.0955741px;stroke-linecap:butt;stroke-linejoin:miter;stroke-opacity:1"
           d="m 152.83385,165.28872 c -4.00256,-2.04561 -0.79404,-2.09097 -0.3499,-1.96291 3.21045,0.92565 4.13873,-1.1933 4.13873,-2.33793 0,-1.46774 -2.28695,-4.40323 -2.28695,-4.40323 0,0 4.30083,-0.51633 4.30083,4.30084 0,4.62987 -4.61824,5.00859 -5.80271,4.40323 z"
           id="path3360"
           inkscape:connector-curvature="0"
           sodipodi:nodetypes="ssscss" />
      </g>
      <rect
         rx="2.4437191"
         ry="0.56139231"
         y="182.78548"
         x="153.19078"
         height="2.3788462"
         width="24.324694"
         id="rect4226"
         style="fill:#999999;fill-opacity:1;stroke:none;stroke-width:0;stroke-linecap:round;stroke-miterlimit:4;stroke-dasharray:none;stroke-dashoffset:0;stroke-opacity:1"
         inkscape:transform-center-x="139.29918"
         inkscape:transform-center-y="-4.2588793" />
      <path
         style="fill:#999999;fill-rule:evenodd;stroke:none;stroke-width:0.0955741px;stroke-linecap:butt;stroke-linejoin:miter;stroke-opacity:1"
         d="m 177.99204,185.75172 c 0,0 -2.18185,-2.39081 0.0447,-3.23317 1.15427,-0.43668 -0.2383,0.54346 -0.41988,1.26389 -0.12168,0.4824 0.14545,1.26295 0.37519,1.96929 z"
         id="path3340"
         inkscape:connector-curvature="0"
         sodipodi:nodetypes="cssc"
         inkscape:transform-center-x="9.4562447"
         inkscape:transform-center-y="-3.1478696" />
      <path
         sodipodi:nodetypes="cssc"
         inkscape:connector-curvature="0"
         id="path3342"
         d="m 180.50557,184.85697 c 0,0 -2.39082,2.18185 -3.23316,-0.0446 -0.43669,-1.15431 0.54353,0.23818 1.26392,0.41985 0.48239,0.12167 1.26292,-0.14544 1.96925,-0.37519 z"
         style="fill:#999999;fill-rule:evenodd;stroke:none;stroke-width:0.0955741px;stroke-linecap:butt;stroke-linejoin:miter;stroke-opacity:1"
         inkscape:transform-center-x="-1.7621649"
         inkscape:transform-center-y="7.3698475" />
      <path
         style="fill:#999999;fill-rule:evenodd;stroke:none;stroke-width:0.0955741px;stroke-linecap:butt;stroke-linejoin:miter;stroke-opacity:1"
         d="m 179.81187,182.09771 c 0,0 2.18186,2.39085 -0.0447,3.23317 -1.15427,0.43669 0.2383,-0.54346 0.41989,-1.26388 0.12167,-0.48241 -0.14543,-1.26297 -0.3752,-1.96929 z"
         id="path3344"
         inkscape:connector-curvature="0"
         sodipodi:nodetypes="cssc"
         inkscape:transform-center-x="-14.382979"
         inkscape:transform-center-y="-6.4199924" />
      <path
         sodipodi:nodetypes="cssc"
         inkscape:connector-curvature="0"
         id="path3346"
         d="m 177.29832,182.97012 c 0,0 2.39083,-2.18184 3.23316,0.0447 0.43669,1.15429 -0.54345,-0.23828 -1.26388,-0.41988 -0.48241,-0.12167 -1.26294,0.14545 -1.96929,0.3752 z"
         style="fill:#999999;fill-rule:evenodd;stroke:none;stroke-width:0.0955741px;stroke-linecap:butt;stroke-linejoin:miter;stroke-opacity:1"
         inkscape:transform-center-x="-3.164368"
         inkscape:transform-center-y="-17.17097" />
      <path
         style="fill:#b3b3b3;fill-rule:evenodd;stroke:none;stroke-width:0.0955741px;stroke-linecap:butt;stroke-linejoin:miter;stroke-opacity:1"
         d="m 153.39783,184.78015 c 0,0 -0.9216,1.54976 -1.66647,2.20564 -0.86196,0.759 -2.16012,1.94377 -2.16012,1.94377 1.06392,2.1368 1.5902,3.10183 3.64634,3.92564 2.22151,0.89007 11.84696,-3.21755 10.12843,-4.15738 -0.78422,-0.42888 -2.47499,-1.395 -3.95092,-0.77292 -1.98979,0.8387 -2.63803,-0.2777 -2.63803,-0.2777 l -0.54894,-0.86935 c 0,0 -0.0386,-0.95824 0.77027,-1.5709 1.61748,-1.22535 -3.5805,-0.42677 -3.5805,-0.42677 z"
         id="path3348"
         inkscape:connector-curvature="0"
         sodipodi:nodetypes="csssssccsc"
         inkscape:transform-center-x="231.29441"
         inkscape:transform-center-y="45.72991" />
      <path
         sodipodi:type="star"
         style="opacity:1;fill:#b3b3b3;fill-opacity:1;stroke:none;stroke-width:0;stroke-linecap:round;stroke-miterlimit:4;stroke-dasharray:none;stroke-dashoffset:0;stroke-opacity:1"
         id="path3388"
         sodipodi:sides="3"
         sodipodi:cx="158.47845"
         sodipodi:cy="123.6902"
         sodipodi:r1="4.206058"
         sodipodi:r2="2.103029"
         sodipodi:arg1="0.52359878"
         sodipodi:arg2="1.5707963"
         inkscape:flatsided="true"
         inkscape:rounded="0"
         inkscape:randomized="0"
         d="m 162.12101,125.79323 -7.28511,0 3.64255,-6.30909 z"
         inkscape:transform-center-x="158.93272"
         inkscape:transform-center-y="48.608421"
         transform="matrix(0.04850892,0.19404771,-0.24626495,0.0615624,186.07901,150.53113)" />
      <path
         style="fill:#b3b3b3;fill-rule:evenodd;stroke:none;stroke-width:0.0955741px;stroke-linecap:butt;stroke-linejoin:miter;stroke-opacity:1"
         d="m 152.97618,181.89232 c 0,0 -0.52577,-1.91402 -2.20287,-1.86002 -0.83857,0.027 1.05472,-2.56655 2.83237,-3.36833 2.13553,-0.96318 5.03575,-0.0694 5.52203,-0.003 0.9726,0.13198 -4.1533,0.82707 -2.54274,6.17845 1.61053,5.35139 -3.60879,-0.94667 -3.60879,-0.94667 z"
         id="path3390"
         inkscape:connector-curvature="0"
         sodipodi:nodetypes="cscssc"
         inkscape:transform-center-x="248.5664"
         inkscape:transform-center-y="-39.492857" />
      <g
         transform="matrix(0,-0.25384317,0.25384317,0,131.83884,229.4773)"
         id="g3403"
         inkscape:transform-center-x="257.8063"
         inkscape:transform-center-y="-5.4015982">
        <path
           inkscape:transform-center-y="-1.1072003"
           d="m 179.8637,80.844443 -7.67079,0 3.8354,-6.643108 z"
           inkscape:randomized="0"
           inkscape:rounded="0"
           inkscape:flatsided="true"
           sodipodi:arg2="1.5707963"
           sodipodi:arg1="0.52359878"
           sodipodi:r2="2.2143688"
           sodipodi:r1="4.4287381"
           sodipodi:cy="78.630074"
           sodipodi:cx="176.02831"
           sodipodi:sides="3"
           id="path3405"
           style="fill:#b3b3b3;fill-opacity:1;stroke:none;stroke-width:0;stroke-linecap:round;stroke-miterlimit:4;stroke-dasharray:none;stroke-dashoffset:0;stroke-opacity:1"
           sodipodi:type="star"
           inkscape:transform-center-x="-6.3301378e-005"
           transform="matrix(1.9967576,0,0,1,-171.63459,0)" />
        <path
           style="fill:#999999;fill-rule:evenodd;stroke:none;stroke-width:0.0955741px;stroke-linecap:butt;stroke-linejoin:miter;stroke-opacity:1"
           d="m 174.45299,100.47935 -2.59416,-19.934033 15.56493,0 -3.9595,20.070563 z"
           id="path3407"
           inkscape:connector-curvature="0" />
        <g
           transform="translate(-17.749475,27.989557)"
           id="g3409">
          <ellipse
             style="opacity:1;fill:#000000;fill-opacity:1;stroke:none;stroke-width:0;stroke-linecap:round;stroke-miterlimit:4;stroke-dasharray:none;stroke-dashoffset:0;stroke-opacity:1"
             id="ellipse3411"
             cx="197.22679"
             cy="60.954681"
             rx="6.3719316"
             ry="7.1853695" />
          <ellipse
             ry="6.2548456"
             rx="5.5467496"
             cy="60.796509"
             cx="197.36707"
             id="ellipse3413"
             style="opacity:1;fill:#808080;fill-opacity:1;stroke:none;stroke-width:0;stroke-linecap:round;stroke-miterlimit:4;stroke-dasharray:none;stroke-dashoffset:0;stroke-opacity:1" />
          <ellipse
             style="opacity:1;fill:#000000;fill-opacity:1;stroke:none;stroke-width:0;stroke-linecap:round;stroke-miterlimit:4;stroke-dasharray:none;stroke-dashoffset:0;stroke-opacity:1"
             id="ellipse3415"
             cx="204.7863"
             cy="8.7748871"
             rx="1.4964385"
             ry="0.57926655"
             transform="matrix(0.96592583,0.25881905,-0.25881905,0.96592583,0,0)" />
          <ellipse
             transform="matrix(-0.96592583,0.25881905,0.25881905,0.96592583,0,0)"
             ry="0.57926655"
             rx="1.4964385"
             cy="110.94195"
             cx="-176.50636"
             id="ellipse3417"
             style="opacity:1;fill:#000000;fill-opacity:1;stroke:none;stroke-width:0;stroke-linecap:round;stroke-miterlimit:4;stroke-dasharray:none;stroke-dashoffset:0;stroke-opacity:1" />
          <ellipse
             style="opacity:1;fill:#000000;fill-opacity:1;stroke:none;stroke-width:0;stroke-linecap:round;stroke-miterlimit:4;stroke-dasharray:none;stroke-dashoffset:0;stroke-opacity:1"
             id="ellipse3419"
             cx="-197.29942"
             cy="63.210945"
             rx="0.32126734"
             ry="0.47929442"
             transform="scale(-1,1)" />
          <ellipse
             transform="scale(-1,1)"
             ry="0.39481807"
             rx="2.3124959"
             cy="64.719452"
             cx="-197.43217"
             id="ellipse3421"
             style="opacity:1;fill:#000000;fill-opacity:1;stroke:none;stroke-width:0;stroke-linecap:round;stroke-miterlimit:4;stroke-dasharray:none;stroke-dashoffset:0;stroke-opacity:1" />
        </g>
      </g>
      <path
         style="fill:#afdde9;fill-rule:evenodd;stroke:none;stroke-width:0.0955741px;stroke-linecap:butt;stroke-linejoin:miter;stroke-opacity:1"
         d="m 154.28795,169.44127 c 2.84897,-3.7601 5.35322,-3.50203 5.35322,-3.50203 0,0 -3.50577,2.70001 -4.32646,4.12151 -0.90848,1.57352 -1.73398,5.95973 -1.73398,5.95973 0,0 -1.78791,-1.94261 0.70722,-6.57921 z"
         id="path3352"
         inkscape:connector-curvature="0"
         sodipodi:nodetypes="ccscc"
         inkscape:transform-center-x="234.01434"
         inkscape:transform-center-y="-140.24676" />
      <path
         sodipodi:nodetypes="ccscc"
         inkscape:connector-curvature="0"
         id="path3354"
         d="m 159.7914,168.77821 c 2.84897,-3.7601 5.35321,-3.50204 5.35321,-3.50204 0,0 -3.50576,2.70002 -4.32646,4.1215 -0.90847,1.57354 -1.73397,5.95977 -1.73397,5.95977 0,0 -1.7879,-1.94264 0.70722,-6.57923 z"
         style="fill:#afdde9;fill-rule:evenodd;stroke:none;stroke-width:0.0955741px;stroke-linecap:butt;stroke-linejoin:miter;stroke-opacity:1"
         inkscape:transform-center-x="176.43128"
         inkscape:transform-center-y="-147.18436" />
    </g>
  </g>
</svg>
