<?xml version="1.0" encoding="UTF-8" standalone="no"?>
<!-- Created with Inkscape (http://www.inkscape.org/) -->

<svg
   xmlns:dc="http://purl.org/dc/elements/1.1/"
   xmlns:cc="http://creativecommons.org/ns#"
   xmlns:rdf="http://www.w3.org/1999/02/22-rdf-syntax-ns#"
   xmlns:svg="http://www.w3.org/2000/svg"
   xmlns="http://www.w3.org/2000/svg"
   xmlns:sodipodi="http://sodipodi.sourceforge.net/DTD/sodipodi-0.dtd"
   xmlns:inkscape="http://www.inkscape.org/namespaces/inkscape"
   width="210mm"
   height="297mm"
   viewBox="0 0 744.09448819 1052.3622047"
   id="svg2"
   version="1.1"
   inkscape:version="0.91 r13725"
   sodipodi:docname="darius axe.svg">
  <defs
     id="defs4" />
  <sodipodi:namedview
     id="base"
     pagecolor="#ffffff"
     bordercolor="#666666"
     borderopacity="1.0"
     inkscape:pageopacity="0.0"
     inkscape:pageshadow="2"
     inkscape:zoom="0.49497474"
     inkscape:cx="266.35407"
     inkscape:cy="1347.6592"
     inkscape:document-units="px"
     inkscape:current-layer="g4244"
     showgrid="false"
     inkscape:window-width="944"
     inkscape:window-height="1001"
     inkscape:window-x="960"
     inkscape:window-y="0"
     inkscape:window-maximized="0"
     showguides="false" />
  <metadata
     id="metadata7">
    <rdf:RDF>
      <cc:Work
         rdf:about="">
        <dc:format>image/svg+xml</dc:format>
        <dc:type
           rdf:resource="http://purl.org/dc/dcmitype/StillImage" />
        <dc:title />
      </cc:Work>
    </rdf:RDF>
  </metadata>
  <g
     inkscape:label="Layer 1"
     inkscape:groupmode="layer"
     id="layer1">
    <g
       id="g4244"
       transform="matrix(10.463086,0,0,10.463086,-1852.4595,-1923.2476)">
      <rect
         rx="3.6114395"
         ry="0.82965112"
         y="-66.086159"
         x="232.5233"
         height="3.5155673"
         width="35.948135"
         id="rect4226"
         style="fill:#999999;fill-opacity:1;stroke:none;stroke-width:0;stroke-linecap:round;stroke-miterlimit:4;stroke-dasharray:none;stroke-dashoffset:0;stroke-opacity:1"
         transform="matrix(0.5,0.8660254,-0.8660254,0.5,0,0)" />
      <path
         style="fill:#999999;fill-rule:evenodd;stroke:none;stroke-width:0.0955741px;stroke-linecap:butt;stroke-linejoin:miter;stroke-opacity:1"
         d="m 188.02379,202.26172 c 0,0 1.44769,-4.55909 4.17097,-2.33194 1.41183,1.15464 -0.87163,0.0967 -1.92786,0.39655 -0.70727,0.20078 -1.5089,1.11937 -2.24314,1.93533 z"
         id="path3340"
         inkscape:connector-curvature="0"
         sodipodi:nodetypes="cssc" />
      <path
         sodipodi:nodetypes="cssc"
         inkscape:connector-curvature="0"
         id="path3342"
         d="m 191.02626,204.81753 c 0,0 -4.55909,-1.44769 -2.33192,-4.17096 1.15463,-1.41184 0.0967,0.87162 0.39654,1.92785 0.2008,0.70727 1.11936,1.5089 1.93534,2.24314 z"
         style="fill:#999999;fill-rule:evenodd;stroke:none;stroke-width:0.0955741px;stroke-linecap:butt;stroke-linejoin:miter;stroke-opacity:1" />
      <path
         style="fill:#999999;fill-rule:evenodd;stroke:none;stroke-width:0.0955741px;stroke-linecap:butt;stroke-linejoin:miter;stroke-opacity:1"
         d="m 194.0451,201.89079 c 0,0 -1.44769,4.5591 -4.17096,2.33193 -1.41183,-1.15463 0.87162,-0.0967 1.92785,-0.39654 0.70728,-0.20079 1.50891,-1.11936 2.24314,-1.93534 z"
         id="path3344"
         inkscape:connector-curvature="0"
         sodipodi:nodetypes="cssc" />
      <path
         sodipodi:nodetypes="cssc"
         inkscape:connector-curvature="0"
         id="path3346"
         d="m 191.07122,199.31847 c 0,0 4.55908,1.44769 2.33193,4.17097 -1.15464,1.41183 -0.0967,-0.87163 -0.39653,-1.92785 -0.20081,-0.70729 -1.11938,-1.50891 -1.93535,-2.24315 z"
         style="fill:#999999;fill-rule:evenodd;stroke:none;stroke-width:0.0955741px;stroke-linecap:butt;stroke-linejoin:miter;stroke-opacity:1" />
      <path
         style="fill:#b3b3b3;fill-rule:evenodd;stroke:none;stroke-width:0.0955741px;stroke-linecap:butt;stroke-linejoin:miter;stroke-opacity:1"
         d="m 171.09405,170.06687 c 0,0 -2.66448,-0.0344 -4.0543,-0.50305 -1.60832,-0.54233 -4.08388,-1.32834 -4.08388,-1.32834 -1.94864,2.94059 -2.79484,4.32724 -2.32988,7.56752 0.50237,3.5009 12.87198,12.78482 12.80495,9.89089 -0.0305,-1.3206 -0.0434,-4.19839 -1.93021,-5.62769 -2.5437,-1.92693 -1.59386,-3.58151 -1.59386,-3.58151 l 0.707,-1.34494 c 0,0 1.19795,-0.75737 2.57969,-0.175 2.76346,1.16468 -2.09951,-4.89788 -2.09951,-4.89788 z"
         id="path3348"
         inkscape:connector-curvature="0"
         sodipodi:nodetypes="csssssccsc" />
      <path
         sodipodi:type="star"
         style="opacity:1;fill:#b3b3b3;fill-opacity:1;stroke:none;stroke-width:0;stroke-linecap:round;stroke-miterlimit:4;stroke-dasharray:none;stroke-dashoffset:0;stroke-opacity:1"
         id="path3388"
         sodipodi:sides="3"
         sodipodi:cx="158.47845"
         sodipodi:cy="123.6902"
         sodipodi:r1="4.206058"
         sodipodi:r2="2.103029"
         sodipodi:arg1="0.52359878"
         sodipodi:arg2="1.5707963"
         inkscape:flatsided="true"
         inkscape:rounded="0"
         inkscape:randomized="0"
         d="m 162.12101,125.79323 -7.28511,0 3.64255,-6.30909 z"
         inkscape:transform-center-x="1.1805921"
         inkscape:transform-center-y="-0.94833889"
         transform="matrix(-0.21250797,0.20547049,-0.26076154,-0.26969278,239.07657,186.58654)" />
      <path
         style="fill:#b3b3b3;fill-rule:evenodd;stroke:none;stroke-width:0.0955741px;stroke-linecap:butt;stroke-linejoin:miter;stroke-opacity:1"
         d="m 174.47847,167.39332 c 0,0 2.06117,-2.08721 0.7528,-4.19376 -0.65422,-1.05325 4.06417,-0.5466 6.40387,1.13608 2.81073,2.02144 3.80988,6.3937 4.08507,7.06468 0.54975,1.3423 -4.1275,-4.70446 -9.78642,1.31105 -5.65893,6.01551 -1.45502,-5.31822 -1.45502,-5.31822 z"
         id="path3390"
         inkscape:connector-curvature="0"
         sodipodi:nodetypes="cscssc" />
      <g
         transform="matrix(0.32488164,-0.1875705,0.1875705,0.32488164,97.957887,175.50227)"
         id="g3403">
        <path
           inkscape:transform-center-y="-1.1072003"
           d="m 179.8637,80.844443 -7.67079,0 3.8354,-6.643108 z"
           inkscape:randomized="0"
           inkscape:rounded="0"
           inkscape:flatsided="true"
           sodipodi:arg2="1.5707963"
           sodipodi:arg1="0.52359878"
           sodipodi:r2="2.2143688"
           sodipodi:r1="4.4287381"
           sodipodi:cy="78.630074"
           sodipodi:cx="176.02831"
           sodipodi:sides="3"
           id="path3405"
           style="fill:#b3b3b3;fill-opacity:1;stroke:none;stroke-width:0;stroke-linecap:round;stroke-miterlimit:4;stroke-dasharray:none;stroke-dashoffset:0;stroke-opacity:1"
           sodipodi:type="star"
           inkscape:transform-center-x="-6.3301378e-005"
           transform="matrix(1.9967576,0,0,1,-171.63459,0)" />
        <path
           style="fill:#999999;fill-rule:evenodd;stroke:none;stroke-width:0.0955741px;stroke-linecap:butt;stroke-linejoin:miter;stroke-opacity:1"
           d="m 174.45299,100.47935 -2.59416,-19.934033 15.56493,0 -3.9595,20.070563 z"
           id="path3407"
           inkscape:connector-curvature="0" />
        <g
           transform="translate(-17.749475,27.989557)"
           id="g3409">
          <ellipse
             style="opacity:1;fill:#000000;fill-opacity:1;stroke:none;stroke-width:0;stroke-linecap:round;stroke-miterlimit:4;stroke-dasharray:none;stroke-dashoffset:0;stroke-opacity:1"
             id="ellipse3411"
             cx="197.22679"
             cy="60.954681"
             rx="6.3719316"
             ry="7.1853695" />
          <ellipse
             ry="6.2548456"
             rx="5.5467496"
             cy="60.796509"
             cx="197.36707"
             id="ellipse3413"
             style="opacity:1;fill:#808080;fill-opacity:1;stroke:none;stroke-width:0;stroke-linecap:round;stroke-miterlimit:4;stroke-dasharray:none;stroke-dashoffset:0;stroke-opacity:1" />
          <ellipse
             style="opacity:1;fill:#000000;fill-opacity:1;stroke:none;stroke-width:0;stroke-linecap:round;stroke-miterlimit:4;stroke-dasharray:none;stroke-dashoffset:0;stroke-opacity:1"
             id="ellipse3415"
             cx="204.7863"
             cy="8.7748871"
             rx="1.4964385"
             ry="0.57926655"
             transform="matrix(0.96592583,0.25881905,-0.25881905,0.96592583,0,0)" />
          <ellipse
             transform="matrix(-0.96592583,0.25881905,0.25881905,0.96592583,0,0)"
             ry="0.57926655"
             rx="1.4964385"
             cy="110.94195"
             cx="-176.50636"
             id="ellipse3417"
             style="opacity:1;fill:#000000;fill-opacity:1;stroke:none;stroke-width:0;stroke-linecap:round;stroke-miterlimit:4;stroke-dasharray:none;stroke-dashoffset:0;stroke-opacity:1" />
          <ellipse
             style="opacity:1;fill:#000000;fill-opacity:1;stroke:none;stroke-width:0;stroke-linecap:round;stroke-miterlimit:4;stroke-dasharray:none;stroke-dashoffset:0;stroke-opacity:1"
             id="ellipse3419"
             cx="-197.29942"
             cy="63.210945"
             rx="0.32126734"
             ry="0.47929442"
             transform="scale(-1,1)" />
          <ellipse
             transform="scale(-1,1)"
             ry="0.39481807"
             rx="2.3124959"
             cy="64.719452"
             cx="-197.43217"
             id="ellipse3421"
             style="opacity:1;fill:#000000;fill-opacity:1;stroke:none;stroke-width:0;stroke-linecap:round;stroke-miterlimit:4;stroke-dasharray:none;stroke-dashoffset:0;stroke-opacity:1" />
        </g>
      </g>
    </g>
  </g>
</svg>
