<?xml version="1.0" encoding="UTF-8" standalone="no"?>
<!-- Created with Inkscape (http://www.inkscape.org/) -->

<svg
   xmlns:dc="http://purl.org/dc/elements/1.1/"
   xmlns:cc="http://creativecommons.org/ns#"
   xmlns:rdf="http://www.w3.org/1999/02/22-rdf-syntax-ns#"
   xmlns:svg="http://www.w3.org/2000/svg"
   xmlns="http://www.w3.org/2000/svg"
   xmlns:sodipodi="http://sodipodi.sourceforge.net/DTD/sodipodi-0.dtd"
   xmlns:inkscape="http://www.inkscape.org/namespaces/inkscape"
   width="210mm"
   height="297mm"
   viewBox="0 0 744.09448819 1052.3622047"
   id="svg2"
   version="1.1"
   inkscape:version="0.91 r13725"
   sodipodi:docname="2.svg">
  <defs
     id="defs4" />
  <sodipodi:namedview
     id="base"
     pagecolor="#ffffff"
     bordercolor="#666666"
     borderopacity="1.0"
     inkscape:pageopacity="0.0"
     inkscape:pageshadow="2"
     inkscape:zoom="0.98994949"
     inkscape:cx="-14.471859"
     inkscape:cy="1102.6827"
     inkscape:document-units="px"
     inkscape:current-layer="g4244"
     showgrid="false"
     inkscape:window-width="944"
     inkscape:window-height="1001"
     inkscape:window-x="960"
     inkscape:window-y="0"
     inkscape:window-maximized="0"
     showguides="false"
     inkscape:snap-global="false" />
  <metadata
     id="metadata7">
    <rdf:RDF>
      <cc:Work
         rdf:about="">
        <dc:format>image/svg+xml</dc:format>
        <dc:type
           rdf:resource="http://purl.org/dc/dcmitype/StillImage" />
        <dc:title />
      </cc:Work>
    </rdf:RDF>
  </metadata>
  <g
     inkscape:label="Layer 1"
     inkscape:groupmode="layer"
     id="layer1">
    <g
       id="g4244"
       transform="matrix(10.463086,0,0,10.463086,-1852.4595,-1923.2476)">
      <g
         id="g3357"
         transform="matrix(1.4226719,0.82137996,-0.82137996,1.4226719,72.911296,-206.63792)">
        <rect
           transform="matrix(0.5,0.8660254,-0.8660254,0.5,0,0)"
           style="fill:#999999;fill-opacity:1;stroke:none;stroke-width:0;stroke-linecap:round;stroke-miterlimit:4;stroke-dasharray:none;stroke-dashoffset:0;stroke-opacity:1"
           id="rect4226"
           width="19.872028"
           height="1.9433956"
           x="228.25671"
           y="-62.668476"
           ry="0.4586288"
           rx="1.9963936" />
        <path
           sodipodi:nodetypes="cssc"
           inkscape:connector-curvature="0"
           id="path3340"
           d="m 176.43291,185.10035 c 0,0 0.80027,-2.52025 2.3057,-1.28909 0.78045,0.63828 -0.48184,0.0534 -1.06572,0.21921 -0.39098,0.11099 -0.83411,0.61879 -1.24,1.06985 z"
           style="fill:#999999;fill-rule:evenodd;stroke:none;stroke-width:0.0955741px;stroke-linecap:butt;stroke-linejoin:miter;stroke-opacity:1" />
        <path
           style="fill:#999999;fill-rule:evenodd;stroke:none;stroke-width:0.0955741px;stroke-linecap:butt;stroke-linejoin:miter;stroke-opacity:1"
           d="m 178.09266,186.51319 c 0,0 -2.52025,-0.80028 -1.28908,-2.30569 0.63828,-0.78046 0.0535,0.48183 0.21921,1.06571 0.111,0.39098 0.61878,0.83411 1.06985,1.24 z"
           id="path3342"
           inkscape:connector-curvature="0"
           sodipodi:nodetypes="cssc" />
        <path
           sodipodi:nodetypes="cssc"
           inkscape:connector-curvature="0"
           id="path3344"
           d="m 179.76147,184.8953 c 0,0 -0.80028,2.52026 -2.3057,1.28908 -0.78045,-0.63827 0.48183,-0.0534 1.06571,-0.2192 0.39099,-0.111 0.83413,-0.61878 1.24001,-1.06985 z"
           style="fill:#999999;fill-rule:evenodd;stroke:none;stroke-width:0.0955741px;stroke-linecap:butt;stroke-linejoin:miter;stroke-opacity:1" />
        <path
           style="fill:#999999;fill-rule:evenodd;stroke:none;stroke-width:0.0955741px;stroke-linecap:butt;stroke-linejoin:miter;stroke-opacity:1"
           d="m 178.11752,183.47333 c 0,0 2.52024,0.80028 1.28908,2.3057 -0.63828,0.78045 -0.0534,-0.48184 -0.2192,-1.06571 -0.11101,-0.39099 -0.61879,-0.83412 -1.06986,-1.24001 z"
           id="path3346"
           inkscape:connector-curvature="0"
           sodipodi:nodetypes="cssc" />
        <path
           sodipodi:nodetypes="csssssccsc"
           inkscape:connector-curvature="0"
           id="path3348"
           d="m 167.07419,167.30313 c 0,0 -1.47291,-0.019 -2.2412,-0.27809 -0.88908,-0.2998 -2.25756,-0.7343 -2.25756,-0.7343 -1.0772,1.62555 -1.54498,2.39209 -1.28795,4.1833 0.27771,1.93529 7.11559,7.06742 7.07854,5.46766 -0.0169,-0.73002 -0.024,-2.32086 -1.06701,-3.11097 -1.40616,-1.0652 -0.88109,-1.97985 -0.88109,-1.97985 l 0.39083,-0.74348 c 0,0 0.66222,-0.41867 1.42605,-0.0967 1.52763,0.64383 -1.16061,-2.70753 -1.16061,-2.70753 z"
           style="fill:#b3b3b3;fill-rule:evenodd;stroke:none;stroke-width:0.0955741px;stroke-linecap:butt;stroke-linejoin:miter;stroke-opacity:1" />
        <path
           transform="matrix(-0.1174738,0.11358351,-0.14414824,-0.14908541,204.65474,176.43515)"
           inkscape:transform-center-y="-0.52427526"
           inkscape:transform-center-x="0.65260039"
           d="m 162.12101,125.79323 -7.28511,0 3.64255,-6.30909 z"
           inkscape:randomized="0"
           inkscape:rounded="0"
           inkscape:flatsided="true"
           sodipodi:arg2="1.5707963"
           sodipodi:arg1="0.52359878"
           sodipodi:r2="2.103029"
           sodipodi:r1="4.206058"
           sodipodi:cy="123.6902"
           sodipodi:cx="158.47845"
           sodipodi:sides="3"
           id="path3388"
           style="opacity:1;fill:#b3b3b3;fill-opacity:1;stroke:none;stroke-width:0;stroke-linecap:round;stroke-miterlimit:4;stroke-dasharray:none;stroke-dashoffset:0;stroke-opacity:1"
           sodipodi:type="star" />
        <path
           sodipodi:nodetypes="cscssc"
           inkscape:connector-curvature="0"
           id="path3390"
           d="m 168.94509,165.8252 c 0,0 1.13941,-1.15381 0.41615,-2.3183 -0.36165,-0.58224 2.24666,-0.30216 3.54004,0.62802 1.55376,1.11745 2.10609,3.53442 2.25821,3.90533 0.3039,0.74202 -2.28167,-2.60061 -5.4099,0.72475 -3.12824,3.32536 -0.80433,-2.9399 -0.80433,-2.9399 z"
           style="fill:#b3b3b3;fill-rule:evenodd;stroke:none;stroke-width:0.0955741px;stroke-linecap:butt;stroke-linejoin:miter;stroke-opacity:1" />
        <g
           id="g3403"
           transform="matrix(0.17959365,-0.10368844,0.10368844,0.17959365,126.64473,170.3078)">
          <path
             transform="matrix(1.9967576,0,0,1,-171.63459,0)"
             inkscape:transform-center-x="-6.3301378e-005"
             sodipodi:type="star"
             style="fill:#b3b3b3;fill-opacity:1;stroke:none;stroke-width:0;stroke-linecap:round;stroke-miterlimit:4;stroke-dasharray:none;stroke-dashoffset:0;stroke-opacity:1"
             id="path3405"
             sodipodi:sides="3"
             sodipodi:cx="176.02831"
             sodipodi:cy="78.630074"
             sodipodi:r1="4.4287381"
             sodipodi:r2="2.2143688"
             sodipodi:arg1="0.52359878"
             sodipodi:arg2="1.5707963"
             inkscape:flatsided="true"
             inkscape:rounded="0"
             inkscape:randomized="0"
             d="m 179.8637,80.844443 -7.67079,0 3.8354,-6.643108 z"
             inkscape:transform-center-y="-1.1072003" />
          <path
             inkscape:connector-curvature="0"
             id="path3407"
             d="m 174.45299,100.47935 -2.59416,-19.934033 15.56493,0 -3.9595,20.070563 z"
             style="fill:#999999;fill-rule:evenodd;stroke:none;stroke-width:0.0955741px;stroke-linecap:butt;stroke-linejoin:miter;stroke-opacity:1" />
          <g
             id="g3409"
             transform="translate(-17.749475,27.989557)">
            <ellipse
               ry="7.1853695"
               rx="6.3719316"
               cy="60.954681"
               cx="197.22679"
               id="ellipse3411"
               style="opacity:1;fill:#000000;fill-opacity:1;stroke:none;stroke-width:0;stroke-linecap:round;stroke-miterlimit:4;stroke-dasharray:none;stroke-dashoffset:0;stroke-opacity:1" />
            <ellipse
               style="opacity:1;fill:#808080;fill-opacity:1;stroke:none;stroke-width:0;stroke-linecap:round;stroke-miterlimit:4;stroke-dasharray:none;stroke-dashoffset:0;stroke-opacity:1"
               id="ellipse3413"
               cx="197.36707"
               cy="60.796509"
               rx="5.5467496"
               ry="6.2548456" />
            <ellipse
               transform="matrix(0.96592583,0.25881905,-0.25881905,0.96592583,0,0)"
               ry="0.57926655"
               rx="1.4964385"
               cy="8.7748871"
               cx="204.7863"
               id="ellipse3415"
               style="opacity:1;fill:#000000;fill-opacity:1;stroke:none;stroke-width:0;stroke-linecap:round;stroke-miterlimit:4;stroke-dasharray:none;stroke-dashoffset:0;stroke-opacity:1" />
            <ellipse
               style="opacity:1;fill:#000000;fill-opacity:1;stroke:none;stroke-width:0;stroke-linecap:round;stroke-miterlimit:4;stroke-dasharray:none;stroke-dashoffset:0;stroke-opacity:1"
               id="ellipse3417"
               cx="-176.50636"
               cy="110.94195"
               rx="1.4964385"
               ry="0.57926655"
               transform="matrix(-0.96592583,0.25881905,0.25881905,0.96592583,0,0)" />
            <ellipse
               transform="scale(-1,1)"
               ry="0.47929442"
               rx="0.32126734"
               cy="63.210945"
               cx="-197.29942"
               id="ellipse3419"
               style="opacity:1;fill:#000000;fill-opacity:1;stroke:none;stroke-width:0;stroke-linecap:round;stroke-miterlimit:4;stroke-dasharray:none;stroke-dashoffset:0;stroke-opacity:1" />
            <ellipse
               style="opacity:1;fill:#000000;fill-opacity:1;stroke:none;stroke-width:0;stroke-linecap:round;stroke-miterlimit:4;stroke-dasharray:none;stroke-dashoffset:0;stroke-opacity:1"
               id="ellipse3421"
               cx="-197.43217"
               cy="64.719452"
               rx="2.3124959"
               ry="0.39481807"
               transform="scale(-1,1)" />
          </g>
        </g>
      </g>
      <path
         style="fill:#afdde9;fill-rule:evenodd;stroke:none;stroke-width:0.0955741px;stroke-linecap:butt;stroke-linejoin:miter;stroke-opacity:1"
         d="m 193.76915,169.80549 c 5.04627,3.82346 4.69992,7.18428 4.69992,7.18428 0,0 -3.62356,-4.7049 -5.53127,-5.80632 -2.11176,-1.21922 -7.99828,-2.32708 -7.99828,-2.32708 0,0 2.60711,-2.39946 8.82963,0.94912 z"
         id="path3352"
         inkscape:connector-curvature="0"
         sodipodi:nodetypes="ccscc" />
      <path
         sodipodi:nodetypes="ccscc"
         inkscape:connector-curvature="0"
         id="path3354"
         d="m 194.65901,177.19139 c 5.04628,3.82347 4.69992,7.18429 4.69992,7.18429 0,0 -3.62355,-4.70492 -5.53127,-5.80631 -2.11176,-1.21923 -7.99827,-2.32709 -7.99827,-2.32709 0,0 2.6071,-2.39946 8.82962,0.94911 z"
         style="fill:#afdde9;fill-rule:evenodd;stroke:none;stroke-width:0.0955741px;stroke-linecap:butt;stroke-linejoin:miter;stroke-opacity:1" />
      <rect
         style="fill:#000000"
         id="rect3377"
         width="2.3940492"
         height="9.5653009"
         x="91.893326"
         y="200.86255"
         rx="0.41820234"
         ry="0.07399632"
         transform="matrix(0.98100438,-0.19398558,0.34128397,0.93996024,0,0)" />
      <rect
         transform="matrix(0.98100438,0.19398558,0.34128397,-0.93996024,0,0)"
         ry="0.07399632"
         rx="0.41820234"
         y="-138.01045"
         x="209.78468"
         height="9.5653009"
         width="2.3940492"
         id="rect3379"
         style="fill:#000000" />
      <rect
         style="fill:#ff0000"
         id="rect3381"
         width="0.86290675"
         height="4.4763288"
         x="68.056808"
         y="218.2256"
         rx="0.15073611"
         ry="0.034628477"
         transform="matrix(-0.5,0.8660254,0.8660254,0.5,0,0)" />
      <rect
         transform="matrix(-0.5,-0.8660254,0.8660254,-0.5,0,0)"
         ry="0.034628477"
         rx="0.15073611"
         y="47.27932"
         x="-228.03087"
         height="4.4763288"
         width="0.86290675"
         id="rect3383"
         style="fill:#ff0000" />
      <rect
         transform="matrix(-0.5,0.8660254,0.8660254,0.5,0,0)"
         ry="0.016961206"
         rx="0.073831312"
         y="220.68523"
         x="68.386032"
         height="2.1925287"
         width="0.42265615"
         id="rect3385"
         style="fill:#000000" />
      <rect
         style="fill:#000000"
         id="rect3387"
         width="0.42265615"
         height="2.1925287"
         x="-227.76308"
         y="49.703468"
         rx="0.073831312"
         ry="0.016961206"
         transform="matrix(-0.5,-0.8660254,0.8660254,-0.5,0,0)" />
      <ellipse
         style="fill:#ff0000"
         id="path3389"
         cx="231.32504"
         cy="7.5609155"
         rx="0.64484322"
         ry="0.23831163"
         transform="matrix(0.70710678,0.70710678,-0.70710678,0.70710678,0,0)" />
      <ellipse
         transform="matrix(0.70710678,-0.70710678,-0.70710678,-0.70710678,0,0)"
         ry="0.23831163"
         rx="0.64484322"
         cy="-233.92212"
         cx="-9.9993792"
         id="ellipse3391"
         style="fill:#ff0000" />
      <ellipse
         style="fill:#ff0000"
         id="ellipse3393"
         cx="156.20648"
         cy="-170.79634"
         rx="0.64484322"
         ry="0.23831163"
         transform="scale(1,-1)" />
    </g>
  </g>
</svg>
